<svg xmlns="http://www.w3.org/2000/svg" xmlns:svg="http://www.w3.org/2000/svg" id="svg2" width="160mm" height="90mm" stroke-linejoin="round" stroke-width="28.222" version="1.1" viewBox="0 0 16000 9000" xml:space="preserve"><metadata id="metadata594"/><path id="path4" d="M 5351.1858,6018.4151 0,6018.4151 0,-1 l 10701.703,0 0,6019.4151 -5350.5172,0 z" style="fill:#fff;stroke:none"/><path id="path6" d="m 4490.3138,5087.3088 -3488.9732,0 0,-3860.8806 6977.9464,0 0,3860.8806 -3488.9732,0 z" style="fill:none;stroke:#b3b3b3;stroke-width:18.87764549;stroke-linejoin:round"/><path id="path8" d="m 7979.287,5086.6399 -6977.9464,0" style="fill:none;stroke:#b3b3b3;stroke-width:18.87764549;stroke-linejoin:round"/><path id="path10" d="m 7979.287,4442.4909 -6977.9464,0" style="fill:none;stroke:#b3b3b3;stroke-width:18.87764549;stroke-linejoin:round"/><path id="path12" d="m 7979.287,3799.0108 -6977.9464,0" style="fill:none;stroke:#b3b3b3;stroke-width:18.87764549;stroke-linejoin:round"/><path id="path14" d="m 7979.287,3155.5307 -6977.9464,0" style="fill:none;stroke:#b3b3b3;stroke-width:18.87764549;stroke-linejoin:round"/><path id="path16" d="m 7979.287,2512.7195 -6977.9464,0" style="fill:none;stroke:#b3b3b3;stroke-width:18.87764549;stroke-linejoin:round"/><path id="path18" d="m 7979.287,1869.2394 -6977.9464,0" style="fill:none;stroke:#b3b3b3;stroke-width:18.87764549;stroke-linejoin:round"/><path id="path20" d="m 7979.287,1225.0905 -6977.9464,0" style="fill:none;stroke:#b3b3b3;stroke-width:18.87764549;stroke-linejoin:round"/><path id="path22" d="m 1001.3406,5186.9747 0,-100.3348" style="fill:none;stroke:#b3b3b3;stroke-width:18.87764549;stroke-linejoin:round"/><path id="path24" d="m 1001.3406,5186.9747 0,-100.3348" style="fill:none;stroke:#b3b3b3;stroke-width:18.87764549;stroke-linejoin:round"/><path id="path26" d="m 1102.3443,5186.9747 0,-100.3348" style="fill:none;stroke:#b3b3b3;stroke-width:18.87764549;stroke-linejoin:round"/><path id="path28" d="m 1102.3443,5186.9747 0,-100.3348" style="fill:none;stroke:#b3b3b3;stroke-width:18.87764549;stroke-linejoin:round"/><path id="path30" d="m 1203.3479,5186.9747 0,-100.3348" style="fill:none;stroke:#b3b3b3;stroke-width:18.87764549;stroke-linejoin:round"/><path id="path32" d="m 1203.3479,5186.9747 0,-100.3348" style="fill:none;stroke:#b3b3b3;stroke-width:18.87764549;stroke-linejoin:round"/><path id="path34" d="m 1304.3515,5186.9747 0,-100.3348" style="fill:none;stroke:#b3b3b3;stroke-width:18.87764549;stroke-linejoin:round"/><path id="path36" d="m 1304.3515,5186.9747 0,-100.3348" style="fill:none;stroke:#b3b3b3;stroke-width:18.87764549;stroke-linejoin:round"/><path id="path38" d="m 1405.3552,5186.9747 0,-100.3348" style="fill:none;stroke:#b3b3b3;stroke-width:18.87764549;stroke-linejoin:round"/><path id="path40" d="m 1405.3552,5186.9747 0,-100.3348" style="fill:none;stroke:#b3b3b3;stroke-width:18.87764549;stroke-linejoin:round"/><path id="path42" d="m 1507.0277,5186.9747 0,-100.3348" style="fill:none;stroke:#b3b3b3;stroke-width:18.87764549;stroke-linejoin:round"/><path id="path44" d="m 1507.0277,5186.9747 0,-100.3348" style="fill:none;stroke:#b3b3b3;stroke-width:18.87764549;stroke-linejoin:round"/><path id="path46" d="m 1608.0313,5186.9747 0,-100.3348" style="fill:none;stroke:#b3b3b3;stroke-width:18.87764549;stroke-linejoin:round"/><path id="path48" d="m 1608.0313,5186.9747 0,-100.3348" style="fill:none;stroke:#b3b3b3;stroke-width:18.87764549;stroke-linejoin:round"/><path id="path50" d="m 1709.035,5186.9747 0,-100.3348" style="fill:none;stroke:#b3b3b3;stroke-width:18.87764549;stroke-linejoin:round"/><path id="path52" d="m 1709.035,5186.9747 0,-100.3348" style="fill:none;stroke:#b3b3b3;stroke-width:18.87764549;stroke-linejoin:round"/><path id="path54" d="m 1810.0386,5186.9747 0,-100.3348" style="fill:none;stroke:#b3b3b3;stroke-width:18.87764549;stroke-linejoin:round"/><path id="path56" d="m 1810.0386,5186.9747 0,-100.3348" style="fill:none;stroke:#b3b3b3;stroke-width:18.87764549;stroke-linejoin:round"/><path id="path58" d="m 1911.0422,5186.9747 0,-100.3348" style="fill:none;stroke:#b3b3b3;stroke-width:18.87764549;stroke-linejoin:round"/><path id="path60" d="m 1911.0422,5186.9747 0,-100.3348" style="fill:none;stroke:#b3b3b3;stroke-width:18.87764549;stroke-linejoin:round"/><path id="path62" d="m 2012.7148,5186.9747 0,-100.3348" style="fill:none;stroke:#b3b3b3;stroke-width:18.87764549;stroke-linejoin:round"/><path id="path64" d="m 2012.7148,5186.9747 0,-100.3348" style="fill:none;stroke:#b3b3b3;stroke-width:18.87764549;stroke-linejoin:round"/><path id="path66" d="m 2113.7184,5186.9747 0,-100.3348" style="fill:none;stroke:#b3b3b3;stroke-width:18.87764549;stroke-linejoin:round"/><path id="path68" d="m 2113.7184,5186.9747 0,-100.3348" style="fill:none;stroke:#b3b3b3;stroke-width:18.87764549;stroke-linejoin:round"/><path id="path70" d="m 2214.722,5186.9747 0,-100.3348" style="fill:none;stroke:#b3b3b3;stroke-width:18.87764549;stroke-linejoin:round"/><path id="path72" d="m 2214.722,5186.9747 0,-100.3348" style="fill:none;stroke:#b3b3b3;stroke-width:18.87764549;stroke-linejoin:round"/><path id="path74" d="m 2315.7257,5186.9747 0,-100.3348" style="fill:none;stroke:#b3b3b3;stroke-width:18.87764549;stroke-linejoin:round"/><path id="path76" d="m 2315.7257,5186.9747 0,-100.3348" style="fill:none;stroke:#b3b3b3;stroke-width:18.87764549;stroke-linejoin:round"/><path id="path78" d="m 2416.7293,5186.9747 0,-100.3348" style="fill:none;stroke:#b3b3b3;stroke-width:18.87764549;stroke-linejoin:round"/><path id="path80" d="m 2416.7293,5186.9747 0,-100.3348" style="fill:none;stroke:#b3b3b3;stroke-width:18.87764549;stroke-linejoin:round"/><path id="path82" d="m 2518.4018,5186.9747 0,-100.3348" style="fill:none;stroke:#b3b3b3;stroke-width:18.87764549;stroke-linejoin:round"/><path id="path84" d="m 2518.4018,5186.9747 0,-100.3348" style="fill:none;stroke:#b3b3b3;stroke-width:18.87764549;stroke-linejoin:round"/><path id="path86" d="m 2619.4055,5186.9747 0,-100.3348" style="fill:none;stroke:#b3b3b3;stroke-width:18.87764549;stroke-linejoin:round"/><path id="path88" d="m 2619.4055,5186.9747 0,-100.3348" style="fill:none;stroke:#b3b3b3;stroke-width:18.87764549;stroke-linejoin:round"/><path id="path90" d="m 2720.4091,5186.9747 0,-100.3348" style="fill:none;stroke:#b3b3b3;stroke-width:18.87764549;stroke-linejoin:round"/><path id="path92" d="m 2720.4091,5186.9747 0,-100.3348" style="fill:none;stroke:#b3b3b3;stroke-width:18.87764549;stroke-linejoin:round"/><path id="path94" d="m 2821.4127,5186.9747 0,-100.3348" style="fill:none;stroke:#b3b3b3;stroke-width:18.87764549;stroke-linejoin:round"/><path id="path96" d="m 2821.4127,5186.9747 0,-100.3348" style="fill:none;stroke:#b3b3b3;stroke-width:18.87764549;stroke-linejoin:round"/><path id="path98" d="m 2922.4164,5186.9747 0,-100.3348" style="fill:none;stroke:#b3b3b3;stroke-width:18.87764549;stroke-linejoin:round"/><path id="path100" d="m 2922.4164,5186.9747 0,-100.3348" style="fill:none;stroke:#b3b3b3;stroke-width:18.87764549;stroke-linejoin:round"/><path id="path102" d="m 3024.0889,5186.9747 0,-100.3348" style="fill:none;stroke:#b3b3b3;stroke-width:18.87764549;stroke-linejoin:round"/><path id="path104" d="m 3024.0889,5186.9747 0,-100.3348" style="fill:none;stroke:#b3b3b3;stroke-width:18.87764549;stroke-linejoin:round"/><path id="path106" d="m 3125.0925,5186.9747 0,-100.3348" style="fill:none;stroke:#b3b3b3;stroke-width:18.87764549;stroke-linejoin:round"/><path id="path108" d="m 3125.0925,5186.9747 0,-100.3348" style="fill:none;stroke:#b3b3b3;stroke-width:18.87764549;stroke-linejoin:round"/><path id="path110" d="m 3226.0962,5186.9747 0,-100.3348" style="fill:none;stroke:#b3b3b3;stroke-width:18.87764549;stroke-linejoin:round"/><path id="path112" d="m 3226.0962,5186.9747 0,-100.3348" style="fill:none;stroke:#b3b3b3;stroke-width:18.87764549;stroke-linejoin:round"/><path id="path114" d="m 3327.0998,5186.9747 0,-100.3348" style="fill:none;stroke:#b3b3b3;stroke-width:18.87764549;stroke-linejoin:round"/><path id="path116" d="m 3327.0998,5186.9747 0,-100.3348" style="fill:none;stroke:#b3b3b3;stroke-width:18.87764549;stroke-linejoin:round"/><path id="path118" d="m 3428.1034,5186.9747 0,-100.3348" style="fill:none;stroke:#b3b3b3;stroke-width:18.87764549;stroke-linejoin:round"/><path id="path120" d="m 3428.1034,5186.9747 0,-100.3348" style="fill:none;stroke:#b3b3b3;stroke-width:18.87764549;stroke-linejoin:round"/><path id="path122" d="m 3529.7759,5186.9747 0,-100.3348" style="fill:none;stroke:#b3b3b3;stroke-width:18.87764549;stroke-linejoin:round"/><path id="path124" d="m 3529.7759,5186.9747 0,-100.3348" style="fill:none;stroke:#b3b3b3;stroke-width:18.87764549;stroke-linejoin:round"/><path id="path126" d="m 3630.7796,5186.9747 0,-100.3348" style="fill:none;stroke:#b3b3b3;stroke-width:18.87764549;stroke-linejoin:round"/><path id="path128" d="m 3630.7796,5186.9747 0,-100.3348" style="fill:none;stroke:#b3b3b3;stroke-width:18.87764549;stroke-linejoin:round"/><path id="path130" d="m 3731.7832,5186.9747 0,-100.3348" style="fill:none;stroke:#b3b3b3;stroke-width:18.87764549;stroke-linejoin:round"/><path id="path132" d="m 3731.7832,5186.9747 0,-100.3348" style="fill:none;stroke:#b3b3b3;stroke-width:18.87764549;stroke-linejoin:round"/><path id="path134" d="m 3832.7868,5186.9747 0,-100.3348" style="fill:none;stroke:#b3b3b3;stroke-width:18.87764549;stroke-linejoin:round"/><path id="path136" d="m 3832.7868,5186.9747 0,-100.3348" style="fill:none;stroke:#b3b3b3;stroke-width:18.87764549;stroke-linejoin:round"/><path id="path138" d="m 3933.7905,5186.9747 0,-100.3348" style="fill:none;stroke:#b3b3b3;stroke-width:18.87764549;stroke-linejoin:round"/><path id="path140" d="m 3933.7905,5186.9747 0,-100.3348" style="fill:none;stroke:#b3b3b3;stroke-width:18.87764549;stroke-linejoin:round"/><path id="path142" d="m 4035.463,5186.9747 0,-100.3348" style="fill:none;stroke:#b3b3b3;stroke-width:18.87764549;stroke-linejoin:round"/><path id="path144" d="m 4035.463,5186.9747 0,-100.3348" style="fill:none;stroke:#b3b3b3;stroke-width:18.87764549;stroke-linejoin:round"/><path id="path146" d="m 4136.4666,5186.9747 0,-100.3348" style="fill:none;stroke:#b3b3b3;stroke-width:18.87764549;stroke-linejoin:round"/><path id="path148" d="m 4136.4666,5186.9747 0,-100.3348" style="fill:none;stroke:#b3b3b3;stroke-width:18.87764549;stroke-linejoin:round"/><path id="path150" d="m 4237.4703,5186.9747 0,-100.3348" style="fill:none;stroke:#b3b3b3;stroke-width:18.87764549;stroke-linejoin:round"/><path id="path152" d="m 4237.4703,5186.9747 0,-100.3348" style="fill:none;stroke:#b3b3b3;stroke-width:18.87764549;stroke-linejoin:round"/><path id="path154" d="m 4338.4739,5186.9747 0,-100.3348" style="fill:none;stroke:#b3b3b3;stroke-width:18.87764549;stroke-linejoin:round"/><path id="path156" d="m 4338.4739,5186.9747 0,-100.3348" style="fill:none;stroke:#b3b3b3;stroke-width:18.87764549;stroke-linejoin:round"/><path id="path158" d="m 4439.4775,5186.9747 0,-100.3348" style="fill:none;stroke:#b3b3b3;stroke-width:18.87764549;stroke-linejoin:round"/><path id="path160" d="m 4439.4775,5186.9747 0,-100.3348" style="fill:none;stroke:#b3b3b3;stroke-width:18.87764549;stroke-linejoin:round"/><path id="path162" d="m 4541.1501,5186.9747 0,-100.3348" style="fill:none;stroke:#b3b3b3;stroke-width:18.87764549;stroke-linejoin:round"/><path id="path164" d="m 4541.1501,5186.9747 0,-100.3348" style="fill:none;stroke:#b3b3b3;stroke-width:18.87764549;stroke-linejoin:round"/><path id="path166" d="m 4642.1537,5186.9747 0,-100.3348" style="fill:none;stroke:#b3b3b3;stroke-width:18.87764549;stroke-linejoin:round"/><path id="path168" d="m 4642.1537,5186.9747 0,-100.3348" style="fill:none;stroke:#b3b3b3;stroke-width:18.87764549;stroke-linejoin:round"/><path id="path170" d="m 4743.1573,5186.9747 0,-100.3348" style="fill:none;stroke:#b3b3b3;stroke-width:18.87764549;stroke-linejoin:round"/><path id="path172" d="m 4743.1573,5186.9747 0,-100.3348" style="fill:none;stroke:#b3b3b3;stroke-width:18.87764549;stroke-linejoin:round"/><path id="path174" d="m 4844.161,5186.9747 0,-100.3348" style="fill:none;stroke:#b3b3b3;stroke-width:18.87764549;stroke-linejoin:round"/><path id="path176" d="m 4844.161,5186.9747 0,-100.3348" style="fill:none;stroke:#b3b3b3;stroke-width:18.87764549;stroke-linejoin:round"/><path id="path178" d="m 4945.1646,5186.9747 0,-100.3348" style="fill:none;stroke:#b3b3b3;stroke-width:18.87764549;stroke-linejoin:round"/><path id="path180" d="m 4945.1646,5186.9747 0,-100.3348" style="fill:none;stroke:#b3b3b3;stroke-width:18.87764549;stroke-linejoin:round"/><path id="path182" d="m 5046.8371,5186.9747 0,-100.3348" style="fill:none;stroke:#b3b3b3;stroke-width:18.87764549;stroke-linejoin:round"/><path id="path184" d="m 5046.8371,5186.9747 0,-100.3348" style="fill:none;stroke:#b3b3b3;stroke-width:18.87764549;stroke-linejoin:round"/><path id="path186" d="m 5147.8408,5186.9747 0,-100.3348" style="fill:none;stroke:#b3b3b3;stroke-width:18.87764549;stroke-linejoin:round"/><path id="path188" d="m 5147.8408,5186.9747 0,-100.3348" style="fill:none;stroke:#b3b3b3;stroke-width:18.87764549;stroke-linejoin:round"/><path id="path190" d="m 5248.8444,5186.9747 0,-100.3348" style="fill:none;stroke:#b3b3b3;stroke-width:18.87764549;stroke-linejoin:round"/><path id="path192" d="m 5248.8444,5186.9747 0,-100.3348" style="fill:none;stroke:#b3b3b3;stroke-width:18.87764549;stroke-linejoin:round"/><path id="path194" d="m 5349.848,5186.9747 0,-100.3348" style="fill:none;stroke:#b3b3b3;stroke-width:18.87764549;stroke-linejoin:round"/><path id="path196" d="m 5349.848,5186.9747 0,-100.3348" style="fill:none;stroke:#b3b3b3;stroke-width:18.87764549;stroke-linejoin:round"/><path id="path198" d="m 5450.1828,5186.9747 0,-100.3348" style="fill:none;stroke:#b3b3b3;stroke-width:18.87764549;stroke-linejoin:round"/><path id="path200" d="m 5450.1828,5186.9747 0,-100.3348" style="fill:none;stroke:#b3b3b3;stroke-width:18.87764549;stroke-linejoin:round"/><path id="path202" d="m 5551.8553,5186.9747 0,-100.3348" style="fill:none;stroke:#b3b3b3;stroke-width:18.87764549;stroke-linejoin:round"/><path id="path204" d="m 5551.8553,5186.9747 0,-100.3348" style="fill:none;stroke:#b3b3b3;stroke-width:18.87764549;stroke-linejoin:round"/><path id="path206" d="m 5652.8589,5186.9747 0,-100.3348" style="fill:none;stroke:#b3b3b3;stroke-width:18.87764549;stroke-linejoin:round"/><path id="path208" d="m 5652.8589,5186.9747 0,-100.3348" style="fill:none;stroke:#b3b3b3;stroke-width:18.87764549;stroke-linejoin:round"/><path id="path210" d="m 5753.8626,5186.9747 0,-100.3348" style="fill:none;stroke:#b3b3b3;stroke-width:18.87764549;stroke-linejoin:round"/><path id="path212" d="m 5753.8626,5186.9747 0,-100.3348" style="fill:none;stroke:#b3b3b3;stroke-width:18.87764549;stroke-linejoin:round"/><path id="path214" d="m 5854.8662,5186.9747 0,-100.3348" style="fill:none;stroke:#b3b3b3;stroke-width:18.87764549;stroke-linejoin:round"/><path id="path216" d="m 5854.8662,5186.9747 0,-100.3348" style="fill:none;stroke:#b3b3b3;stroke-width:18.87764549;stroke-linejoin:round"/><path id="path218" d="m 5955.8698,5186.9747 0,-100.3348" style="fill:none;stroke:#b3b3b3;stroke-width:18.87764549;stroke-linejoin:round"/><path id="path220" d="m 5955.8698,5186.9747 0,-100.3348" style="fill:none;stroke:#b3b3b3;stroke-width:18.87764549;stroke-linejoin:round"/><path id="path222" d="m 6057.5423,5186.9747 0,-100.3348" style="fill:none;stroke:#b3b3b3;stroke-width:18.87764549;stroke-linejoin:round"/><path id="path224" d="m 6057.5423,5186.9747 0,-100.3348" style="fill:none;stroke:#b3b3b3;stroke-width:18.87764549;stroke-linejoin:round"/><path id="path226" d="m 6158.546,5186.9747 0,-100.3348" style="fill:none;stroke:#b3b3b3;stroke-width:18.87764549;stroke-linejoin:round"/><path id="path228" d="m 6158.546,5186.9747 0,-100.3348" style="fill:none;stroke:#b3b3b3;stroke-width:18.87764549;stroke-linejoin:round"/><path id="path230" d="m 6259.5496,5186.9747 0,-100.3348" style="fill:none;stroke:#b3b3b3;stroke-width:18.87764549;stroke-linejoin:round"/><path id="path232" d="m 6259.5496,5186.9747 0,-100.3348" style="fill:none;stroke:#b3b3b3;stroke-width:18.87764549;stroke-linejoin:round"/><path id="path234" d="m 6360.5532,5186.9747 0,-100.3348" style="fill:none;stroke:#b3b3b3;stroke-width:18.87764549;stroke-linejoin:round"/><path id="path236" d="m 6360.5532,5186.9747 0,-100.3348" style="fill:none;stroke:#b3b3b3;stroke-width:18.87764549;stroke-linejoin:round"/><path id="path238" d="m 6461.5569,5186.9747 0,-100.3348" style="fill:none;stroke:#b3b3b3;stroke-width:18.87764549;stroke-linejoin:round"/><path id="path240" d="m 6461.5569,5186.9747 0,-100.3348" style="fill:none;stroke:#b3b3b3;stroke-width:18.87764549;stroke-linejoin:round"/><path id="path242" d="m 6563.2294,5186.9747 0,-100.3348" style="fill:none;stroke:#b3b3b3;stroke-width:18.87764549;stroke-linejoin:round"/><path id="path244" d="m 6563.2294,5186.9747 0,-100.3348" style="fill:none;stroke:#b3b3b3;stroke-width:18.87764549;stroke-linejoin:round"/><path id="path246" d="m 6664.233,5186.9747 0,-100.3348" style="fill:none;stroke:#b3b3b3;stroke-width:18.87764549;stroke-linejoin:round"/><path id="path248" d="m 6664.233,5186.9747 0,-100.3348" style="fill:none;stroke:#b3b3b3;stroke-width:18.87764549;stroke-linejoin:round"/><path id="path250" d="m 6765.2367,5186.9747 0,-100.3348" style="fill:none;stroke:#b3b3b3;stroke-width:18.87764549;stroke-linejoin:round"/><path id="path252" d="m 6765.2367,5186.9747 0,-100.3348" style="fill:none;stroke:#b3b3b3;stroke-width:18.87764549;stroke-linejoin:round"/><path id="path254" d="m 6866.2403,5186.9747 0,-100.3348" style="fill:none;stroke:#b3b3b3;stroke-width:18.87764549;stroke-linejoin:round"/><path id="path256" d="m 6866.2403,5186.9747 0,-100.3348" style="fill:none;stroke:#b3b3b3;stroke-width:18.87764549;stroke-linejoin:round"/><path id="path258" d="m 6967.2439,5186.9747 0,-100.3348" style="fill:none;stroke:#b3b3b3;stroke-width:18.87764549;stroke-linejoin:round"/><path id="path260" d="m 6967.2439,5186.9747 0,-100.3348" style="fill:none;stroke:#b3b3b3;stroke-width:18.87764549;stroke-linejoin:round"/><path id="path262" d="m 7068.9165,5186.9747 0,-100.3348" style="fill:none;stroke:#b3b3b3;stroke-width:18.87764549;stroke-linejoin:round"/><path id="path264" d="m 7068.9165,5186.9747 0,-100.3348" style="fill:none;stroke:#b3b3b3;stroke-width:18.87764549;stroke-linejoin:round"/><path id="path266" d="m 7169.9201,5186.9747 0,-100.3348" style="fill:none;stroke:#b3b3b3;stroke-width:18.87764549;stroke-linejoin:round"/><path id="path268" d="m 7169.9201,5186.9747 0,-100.3348" style="fill:none;stroke:#b3b3b3;stroke-width:18.87764549;stroke-linejoin:round"/><path id="path270" d="m 7270.9237,5186.9747 0,-100.3348" style="fill:none;stroke:#b3b3b3;stroke-width:18.87764549;stroke-linejoin:round"/><path id="path272" d="m 7270.9237,5186.9747 0,-100.3348" style="fill:none;stroke:#b3b3b3;stroke-width:18.87764549;stroke-linejoin:round"/><path id="path274" d="m 7371.9274,5186.9747 0,-100.3348" style="fill:none;stroke:#b3b3b3;stroke-width:18.87764549;stroke-linejoin:round"/><path id="path276" d="m 7371.9274,5186.9747 0,-100.3348" style="fill:none;stroke:#b3b3b3;stroke-width:18.87764549;stroke-linejoin:round"/><path id="path278" d="m 7472.931,5186.9747 0,-100.3348" style="fill:none;stroke:#b3b3b3;stroke-width:18.87764549;stroke-linejoin:round"/><path id="path280" d="m 7472.931,5186.9747 0,-100.3348" style="fill:none;stroke:#b3b3b3;stroke-width:18.87764549;stroke-linejoin:round"/><path id="path282" d="m 7574.6035,5186.9747 0,-100.3348" style="fill:none;stroke:#b3b3b3;stroke-width:18.87764549;stroke-linejoin:round"/><path id="path284" d="m 7574.6035,5186.9747 0,-100.3348" style="fill:none;stroke:#b3b3b3;stroke-width:18.87764549;stroke-linejoin:round"/><path id="path286" d="m 7675.6072,5186.9747 0,-100.3348" style="fill:none;stroke:#b3b3b3;stroke-width:18.87764549;stroke-linejoin:round"/><path id="path288" d="m 7675.6072,5186.9747 0,-100.3348" style="fill:none;stroke:#b3b3b3;stroke-width:18.87764549;stroke-linejoin:round"/><path id="path290" d="m 7776.6108,5186.9747 0,-100.3348" style="fill:none;stroke:#b3b3b3;stroke-width:18.87764549;stroke-linejoin:round"/><path id="path292" d="m 7776.6108,5186.9747 0,-100.3348" style="fill:none;stroke:#b3b3b3;stroke-width:18.87764549;stroke-linejoin:round"/><path id="path294" d="m 7877.6144,5186.9747 0,-100.3348" style="fill:none;stroke:#b3b3b3;stroke-width:18.87764549;stroke-linejoin:round"/><path id="path296" d="m 7877.6144,5186.9747 0,-100.3348" style="fill:none;stroke:#b3b3b3;stroke-width:18.87764549;stroke-linejoin:round"/><path id="path298" d="m 7979.287,5186.9747 0,-100.3348" style="fill:none;stroke:#b3b3b3;stroke-width:18.87764549;stroke-linejoin:round"/><path id="path300" d="m 7979.287,5186.9747 0,-100.3348" style="fill:none;stroke:#b3b3b3;stroke-width:18.87764549;stroke-linejoin:round"/><path id="path302" d="m 1001.3406,5086.6399 6977.9464,0" style="fill:none;stroke:#b3b3b3;stroke-width:18.87764549;stroke-linejoin:round"/><path id="path304" d="m 901.00591,5086.6399 100.33469,0" style="fill:none;stroke:#b3b3b3;stroke-width:18.87764549;stroke-linejoin:round"/><path id="path306" d="m 901.00591,5086.6399 100.33469,0" style="fill:none;stroke:#b3b3b3;stroke-width:18.87764549;stroke-linejoin:round"/><path id="path308" d="m 901.00591,4442.4909 100.33469,0" style="fill:none;stroke:#b3b3b3;stroke-width:18.87764549;stroke-linejoin:round"/><path id="path310" d="m 901.00591,4442.4909 100.33469,0" style="fill:none;stroke:#b3b3b3;stroke-width:18.87764549;stroke-linejoin:round"/><path id="path312" d="m 901.00591,3799.0108 100.33469,0" style="fill:none;stroke:#b3b3b3;stroke-width:18.87764549;stroke-linejoin:round"/><path id="path314" d="m 901.00591,3799.0108 100.33469,0" style="fill:none;stroke:#b3b3b3;stroke-width:18.87764549;stroke-linejoin:round"/><path id="path316" d="m 901.00591,3155.5307 100.33469,0" style="fill:none;stroke:#b3b3b3;stroke-width:18.87764549;stroke-linejoin:round"/><path id="path318" d="m 901.00591,3155.5307 100.33469,0" style="fill:none;stroke:#b3b3b3;stroke-width:18.87764549;stroke-linejoin:round"/><path id="path320" d="m 901.00591,2512.7195 100.33469,0" style="fill:none;stroke:#b3b3b3;stroke-width:18.87764549;stroke-linejoin:round"/><path id="path322" d="m 901.00591,2512.7195 100.33469,0" style="fill:none;stroke:#b3b3b3;stroke-width:18.87764549;stroke-linejoin:round"/><path id="path324" d="m 901.00591,1869.2394 100.33469,0" style="fill:none;stroke:#b3b3b3;stroke-width:18.87764549;stroke-linejoin:round"/><path id="path326" d="m 901.00591,1869.2394 100.33469,0" style="fill:none;stroke:#b3b3b3;stroke-width:18.87764549;stroke-linejoin:round"/><path id="path328" d="m 901.00591,1225.0905 100.33469,0" style="fill:none;stroke:#b3b3b3;stroke-width:18.87764549;stroke-linejoin:round"/><path id="path330" d="m 901.00591,1225.0905 100.33469,0" style="fill:none;stroke:#b3b3b3;stroke-width:18.87764549;stroke-linejoin:round"/><path id="path332" d="m 1001.3406,5086.6399 0,-3861.5494" style="fill:none;stroke:#b3b3b3;stroke-width:18.87764549;stroke-linejoin:round"/><path id="path334" d="m 1001.3406,1869.2394 101.0037,0 101.0036,0 101.0036,0 101.0037,877.5945 101.6725,500.3359 101.0036,325.0845 101.0037,226.7565 101.0036,167.8935 101.0036,129.0973 101.6726,102.3415 101.0036,83.6123 101.0036,68.8965 101.0037,58.1941 101.0036,49.4985 101.6725,42.8095 101.0037,37.4583 101.0036,32.776 101.0036,28.7626 101.0037,26.087 101.6725,23.4115 101.0036,21.4047 101.0037,18.7292 101.0036,18.0602 101.0036,15.3847 101.6725,14.7157 101.0037,14.0469 101.0036,12.0402 101.0036,12.0401 101.0037,10.7024 101.6725,10.0335 101.0036,9.3646 101.0037,8.6956 101.0036,8.6957 101.0036,7.3579 101.6726,7.3579 101.0036,7.3579 101.0036,6.6889 101.0037,6.0201 101.0036,6.0201 101.6725,5.3512 101.0037,5.3512 101.0036,5.3512 101.0036,4.6823 100.3348,4.6822 101.6725,4.0134 101.0036,4.6823 101.0037,4.0134 101.0036,3.3445 101.0036,4.0134 101.6725,3.3445 101.0037,3.3445 101.0036,3.3445 101.0036,3.3445 101.0037,2.6755 101.6725,3.3445 101.0036,2.6756 101.0037,2.6756 101.0036,2.6756 101.0036,2.6756 101.6726,2.0067 101.0036,2.6756 101.0036,2.0067 101.0037,2.6756 101.0036,2.0067 101.6725,0 101.0037,0 101.0036,0 101.0036,0 101.6726,0" style="fill:none;stroke:#004586;stroke-width:53.51185989;stroke-linejoin:round"/><path id="path336" d="m 1001.3406,1869.2394 101.0037,0 101.0036,0 101.0036,0 101.0037,0 101.6725,0 101.0036,0 101.0037,0 101.0036,507.6938 101.0036,369.9007 101.6726,280.2684 101.0036,220.0675 101.0036,177.9269 101.0037,147.1576 101.0036,122.4084 101.6725,104.3481 101.0037,89.6324 101.0036,78.2611 101.0036,68.8965 101.0037,60.2008 101.6725,54.1808 101.0036,48.1607 101.0037,44.1473 101.0036,39.465 101.0036,36.1205 101.6725,32.776 101.0037,30.1004 101.0036,28.0937 101.0036,25.4181 101.0037,24.0804 101.6725,22.0736 101.0036,20.7359 101.0037,19.398 101.0036,18.0603 101.0036,16.7224 101.6726,16.0536 101.0036,14.7157 101.0036,14.0469 101.0037,13.378 101.0036,12.709 101.6725,12.0402 101.0037,11.3713 101.0036,10.7023 101.0036,10.7024 100.3348,9.3646 101.6725,9.3646 101.0036,9.3645 101.0037,8.6957 101.0036,8.0268 101.0036,7.3579 101.6725,8.0268 101.0037,6.6889 101.0036,7.3579 101.0036,6.689 101.0037,6.0201 101.6725,6.0201 101.0036,6.0201 101.0037,6.02 101.0036,5.3512 101.0036,5.3512 101.6726,5.3512 101.0036,4.6823 101.0036,4.6823 101.0037,4.6823 101.0036,4.6822 101.6725,0 101.0037,0 101.0036,0 101.0036,0 101.6726,0" style="fill:none;stroke:#ff420e;stroke-width:53.51185989;stroke-linejoin:round"/><path id="path338" d="m 1001.3406,1869.2394 101.0037,0 101.0036,0 101.0036,0 101.0037,0 101.6725,0 101.0036,0 101.0037,0 101.0036,0 101.0036,0 101.6726,0 101.0036,0 101.0036,357.1917 101.0037,286.2884 101.0036,234.1144 101.6725,194.6494 101.0037,164.549 101.0036,141.1375 101.0036,123.0773 101.0037,107.0237 101.6725,94.9835 101.0036,83.6123 101.0037,75.5855 101.0036,67.5587 101.0036,61.5387 101.6725,55.5185 101.0037,50.8363 101.0036,46.8229 101.0036,42.8094 101.0037,39.465 101.6725,36.7894 101.0036,34.1139 101.0037,31.4382 101.0036,30.1004 101.0036,27.4248 101.6726,26.0871 101.0036,24.0803 101.0036,23.4114 101.0037,21.4048 101.0036,20.0669 101.6725,19.3981 101.0037,18.7291 101.0036,17.3914 101.0036,16.0535 100.3348,16.0536 101.6725,14.7157 101.0036,14.0469 101.0037,14.0469 101.0036,12.709 101.0036,12.7091 101.6725,12.0402 101.0037,11.3712 101.0036,10.7024 101.0036,10.7024 101.0037,10.0335 101.6725,9.3645 101.0036,9.3646 101.0037,9.3646 101.0036,8.6957 101.0036,8.0267 101.6726,8.0268 101.0036,8.0268 101.0036,7.3579 101.0037,7.3579 101.0036,7.3578 101.6725,0 101.0037,0 101.0036,0 101.0036,0 101.6726,0" style="fill:none;stroke:#ffd320;stroke-width:53.51185989;stroke-linejoin:round"/><path id="path340" d="m 1001.3406,1869.2394 101.0037,0 101.0036,0 101.0036,0 101.0037,0 101.6725,0 101.0036,0 101.0037,0 101.0036,0 101.0036,0 101.6726,0 101.0036,0 101.0036,0 101.0037,0 101.0036,0 101.6725,0 101.0037,275.5861 101.0036,232.1077 101.0036,198.6628 101.0037,171.2379 101.6725,149.1643 101.0036,131.1041 101.0037,116.3883 101.0036,103.6792 101.0036,93.6457 101.6725,84.2812 101.0037,76.9233 101.0036,70.2343 101.0036,63.5454 101.0037,58.863 101.6725,54.1808 101.0036,50.1673 101.0037,46.8229 101.0036,42.8095 101.0036,40.8028 101.6726,37.4583 101.0036,35.4516 101.0036,33.4449 101.0037,30.7693 101.0036,29.4315 101.6725,28.0938 101.0037,26.087 101.0036,24.7492 101.0036,23.4115 100.3348,22.7425 101.6725,21.4048 101.0036,20.0669 101.0037,19.3981 101.0036,18.0602 101.0036,18.0603 101.6725,16.7224 101.0037,16.0536 101.0036,15.3846 101.0036,14.7158 101.0037,14.0469 101.6725,14.0468 101.0036,12.7091 101.0037,12.709 101.0036,12.0402 101.0036,12.0402 101.6726,11.3713 101.0036,10.7023 101.0036,10.7024 101.0037,10.0335 101.0036,9.3645 101.6725,0 101.0037,0 101.0036,0 101.0036,0 101.6726,0" style="fill:none;stroke:#579d1c;stroke-width:53.51185989;stroke-linejoin:round"/><path id="path342" d="m 1001.3406,1869.2394 101.0037,0 101.0036,0 101.0036,0 101.0037,0 101.6725,0 101.0036,0 101.0037,0 101.0036,0 101.0036,0 101.6726,0 101.0036,0 101.0036,0 101.0037,0 101.0036,0 101.6725,0 101.0037,0 101.0036,0 101.0036,0 101.0037,0 101.6725,224.081 101.0036,195.3182 101.0037,171.238 101.0036,151.8399 101.0036,135.1174 101.6725,121.0706 101.0037,109.0304 101.0036,98.328 101.0036,89.6324 101.0037,82.2745 101.6725,75.5855 101.0036,69.5654 101.0037,64.8831 101.0036,59.532 101.0036,55.5185 101.6726,51.5052 101.0036,48.1607 101.0036,44.8161 101.0037,42.8095 101.0036,39.465 101.6725,37.4583 101.0037,35.4516 101.0036,33.4449 101.0036,31.4383 100.3348,30.1004 101.6725,28.7626 101.0036,26.7559 101.0037,26.0871 101.0036,24.0803 101.0036,23.4114 101.6725,22.7426 101.0037,21.4047 101.0036,20.067 101.0036,19.398 101.0037,18.7292 101.6725,18.0602 101.0036,17.3914 101.0037,16.7224 101.0036,16.0536 101.0036,15.3847 101.6726,14.7157 101.0036,14.0469 101.0036,14.0468 101.0037,13.378 101.0036,12.7091 101.6725,0 101.0037,0 101.0036,0 101.0036,0 101.6726,0" style="fill:none;stroke:#7e0021;stroke-width:53.51185989;stroke-linejoin:round"/><path id="path344" d="m 1001.3406,1869.2394 101.0037,0 101.0036,0 101.0036,0 101.0037,0 101.6725,0 101.0036,0 101.0037,0 101.0036,0 101.0036,0 101.6726,0 101.0036,0 101.0036,0 101.0037,0 101.0036,0 101.6725,0 101.0037,0 101.0036,0 101.0036,0 101.0037,0 101.6725,0 101.0036,0 101.0037,0 101.0036,0 101.0036,189.2982 101.6725,167.8935 101.0037,150.5021 101.0036,135.7863 101.0036,122.4084 101.0037,111.706 101.6725,101.6725 101.0036,92.9769 101.0037,85.619 101.0036,78.93 101.0036,73.5788 101.6726,67.5587 101.0036,63.5453 101.0036,59.532 101.0037,54.8496 101.0036,52.1741 101.6725,48.8296 101.0037,46.1539 101.0036,42.8095 101.0036,40.8028 100.3348,38.7961 101.6725,36.7894 101.0036,34.7827 101.0037,32.776 101.0036,31.4382 101.0036,30.1005 101.6725,28.0937 101.0037,27.4248 101.0036,26.0871 101.0036,24.7492 101.0037,24.0803 101.6725,22.7426 101.0036,22.0736 101.0037,20.7358 101.0036,20.067 101.0036,19.398 101.6726,18.7292 101.0036,18.0602 101.0036,17.3914 101.0037,16.7225 101.0036,16.0535 101.6725,0 101.0037,0 101.0036,0 101.0036,0 101.6726,0" style="fill:none;stroke:#83caff;stroke-width:53.51185989;stroke-linejoin:round"/><path id="path346" d="m 1001.3406,1869.2394 101.0037,0 101.0036,0 101.0036,0 101.0037,0 101.6725,0 101.0036,0 101.0037,0 101.0036,0 101.0036,0 101.6726,0 101.0036,0 101.0036,0 101.0037,0 101.0036,0 101.6725,0 101.0037,0 101.0036,0 101.0036,0 101.0037,0 101.6725,0 101.0036,0 101.0037,0 101.0036,0 101.0036,0 101.6725,0 101.0037,0 101.0036,0 101.0036,163.2112 101.0037,147.8265 101.6725,134.4486 101.0036,122.4083 101.0037,111.706 101.0036,103.0104 101.0036,94.9835 101.6726,87.6257 101.0036,81.6056 101.0036,75.5855 101.0037,69.5654 101.0036,66.2209 101.6725,62.2075 101.0037,57.5253 101.0036,54.8496 101.0036,51.5052 100.3348,48.8296 101.6725,45.4851 101.0036,43.4783 101.0037,41.4717 101.0036,39.465 101.0036,36.7894 101.6725,35.4516 101.0037,34.1138 101.0036,32.1072 101.0036,30.7693 101.0037,29.4315 101.6725,28.0937 101.0036,27.4249 101.0037,25.4181 101.0036,24.7492 101.0036,24.0804 101.6726,22.7425 101.0036,22.0736 101.0036,21.4048 101.0037,20.7358 101.0036,19.3981 101.6725,0 101.0037,0 101.0036,0 101.0036,0 101.6726,0" style="fill:none;stroke:#314004;stroke-width:53.51185989;stroke-linejoin:round"/><path id="path348" d="m 1001.3406,1869.2394 101.0037,0 101.0036,0 101.0036,0 101.0037,0 101.6725,0 101.0036,0 101.0037,0 101.0036,0 101.0036,0 101.6726,0 101.0036,0 101.0036,0 101.0037,0 101.0036,0 101.6725,0 101.0037,0 101.0036,0 101.0036,0 101.0037,0 101.6725,0 101.0036,0 101.0037,0 101.0036,0 101.0036,0 101.6725,0 101.0037,0 101.0036,0 101.0036,0 101.0037,0 101.6725,0 101.0036,0 101.0037,143.8132 101.0036,131.7729 101.0036,121.0706 101.6726,111.0371 101.0036,103.0103 101.0036,95.6525 101.0037,88.2945 101.0036,82.9434 101.6725,76.9233 101.0037,72.241 101.0036,67.5587 101.0036,63.5454 100.3348,59.5319 101.6725,56.8564 101.0036,53.5118 101.0037,50.1674 101.0036,48.1607 101.0036,45.485 101.6725,43.4784 101.0037,40.8028 101.0036,39.465 101.0036,37.4583 101.0037,36.1205 101.6725,34.1138 101.0036,32.1071 101.0037,31.4383 101.0036,30.1004 101.0036,28.7626 101.6726,27.4248 101.0036,26.756 101.0036,25.4181 101.0037,24.7492 101.0036,24.0804 101.6725,0 101.0037,0 101.0036,0 101.0036,0 101.6726,0" style="fill:none;stroke:#aecf00;stroke-width:53.51185989;stroke-linejoin:round"/><path id="path350" d="m 1001.3406,1869.2394 101.0037,0 101.0036,0 101.0036,0 101.0037,0 101.6725,0 101.0036,0 101.0037,0 101.0036,0 101.0036,0 101.6726,0 101.0036,0 101.0036,0 101.0037,0 101.0036,0 101.6725,0 101.0037,0 101.0036,0 101.0036,0 101.0037,0 101.6725,0 101.0036,0 101.0037,0 101.0036,0 101.0036,0 101.6725,0 101.0037,0 101.0036,0 101.0036,0 101.0037,0 101.6725,0 101.0036,0 101.0037,0 101.0036,0 101.0036,0 101.6726,0 101.0036,128.4285 101.0036,119.0639 101.0037,109.6993 101.0036,102.3414 101.6725,94.9836 101.0037,88.9634 101.0036,82.9434 101.0036,77.5922 100.3348,73.5788 101.6725,68.8965 101.0036,64.8832 101.0037,60.8697 101.0036,58.1941 101.0036,54.1808 101.6725,52.1741 101.0037,49.4984 101.0036,46.8229 101.0036,44.8162 101.0037,42.8095 101.6725,40.8028 101.0036,39.465 101.0037,36.7894 101.0036,36.1205 101.0036,34.1138 101.6726,32.776 101.0036,31.4382 101.0036,30.7693 101.0037,28.7627 101.0036,28.0937 101.6725,0 101.0037,0 101.0036,0 101.0036,0 101.6726,0" style="fill:none;stroke:#4b1f6f;stroke-width:53.51185989;stroke-linejoin:round"/><path id="path352" d="m 1001.3406,1869.2394 101.0037,0 101.0036,0 101.0036,0 101.0037,0 101.6725,0 101.0036,0 101.0037,0 101.0036,0 101.0036,0 101.6726,0 101.0036,0 101.0036,0 101.0037,0 101.0036,0 101.6725,0 101.0037,0 101.0036,0 101.0036,0 101.0037,0 101.6725,0 101.0036,0 101.0037,0 101.0036,0 101.0036,0 101.6725,0 101.0037,0 101.0036,0 101.0036,0 101.0037,0 101.6725,0 101.0036,0 101.0037,0 101.0036,0 101.0036,0 101.6726,0 101.0036,0 101.0036,0 101.0037,0 101.0036,0 101.6725,116.3883 101.0037,107.6927 101.0036,101.0036 101.0036,94.3146 100.3348,88.2946 101.6725,82.9434 101.0036,78.2611 101.0037,73.5788 101.0036,69.5654 101.0036,65.552 101.6725,62.2076 101.0037,58.863 101.0036,55.5186 101.0036,53.5118 101.0037,50.1674 101.6725,48.1606 101.0036,46.154 101.0037,43.4784 101.0036,42.1406 101.0036,40.1339 101.6726,38.7961 101.0036,36.7894 101.0036,36.1205 101.0037,33.4449 101.0036,32.776 101.6725,0 101.0037,0 101.0036,0 101.0036,0 101.6726,0" style="fill:none;stroke:#ff950e;stroke-width:53.51185989;stroke-linejoin:round"/><path id="path354" d="m 1001.3406,1869.2394 101.0037,0 101.0036,0 101.0036,0 101.0037,0 101.6725,0 101.0036,0 101.0037,0 101.0036,0 101.0036,0 101.6726,0 101.0036,0 101.0036,0 101.0037,0 101.0036,0 101.6725,0 101.0037,0 101.0036,0 101.0036,0 101.0037,0 101.6725,0 101.0036,0 101.0037,0 101.0036,0 101.0036,0 101.6725,0 101.0037,0 101.0036,0 101.0036,0 101.0037,0 101.6725,0 101.0036,0 101.0037,0 101.0036,0 101.0036,0 101.6726,0 101.0036,0 101.0036,0 101.0037,0 101.0036,0 101.6725,0 101.0037,0 101.0036,0 101.0036,0 100.3348,105.686 101.6725,99.6658 101.0036,92.9769 101.0037,87.6256 101.0036,82.2745 101.0036,78.2611 101.6725,73.5788 101.0037,69.5654 101.0036,65.552 101.0036,62.8765 101.0037,59.5319 101.6725,56.1875 101.0036,54.1807 101.0037,51.5052 101.0036,48.8296 101.0036,47.4917 101.6726,44.1473 101.0036,42.8095 101.0036,41.4717 101.0037,39.465 101.0036,38.1272 101.6725,0 101.0037,0 101.0036,0 101.0036,0 101.6726,0" style="fill:none;stroke:#c5000b;stroke-width:53.51185989;stroke-linejoin:round"/><path id="path356" d="m 1001.3406,1869.2394 101.0037,0 101.0036,0 101.0036,0 101.0037,0 101.6725,0 101.0036,0 101.0037,0 101.0036,0 101.0036,0 101.6726,0 101.0036,0 101.0036,0 101.0037,0 101.0036,0 101.6725,0 101.0037,0 101.0036,0 101.0036,0 101.0037,0 101.6725,0 101.0036,0 101.0037,0 101.0036,0 101.0036,0 101.6725,0 101.0037,0 101.0036,0 101.0036,0 101.0037,0 101.6725,0 101.0036,0 101.0037,0 101.0036,0 101.0036,0 101.6726,0 101.0036,0 101.0036,0 101.0037,0 101.0036,0 101.6725,0 101.0037,0 101.0036,0 101.0036,0 100.3348,0 101.6725,0 101.0036,0 101.0037,0 101.0036,96.9903 101.0036,92.3079 101.6725,86.2879 101.0037,81.6056 101.0036,77.5922 101.0036,72.9099 101.0037,69.5654 101.6725,66.2209 101.0036,62.8765 101.0037,59.5319 101.0036,56.8564 101.0036,54.8496 101.6726,51.5052 101.0036,50.1673 101.0036,47.4918 101.0037,45.4851 101.0036,44.1473 101.6725,0 101.0037,0 101.0036,0 101.0036,0 101.6726,0" style="fill:none;stroke:#0084d1;stroke-width:53.51185989;stroke-linejoin:round"/><path id="path358" d="m 1001.3406,1869.2394 101.0037,0 101.0036,0 101.0036,0 101.0037,0 101.6725,0 101.0036,0 101.0037,0 101.0036,0 101.0036,0 101.6726,0 101.0036,0 101.0036,0 101.0037,0 101.0036,0 101.6725,0 101.0037,0 101.0036,0 101.0036,0 101.0037,0 101.6725,0 101.0036,0 101.0037,0 101.0036,0 101.0036,0 101.6725,0 101.0037,0 101.0036,0 101.0036,0 101.0037,0 101.6725,0 101.0036,0 101.0037,0 101.0036,0 101.0036,0 101.6726,0 101.0036,0 101.0036,0 101.0037,0 101.0036,0 101.6725,0 101.0037,0 101.0036,0 101.0036,0 100.3348,0 101.6725,0 101.0036,0 101.0037,0 101.0036,0 101.0036,0 101.6725,0 101.0037,0 101.0036,90.3013 101.0036,84.9501 101.0037,80.9367 101.6725,76.2544 101.0036,72.9099 101.0037,68.8965 101.0036,66.2209 101.0036,62.8764 101.6726,59.532 101.0036,57.5252 101.0036,54.1808 101.0037,52.843 101.0036,50.1673 101.6725,0 101.0037,0 101.0036,0 101.0036,0 101.6726,0" style="fill:none;stroke:#004586;stroke-width:53.51185989;stroke-linejoin:round"/><path id="path360" d="m 1001.3406,1869.2394 101.0037,0 101.0036,0 101.0036,0 101.0037,0 101.6725,0 101.0036,0 101.0037,0 101.0036,0 101.0036,0 101.6726,0 101.0036,0 101.0036,0 101.0037,0 101.0036,0 101.6725,0 101.0037,0 101.0036,0 101.0036,0 101.0037,0 101.6725,0 101.0036,0 101.0037,0 101.0036,0 101.0036,0 101.6725,0 101.0037,0 101.0036,0 101.0036,0 101.0037,0 101.6725,0 101.0036,0 101.0037,0 101.0036,0 101.0036,0 101.6726,0 101.0036,0 101.0036,0 101.0037,0 101.0036,0 101.6725,0 101.0037,0 101.0036,0 101.0036,0 100.3348,0 101.6725,0 101.0036,0 101.0037,0 101.0036,0 101.0036,0 101.6725,0 101.0037,0 101.0036,0 101.0036,0 101.0037,0 101.6725,0 101.0036,83.6123 101.0037,79.5989 101.0036,75.5855 101.0036,72.241 101.6726,68.8965 101.0036,65.5521 101.0036,62.2075 101.0037,60.2008 101.0036,56.8564 101.6725,0 101.0037,0 101.0036,0 101.0036,0 101.6726,0" style="fill:none;stroke:#ff420e;stroke-width:53.51185989;stroke-linejoin:round"/><path id="path362" d="m 1001.3406,1869.2394 101.0037,0 101.0036,0 101.0036,0 101.0037,0 101.6725,0 101.0036,0 101.0037,0 101.0036,0 101.0036,0 101.6726,0 101.0036,0 101.0036,0 101.0037,0 101.0036,0 101.6725,0 101.0037,0 101.0036,0 101.0036,0 101.0037,0 101.6725,0 101.0036,0 101.0037,0 101.0036,0 101.0036,0 101.6725,0 101.0037,0 101.0036,0 101.0036,0 101.0037,0 101.6725,0 101.0036,0 101.0037,0 101.0036,0 101.0036,0 101.6726,0 101.0036,0 101.0036,0 101.0037,0 101.0036,0 101.6725,0 101.0037,0 101.0036,0 101.0036,0 100.3348,0 101.6725,0 101.0036,0 101.0037,0 101.0036,0 101.0036,0 101.6725,0 101.0037,0 101.0036,0 101.0036,0 101.0037,0 101.6725,0 101.0036,0 101.0037,0 101.0036,0 101.0036,0 101.6726,78.2611 101.0036,74.9166 101.0036,70.9033 101.0037,68.2276 101.0036,64.8831 101.6725,0 101.0037,0 101.0036,0 101.0036,0 101.6726,0" style="fill:none;stroke:#ffd320;stroke-width:53.51185989;stroke-linejoin:round"/><path id="path364" d="m 1001.3406,1869.2394 101.0037,0 101.0036,0 101.0036,0 101.0037,0 101.6725,0 101.0036,0 101.0037,0 101.0036,0 101.0036,0 101.6726,0 101.0036,0 101.0036,0 101.0037,0 101.0036,0 101.6725,0 101.0037,0 101.0036,0 101.0036,0 101.0037,0 101.6725,0 101.0036,0 101.0037,0 101.0036,0 101.0036,0 101.6725,0 101.0037,0 101.0036,0 101.0036,0 101.0037,0 101.6725,0 101.0036,0 101.0037,0 101.0036,0 101.0036,0 101.6726,0 101.0036,0 101.0036,0 101.0037,0 101.0036,0 101.6725,0 101.0037,0 101.0036,0 101.0036,0 100.3348,0 101.6725,0 101.0036,0 101.0037,0 101.0036,0 101.0036,0 101.6725,0 101.0037,0 101.0036,0 101.0036,0 101.0037,0 101.6725,0 101.0036,0 101.0037,0 101.0036,0 101.0036,0 101.6726,0 101.0036,0 101.0036,0 101.0037,0 101.0036,73.5788 101.6725,0 101.0037,0 101.0036,0 101.0036,0 101.6726,0" style="fill:none;stroke:#579d1c;stroke-width:53.51185989;stroke-linejoin:round"/><text id="text366" y="-.331" class="TextShape" style="font-size:8.02677917px"><tspan id="tspan368" class="TextParagraph" font-size="353" font-weight="400" style="font-weight:400;font-size:236.12107849px;font-family:'Liberation Sans'"><tspan id="tspan370" x="710.37" y="5167.577" class="TextPosition"><tspan id="tspan372" style="fill:#000;stroke:none">0</tspan></tspan></tspan></text><text id="text374" y="-.331" class="TextShape" style="font-size:8.02677917px"><tspan id="tspan376" class="TextParagraph" font-size="353" font-weight="400" style="font-weight:400;font-size:236.12107849px;font-family:'Liberation Sans'"><tspan id="tspan378" x="515.721" y="4523.428" class="TextPosition"><tspan id="tspan380" style="fill:#000;stroke:none">0,2</tspan></tspan></tspan></text><text id="text382" y="-.331" class="TextShape" style="font-size:8.02677917px"><tspan id="tspan384" class="TextParagraph" font-size="353" font-weight="400" style="font-weight:400;font-size:236.12107849px;font-family:'Liberation Sans'"><tspan id="tspan386" x="515.721" y="3879.948" class="TextPosition"><tspan id="tspan388" style="fill:#000;stroke:none">0,4</tspan></tspan></tspan></text><text id="text390" y="-.331" class="TextShape" style="font-size:8.02677917px"><tspan id="tspan392" class="TextParagraph" font-size="353" font-weight="400" style="font-weight:400;font-size:236.12107849px;font-family:'Liberation Sans'"><tspan id="tspan394" x="515.721" y="3236.468" class="TextPosition"><tspan id="tspan396" style="fill:#000;stroke:none">0,6</tspan></tspan></tspan></text><text id="text398" y="-.331" class="TextShape" style="font-size:8.02677917px"><tspan id="tspan400" class="TextParagraph" font-size="353" font-weight="400" style="font-weight:400;font-size:236.12107849px;font-family:'Liberation Sans'"><tspan id="tspan402" x="515.721" y="2592.987" class="TextPosition"><tspan id="tspan404" style="fill:#000;stroke:none">0,8</tspan></tspan></tspan></text><text id="text406" y="-.331" class="TextShape" style="font-size:8.02677917px"><tspan id="tspan408" class="TextParagraph" font-size="353" font-weight="400" style="font-weight:400;font-size:236.12107849px;font-family:'Liberation Sans'"><tspan id="tspan410" x="710.37" y="1949.507" class="TextPosition"><tspan id="tspan412" style="fill:#000;stroke:none">1</tspan></tspan></tspan></text><text id="text414" y="-.331" class="TextShape" style="font-size:8.02677917px"><tspan id="tspan416" class="TextParagraph" font-size="353" font-weight="400" style="font-weight:400;font-size:236.12107849px;font-family:'Liberation Sans'"><tspan id="tspan418" x="515.721" y="1305.358" class="TextPosition"><tspan id="tspan420" style="fill:#000;stroke:none">1,2</tspan></tspan></tspan></text><text id="text422" y="-.331" class="TextShape" style="font-size:8.02677917px"><tspan id="tspan424" class="TextParagraph" font-size="459" font-weight="400" style="font-weight:400;font-size:307.02429199px;font-family:'Liberation Sans'"><tspan id="tspan426" x="2828.771" y="568.232" class="TextPosition"><tspan id="tspan428" style="fill:#000;stroke:none">Inverse distance - varying min distance</tspan></tspan></tspan></text><path id="path430" d="m 8484.974,1842.4835 535.1186,0" style="fill:none;stroke:#004586;stroke-width:53.51185989;stroke-linejoin:round"/><path id="path432" d="m 9561.9002,1842.4835 535.1188,0" style="fill:none;stroke:#ff420e;stroke-width:53.51185989;stroke-linejoin:round"/><path id="path434" d="m 8484.974,2175.5948 535.1186,0" style="fill:none;stroke:#ffd320;stroke-width:53.51185989;stroke-linejoin:round"/><path id="path436" d="m 9561.9002,2175.5948 535.1188,0" style="fill:none;stroke:#579d1c;stroke-width:53.51185989;stroke-linejoin:round"/><path id="path438" d="m 8484.974,2508.7061 535.1186,0" style="fill:none;stroke:#7e0021;stroke-width:53.51185989;stroke-linejoin:round"/><path id="path440" d="m 9561.9002,2508.7061 535.1188,0" style="fill:none;stroke:#83caff;stroke-width:53.51185989;stroke-linejoin:round"/><path id="path442" d="m 8484.974,2841.8175 535.1186,0" style="fill:none;stroke:#314004;stroke-width:53.51185989;stroke-linejoin:round"/><path id="path444" d="m 9561.9002,2841.8175 535.1188,0" style="fill:none;stroke:#aecf00;stroke-width:53.51185989;stroke-linejoin:round"/><path id="path446" d="m 8484.974,3174.2599 535.1186,0" style="fill:none;stroke:#4b1f6f;stroke-width:53.51185989;stroke-linejoin:round"/><path id="path448" d="m 9561.9002,3174.2599 535.1188,0" style="fill:none;stroke:#ff950e;stroke-width:53.51185989;stroke-linejoin:round"/><path id="path450" d="m 8484.974,3507.3712 535.1186,0" style="fill:none;stroke:#c5000b;stroke-width:53.51185989;stroke-linejoin:round"/><path id="path452" d="m 9561.9002,3507.3712 535.1188,0" style="fill:none;stroke:#0084d1;stroke-width:53.51185989;stroke-linejoin:round"/><path id="path454" d="m 8484.974,3840.4825 535.1186,0" style="fill:none;stroke:#004586;stroke-width:53.51185989;stroke-linejoin:round"/><path id="path456" d="m 9561.9002,3840.4825 535.1188,0" style="fill:none;stroke:#ff420e;stroke-width:53.51185989;stroke-linejoin:round"/><path id="path458" d="m 8484.974,4173.5938 535.1186,0" style="fill:none;stroke:#ffd320;stroke-width:53.51185989;stroke-linejoin:round"/><path id="path460" d="m 9561.9002,4173.5938 535.1188,0" style="fill:none;stroke:#579d1c;stroke-width:53.51185989;stroke-linejoin:round"/><text id="text462" y="-.331" class="TextShape" style="font-size:8.02677917px"><tspan id="tspan464" class="TextParagraph" font-size="353" font-weight="400" style="font-weight:400;font-size:236.12107849px;font-family:'Liberation Sans'"><tspan id="tspan466" x="9086.982" y="1922.751" class="TextPosition"><tspan id="tspan468" style="fill:#000;stroke:none">0,4</tspan></tspan></tspan></text><text id="text470" y="-.331" class="TextShape" style="font-size:8.02677917px"><tspan id="tspan472" class="TextParagraph" font-size="353" font-weight="400" style="font-weight:400;font-size:236.12107849px;font-family:'Liberation Sans'"><tspan id="tspan474" x="10163.908" y="1922.751" class="TextPosition"><tspan id="tspan476" style="fill:#000;stroke:none">0,8</tspan></tspan></tspan></text><text id="text478" y="-.331" class="TextShape" style="font-size:8.02677917px"><tspan id="tspan480" class="TextParagraph" font-size="353" font-weight="400" style="font-weight:400;font-size:236.12107849px;font-family:'Liberation Sans'"><tspan id="tspan482" x="9086.982" y="2255.863" class="TextPosition"><tspan id="tspan484" style="fill:#000;stroke:none">1,2</tspan></tspan></tspan></text><text id="text486" y="-.331" class="TextShape" style="font-size:8.02677917px"><tspan id="tspan488" class="TextParagraph" font-size="353" font-weight="400" style="font-weight:400;font-size:236.12107849px;font-family:'Liberation Sans'"><tspan id="tspan490" x="10163.908" y="2255.863" class="TextPosition"><tspan id="tspan492" style="fill:#000;stroke:none">1,6</tspan></tspan></tspan></text><text id="text494" y="-.331" class="TextShape" style="font-size:8.02677917px"><tspan id="tspan496" class="TextParagraph" font-size="353" font-weight="400" style="font-weight:400;font-size:236.12107849px;font-family:'Liberation Sans'"><tspan id="tspan498" x="9086.982" y="2588.974" class="TextPosition"><tspan id="tspan500" style="fill:#000;stroke:none">2</tspan></tspan></tspan></text><text id="text502" y="-.331" class="TextShape" style="font-size:8.02677917px"><tspan id="tspan504" class="TextParagraph" font-size="353" font-weight="400" style="font-weight:400;font-size:236.12107849px;font-family:'Liberation Sans'"><tspan id="tspan506" x="10163.908" y="2588.974" class="TextPosition"><tspan id="tspan508" style="fill:#000;stroke:none">2,4</tspan></tspan></tspan></text><text id="text510" y="-.331" class="TextShape" style="font-size:8.02677917px"><tspan id="tspan512" class="TextParagraph" font-size="353" font-weight="400" style="font-weight:400;font-size:236.12107849px;font-family:'Liberation Sans'"><tspan id="tspan514" x="9086.982" y="2922.085" class="TextPosition"><tspan id="tspan516" style="fill:#000;stroke:none">2,8</tspan></tspan></tspan></text><text id="text518" y="-.331" class="TextShape" style="font-size:8.02677917px"><tspan id="tspan520" class="TextParagraph" font-size="353" font-weight="400" style="font-weight:400;font-size:236.12107849px;font-family:'Liberation Sans'"><tspan id="tspan522" x="10163.908" y="2922.085" class="TextPosition"><tspan id="tspan524" style="fill:#000;stroke:none">3,2</tspan></tspan></tspan></text><text id="text526" y="-.331" class="TextShape" style="font-size:8.02677917px"><tspan id="tspan528" class="TextParagraph" font-size="353" font-weight="400" style="font-weight:400;font-size:236.12107849px;font-family:'Liberation Sans'"><tspan id="tspan530" x="9086.982" y="3254.528" class="TextPosition"><tspan id="tspan532" style="fill:#000;stroke:none">3,6</tspan></tspan></tspan></text><text id="text534" y="-.331" class="TextShape" style="font-size:8.02677917px"><tspan id="tspan536" class="TextParagraph" font-size="353" font-weight="400" style="font-weight:400;font-size:236.12107849px;font-family:'Liberation Sans'"><tspan id="tspan538" x="10163.908" y="3254.528" class="TextPosition"><tspan id="tspan540" style="fill:#000;stroke:none">4</tspan></tspan></tspan></text><text id="text542" y="-.331" class="TextShape" style="font-size:8.02677917px"><tspan id="tspan544" class="TextParagraph" font-size="353" font-weight="400" style="font-weight:400;font-size:236.12107849px;font-family:'Liberation Sans'"><tspan id="tspan546" x="9086.982" y="3587.639" class="TextPosition"><tspan id="tspan548" style="fill:#000;stroke:none">4,4</tspan></tspan></tspan></text><text id="text550" y="-.331" class="TextShape" style="font-size:8.02677917px"><tspan id="tspan552" class="TextParagraph" font-size="353" font-weight="400" style="font-weight:400;font-size:236.12107849px;font-family:'Liberation Sans'"><tspan id="tspan554" x="10163.908" y="3587.639" class="TextPosition"><tspan id="tspan556" style="fill:#000;stroke:none">4,8</tspan></tspan></tspan></text><text id="text558" y="-.331" class="TextShape" style="font-size:8.02677917px"><tspan id="tspan560" class="TextParagraph" font-size="353" font-weight="400" style="font-weight:400;font-size:236.12107849px;font-family:'Liberation Sans'"><tspan id="tspan562" x="9086.982" y="3920.75" class="TextPosition"><tspan id="tspan564" style="fill:#000;stroke:none">5,2</tspan></tspan></tspan></text><text id="text566" y="-.331" class="TextShape" style="font-size:8.02677917px"><tspan id="tspan568" class="TextParagraph" font-size="353" font-weight="400" style="font-weight:400;font-size:236.12107849px;font-family:'Liberation Sans'"><tspan id="tspan570" x="10163.908" y="3920.75" class="TextPosition"><tspan id="tspan572" style="fill:#000;stroke:none">5,6</tspan></tspan></tspan></text><text id="text574" y="-.331" class="TextShape" style="font-size:8.02677917px"><tspan id="tspan576" class="TextParagraph" font-size="353" font-weight="400" style="font-weight:400;font-size:236.12107849px;font-family:'Liberation Sans'"><tspan id="tspan578" x="9086.982" y="4253.862" class="TextPosition"><tspan id="tspan580" style="fill:#000;stroke:none">6</tspan></tspan></tspan></text><text id="text582" y="-.331" class="TextShape" style="font-size:8.02677917px"><tspan id="tspan584" class="TextParagraph" font-size="353" font-weight="400" style="font-weight:400;font-size:236.12107849px;font-family:'Liberation Sans'"><tspan id="tspan586" x="10163.908" y="4253.862" class="TextPosition"><tspan id="tspan588" style="fill:#000;stroke:none">6,4</tspan></tspan></tspan></text></svg>