<svg xmlns="http://www.w3.org/2000/svg" xmlns:svg="http://www.w3.org/2000/svg" id="svg2" width="160mm" height="90mm" stroke-linejoin="round" stroke-width="28.222" version="1.1" viewBox="0 0 16000 9000" xml:space="preserve"><metadata id="metadata618"/><path id="path4" d="M 5351.1858,6019.4151 0,6019.4151 0,0 l 10701.703,0 0,6019.4151 -5350.5172,0 z" style="fill:#fff;stroke:none"/><path id="path6" d="m 4490.3138,5088.3088 -3488.9732,0 0,-3860.8806 6977.9464,0 0,3860.8806 -3488.9732,0 z" style="fill:none;stroke:#b3b3b3;stroke-width:18.87764549;stroke-linejoin:round"/><path id="path8" d="m 7979.287,5087.6399 -6977.9464,0" style="fill:none;stroke:#b3b3b3;stroke-width:18.87764549;stroke-linejoin:round"/><path id="path10" d="m 7979.287,4443.4909 -6977.9464,0" style="fill:none;stroke:#b3b3b3;stroke-width:18.87764549;stroke-linejoin:round"/><path id="path12" d="m 7979.287,3800.0108 -6977.9464,0" style="fill:none;stroke:#b3b3b3;stroke-width:18.87764549;stroke-linejoin:round"/><path id="path14" d="m 7979.287,3156.5307 -6977.9464,0" style="fill:none;stroke:#b3b3b3;stroke-width:18.87764549;stroke-linejoin:round"/><path id="path16" d="m 7979.287,2513.7195 -6977.9464,0" style="fill:none;stroke:#b3b3b3;stroke-width:18.87764549;stroke-linejoin:round"/><path id="path18" d="m 7979.287,1870.2394 -6977.9464,0" style="fill:none;stroke:#b3b3b3;stroke-width:18.87764549;stroke-linejoin:round"/><path id="path20" d="m 7979.287,1226.0905 -6977.9464,0" style="fill:none;stroke:#b3b3b3;stroke-width:18.87764549;stroke-linejoin:round"/><path id="path22" d="m 1001.3406,5187.9747 0,-100.3348" style="fill:none;stroke:#b3b3b3;stroke-width:18.87764549;stroke-linejoin:round"/><path id="path24" d="m 1001.3406,5187.9747 0,-100.3348" style="fill:none;stroke:#b3b3b3;stroke-width:18.87764549;stroke-linejoin:round"/><path id="path26" d="m 1102.3443,5187.9747 0,-100.3348" style="fill:none;stroke:#b3b3b3;stroke-width:18.87764549;stroke-linejoin:round"/><path id="path28" d="m 1102.3443,5187.9747 0,-100.3348" style="fill:none;stroke:#b3b3b3;stroke-width:18.87764549;stroke-linejoin:round"/><path id="path30" d="m 1203.3479,5187.9747 0,-100.3348" style="fill:none;stroke:#b3b3b3;stroke-width:18.87764549;stroke-linejoin:round"/><path id="path32" d="m 1203.3479,5187.9747 0,-100.3348" style="fill:none;stroke:#b3b3b3;stroke-width:18.87764549;stroke-linejoin:round"/><path id="path34" d="m 1304.3515,5187.9747 0,-100.3348" style="fill:none;stroke:#b3b3b3;stroke-width:18.87764549;stroke-linejoin:round"/><path id="path36" d="m 1304.3515,5187.9747 0,-100.3348" style="fill:none;stroke:#b3b3b3;stroke-width:18.87764549;stroke-linejoin:round"/><path id="path38" d="m 1405.3552,5187.9747 0,-100.3348" style="fill:none;stroke:#b3b3b3;stroke-width:18.87764549;stroke-linejoin:round"/><path id="path40" d="m 1405.3552,5187.9747 0,-100.3348" style="fill:none;stroke:#b3b3b3;stroke-width:18.87764549;stroke-linejoin:round"/><path id="path42" d="m 1507.0277,5187.9747 0,-100.3348" style="fill:none;stroke:#b3b3b3;stroke-width:18.87764549;stroke-linejoin:round"/><path id="path44" d="m 1507.0277,5187.9747 0,-100.3348" style="fill:none;stroke:#b3b3b3;stroke-width:18.87764549;stroke-linejoin:round"/><path id="path46" d="m 1608.0313,5187.9747 0,-100.3348" style="fill:none;stroke:#b3b3b3;stroke-width:18.87764549;stroke-linejoin:round"/><path id="path48" d="m 1608.0313,5187.9747 0,-100.3348" style="fill:none;stroke:#b3b3b3;stroke-width:18.87764549;stroke-linejoin:round"/><path id="path50" d="m 1709.035,5187.9747 0,-100.3348" style="fill:none;stroke:#b3b3b3;stroke-width:18.87764549;stroke-linejoin:round"/><path id="path52" d="m 1709.035,5187.9747 0,-100.3348" style="fill:none;stroke:#b3b3b3;stroke-width:18.87764549;stroke-linejoin:round"/><path id="path54" d="m 1810.0386,5187.9747 0,-100.3348" style="fill:none;stroke:#b3b3b3;stroke-width:18.87764549;stroke-linejoin:round"/><path id="path56" d="m 1810.0386,5187.9747 0,-100.3348" style="fill:none;stroke:#b3b3b3;stroke-width:18.87764549;stroke-linejoin:round"/><path id="path58" d="m 1911.0422,5187.9747 0,-100.3348" style="fill:none;stroke:#b3b3b3;stroke-width:18.87764549;stroke-linejoin:round"/><path id="path60" d="m 1911.0422,5187.9747 0,-100.3348" style="fill:none;stroke:#b3b3b3;stroke-width:18.87764549;stroke-linejoin:round"/><path id="path62" d="m 2012.7148,5187.9747 0,-100.3348" style="fill:none;stroke:#b3b3b3;stroke-width:18.87764549;stroke-linejoin:round"/><path id="path64" d="m 2012.7148,5187.9747 0,-100.3348" style="fill:none;stroke:#b3b3b3;stroke-width:18.87764549;stroke-linejoin:round"/><path id="path66" d="m 2113.7184,5187.9747 0,-100.3348" style="fill:none;stroke:#b3b3b3;stroke-width:18.87764549;stroke-linejoin:round"/><path id="path68" d="m 2113.7184,5187.9747 0,-100.3348" style="fill:none;stroke:#b3b3b3;stroke-width:18.87764549;stroke-linejoin:round"/><path id="path70" d="m 2214.722,5187.9747 0,-100.3348" style="fill:none;stroke:#b3b3b3;stroke-width:18.87764549;stroke-linejoin:round"/><path id="path72" d="m 2214.722,5187.9747 0,-100.3348" style="fill:none;stroke:#b3b3b3;stroke-width:18.87764549;stroke-linejoin:round"/><path id="path74" d="m 2315.7257,5187.9747 0,-100.3348" style="fill:none;stroke:#b3b3b3;stroke-width:18.87764549;stroke-linejoin:round"/><path id="path76" d="m 2315.7257,5187.9747 0,-100.3348" style="fill:none;stroke:#b3b3b3;stroke-width:18.87764549;stroke-linejoin:round"/><path id="path78" d="m 2416.7293,5187.9747 0,-100.3348" style="fill:none;stroke:#b3b3b3;stroke-width:18.87764549;stroke-linejoin:round"/><path id="path80" d="m 2416.7293,5187.9747 0,-100.3348" style="fill:none;stroke:#b3b3b3;stroke-width:18.87764549;stroke-linejoin:round"/><path id="path82" d="m 2518.4018,5187.9747 0,-100.3348" style="fill:none;stroke:#b3b3b3;stroke-width:18.87764549;stroke-linejoin:round"/><path id="path84" d="m 2518.4018,5187.9747 0,-100.3348" style="fill:none;stroke:#b3b3b3;stroke-width:18.87764549;stroke-linejoin:round"/><path id="path86" d="m 2619.4055,5187.9747 0,-100.3348" style="fill:none;stroke:#b3b3b3;stroke-width:18.87764549;stroke-linejoin:round"/><path id="path88" d="m 2619.4055,5187.9747 0,-100.3348" style="fill:none;stroke:#b3b3b3;stroke-width:18.87764549;stroke-linejoin:round"/><path id="path90" d="m 2720.4091,5187.9747 0,-100.3348" style="fill:none;stroke:#b3b3b3;stroke-width:18.87764549;stroke-linejoin:round"/><path id="path92" d="m 2720.4091,5187.9747 0,-100.3348" style="fill:none;stroke:#b3b3b3;stroke-width:18.87764549;stroke-linejoin:round"/><path id="path94" d="m 2821.4127,5187.9747 0,-100.3348" style="fill:none;stroke:#b3b3b3;stroke-width:18.87764549;stroke-linejoin:round"/><path id="path96" d="m 2821.4127,5187.9747 0,-100.3348" style="fill:none;stroke:#b3b3b3;stroke-width:18.87764549;stroke-linejoin:round"/><path id="path98" d="m 2922.4164,5187.9747 0,-100.3348" style="fill:none;stroke:#b3b3b3;stroke-width:18.87764549;stroke-linejoin:round"/><path id="path100" d="m 2922.4164,5187.9747 0,-100.3348" style="fill:none;stroke:#b3b3b3;stroke-width:18.87764549;stroke-linejoin:round"/><path id="path102" d="m 3024.0889,5187.9747 0,-100.3348" style="fill:none;stroke:#b3b3b3;stroke-width:18.87764549;stroke-linejoin:round"/><path id="path104" d="m 3024.0889,5187.9747 0,-100.3348" style="fill:none;stroke:#b3b3b3;stroke-width:18.87764549;stroke-linejoin:round"/><path id="path106" d="m 3125.0925,5187.9747 0,-100.3348" style="fill:none;stroke:#b3b3b3;stroke-width:18.87764549;stroke-linejoin:round"/><path id="path108" d="m 3125.0925,5187.9747 0,-100.3348" style="fill:none;stroke:#b3b3b3;stroke-width:18.87764549;stroke-linejoin:round"/><path id="path110" d="m 3226.0962,5187.9747 0,-100.3348" style="fill:none;stroke:#b3b3b3;stroke-width:18.87764549;stroke-linejoin:round"/><path id="path112" d="m 3226.0962,5187.9747 0,-100.3348" style="fill:none;stroke:#b3b3b3;stroke-width:18.87764549;stroke-linejoin:round"/><path id="path114" d="m 3327.0998,5187.9747 0,-100.3348" style="fill:none;stroke:#b3b3b3;stroke-width:18.87764549;stroke-linejoin:round"/><path id="path116" d="m 3327.0998,5187.9747 0,-100.3348" style="fill:none;stroke:#b3b3b3;stroke-width:18.87764549;stroke-linejoin:round"/><path id="path118" d="m 3428.1034,5187.9747 0,-100.3348" style="fill:none;stroke:#b3b3b3;stroke-width:18.87764549;stroke-linejoin:round"/><path id="path120" d="m 3428.1034,5187.9747 0,-100.3348" style="fill:none;stroke:#b3b3b3;stroke-width:18.87764549;stroke-linejoin:round"/><path id="path122" d="m 3529.7759,5187.9747 0,-100.3348" style="fill:none;stroke:#b3b3b3;stroke-width:18.87764549;stroke-linejoin:round"/><path id="path124" d="m 3529.7759,5187.9747 0,-100.3348" style="fill:none;stroke:#b3b3b3;stroke-width:18.87764549;stroke-linejoin:round"/><path id="path126" d="m 3630.7796,5187.9747 0,-100.3348" style="fill:none;stroke:#b3b3b3;stroke-width:18.87764549;stroke-linejoin:round"/><path id="path128" d="m 3630.7796,5187.9747 0,-100.3348" style="fill:none;stroke:#b3b3b3;stroke-width:18.87764549;stroke-linejoin:round"/><path id="path130" d="m 3731.7832,5187.9747 0,-100.3348" style="fill:none;stroke:#b3b3b3;stroke-width:18.87764549;stroke-linejoin:round"/><path id="path132" d="m 3731.7832,5187.9747 0,-100.3348" style="fill:none;stroke:#b3b3b3;stroke-width:18.87764549;stroke-linejoin:round"/><path id="path134" d="m 3832.7868,5187.9747 0,-100.3348" style="fill:none;stroke:#b3b3b3;stroke-width:18.87764549;stroke-linejoin:round"/><path id="path136" d="m 3832.7868,5187.9747 0,-100.3348" style="fill:none;stroke:#b3b3b3;stroke-width:18.87764549;stroke-linejoin:round"/><path id="path138" d="m 3933.7905,5187.9747 0,-100.3348" style="fill:none;stroke:#b3b3b3;stroke-width:18.87764549;stroke-linejoin:round"/><path id="path140" d="m 3933.7905,5187.9747 0,-100.3348" style="fill:none;stroke:#b3b3b3;stroke-width:18.87764549;stroke-linejoin:round"/><path id="path142" d="m 4035.463,5187.9747 0,-100.3348" style="fill:none;stroke:#b3b3b3;stroke-width:18.87764549;stroke-linejoin:round"/><path id="path144" d="m 4035.463,5187.9747 0,-100.3348" style="fill:none;stroke:#b3b3b3;stroke-width:18.87764549;stroke-linejoin:round"/><path id="path146" d="m 4136.4666,5187.9747 0,-100.3348" style="fill:none;stroke:#b3b3b3;stroke-width:18.87764549;stroke-linejoin:round"/><path id="path148" d="m 4136.4666,5187.9747 0,-100.3348" style="fill:none;stroke:#b3b3b3;stroke-width:18.87764549;stroke-linejoin:round"/><path id="path150" d="m 4237.4703,5187.9747 0,-100.3348" style="fill:none;stroke:#b3b3b3;stroke-width:18.87764549;stroke-linejoin:round"/><path id="path152" d="m 4237.4703,5187.9747 0,-100.3348" style="fill:none;stroke:#b3b3b3;stroke-width:18.87764549;stroke-linejoin:round"/><path id="path154" d="m 4338.4739,5187.9747 0,-100.3348" style="fill:none;stroke:#b3b3b3;stroke-width:18.87764549;stroke-linejoin:round"/><path id="path156" d="m 4338.4739,5187.9747 0,-100.3348" style="fill:none;stroke:#b3b3b3;stroke-width:18.87764549;stroke-linejoin:round"/><path id="path158" d="m 4439.4775,5187.9747 0,-100.3348" style="fill:none;stroke:#b3b3b3;stroke-width:18.87764549;stroke-linejoin:round"/><path id="path160" d="m 4439.4775,5187.9747 0,-100.3348" style="fill:none;stroke:#b3b3b3;stroke-width:18.87764549;stroke-linejoin:round"/><path id="path162" d="m 4541.1501,5187.9747 0,-100.3348" style="fill:none;stroke:#b3b3b3;stroke-width:18.87764549;stroke-linejoin:round"/><path id="path164" d="m 4541.1501,5187.9747 0,-100.3348" style="fill:none;stroke:#b3b3b3;stroke-width:18.87764549;stroke-linejoin:round"/><path id="path166" d="m 4642.1537,5187.9747 0,-100.3348" style="fill:none;stroke:#b3b3b3;stroke-width:18.87764549;stroke-linejoin:round"/><path id="path168" d="m 4642.1537,5187.9747 0,-100.3348" style="fill:none;stroke:#b3b3b3;stroke-width:18.87764549;stroke-linejoin:round"/><path id="path170" d="m 4743.1573,5187.9747 0,-100.3348" style="fill:none;stroke:#b3b3b3;stroke-width:18.87764549;stroke-linejoin:round"/><path id="path172" d="m 4743.1573,5187.9747 0,-100.3348" style="fill:none;stroke:#b3b3b3;stroke-width:18.87764549;stroke-linejoin:round"/><path id="path174" d="m 4844.161,5187.9747 0,-100.3348" style="fill:none;stroke:#b3b3b3;stroke-width:18.87764549;stroke-linejoin:round"/><path id="path176" d="m 4844.161,5187.9747 0,-100.3348" style="fill:none;stroke:#b3b3b3;stroke-width:18.87764549;stroke-linejoin:round"/><path id="path178" d="m 4945.1646,5187.9747 0,-100.3348" style="fill:none;stroke:#b3b3b3;stroke-width:18.87764549;stroke-linejoin:round"/><path id="path180" d="m 4945.1646,5187.9747 0,-100.3348" style="fill:none;stroke:#b3b3b3;stroke-width:18.87764549;stroke-linejoin:round"/><path id="path182" d="m 5046.8371,5187.9747 0,-100.3348" style="fill:none;stroke:#b3b3b3;stroke-width:18.87764549;stroke-linejoin:round"/><path id="path184" d="m 5046.8371,5187.9747 0,-100.3348" style="fill:none;stroke:#b3b3b3;stroke-width:18.87764549;stroke-linejoin:round"/><path id="path186" d="m 5147.8408,5187.9747 0,-100.3348" style="fill:none;stroke:#b3b3b3;stroke-width:18.87764549;stroke-linejoin:round"/><path id="path188" d="m 5147.8408,5187.9747 0,-100.3348" style="fill:none;stroke:#b3b3b3;stroke-width:18.87764549;stroke-linejoin:round"/><path id="path190" d="m 5248.8444,5187.9747 0,-100.3348" style="fill:none;stroke:#b3b3b3;stroke-width:18.87764549;stroke-linejoin:round"/><path id="path192" d="m 5248.8444,5187.9747 0,-100.3348" style="fill:none;stroke:#b3b3b3;stroke-width:18.87764549;stroke-linejoin:round"/><path id="path194" d="m 5349.848,5187.9747 0,-100.3348" style="fill:none;stroke:#b3b3b3;stroke-width:18.87764549;stroke-linejoin:round"/><path id="path196" d="m 5349.848,5187.9747 0,-100.3348" style="fill:none;stroke:#b3b3b3;stroke-width:18.87764549;stroke-linejoin:round"/><path id="path198" d="m 5450.1828,5187.9747 0,-100.3348" style="fill:none;stroke:#b3b3b3;stroke-width:18.87764549;stroke-linejoin:round"/><path id="path200" d="m 5450.1828,5187.9747 0,-100.3348" style="fill:none;stroke:#b3b3b3;stroke-width:18.87764549;stroke-linejoin:round"/><path id="path202" d="m 5551.8553,5187.9747 0,-100.3348" style="fill:none;stroke:#b3b3b3;stroke-width:18.87764549;stroke-linejoin:round"/><path id="path204" d="m 5551.8553,5187.9747 0,-100.3348" style="fill:none;stroke:#b3b3b3;stroke-width:18.87764549;stroke-linejoin:round"/><path id="path206" d="m 5652.8589,5187.9747 0,-100.3348" style="fill:none;stroke:#b3b3b3;stroke-width:18.87764549;stroke-linejoin:round"/><path id="path208" d="m 5652.8589,5187.9747 0,-100.3348" style="fill:none;stroke:#b3b3b3;stroke-width:18.87764549;stroke-linejoin:round"/><path id="path210" d="m 5753.8626,5187.9747 0,-100.3348" style="fill:none;stroke:#b3b3b3;stroke-width:18.87764549;stroke-linejoin:round"/><path id="path212" d="m 5753.8626,5187.9747 0,-100.3348" style="fill:none;stroke:#b3b3b3;stroke-width:18.87764549;stroke-linejoin:round"/><path id="path214" d="m 5854.8662,5187.9747 0,-100.3348" style="fill:none;stroke:#b3b3b3;stroke-width:18.87764549;stroke-linejoin:round"/><path id="path216" d="m 5854.8662,5187.9747 0,-100.3348" style="fill:none;stroke:#b3b3b3;stroke-width:18.87764549;stroke-linejoin:round"/><path id="path218" d="m 5955.8698,5187.9747 0,-100.3348" style="fill:none;stroke:#b3b3b3;stroke-width:18.87764549;stroke-linejoin:round"/><path id="path220" d="m 5955.8698,5187.9747 0,-100.3348" style="fill:none;stroke:#b3b3b3;stroke-width:18.87764549;stroke-linejoin:round"/><path id="path222" d="m 6057.5423,5187.9747 0,-100.3348" style="fill:none;stroke:#b3b3b3;stroke-width:18.87764549;stroke-linejoin:round"/><path id="path224" d="m 6057.5423,5187.9747 0,-100.3348" style="fill:none;stroke:#b3b3b3;stroke-width:18.87764549;stroke-linejoin:round"/><path id="path226" d="m 6158.546,5187.9747 0,-100.3348" style="fill:none;stroke:#b3b3b3;stroke-width:18.87764549;stroke-linejoin:round"/><path id="path228" d="m 6158.546,5187.9747 0,-100.3348" style="fill:none;stroke:#b3b3b3;stroke-width:18.87764549;stroke-linejoin:round"/><path id="path230" d="m 6259.5496,5187.9747 0,-100.3348" style="fill:none;stroke:#b3b3b3;stroke-width:18.87764549;stroke-linejoin:round"/><path id="path232" d="m 6259.5496,5187.9747 0,-100.3348" style="fill:none;stroke:#b3b3b3;stroke-width:18.87764549;stroke-linejoin:round"/><path id="path234" d="m 6360.5532,5187.9747 0,-100.3348" style="fill:none;stroke:#b3b3b3;stroke-width:18.87764549;stroke-linejoin:round"/><path id="path236" d="m 6360.5532,5187.9747 0,-100.3348" style="fill:none;stroke:#b3b3b3;stroke-width:18.87764549;stroke-linejoin:round"/><path id="path238" d="m 6461.5569,5187.9747 0,-100.3348" style="fill:none;stroke:#b3b3b3;stroke-width:18.87764549;stroke-linejoin:round"/><path id="path240" d="m 6461.5569,5187.9747 0,-100.3348" style="fill:none;stroke:#b3b3b3;stroke-width:18.87764549;stroke-linejoin:round"/><path id="path242" d="m 6563.2294,5187.9747 0,-100.3348" style="fill:none;stroke:#b3b3b3;stroke-width:18.87764549;stroke-linejoin:round"/><path id="path244" d="m 6563.2294,5187.9747 0,-100.3348" style="fill:none;stroke:#b3b3b3;stroke-width:18.87764549;stroke-linejoin:round"/><path id="path246" d="m 6664.233,5187.9747 0,-100.3348" style="fill:none;stroke:#b3b3b3;stroke-width:18.87764549;stroke-linejoin:round"/><path id="path248" d="m 6664.233,5187.9747 0,-100.3348" style="fill:none;stroke:#b3b3b3;stroke-width:18.87764549;stroke-linejoin:round"/><path id="path250" d="m 6765.2367,5187.9747 0,-100.3348" style="fill:none;stroke:#b3b3b3;stroke-width:18.87764549;stroke-linejoin:round"/><path id="path252" d="m 6765.2367,5187.9747 0,-100.3348" style="fill:none;stroke:#b3b3b3;stroke-width:18.87764549;stroke-linejoin:round"/><path id="path254" d="m 6866.2403,5187.9747 0,-100.3348" style="fill:none;stroke:#b3b3b3;stroke-width:18.87764549;stroke-linejoin:round"/><path id="path256" d="m 6866.2403,5187.9747 0,-100.3348" style="fill:none;stroke:#b3b3b3;stroke-width:18.87764549;stroke-linejoin:round"/><path id="path258" d="m 6967.2439,5187.9747 0,-100.3348" style="fill:none;stroke:#b3b3b3;stroke-width:18.87764549;stroke-linejoin:round"/><path id="path260" d="m 6967.2439,5187.9747 0,-100.3348" style="fill:none;stroke:#b3b3b3;stroke-width:18.87764549;stroke-linejoin:round"/><path id="path262" d="m 7068.9165,5187.9747 0,-100.3348" style="fill:none;stroke:#b3b3b3;stroke-width:18.87764549;stroke-linejoin:round"/><path id="path264" d="m 7068.9165,5187.9747 0,-100.3348" style="fill:none;stroke:#b3b3b3;stroke-width:18.87764549;stroke-linejoin:round"/><path id="path266" d="m 7169.9201,5187.9747 0,-100.3348" style="fill:none;stroke:#b3b3b3;stroke-width:18.87764549;stroke-linejoin:round"/><path id="path268" d="m 7169.9201,5187.9747 0,-100.3348" style="fill:none;stroke:#b3b3b3;stroke-width:18.87764549;stroke-linejoin:round"/><path id="path270" d="m 7270.9237,5187.9747 0,-100.3348" style="fill:none;stroke:#b3b3b3;stroke-width:18.87764549;stroke-linejoin:round"/><path id="path272" d="m 7270.9237,5187.9747 0,-100.3348" style="fill:none;stroke:#b3b3b3;stroke-width:18.87764549;stroke-linejoin:round"/><path id="path274" d="m 7371.9274,5187.9747 0,-100.3348" style="fill:none;stroke:#b3b3b3;stroke-width:18.87764549;stroke-linejoin:round"/><path id="path276" d="m 7371.9274,5187.9747 0,-100.3348" style="fill:none;stroke:#b3b3b3;stroke-width:18.87764549;stroke-linejoin:round"/><path id="path278" d="m 7472.931,5187.9747 0,-100.3348" style="fill:none;stroke:#b3b3b3;stroke-width:18.87764549;stroke-linejoin:round"/><path id="path280" d="m 7472.931,5187.9747 0,-100.3348" style="fill:none;stroke:#b3b3b3;stroke-width:18.87764549;stroke-linejoin:round"/><path id="path282" d="m 7574.6035,5187.9747 0,-100.3348" style="fill:none;stroke:#b3b3b3;stroke-width:18.87764549;stroke-linejoin:round"/><path id="path284" d="m 7574.6035,5187.9747 0,-100.3348" style="fill:none;stroke:#b3b3b3;stroke-width:18.87764549;stroke-linejoin:round"/><path id="path286" d="m 7675.6072,5187.9747 0,-100.3348" style="fill:none;stroke:#b3b3b3;stroke-width:18.87764549;stroke-linejoin:round"/><path id="path288" d="m 7675.6072,5187.9747 0,-100.3348" style="fill:none;stroke:#b3b3b3;stroke-width:18.87764549;stroke-linejoin:round"/><path id="path290" d="m 7776.6108,5187.9747 0,-100.3348" style="fill:none;stroke:#b3b3b3;stroke-width:18.87764549;stroke-linejoin:round"/><path id="path292" d="m 7776.6108,5187.9747 0,-100.3348" style="fill:none;stroke:#b3b3b3;stroke-width:18.87764549;stroke-linejoin:round"/><path id="path294" d="m 7877.6144,5187.9747 0,-100.3348" style="fill:none;stroke:#b3b3b3;stroke-width:18.87764549;stroke-linejoin:round"/><path id="path296" d="m 7877.6144,5187.9747 0,-100.3348" style="fill:none;stroke:#b3b3b3;stroke-width:18.87764549;stroke-linejoin:round"/><path id="path298" d="m 7979.287,5187.9747 0,-100.3348" style="fill:none;stroke:#b3b3b3;stroke-width:18.87764549;stroke-linejoin:round"/><path id="path300" d="m 7979.287,5187.9747 0,-100.3348" style="fill:none;stroke:#b3b3b3;stroke-width:18.87764549;stroke-linejoin:round"/><path id="path302" d="m 1001.3406,5087.6399 6977.9464,0" style="fill:none;stroke:#b3b3b3;stroke-width:18.87764549;stroke-linejoin:round"/><path id="path304" d="m 901.00591,5087.6399 100.33469,0" style="fill:none;stroke:#b3b3b3;stroke-width:18.87764549;stroke-linejoin:round"/><path id="path306" d="m 901.00591,5087.6399 100.33469,0" style="fill:none;stroke:#b3b3b3;stroke-width:18.87764549;stroke-linejoin:round"/><path id="path308" d="m 901.00591,4443.4909 100.33469,0" style="fill:none;stroke:#b3b3b3;stroke-width:18.87764549;stroke-linejoin:round"/><path id="path310" d="m 901.00591,4443.4909 100.33469,0" style="fill:none;stroke:#b3b3b3;stroke-width:18.87764549;stroke-linejoin:round"/><path id="path312" d="m 901.00591,3800.0108 100.33469,0" style="fill:none;stroke:#b3b3b3;stroke-width:18.87764549;stroke-linejoin:round"/><path id="path314" d="m 901.00591,3800.0108 100.33469,0" style="fill:none;stroke:#b3b3b3;stroke-width:18.87764549;stroke-linejoin:round"/><path id="path316" d="m 901.00591,3156.5307 100.33469,0" style="fill:none;stroke:#b3b3b3;stroke-width:18.87764549;stroke-linejoin:round"/><path id="path318" d="m 901.00591,3156.5307 100.33469,0" style="fill:none;stroke:#b3b3b3;stroke-width:18.87764549;stroke-linejoin:round"/><path id="path320" d="m 901.00591,2513.7195 100.33469,0" style="fill:none;stroke:#b3b3b3;stroke-width:18.87764549;stroke-linejoin:round"/><path id="path322" d="m 901.00591,2513.7195 100.33469,0" style="fill:none;stroke:#b3b3b3;stroke-width:18.87764549;stroke-linejoin:round"/><path id="path324" d="m 901.00591,1870.2394 100.33469,0" style="fill:none;stroke:#b3b3b3;stroke-width:18.87764549;stroke-linejoin:round"/><path id="path326" d="m 901.00591,1870.2394 100.33469,0" style="fill:none;stroke:#b3b3b3;stroke-width:18.87764549;stroke-linejoin:round"/><path id="path328" d="m 901.00591,1226.0905 100.33469,0" style="fill:none;stroke:#b3b3b3;stroke-width:18.87764549;stroke-linejoin:round"/><path id="path330" d="m 901.00591,1226.0905 100.33469,0" style="fill:none;stroke:#b3b3b3;stroke-width:18.87764549;stroke-linejoin:round"/><path id="path332" d="m 1001.3406,5087.6399 0,-3861.5494" style="fill:none;stroke:#b3b3b3;stroke-width:18.87764549;stroke-linejoin:round"/><path id="path334" d="m 1001.3406,1870.2394 101.0037,0 101.0036,0 101.0036,0 101.0037,0 101.6725,643.4801 101.0036,642.8112 101.0037,643.4801 101.0036,643.4801 101.0036,644.149 101.6726,0 101.0036,0 101.0036,0 101.0037,0 101.0036,0 101.6725,0 101.0037,0 101.0036,0 101.0036,0 101.0037,0 101.6725,0 101.0036,0 101.0037,0 101.0036,0 101.0036,0 101.6725,0 101.0037,0 101.0036,0 101.0036,0 101.0037,0 101.6725,0 101.0036,0 101.0037,0 101.0036,0 101.0036,0 101.6726,0 101.0036,0 101.0036,0 101.0037,0 101.0036,0 101.6725,0 101.0037,0 101.0036,0 101.0036,0 100.3348,0 101.6725,0 101.0036,0 101.0037,0 101.0036,0 101.0036,0 101.6725,0 101.0037,0 101.0036,0 101.0036,0 101.0037,0 101.6725,0 101.0036,0 101.0037,0 101.0036,0 101.0036,0 101.6726,0 101.0036,0 101.0036,0 101.0037,0 101.0036,0 101.6725,0 101.0037,0 101.0036,0 101.0036,0 101.6726,0" style="fill:none;stroke:#004586;stroke-width:53.51185989;stroke-linejoin:round"/><path id="path336" d="m 1001.3406,1870.2394 101.0037,0 101.0036,0 101.0036,0 101.0037,0 101.6725,357.1917 101.0036,357.8605 101.0037,357.1917 101.0036,357.1917 101.0036,357.1916 101.6726,357.8606 101.0036,357.1916 101.0036,357.8606 101.0037,357.8605 101.0036,0 101.6725,0 101.0037,0 101.0036,0 101.0036,0 101.0037,0 101.6725,0 101.0036,0 101.0037,0 101.0036,0 101.0036,0 101.6725,0 101.0037,0 101.0036,0 101.0036,0 101.0037,0 101.6725,0 101.0036,0 101.0037,0 101.0036,0 101.0036,0 101.6726,0 101.0036,0 101.0036,0 101.0037,0 101.0036,0 101.6725,0 101.0037,0 101.0036,0 101.0036,0 100.3348,0 101.6725,0 101.0036,0 101.0037,0 101.0036,0 101.0036,0 101.6725,0 101.0037,0 101.0036,0 101.0036,0 101.0037,0 101.6725,0 101.0036,0 101.0037,0 101.0036,0 101.0036,0 101.6726,0 101.0036,0 101.0036,0 101.0037,0 101.0036,0 101.6725,0 101.0037,0 101.0036,0 101.0036,0 101.6726,0" style="fill:none;stroke:#ff420e;stroke-width:53.51185989;stroke-linejoin:round"/><path id="path338" d="m 1001.3406,1870.2394 101.0037,0 101.0036,0 101.0036,0 101.0037,0 101.6725,247.4924 101.0036,247.4923 101.0037,247.4924 101.0036,247.4923 101.0036,246.8235 101.6726,247.4923 101.0036,247.4924 101.0036,247.4923 101.0037,247.4923 101.0036,247.4924 101.6725,247.4923 101.0037,247.4924 101.0036,248.1612 101.0036,0 101.0037,0 101.6725,0 101.0036,0 101.0037,0 101.0036,0 101.0036,0 101.6725,0 101.0037,0 101.0036,0 101.0036,0 101.0037,0 101.6725,0 101.0036,0 101.0037,0 101.0036,0 101.0036,0 101.6726,0 101.0036,0 101.0036,0 101.0037,0 101.0036,0 101.6725,0 101.0037,0 101.0036,0 101.0036,0 100.3348,0 101.6725,0 101.0036,0 101.0037,0 101.0036,0 101.0036,0 101.6725,0 101.0037,0 101.0036,0 101.0036,0 101.0037,0 101.6725,0 101.0036,0 101.0037,0 101.0036,0 101.0036,0 101.6726,0 101.0036,0 101.0036,0 101.0037,0 101.0036,0 101.6725,0 101.0037,0 101.0036,0 101.0036,0 101.6726,0" style="fill:none;stroke:#ffd320;stroke-width:53.51185989;stroke-linejoin:round"/><path id="path340" d="m 1001.3406,1870.2394 101.0037,0 101.0036,0 101.0036,0 101.0037,0 101.6725,189.2982 101.0036,189.2982 101.0037,189.2982 101.0036,189.2982 101.0036,189.2982 101.6726,189.2982 101.0036,188.6293 101.0036,189.2982 101.0037,189.2982 101.0036,189.2982 101.6725,189.2982 101.0037,189.2982 101.0036,189.2982 101.0036,189.2982 101.0037,189.2982 101.6725,189.2982 101.0036,189.2982 101.0037,0 101.0036,0 101.0036,0 101.6725,0 101.0037,0 101.0036,0 101.0036,0 101.0037,0 101.6725,0 101.0036,0 101.0037,0 101.0036,0 101.0036,0 101.6726,0 101.0036,0 101.0036,0 101.0037,0 101.0036,0 101.6725,0 101.0037,0 101.0036,0 101.0036,0 100.3348,0 101.6725,0 101.0036,0 101.0037,0 101.0036,0 101.0036,0 101.6725,0 101.0037,0 101.0036,0 101.0036,0 101.0037,0 101.6725,0 101.0036,0 101.0037,0 101.0036,0 101.0036,0 101.6726,0 101.0036,0 101.0036,0 101.0037,0 101.0036,0 101.6725,0 101.0037,0 101.0036,0 101.0036,0 101.6726,0" style="fill:none;stroke:#579d1c;stroke-width:53.51185989;stroke-linejoin:round"/><path id="path342" d="m 1001.3406,1870.2394 101.0037,0 101.0036,0 101.0036,0 101.0037,0 101.6725,153.1777 101.0036,153.1777 101.0037,153.1777 101.0036,153.1777 101.0036,153.1777 101.6726,153.1777 101.0036,153.1777 101.0036,152.5088 101.0037,153.1777 101.0036,153.8466 101.6725,153.1777 101.0037,153.1777 101.0036,153.1777 101.0036,153.1777 101.0037,153.1777 101.6725,153.1776 101.0036,153.1777 101.0037,153.1777 101.0036,153.1777 101.0036,153.1777 101.6725,153.8466 101.0037,0 101.0036,0 101.0036,0 101.0037,0 101.6725,0 101.0036,0 101.0037,0 101.0036,0 101.0036,0 101.6726,0 101.0036,0 101.0036,0 101.0037,0 101.0036,0 101.6725,0 101.0037,0 101.0036,0 101.0036,0 100.3348,0 101.6725,0 101.0036,0 101.0037,0 101.0036,0 101.0036,0 101.6725,0 101.0037,0 101.0036,0 101.0036,0 101.0037,0 101.6725,0 101.0036,0 101.0037,0 101.0036,0 101.0036,0 101.6726,0 101.0036,0 101.0036,0 101.0037,0 101.0036,0 101.6725,0 101.0037,0 101.0036,0 101.0036,0 101.6726,0" style="fill:none;stroke:#7e0021;stroke-width:53.51185989;stroke-linejoin:round"/><path id="path344" d="m 1001.3406,1870.2394 101.0037,0 101.0036,0 101.0036,0 101.0037,0 101.6725,128.4285 101.0036,129.0974 101.0037,128.4284 101.0036,128.4285 101.0036,129.0973 101.6726,128.4285 101.0036,129.0974 101.0036,128.4284 101.0037,128.4285 101.0036,128.4284 101.6725,128.4285 101.0037,129.0974 101.0036,128.4284 101.0036,129.0974 101.0037,128.4284 101.6725,129.0974 101.0036,128.4284 101.0037,128.4285 101.0036,129.0974 101.0036,128.4284 101.6725,129.0974 101.0037,128.4284 101.0036,129.0974 101.0036,128.4285 101.0037,129.0973 101.6725,0 101.0036,0 101.0037,0 101.0036,0 101.0036,0 101.6726,0 101.0036,0 101.0036,0 101.0037,0 101.0036,0 101.6725,0 101.0037,0 101.0036,0 101.0036,0 100.3348,0 101.6725,0 101.0036,0 101.0037,0 101.0036,0 101.0036,0 101.6725,0 101.0037,0 101.0036,0 101.0036,0 101.0037,0 101.6725,0 101.0036,0 101.0037,0 101.0036,0 101.0036,0 101.6726,0 101.0036,0 101.0036,0 101.0037,0 101.0036,0 101.6725,0 101.0037,0 101.0036,0 101.0036,0 101.6726,0" style="fill:none;stroke:#83caff;stroke-width:53.51185989;stroke-linejoin:round"/><path id="path346" d="m 1001.3406,1870.2394 101.0037,0 101.0036,0 101.0036,0 101.0037,0 101.6725,111.0371 101.0036,110.3683 101.0037,111.0371 101.0036,111.0371 101.0036,111.0371 101.6726,111.0371 101.0036,111.0371 101.0036,111.0371 101.0037,111.0371 101.0036,111.0371 101.6725,109.6993 101.0037,111.0371 101.0036,111.0371 101.0036,111.0371 101.0037,111.0371 101.6725,111.0371 101.0036,111.0371 101.0037,111.0372 101.0036,111.0371 101.0036,110.3682 101.6725,111.0371 101.0037,111.0371 101.0036,111.0371 101.0036,111.0371 101.0037,111.0371 101.6725,111.0371 101.0036,111.0371 101.0037,111.0371 101.0036,111.0371 101.0036,0 101.6726,0 101.0036,0 101.0036,0 101.0037,0 101.0036,0 101.6725,0 101.0037,0 101.0036,0 101.0036,0 100.3348,0 101.6725,0 101.0036,0 101.0037,0 101.0036,0 101.0036,0 101.6725,0 101.0037,0 101.0036,0 101.0036,0 101.0037,0 101.6725,0 101.0036,0 101.0037,0 101.0036,0 101.0036,0 101.6726,0 101.0036,0 101.0036,0 101.0037,0 101.0036,0 101.6725,0 101.0037,0 101.0036,0 101.0036,0 101.6726,0" style="fill:none;stroke:#314004;stroke-width:53.51185989;stroke-linejoin:round"/><path id="path348" d="m 1001.3406,1870.2394 101.0037,0 101.0036,0 101.0036,0 101.0037,0 101.6725,96.9903 101.0036,97.6591 101.0037,97.6592 101.0036,97.6591 101.0036,97.6592 101.6726,96.9902 101.0036,97.6591 101.0036,97.6592 101.0037,97.6591 101.0036,96.9903 101.6725,97.6591 101.0037,96.9902 101.0036,97.6592 101.0036,97.6591 101.0037,96.9903 101.6725,97.6591 101.0036,97.6592 101.0037,97.6591 101.0036,97.6591 101.0036,96.9903 101.6725,97.6591 101.0037,97.6592 101.0036,97.6591 101.0036,96.9902 101.0037,97.6592 101.6725,97.6591 101.0036,97.6592 101.0037,97.6591 101.0036,96.9903 101.0036,97.6591 101.6726,97.6591 101.0036,97.6592 101.0036,97.6591 101.0037,0 101.0036,0 101.6725,0 101.0037,0 101.0036,0 101.0036,0 100.3348,0 101.6725,0 101.0036,0 101.0037,0 101.0036,0 101.0036,0 101.6725,0 101.0037,0 101.0036,0 101.0036,0 101.0037,0 101.6725,0 101.0036,0 101.0037,0 101.0036,0 101.0036,0 101.6726,0 101.0036,0 101.0036,0 101.0037,0 101.0036,0 101.6725,0 101.0037,0 101.0036,0 101.0036,0 101.6726,0" style="fill:none;stroke:#aecf00;stroke-width:53.51185989;stroke-linejoin:round"/><path id="path350" d="m 1001.3406,1870.2394 101.0037,0 101.0036,0 101.0036,0 101.0037,0 101.6725,86.9568 101.0036,86.9568 101.0037,86.9568 101.0036,86.9567 101.0036,86.9568 101.6726,86.9568 101.0036,86.9567 101.0036,86.9568 101.0037,86.9568 101.0036,86.9567 101.6725,86.9568 101.0037,86.9568 101.0036,86.9567 101.0036,86.2879 101.0037,86.9568 101.6725,86.9568 101.0036,86.9567 101.0037,86.9568 101.0036,86.9568 101.0036,86.9567 101.6725,86.9568 101.0037,86.9568 101.0036,86.9567 101.0036,86.9568 101.0037,86.9568 101.6725,86.9568 101.0036,86.9567 101.0037,86.9568 101.0036,86.9568 101.0036,86.9567 101.6726,86.9568 101.0036,86.9568 101.0036,86.9567 101.0037,86.9568 101.0036,86.9568 101.6725,86.9567 101.0037,87.6257 101.0036,0 101.0036,0 100.3348,0 101.6725,0 101.0036,0 101.0037,0 101.0036,0 101.0036,0 101.6725,0 101.0037,0 101.0036,0 101.0036,0 101.0037,0 101.6725,0 101.0036,0 101.0037,0 101.0036,0 101.0036,0 101.6726,0 101.0036,0 101.0036,0 101.0037,0 101.0036,0 101.6725,0 101.0037,0 101.0036,0 101.0036,0 101.6726,0" style="fill:none;stroke:#4b1f6f;stroke-width:53.51185989;stroke-linejoin:round"/><path id="path352" d="m 1001.3406,1870.2394 101.0037,0 101.0036,0 101.0036,0 101.0037,0 101.6725,78.2611 101.0036,78.2611 101.0037,78.93 101.0036,78.2611 101.0036,78.2611 101.6726,78.93 101.0036,78.2611 101.0036,78.2611 101.0037,78.93 101.0036,78.2611 101.6725,78.2611 101.0037,78.9299 101.0036,78.2611 101.0036,78.2611 101.0037,78.2611 101.6725,78.2611 101.0036,78.2611 101.0037,78.93 101.0036,78.2611 101.0036,78.2611 101.6725,78.93 101.0037,78.2611 101.0036,78.2611 101.0036,78.93 101.0037,78.261 101.6725,78.2611 101.0036,78.93 101.0037,78.2611 101.0036,78.2611 101.0036,78.93 101.6726,78.2611 101.0036,78.2611 101.0036,78.93 101.0037,78.2611 101.0036,78.2611 101.6725,78.93 101.0037,78.2611 101.0036,78.261 101.0036,78.93 100.3348,78.2611 101.6725,78.93 101.0036,0 101.0037,0 101.0036,0 101.0036,0 101.6725,0 101.0037,0 101.0036,0 101.0036,0 101.0037,0 101.6725,0 101.0036,0 101.0037,0 101.0036,0 101.0036,0 101.6726,0 101.0036,0 101.0036,0 101.0037,0 101.0036,0 101.6725,0 101.0037,0 101.0036,0 101.0036,0 101.6726,0" style="fill:none;stroke:#ff950e;stroke-width:53.51185989;stroke-linejoin:round"/><path id="path354" d="m 1001.3406,1870.2394 101.0037,0 101.0036,0 101.0036,0 101.0037,0 101.6725,71.5722 101.0036,70.9032 101.0037,71.5721 101.0036,71.5721 101.0036,71.5721 101.6726,71.5721 101.0036,71.5721 101.0036,71.5721 101.0037,71.5721 101.0036,71.5721 101.6725,71.5722 101.0037,71.5721 101.0036,70.9032 101.0036,71.5721 101.0037,71.5721 101.6725,70.9032 101.0036,71.5721 101.0037,71.5721 101.0036,71.5721 101.0036,71.5722 101.6725,71.5721 101.0037,71.5721 101.0036,71.5721 101.0036,70.9032 101.0037,71.5721 101.6725,71.5721 101.0036,71.5721 101.0037,71.5721 101.0036,71.5722 101.0036,71.5721 101.6726,71.5721 101.0036,71.5721 101.0036,71.5721 101.0037,71.5721 101.0036,70.9032 101.6725,71.5721 101.0037,71.5721 101.0036,71.5721 101.0036,71.5722 100.3348,71.5721 101.6725,71.5721 101.0036,71.5721 101.0037,71.5721 101.0036,71.5721 101.0036,71.5721 101.6725,0 101.0037,0 101.0036,0 101.0036,0 101.0037,0 101.6725,0 101.0036,0 101.0037,0 101.0036,0 101.0036,0 101.6726,0 101.0036,0 101.0036,0 101.0037,0 101.0036,0 101.6725,0 101.0037,0 101.0036,0 101.0036,0 101.6726,0" style="fill:none;stroke:#c5000b;stroke-width:53.51185989;stroke-linejoin:round"/><path id="path356" d="m 1001.3406,1870.2394 101.0037,0 101.0036,0 101.0036,0 101.0037,0 101.6725,65.5521 101.0036,65.552 101.0037,65.552 101.0036,65.552 101.0036,66.221 101.6726,65.552 101.0036,65.552 101.0036,65.5521 101.0037,65.552 101.0036,65.552 101.6725,66.2209 101.0037,65.5521 101.0036,65.552 101.0036,65.552 101.0037,65.552 101.6725,66.221 101.0036,65.552 101.0037,64.8831 101.0036,65.552 101.0036,65.5521 101.6725,65.552 101.0037,66.2209 101.0036,65.552 101.0036,65.5521 101.0037,65.552 101.6725,65.552 101.0036,66.2209 101.0037,65.5521 101.0036,65.552 101.0036,65.552 101.6726,65.5521 101.0036,65.552 101.0036,66.2209 101.0037,65.552 101.0036,65.5521 101.6725,65.552 101.0037,65.552 101.0036,66.2209 101.0036,65.5521 100.3348,65.552 101.6725,65.552 101.0036,65.552 101.0037,65.5521 101.0036,66.2209 101.0036,65.552 101.6725,65.552 101.0037,65.5521 101.0036,65.552 101.0036,66.2209 101.0037,0 101.6725,0 101.0036,0 101.0037,0 101.0036,0 101.0036,0 101.6726,0 101.0036,0 101.0036,0 101.0037,0 101.0036,0 101.6725,0 101.0037,0 101.0036,0 101.0036,0 101.6726,0" style="fill:none;stroke:#0084d1;stroke-width:53.51185989;stroke-linejoin:round"/><path id="path358" d="m 1001.3406,1870.2394 101.0037,0 101.0036,0 101.0036,0 101.0037,0 101.6725,60.2009 101.0036,60.8697 101.0037,60.8698 101.0036,60.8697 101.0036,60.8697 101.6726,60.2009 101.0036,60.8697 101.0036,60.8698 101.0037,60.8697 101.0036,60.2008 101.6725,60.8698 101.0037,60.8697 101.0036,60.8698 101.0036,60.2008 101.0037,60.8697 101.6725,60.8698 101.0036,60.8697 101.0037,60.8697 101.0036,59.532 101.0036,60.8697 101.6725,60.8698 101.0037,60.8697 101.0036,60.2008 101.0036,60.8698 101.0037,60.8697 101.6725,60.8698 101.0036,60.2008 101.0037,60.8697 101.0036,60.8698 101.0036,60.8697 101.6726,60.8698 101.0036,60.2008 101.0036,60.8697 101.0037,60.8698 101.0036,60.8697 101.6725,60.2009 101.0037,60.8697 101.0036,60.8697 101.0036,60.8698 100.3348,60.2008 101.6725,60.8697 101.0036,60.8698 101.0037,60.8697 101.0036,60.8698 101.0036,60.2008 101.6725,60.8697 101.0037,60.8698 101.0036,60.8697 101.0036,60.2009 101.0037,60.8697 101.6725,60.8697 101.0036,60.8698 101.0037,60.8697 101.0036,0 101.0036,0 101.6726,0 101.0036,0 101.0036,0 101.0037,0 101.0036,0 101.6725,0 101.0037,0 101.0036,0 101.0036,0 101.6726,0" style="fill:none;stroke:#004586;stroke-width:53.51185989;stroke-linejoin:round"/><path id="path360" d="m 1001.3406,1870.2394 101.0037,0 101.0036,0 101.0036,0 101.0037,0 101.6725,56.1875 101.0036,56.1874 101.0037,56.8564 101.0036,56.1874 101.0036,56.8564 101.6726,56.1874 101.0036,56.1875 101.0036,56.8563 101.0037,56.1875 101.0036,56.8563 101.6725,56.1875 101.0037,56.1874 101.0036,56.8564 101.0036,56.1875 101.0037,56.8563 101.6725,56.1875 101.0036,56.1874 101.0037,56.8564 101.0036,56.1874 101.0036,56.8564 101.6725,55.5185 101.0037,56.1875 101.0036,56.8563 101.0036,56.1875 101.0037,56.8563 101.6725,56.1875 101.0036,56.1874 101.0037,56.8564 101.0036,56.1874 101.0036,56.8564 101.6726,56.1874 101.0036,56.1875 101.0036,56.8563 101.0037,56.1875 101.0036,56.8563 101.6725,56.1875 101.0037,56.1874 101.0036,56.8564 101.0036,56.1874 100.3348,56.8564 101.6725,56.1874 101.0036,56.1875 101.0037,56.8563 101.0036,56.1875 101.0036,56.8563 101.6725,56.1875 101.0037,56.1874 101.0036,56.8564 101.0036,56.1874 101.0037,56.8564 101.6725,56.1874 101.0036,56.1875 101.0037,56.8563 101.0036,56.1875 101.0036,56.8563 101.6726,56.1875 101.0036,56.8563 101.0036,0 101.0037,0 101.0036,0 101.6725,0 101.0037,0 101.0036,0 101.0036,0 101.6726,0" style="fill:none;stroke:#ff420e;stroke-width:53.51185989;stroke-linejoin:round"/><path id="path362" d="m 1001.3406,1870.2394 101.0037,0 101.0036,0 101.0036,0 101.0037,0 101.6725,52.843 101.0036,52.1741 101.0037,52.8429 101.0036,52.843 101.0036,52.8429 101.6726,52.843 101.0036,52.843 101.0036,52.8429 101.0037,52.1741 101.0036,52.8429 101.6725,52.843 101.0037,52.843 101.0036,52.8429 101.0036,52.843 101.0037,52.8429 101.6725,52.843 101.0036,52.1741 101.0037,52.8429 101.0036,52.843 101.0036,52.8429 101.6725,52.843 101.0037,52.1741 101.0036,52.8429 101.0036,52.1741 101.0037,52.843 101.6725,52.8429 101.0036,52.843 101.0037,52.8429 101.0036,52.843 101.0036,52.843 101.6726,52.8429 101.0036,52.1741 101.0036,52.8429 101.0037,52.843 101.0036,52.843 101.6725,52.8429 101.0037,52.843 101.0036,52.8429 101.0036,52.1741 100.3348,52.843 101.6725,52.8429 101.0036,52.843 101.0037,52.8429 101.0036,52.843 101.0036,52.843 101.6725,52.8429 101.0037,52.1741 101.0036,52.8429 101.0036,52.843 101.0037,52.843 101.6725,52.8429 101.0036,52.843 101.0037,52.8429 101.0036,52.1741 101.0036,52.843 101.6726,52.8429 101.0036,52.843 101.0036,52.8429 101.0037,52.843 101.0036,52.843 101.6725,52.8429 101.0037,0 101.0036,0 101.0036,0 101.6726,0" style="fill:none;stroke:#ffd320;stroke-width:53.51185989;stroke-linejoin:round"/><path id="path364" d="m 1001.3406,1870.2394 101.0037,0 101.0036,0 101.0036,0 101.0037,0 101.6725,49.4985 101.0036,49.4985 101.0037,49.4985 101.0036,49.4984 101.0036,49.4985 101.6726,49.4985 101.0036,49.4984 101.0036,49.4985 101.0037,49.4985 101.0036,49.4984 101.6725,49.4985 101.0037,49.4985 101.0036,49.4984 101.0036,49.4985 101.0037,49.4985 101.6725,49.4984 101.0036,49.4985 101.0037,49.4985 101.0036,49.4985 101.0036,49.4984 101.6725,49.4985 101.0037,49.4985 101.0036,49.4984 101.0036,48.8296 101.0037,49.4985 101.6725,49.4984 101.0036,49.4985 101.0037,49.4985 101.0036,49.4984 101.0036,49.4985 101.6726,49.4985 101.0036,49.4984 101.0036,49.4985 101.0037,49.4985 101.0036,49.4985 101.6725,49.4984 101.0037,49.4985 101.0036,49.4985 101.0036,49.4984 100.3348,49.4985 101.6725,49.4985 101.0036,49.4984 101.0037,49.4985 101.0036,49.4985 101.0036,49.4984 101.6725,49.4985 101.0037,49.4985 101.0036,49.4984 101.0036,49.4985 101.0037,49.4985 101.6725,49.4985 101.0036,49.4984 101.0037,49.4985 101.0036,49.4985 101.0036,49.4984 101.6726,49.4985 101.0036,49.4985 101.0036,49.4984 101.0037,49.4985 101.0036,49.4985 101.6725,49.4984 101.0037,49.4985 101.0036,49.4985 101.0036,49.4985 101.6726,50.1673" style="fill:none;stroke:#579d1c;stroke-width:53.51185989;stroke-linejoin:round"/><path id="path366" d="m 1001.3406,1870.2394 101.0037,0 101.0036,0 101.0036,0 101.0037,0 101.6725,46.154 101.0036,46.8229 101.0037,46.8229 101.0036,46.8228 101.0036,46.154 101.6726,46.8229 101.0036,46.8229 101.0036,46.154 101.0037,46.8228 101.0036,46.8229 101.6725,46.8229 101.0037,46.154 101.0036,46.8228 101.0036,46.8229 101.0037,46.154 101.6725,46.8229 101.0036,46.8228 101.0037,46.8229 101.0036,46.154 101.0036,46.8229 101.6725,46.8228 101.0037,46.8229 101.0036,46.154 101.0036,46.8229 101.0037,46.154 101.6725,46.1539 101.0036,46.8229 101.0037,46.8229 101.0036,46.8229 101.0036,46.1539 101.6726,46.8229 101.0036,46.8229 101.0036,46.8229 101.0037,46.1539 101.0036,46.8229 101.6725,46.8229 101.0037,46.154 101.0036,46.8229 101.0036,46.8228 100.3348,46.8229 101.6725,46.154 101.0036,46.8229 101.0037,46.8228 101.0036,46.154 101.0036,46.8229 101.6725,46.8229 101.0037,46.8228 101.0036,46.154 101.0036,46.8229 101.0037,46.8229 101.6725,46.1539 101.0036,46.8229 101.0037,46.8229 101.0036,46.8229 101.0036,46.1539 101.6726,46.8229 101.0036,46.8229 101.0036,46.8229 101.0037,46.154 101.0036,46.8228 101.6725,46.8229 101.0037,46.154 101.0036,46.8229 101.0036,46.8228 101.6726,46.8229" style="fill:none;stroke:#7e0021;stroke-width:53.51185989;stroke-linejoin:round"/><path id="path368" d="m 1001.3406,1870.2394 101.0037,0 101.0036,0 101.0036,0 101.0037,0 101.6725,44.1473 101.0036,43.4784 101.0037,44.1473 101.0036,44.1473 101.0036,44.1473 101.6726,44.1472 101.0036,44.1473 101.0036,44.1473 101.0037,44.1473 101.0036,44.1473 101.6725,44.1473 101.0037,43.4783 101.0036,44.1473 101.0036,44.1473 101.0037,44.1473 101.6725,44.1473 101.0036,44.1473 101.0037,44.1472 101.0036,44.1473 101.0036,44.1473 101.6725,44.1473 101.0037,44.1473 101.0036,43.4784 101.0036,44.1472 101.0037,44.1473 101.6725,43.4784 101.0036,44.1473 101.0037,44.1473 101.0036,44.1473 101.0036,44.1472 101.6726,44.1473 101.0036,44.1473 101.0036,43.4784 101.0037,44.1473 101.0036,44.1473 101.6725,44.1472 101.0037,44.1473 101.0036,44.1473 101.0036,44.1473 100.3348,44.1473 101.6725,44.1473 101.0036,44.1472 101.0037,43.4784 101.0036,44.1473 101.0036,44.1473 101.6725,44.1473 101.0037,44.1473 101.0036,44.1472 101.0036,44.1473 101.0037,44.1473 101.6725,44.1473 101.0036,44.1473 101.0037,43.4784 101.0036,44.1472 101.0036,44.1473 101.6726,44.1473 101.0036,44.1473 101.0036,44.1473 101.0037,44.1473 101.0036,44.1472 101.6725,44.1473 101.0037,44.1473 101.0036,43.4784 101.0036,44.1473 101.6726,44.1473" style="fill:none;stroke:#83caff;stroke-width:53.51185989;stroke-linejoin:round"/><text id="text370" class="TextShape" style="font-size:8.02677917px"><tspan id="tspan372" class="TextParagraph" font-size="353" font-weight="400" style="font-weight:400;font-size:236.12107849px;font-family:'Liberation Sans'"><tspan id="tspan374" x="710.37" y="5168.577" class="TextPosition"><tspan id="tspan376" style="fill:#000;stroke:none">0</tspan></tspan></tspan></text><text id="text378" class="TextShape" style="font-size:8.02677917px"><tspan id="tspan380" class="TextParagraph" font-size="353" font-weight="400" style="font-weight:400;font-size:236.12107849px;font-family:'Liberation Sans'"><tspan id="tspan382" x="515.721" y="4524.428" class="TextPosition"><tspan id="tspan384" style="fill:#000;stroke:none">0,2</tspan></tspan></tspan></text><text id="text386" class="TextShape" style="font-size:8.02677917px"><tspan id="tspan388" class="TextParagraph" font-size="353" font-weight="400" style="font-weight:400;font-size:236.12107849px;font-family:'Liberation Sans'"><tspan id="tspan390" x="515.721" y="3880.948" class="TextPosition"><tspan id="tspan392" style="fill:#000;stroke:none">0,4</tspan></tspan></tspan></text><text id="text394" class="TextShape" style="font-size:8.02677917px"><tspan id="tspan396" class="TextParagraph" font-size="353" font-weight="400" style="font-weight:400;font-size:236.12107849px;font-family:'Liberation Sans'"><tspan id="tspan398" x="515.721" y="3237.468" class="TextPosition"><tspan id="tspan400" style="fill:#000;stroke:none">0,6</tspan></tspan></tspan></text><text id="text402" class="TextShape" style="font-size:8.02677917px"><tspan id="tspan404" class="TextParagraph" font-size="353" font-weight="400" style="font-weight:400;font-size:236.12107849px;font-family:'Liberation Sans'"><tspan id="tspan406" x="515.721" y="2593.987" class="TextPosition"><tspan id="tspan408" style="fill:#000;stroke:none">0,8</tspan></tspan></tspan></text><text id="text410" class="TextShape" style="font-size:8.02677917px"><tspan id="tspan412" class="TextParagraph" font-size="353" font-weight="400" style="font-weight:400;font-size:236.12107849px;font-family:'Liberation Sans'"><tspan id="tspan414" x="710.37" y="1950.507" class="TextPosition"><tspan id="tspan416" style="fill:#000;stroke:none">1</tspan></tspan></tspan></text><text id="text418" class="TextShape" style="font-size:8.02677917px"><tspan id="tspan420" class="TextParagraph" font-size="353" font-weight="400" style="font-weight:400;font-size:236.12107849px;font-family:'Liberation Sans'"><tspan id="tspan422" x="515.721" y="1306.358" class="TextPosition"><tspan id="tspan424" style="fill:#000;stroke:none">1,2</tspan></tspan></tspan></text><text id="text426" class="TextShape" style="font-size:8.02677917px"><tspan id="tspan428" class="TextParagraph" font-size="459" font-weight="400" style="font-weight:400;font-size:307.02429199px;font-family:'Liberation Sans'"><tspan id="tspan430" x="2828.771" y="569.232" class="TextPosition"><tspan id="tspan432" style="fill:#000;stroke:none">Linear distance - Varying max distance</tspan></tspan></tspan></text><path id="path434" d="m 8484.974,1676.9279 535.1186,0" style="fill:none;stroke:#004586;stroke-width:53.51185989;stroke-linejoin:round"/><path id="path436" d="m 9561.9002,1676.9279 535.1188,0" style="fill:none;stroke:#ff420e;stroke-width:53.51185989;stroke-linejoin:round"/><path id="path438" d="m 8484.974,2010.0392 535.1186,0" style="fill:none;stroke:#ffd320;stroke-width:53.51185989;stroke-linejoin:round"/><path id="path440" d="m 9561.9002,2010.0392 535.1188,0" style="fill:none;stroke:#579d1c;stroke-width:53.51185989;stroke-linejoin:round"/><path id="path442" d="m 8484.974,2343.1505 535.1186,0" style="fill:none;stroke:#7e0021;stroke-width:53.51185989;stroke-linejoin:round"/><path id="path444" d="m 9561.9002,2343.1505 535.1188,0" style="fill:none;stroke:#83caff;stroke-width:53.51185989;stroke-linejoin:round"/><path id="path446" d="m 8484.974,2676.2618 535.1186,0" style="fill:none;stroke:#314004;stroke-width:53.51185989;stroke-linejoin:round"/><path id="path448" d="m 9561.9002,2676.2618 535.1188,0" style="fill:none;stroke:#aecf00;stroke-width:53.51185989;stroke-linejoin:round"/><path id="path450" d="m 8484.974,3009.3731 535.1186,0" style="fill:none;stroke:#4b1f6f;stroke-width:53.51185989;stroke-linejoin:round"/><path id="path452" d="m 9561.9002,3009.3731 535.1188,0" style="fill:none;stroke:#ff950e;stroke-width:53.51185989;stroke-linejoin:round"/><path id="path454" d="m 8484.974,3341.8155 535.1186,0" style="fill:none;stroke:#c5000b;stroke-width:53.51185989;stroke-linejoin:round"/><path id="path456" d="m 9561.9002,3341.8155 535.1188,0" style="fill:none;stroke:#0084d1;stroke-width:53.51185989;stroke-linejoin:round"/><path id="path458" d="m 8484.974,3674.9269 535.1186,0" style="fill:none;stroke:#004586;stroke-width:53.51185989;stroke-linejoin:round"/><path id="path460" d="m 9561.9002,3674.9269 535.1188,0" style="fill:none;stroke:#ff420e;stroke-width:53.51185989;stroke-linejoin:round"/><path id="path462" d="m 8484.974,4008.0382 535.1186,0" style="fill:none;stroke:#ffd320;stroke-width:53.51185989;stroke-linejoin:round"/><path id="path464" d="m 9561.9002,4008.0382 535.1188,0" style="fill:none;stroke:#579d1c;stroke-width:53.51185989;stroke-linejoin:round"/><path id="path466" d="m 8484.974,4341.1495 535.1186,0" style="fill:none;stroke:#7e0021;stroke-width:53.51185989;stroke-linejoin:round"/><path id="path468" d="m 9561.9002,4341.1495 535.1188,0" style="fill:none;stroke:#83caff;stroke-width:53.51185989;stroke-linejoin:round"/><text id="text470" class="TextShape" style="font-size:8.02677917px"><tspan id="tspan472" class="TextParagraph" font-size="353" font-weight="400" style="font-weight:400;font-size:236.12107849px;font-family:'Liberation Sans'"><tspan id="tspan474" x="9086.982" y="1757.196" class="TextPosition"><tspan id="tspan476" style="fill:#000;stroke:none">1</tspan></tspan></tspan></text><text id="text478" class="TextShape" style="font-size:8.02677917px"><tspan id="tspan480" class="TextParagraph" font-size="353" font-weight="400" style="font-weight:400;font-size:236.12107849px;font-family:'Liberation Sans'"><tspan id="tspan482" x="10163.908" y="1757.196" class="TextPosition"><tspan id="tspan484" style="fill:#000;stroke:none">1,4</tspan></tspan></tspan></text><text id="text486" class="TextShape" style="font-size:8.02677917px"><tspan id="tspan488" class="TextParagraph" font-size="353" font-weight="400" style="font-weight:400;font-size:236.12107849px;font-family:'Liberation Sans'"><tspan id="tspan490" x="9086.982" y="2090.307" class="TextPosition"><tspan id="tspan492" style="fill:#000;stroke:none">1,8</tspan></tspan></tspan></text><text id="text494" class="TextShape" style="font-size:8.02677917px"><tspan id="tspan496" class="TextParagraph" font-size="353" font-weight="400" style="font-weight:400;font-size:236.12107849px;font-family:'Liberation Sans'"><tspan id="tspan498" x="10163.908" y="2090.307" class="TextPosition"><tspan id="tspan500" style="fill:#000;stroke:none">2,2</tspan></tspan></tspan></text><text id="text502" class="TextShape" style="font-size:8.02677917px"><tspan id="tspan504" class="TextParagraph" font-size="353" font-weight="400" style="font-weight:400;font-size:236.12107849px;font-family:'Liberation Sans'"><tspan id="tspan506" x="9086.982" y="2423.418" class="TextPosition"><tspan id="tspan508" style="fill:#000;stroke:none">2,6</tspan></tspan></tspan></text><text id="text510" class="TextShape" style="font-size:8.02677917px"><tspan id="tspan512" class="TextParagraph" font-size="353" font-weight="400" style="font-weight:400;font-size:236.12107849px;font-family:'Liberation Sans'"><tspan id="tspan514" x="10163.908" y="2423.418" class="TextPosition"><tspan id="tspan516" style="fill:#000;stroke:none">3</tspan></tspan></tspan></text><text id="text518" class="TextShape" style="font-size:8.02677917px"><tspan id="tspan520" class="TextParagraph" font-size="353" font-weight="400" style="font-weight:400;font-size:236.12107849px;font-family:'Liberation Sans'"><tspan id="tspan522" x="9086.982" y="2756.53" class="TextPosition"><tspan id="tspan524" style="fill:#000;stroke:none">3,4</tspan></tspan></tspan></text><text id="text526" class="TextShape" style="font-size:8.02677917px"><tspan id="tspan528" class="TextParagraph" font-size="353" font-weight="400" style="font-weight:400;font-size:236.12107849px;font-family:'Liberation Sans'"><tspan id="tspan530" x="10163.908" y="2756.53" class="TextPosition"><tspan id="tspan532" style="fill:#000;stroke:none">3,8</tspan></tspan></tspan></text><text id="text534" class="TextShape" style="font-size:8.02677917px"><tspan id="tspan536" class="TextParagraph" font-size="353" font-weight="400" style="font-weight:400;font-size:236.12107849px;font-family:'Liberation Sans'"><tspan id="tspan538" x="9086.982" y="3088.972" class="TextPosition"><tspan id="tspan540" style="fill:#000;stroke:none">4,2</tspan></tspan></tspan></text><text id="text542" class="TextShape" style="font-size:8.02677917px"><tspan id="tspan544" class="TextParagraph" font-size="353" font-weight="400" style="font-weight:400;font-size:236.12107849px;font-family:'Liberation Sans'"><tspan id="tspan546" x="10163.908" y="3088.972" class="TextPosition"><tspan id="tspan548" style="fill:#000;stroke:none">4,6</tspan></tspan></tspan></text><text id="text550" class="TextShape" style="font-size:8.02677917px"><tspan id="tspan552" class="TextParagraph" font-size="353" font-weight="400" style="font-weight:400;font-size:236.12107849px;font-family:'Liberation Sans'"><tspan id="tspan554" x="9086.982" y="3422.083" class="TextPosition"><tspan id="tspan556" style="fill:#000;stroke:none">5</tspan></tspan></tspan></text><text id="text558" class="TextShape" style="font-size:8.02677917px"><tspan id="tspan560" class="TextParagraph" font-size="353" font-weight="400" style="font-weight:400;font-size:236.12107849px;font-family:'Liberation Sans'"><tspan id="tspan562" x="10163.908" y="3422.083" class="TextPosition"><tspan id="tspan564" style="fill:#000;stroke:none">5,4</tspan></tspan></tspan></text><text id="text566" class="TextShape" style="font-size:8.02677917px"><tspan id="tspan568" class="TextParagraph" font-size="353" font-weight="400" style="font-weight:400;font-size:236.12107849px;font-family:'Liberation Sans'"><tspan id="tspan570" x="9086.982" y="3755.195" class="TextPosition"><tspan id="tspan572" style="fill:#000;stroke:none">5,8</tspan></tspan></tspan></text><text id="text574" class="TextShape" style="font-size:8.02677917px"><tspan id="tspan576" class="TextParagraph" font-size="353" font-weight="400" style="font-weight:400;font-size:236.12107849px;font-family:'Liberation Sans'"><tspan id="tspan578" x="10163.908" y="3755.195" class="TextPosition"><tspan id="tspan580" style="fill:#000;stroke:none">6,2</tspan></tspan></tspan></text><text id="text582" class="TextShape" style="font-size:8.02677917px"><tspan id="tspan584" class="TextParagraph" font-size="353" font-weight="400" style="font-weight:400;font-size:236.12107849px;font-family:'Liberation Sans'"><tspan id="tspan586" x="9086.982" y="4088.306" class="TextPosition"><tspan id="tspan588" style="fill:#000;stroke:none">6,6</tspan></tspan></tspan></text><text id="text590" class="TextShape" style="font-size:8.02677917px"><tspan id="tspan592" class="TextParagraph" font-size="353" font-weight="400" style="font-weight:400;font-size:236.12107849px;font-family:'Liberation Sans'"><tspan id="tspan594" x="10163.908" y="4088.306" class="TextPosition"><tspan id="tspan596" style="fill:#000;stroke:none">7</tspan></tspan></tspan></text><text id="text598" class="TextShape" style="font-size:8.02677917px"><tspan id="tspan600" class="TextParagraph" font-size="353" font-weight="400" style="font-weight:400;font-size:236.12107849px;font-family:'Liberation Sans'"><tspan id="tspan602" x="9086.982" y="4421.417" class="TextPosition"><tspan id="tspan604" style="fill:#000;stroke:none">7,4</tspan></tspan></tspan></text><text id="text606" class="TextShape" style="font-size:8.02677917px"><tspan id="tspan608" class="TextParagraph" font-size="353" font-weight="400" style="font-weight:400;font-size:236.12107849px;font-family:'Liberation Sans'"><tspan id="tspan610" x="10163.908" y="4421.417" class="TextPosition"><tspan id="tspan612" style="fill:#000;stroke:none">7,8</tspan></tspan></tspan></text></svg>