<svg xmlns="http://www.w3.org/2000/svg" xmlns:svg="http://www.w3.org/2000/svg" id="svg2" width="160mm" height="90mm" stroke-linejoin="round" stroke-width="28.222" version="1.1" viewBox="0 0 16000 9000" xml:space="preserve"><metadata id="metadata594"/><path id="path4" d="M 5357.0637,6025.0271 0,6025.0271 0,-1 l 10713.458,0 0,6026.0271 -5356.3943,0 z" style="fill:#fff;stroke:none"/><path id="path6" d="m 4495.2461,5092.898 -3492.8055,0 0,-3865.1215 6985.6111,0 0,3865.1215 -3492.8056,0 z" style="fill:none;stroke:#b3b3b3;stroke-width:18.89838219;stroke-linejoin:round"/><path id="path8" d="m 7988.0517,5092.2284 -6985.6111,0" style="fill:none;stroke:#b3b3b3;stroke-width:18.89838219;stroke-linejoin:round"/><path id="path10" d="m 7988.0517,4447.3718 -6985.6111,0" style="fill:none;stroke:#b3b3b3;stroke-width:18.89838219;stroke-linejoin:round"/><path id="path12" d="m 7988.0517,3803.1849 -6985.6111,0" style="fill:none;stroke:#b3b3b3;stroke-width:18.89838219;stroke-linejoin:round"/><path id="path14" d="m 7988.0517,3158.998 -6985.6111,0" style="fill:none;stroke:#b3b3b3;stroke-width:18.89838219;stroke-linejoin:round"/><path id="path16" d="m 7988.0517,2515.4807 -6985.6111,0" style="fill:none;stroke:#b3b3b3;stroke-width:18.89838219;stroke-linejoin:round"/><path id="path18" d="m 7988.0517,1871.2938 -6985.6111,0" style="fill:none;stroke:#b3b3b3;stroke-width:18.89838219;stroke-linejoin:round"/><path id="path20" d="m 7988.0517,1226.4372 -6985.6111,0" style="fill:none;stroke:#b3b3b3;stroke-width:18.89838219;stroke-linejoin:round"/><path id="path22" d="m 1002.4406,5192.6733 0,-100.4449" style="fill:none;stroke:#b3b3b3;stroke-width:18.89838219;stroke-linejoin:round"/><path id="path24" d="m 1002.4406,5192.6733 0,-100.4449" style="fill:none;stroke:#b3b3b3;stroke-width:18.89838219;stroke-linejoin:round"/><path id="path26" d="m 1103.5551,5192.6733 0,-100.4449" style="fill:none;stroke:#b3b3b3;stroke-width:18.89838219;stroke-linejoin:round"/><path id="path28" d="m 1103.5551,5192.6733 0,-100.4449" style="fill:none;stroke:#b3b3b3;stroke-width:18.89838219;stroke-linejoin:round"/><path id="path30" d="m 1204.6697,5192.6733 0,-100.4449" style="fill:none;stroke:#b3b3b3;stroke-width:18.89838219;stroke-linejoin:round"/><path id="path32" d="m 1204.6697,5192.6733 0,-100.4449" style="fill:none;stroke:#b3b3b3;stroke-width:18.89838219;stroke-linejoin:round"/><path id="path34" d="m 1305.7843,5192.6733 0,-100.4449" style="fill:none;stroke:#b3b3b3;stroke-width:18.89838219;stroke-linejoin:round"/><path id="path36" d="m 1305.7843,5192.6733 0,-100.4449" style="fill:none;stroke:#b3b3b3;stroke-width:18.89838219;stroke-linejoin:round"/><path id="path38" d="m 1406.8989,5192.6733 0,-100.4449" style="fill:none;stroke:#b3b3b3;stroke-width:18.89838219;stroke-linejoin:round"/><path id="path40" d="m 1406.8989,5192.6733 0,-100.4449" style="fill:none;stroke:#b3b3b3;stroke-width:18.89838219;stroke-linejoin:round"/><path id="path42" d="m 1508.6831,5192.6733 0,-100.4449" style="fill:none;stroke:#b3b3b3;stroke-width:18.89838219;stroke-linejoin:round"/><path id="path44" d="m 1508.6831,5192.6733 0,-100.4449" style="fill:none;stroke:#b3b3b3;stroke-width:18.89838219;stroke-linejoin:round"/><path id="path46" d="m 1609.7977,5192.6733 0,-100.4449" style="fill:none;stroke:#b3b3b3;stroke-width:18.89838219;stroke-linejoin:round"/><path id="path48" d="m 1609.7977,5192.6733 0,-100.4449" style="fill:none;stroke:#b3b3b3;stroke-width:18.89838219;stroke-linejoin:round"/><path id="path50" d="m 1710.9122,5192.6733 0,-100.4449" style="fill:none;stroke:#b3b3b3;stroke-width:18.89838219;stroke-linejoin:round"/><path id="path52" d="m 1710.9122,5192.6733 0,-100.4449" style="fill:none;stroke:#b3b3b3;stroke-width:18.89838219;stroke-linejoin:round"/><path id="path54" d="m 1812.0268,5192.6733 0,-100.4449" style="fill:none;stroke:#b3b3b3;stroke-width:18.89838219;stroke-linejoin:round"/><path id="path56" d="m 1812.0268,5192.6733 0,-100.4449" style="fill:none;stroke:#b3b3b3;stroke-width:18.89838219;stroke-linejoin:round"/><path id="path58" d="m 1913.1414,5192.6733 0,-100.4449" style="fill:none;stroke:#b3b3b3;stroke-width:18.89838219;stroke-linejoin:round"/><path id="path60" d="m 1913.1414,5192.6733 0,-100.4449" style="fill:none;stroke:#b3b3b3;stroke-width:18.89838219;stroke-linejoin:round"/><path id="path62" d="m 2014.9256,5192.6733 0,-100.4449" style="fill:none;stroke:#b3b3b3;stroke-width:18.89838219;stroke-linejoin:round"/><path id="path64" d="m 2014.9256,5192.6733 0,-100.4449" style="fill:none;stroke:#b3b3b3;stroke-width:18.89838219;stroke-linejoin:round"/><path id="path66" d="m 2116.0402,5192.6733 0,-100.4449" style="fill:none;stroke:#b3b3b3;stroke-width:18.89838219;stroke-linejoin:round"/><path id="path68" d="m 2116.0402,5192.6733 0,-100.4449" style="fill:none;stroke:#b3b3b3;stroke-width:18.89838219;stroke-linejoin:round"/><path id="path70" d="m 2217.1548,5192.6733 0,-100.4449" style="fill:none;stroke:#b3b3b3;stroke-width:18.89838219;stroke-linejoin:round"/><path id="path72" d="m 2217.1548,5192.6733 0,-100.4449" style="fill:none;stroke:#b3b3b3;stroke-width:18.89838219;stroke-linejoin:round"/><path id="path74" d="m 2318.2693,5192.6733 0,-100.4449" style="fill:none;stroke:#b3b3b3;stroke-width:18.89838219;stroke-linejoin:round"/><path id="path76" d="m 2318.2693,5192.6733 0,-100.4449" style="fill:none;stroke:#b3b3b3;stroke-width:18.89838219;stroke-linejoin:round"/><path id="path78" d="m 2419.3839,5192.6733 0,-100.4449" style="fill:none;stroke:#b3b3b3;stroke-width:18.89838219;stroke-linejoin:round"/><path id="path80" d="m 2419.3839,5192.6733 0,-100.4449" style="fill:none;stroke:#b3b3b3;stroke-width:18.89838219;stroke-linejoin:round"/><path id="path82" d="m 2521.1681,5192.6733 0,-100.4449" style="fill:none;stroke:#b3b3b3;stroke-width:18.89838219;stroke-linejoin:round"/><path id="path84" d="m 2521.1681,5192.6733 0,-100.4449" style="fill:none;stroke:#b3b3b3;stroke-width:18.89838219;stroke-linejoin:round"/><path id="path86" d="m 2622.2827,5192.6733 0,-100.4449" style="fill:none;stroke:#b3b3b3;stroke-width:18.89838219;stroke-linejoin:round"/><path id="path88" d="m 2622.2827,5192.6733 0,-100.4449" style="fill:none;stroke:#b3b3b3;stroke-width:18.89838219;stroke-linejoin:round"/><path id="path90" d="m 2723.3973,5192.6733 0,-100.4449" style="fill:none;stroke:#b3b3b3;stroke-width:18.89838219;stroke-linejoin:round"/><path id="path92" d="m 2723.3973,5192.6733 0,-100.4449" style="fill:none;stroke:#b3b3b3;stroke-width:18.89838219;stroke-linejoin:round"/><path id="path94" d="m 2824.5119,5192.6733 0,-100.4449" style="fill:none;stroke:#b3b3b3;stroke-width:18.89838219;stroke-linejoin:round"/><path id="path96" d="m 2824.5119,5192.6733 0,-100.4449" style="fill:none;stroke:#b3b3b3;stroke-width:18.89838219;stroke-linejoin:round"/><path id="path98" d="m 2925.6264,5192.6733 0,-100.4449" style="fill:none;stroke:#b3b3b3;stroke-width:18.89838219;stroke-linejoin:round"/><path id="path100" d="m 2925.6264,5192.6733 0,-100.4449" style="fill:none;stroke:#b3b3b3;stroke-width:18.89838219;stroke-linejoin:round"/><path id="path102" d="m 3027.4107,5192.6733 0,-100.4449" style="fill:none;stroke:#b3b3b3;stroke-width:18.89838219;stroke-linejoin:round"/><path id="path104" d="m 3027.4107,5192.6733 0,-100.4449" style="fill:none;stroke:#b3b3b3;stroke-width:18.89838219;stroke-linejoin:round"/><path id="path106" d="m 3128.5252,5192.6733 0,-100.4449" style="fill:none;stroke:#b3b3b3;stroke-width:18.89838219;stroke-linejoin:round"/><path id="path108" d="m 3128.5252,5192.6733 0,-100.4449" style="fill:none;stroke:#b3b3b3;stroke-width:18.89838219;stroke-linejoin:round"/><path id="path110" d="m 3229.6398,5192.6733 0,-100.4449" style="fill:none;stroke:#b3b3b3;stroke-width:18.89838219;stroke-linejoin:round"/><path id="path112" d="m 3229.6398,5192.6733 0,-100.4449" style="fill:none;stroke:#b3b3b3;stroke-width:18.89838219;stroke-linejoin:round"/><path id="path114" d="m 3330.7544,5192.6733 0,-100.4449" style="fill:none;stroke:#b3b3b3;stroke-width:18.89838219;stroke-linejoin:round"/><path id="path116" d="m 3330.7544,5192.6733 0,-100.4449" style="fill:none;stroke:#b3b3b3;stroke-width:18.89838219;stroke-linejoin:round"/><path id="path118" d="m 3431.869,5192.6733 0,-100.4449" style="fill:none;stroke:#b3b3b3;stroke-width:18.89838219;stroke-linejoin:round"/><path id="path120" d="m 3431.869,5192.6733 0,-100.4449" style="fill:none;stroke:#b3b3b3;stroke-width:18.89838219;stroke-linejoin:round"/><path id="path122" d="m 3533.6532,5192.6733 0,-100.4449" style="fill:none;stroke:#b3b3b3;stroke-width:18.89838219;stroke-linejoin:round"/><path id="path124" d="m 3533.6532,5192.6733 0,-100.4449" style="fill:none;stroke:#b3b3b3;stroke-width:18.89838219;stroke-linejoin:round"/><path id="path126" d="m 3634.7678,5192.6733 0,-100.4449" style="fill:none;stroke:#b3b3b3;stroke-width:18.89838219;stroke-linejoin:round"/><path id="path128" d="m 3634.7678,5192.6733 0,-100.4449" style="fill:none;stroke:#b3b3b3;stroke-width:18.89838219;stroke-linejoin:round"/><path id="path130" d="m 3735.8823,5192.6733 0,-100.4449" style="fill:none;stroke:#b3b3b3;stroke-width:18.89838219;stroke-linejoin:round"/><path id="path132" d="m 3735.8823,5192.6733 0,-100.4449" style="fill:none;stroke:#b3b3b3;stroke-width:18.89838219;stroke-linejoin:round"/><path id="path134" d="m 3836.9969,5192.6733 0,-100.4449" style="fill:none;stroke:#b3b3b3;stroke-width:18.89838219;stroke-linejoin:round"/><path id="path136" d="m 3836.9969,5192.6733 0,-100.4449" style="fill:none;stroke:#b3b3b3;stroke-width:18.89838219;stroke-linejoin:round"/><path id="path138" d="m 3938.1115,5192.6733 0,-100.4449" style="fill:none;stroke:#b3b3b3;stroke-width:18.89838219;stroke-linejoin:round"/><path id="path140" d="m 3938.1115,5192.6733 0,-100.4449" style="fill:none;stroke:#b3b3b3;stroke-width:18.89838219;stroke-linejoin:round"/><path id="path142" d="m 4039.8957,5192.6733 0,-100.4449" style="fill:none;stroke:#b3b3b3;stroke-width:18.89838219;stroke-linejoin:round"/><path id="path144" d="m 4039.8957,5192.6733 0,-100.4449" style="fill:none;stroke:#b3b3b3;stroke-width:18.89838219;stroke-linejoin:round"/><path id="path146" d="m 4141.0103,5192.6733 0,-100.4449" style="fill:none;stroke:#b3b3b3;stroke-width:18.89838219;stroke-linejoin:round"/><path id="path148" d="m 4141.0103,5192.6733 0,-100.4449" style="fill:none;stroke:#b3b3b3;stroke-width:18.89838219;stroke-linejoin:round"/><path id="path150" d="m 4242.1249,5192.6733 0,-100.4449" style="fill:none;stroke:#b3b3b3;stroke-width:18.89838219;stroke-linejoin:round"/><path id="path152" d="m 4242.1249,5192.6733 0,-100.4449" style="fill:none;stroke:#b3b3b3;stroke-width:18.89838219;stroke-linejoin:round"/><path id="path154" d="m 4343.2394,5192.6733 0,-100.4449" style="fill:none;stroke:#b3b3b3;stroke-width:18.89838219;stroke-linejoin:round"/><path id="path156" d="m 4343.2394,5192.6733 0,-100.4449" style="fill:none;stroke:#b3b3b3;stroke-width:18.89838219;stroke-linejoin:round"/><path id="path158" d="m 4444.354,5192.6733 0,-100.4449" style="fill:none;stroke:#b3b3b3;stroke-width:18.89838219;stroke-linejoin:round"/><path id="path160" d="m 4444.354,5192.6733 0,-100.4449" style="fill:none;stroke:#b3b3b3;stroke-width:18.89838219;stroke-linejoin:round"/><path id="path162" d="m 4546.1382,5192.6733 0,-100.4449" style="fill:none;stroke:#b3b3b3;stroke-width:18.89838219;stroke-linejoin:round"/><path id="path164" d="m 4546.1382,5192.6733 0,-100.4449" style="fill:none;stroke:#b3b3b3;stroke-width:18.89838219;stroke-linejoin:round"/><path id="path166" d="m 4647.2528,5192.6733 0,-100.4449" style="fill:none;stroke:#b3b3b3;stroke-width:18.89838219;stroke-linejoin:round"/><path id="path168" d="m 4647.2528,5192.6733 0,-100.4449" style="fill:none;stroke:#b3b3b3;stroke-width:18.89838219;stroke-linejoin:round"/><path id="path170" d="m 4748.3674,5192.6733 0,-100.4449" style="fill:none;stroke:#b3b3b3;stroke-width:18.89838219;stroke-linejoin:round"/><path id="path172" d="m 4748.3674,5192.6733 0,-100.4449" style="fill:none;stroke:#b3b3b3;stroke-width:18.89838219;stroke-linejoin:round"/><path id="path174" d="m 4849.482,5192.6733 0,-100.4449" style="fill:none;stroke:#b3b3b3;stroke-width:18.89838219;stroke-linejoin:round"/><path id="path176" d="m 4849.482,5192.6733 0,-100.4449" style="fill:none;stroke:#b3b3b3;stroke-width:18.89838219;stroke-linejoin:round"/><path id="path178" d="m 4950.5965,5192.6733 0,-100.4449" style="fill:none;stroke:#b3b3b3;stroke-width:18.89838219;stroke-linejoin:round"/><path id="path180" d="m 4950.5965,5192.6733 0,-100.4449" style="fill:none;stroke:#b3b3b3;stroke-width:18.89838219;stroke-linejoin:round"/><path id="path182" d="m 5052.3807,5192.6733 0,-100.4449" style="fill:none;stroke:#b3b3b3;stroke-width:18.89838219;stroke-linejoin:round"/><path id="path184" d="m 5052.3807,5192.6733 0,-100.4449" style="fill:none;stroke:#b3b3b3;stroke-width:18.89838219;stroke-linejoin:round"/><path id="path186" d="m 5153.4953,5192.6733 0,-100.4449" style="fill:none;stroke:#b3b3b3;stroke-width:18.89838219;stroke-linejoin:round"/><path id="path188" d="m 5153.4953,5192.6733 0,-100.4449" style="fill:none;stroke:#b3b3b3;stroke-width:18.89838219;stroke-linejoin:round"/><path id="path190" d="m 5254.6099,5192.6733 0,-100.4449" style="fill:none;stroke:#b3b3b3;stroke-width:18.89838219;stroke-linejoin:round"/><path id="path192" d="m 5254.6099,5192.6733 0,-100.4449" style="fill:none;stroke:#b3b3b3;stroke-width:18.89838219;stroke-linejoin:round"/><path id="path194" d="m 5355.7245,5192.6733 0,-100.4449" style="fill:none;stroke:#b3b3b3;stroke-width:18.89838219;stroke-linejoin:round"/><path id="path196" d="m 5355.7245,5192.6733 0,-100.4449" style="fill:none;stroke:#b3b3b3;stroke-width:18.89838219;stroke-linejoin:round"/><path id="path198" d="m 5456.1694,5192.6733 0,-100.4449" style="fill:none;stroke:#b3b3b3;stroke-width:18.89838219;stroke-linejoin:round"/><path id="path200" d="m 5456.1694,5192.6733 0,-100.4449" style="fill:none;stroke:#b3b3b3;stroke-width:18.89838219;stroke-linejoin:round"/><path id="path202" d="m 5557.9536,5192.6733 0,-100.4449" style="fill:none;stroke:#b3b3b3;stroke-width:18.89838219;stroke-linejoin:round"/><path id="path204" d="m 5557.9536,5192.6733 0,-100.4449" style="fill:none;stroke:#b3b3b3;stroke-width:18.89838219;stroke-linejoin:round"/><path id="path206" d="m 5659.0682,5192.6733 0,-100.4449" style="fill:none;stroke:#b3b3b3;stroke-width:18.89838219;stroke-linejoin:round"/><path id="path208" d="m 5659.0682,5192.6733 0,-100.4449" style="fill:none;stroke:#b3b3b3;stroke-width:18.89838219;stroke-linejoin:round"/><path id="path210" d="m 5760.1828,5192.6733 0,-100.4449" style="fill:none;stroke:#b3b3b3;stroke-width:18.89838219;stroke-linejoin:round"/><path id="path212" d="m 5760.1828,5192.6733 0,-100.4449" style="fill:none;stroke:#b3b3b3;stroke-width:18.89838219;stroke-linejoin:round"/><path id="path214" d="m 5861.2974,5192.6733 0,-100.4449" style="fill:none;stroke:#b3b3b3;stroke-width:18.89838219;stroke-linejoin:round"/><path id="path216" d="m 5861.2974,5192.6733 0,-100.4449" style="fill:none;stroke:#b3b3b3;stroke-width:18.89838219;stroke-linejoin:round"/><path id="path218" d="m 5962.412,5192.6733 0,-100.4449" style="fill:none;stroke:#b3b3b3;stroke-width:18.89838219;stroke-linejoin:round"/><path id="path220" d="m 5962.412,5192.6733 0,-100.4449" style="fill:none;stroke:#b3b3b3;stroke-width:18.89838219;stroke-linejoin:round"/><path id="path222" d="m 6064.1962,5192.6733 0,-100.4449" style="fill:none;stroke:#b3b3b3;stroke-width:18.89838219;stroke-linejoin:round"/><path id="path224" d="m 6064.1962,5192.6733 0,-100.4449" style="fill:none;stroke:#b3b3b3;stroke-width:18.89838219;stroke-linejoin:round"/><path id="path226" d="m 6165.3107,5192.6733 0,-100.4449" style="fill:none;stroke:#b3b3b3;stroke-width:18.89838219;stroke-linejoin:round"/><path id="path228" d="m 6165.3107,5192.6733 0,-100.4449" style="fill:none;stroke:#b3b3b3;stroke-width:18.89838219;stroke-linejoin:round"/><path id="path230" d="m 6266.4253,5192.6733 0,-100.4449" style="fill:none;stroke:#b3b3b3;stroke-width:18.89838219;stroke-linejoin:round"/><path id="path232" d="m 6266.4253,5192.6733 0,-100.4449" style="fill:none;stroke:#b3b3b3;stroke-width:18.89838219;stroke-linejoin:round"/><path id="path234" d="m 6367.5399,5192.6733 0,-100.4449" style="fill:none;stroke:#b3b3b3;stroke-width:18.89838219;stroke-linejoin:round"/><path id="path236" d="m 6367.5399,5192.6733 0,-100.4449" style="fill:none;stroke:#b3b3b3;stroke-width:18.89838219;stroke-linejoin:round"/><path id="path238" d="m 6468.6545,5192.6733 0,-100.4449" style="fill:none;stroke:#b3b3b3;stroke-width:18.89838219;stroke-linejoin:round"/><path id="path240" d="m 6468.6545,5192.6733 0,-100.4449" style="fill:none;stroke:#b3b3b3;stroke-width:18.89838219;stroke-linejoin:round"/><path id="path242" d="m 6570.4387,5192.6733 0,-100.4449" style="fill:none;stroke:#b3b3b3;stroke-width:18.89838219;stroke-linejoin:round"/><path id="path244" d="m 6570.4387,5192.6733 0,-100.4449" style="fill:none;stroke:#b3b3b3;stroke-width:18.89838219;stroke-linejoin:round"/><path id="path246" d="m 6671.5533,5192.6733 0,-100.4449" style="fill:none;stroke:#b3b3b3;stroke-width:18.89838219;stroke-linejoin:round"/><path id="path248" d="m 6671.5533,5192.6733 0,-100.4449" style="fill:none;stroke:#b3b3b3;stroke-width:18.89838219;stroke-linejoin:round"/><path id="path250" d="m 6772.6678,5192.6733 0,-100.4449" style="fill:none;stroke:#b3b3b3;stroke-width:18.89838219;stroke-linejoin:round"/><path id="path252" d="m 6772.6678,5192.6733 0,-100.4449" style="fill:none;stroke:#b3b3b3;stroke-width:18.89838219;stroke-linejoin:round"/><path id="path254" d="m 6873.7824,5192.6733 0,-100.4449" style="fill:none;stroke:#b3b3b3;stroke-width:18.89838219;stroke-linejoin:round"/><path id="path256" d="m 6873.7824,5192.6733 0,-100.4449" style="fill:none;stroke:#b3b3b3;stroke-width:18.89838219;stroke-linejoin:round"/><path id="path258" d="m 6974.897,5192.6733 0,-100.4449" style="fill:none;stroke:#b3b3b3;stroke-width:18.89838219;stroke-linejoin:round"/><path id="path260" d="m 6974.897,5192.6733 0,-100.4449" style="fill:none;stroke:#b3b3b3;stroke-width:18.89838219;stroke-linejoin:round"/><path id="path262" d="m 7076.6812,5192.6733 0,-100.4449" style="fill:none;stroke:#b3b3b3;stroke-width:18.89838219;stroke-linejoin:round"/><path id="path264" d="m 7076.6812,5192.6733 0,-100.4449" style="fill:none;stroke:#b3b3b3;stroke-width:18.89838219;stroke-linejoin:round"/><path id="path266" d="m 7177.7958,5192.6733 0,-100.4449" style="fill:none;stroke:#b3b3b3;stroke-width:18.89838219;stroke-linejoin:round"/><path id="path268" d="m 7177.7958,5192.6733 0,-100.4449" style="fill:none;stroke:#b3b3b3;stroke-width:18.89838219;stroke-linejoin:round"/><path id="path270" d="m 7278.9104,5192.6733 0,-100.4449" style="fill:none;stroke:#b3b3b3;stroke-width:18.89838219;stroke-linejoin:round"/><path id="path272" d="m 7278.9104,5192.6733 0,-100.4449" style="fill:none;stroke:#b3b3b3;stroke-width:18.89838219;stroke-linejoin:round"/><path id="path274" d="m 7380.0249,5192.6733 0,-100.4449" style="fill:none;stroke:#b3b3b3;stroke-width:18.89838219;stroke-linejoin:round"/><path id="path276" d="m 7380.0249,5192.6733 0,-100.4449" style="fill:none;stroke:#b3b3b3;stroke-width:18.89838219;stroke-linejoin:round"/><path id="path278" d="m 7481.1395,5192.6733 0,-100.4449" style="fill:none;stroke:#b3b3b3;stroke-width:18.89838219;stroke-linejoin:round"/><path id="path280" d="m 7481.1395,5192.6733 0,-100.4449" style="fill:none;stroke:#b3b3b3;stroke-width:18.89838219;stroke-linejoin:round"/><path id="path282" d="m 7582.9237,5192.6733 0,-100.4449" style="fill:none;stroke:#b3b3b3;stroke-width:18.89838219;stroke-linejoin:round"/><path id="path284" d="m 7582.9237,5192.6733 0,-100.4449" style="fill:none;stroke:#b3b3b3;stroke-width:18.89838219;stroke-linejoin:round"/><path id="path286" d="m 7684.0383,5192.6733 0,-100.4449" style="fill:none;stroke:#b3b3b3;stroke-width:18.89838219;stroke-linejoin:round"/><path id="path288" d="m 7684.0383,5192.6733 0,-100.4449" style="fill:none;stroke:#b3b3b3;stroke-width:18.89838219;stroke-linejoin:round"/><path id="path290" d="m 7785.1529,5192.6733 0,-100.4449" style="fill:none;stroke:#b3b3b3;stroke-width:18.89838219;stroke-linejoin:round"/><path id="path292" d="m 7785.1529,5192.6733 0,-100.4449" style="fill:none;stroke:#b3b3b3;stroke-width:18.89838219;stroke-linejoin:round"/><path id="path294" d="m 7886.2675,5192.6733 0,-100.4449" style="fill:none;stroke:#b3b3b3;stroke-width:18.89838219;stroke-linejoin:round"/><path id="path296" d="m 7886.2675,5192.6733 0,-100.4449" style="fill:none;stroke:#b3b3b3;stroke-width:18.89838219;stroke-linejoin:round"/><path id="path298" d="m 7988.0517,5192.6733 0,-100.4449" style="fill:none;stroke:#b3b3b3;stroke-width:18.89838219;stroke-linejoin:round"/><path id="path300" d="m 7988.0517,5192.6733 0,-100.4449" style="fill:none;stroke:#b3b3b3;stroke-width:18.89838219;stroke-linejoin:round"/><path id="path302" d="m 1002.4406,5092.2284 6985.6111,0" style="fill:none;stroke:#b3b3b3;stroke-width:18.89838219;stroke-linejoin:round"/><path id="path304" d="m 901.99561,5092.2284 100.44499,0" style="fill:none;stroke:#b3b3b3;stroke-width:18.89838219;stroke-linejoin:round"/><path id="path306" d="m 901.99561,5092.2284 100.44499,0" style="fill:none;stroke:#b3b3b3;stroke-width:18.89838219;stroke-linejoin:round"/><path id="path308" d="m 901.99561,4447.3718 100.44499,0" style="fill:none;stroke:#b3b3b3;stroke-width:18.89838219;stroke-linejoin:round"/><path id="path310" d="m 901.99561,4447.3718 100.44499,0" style="fill:none;stroke:#b3b3b3;stroke-width:18.89838219;stroke-linejoin:round"/><path id="path312" d="m 901.99561,3803.1849 100.44499,0" style="fill:none;stroke:#b3b3b3;stroke-width:18.89838219;stroke-linejoin:round"/><path id="path314" d="m 901.99561,3803.1849 100.44499,0" style="fill:none;stroke:#b3b3b3;stroke-width:18.89838219;stroke-linejoin:round"/><path id="path316" d="m 901.99561,3158.998 100.44499,0" style="fill:none;stroke:#b3b3b3;stroke-width:18.89838219;stroke-linejoin:round"/><path id="path318" d="m 901.99561,3158.998 100.44499,0" style="fill:none;stroke:#b3b3b3;stroke-width:18.89838219;stroke-linejoin:round"/><path id="path320" d="m 901.99561,2515.4807 100.44499,0" style="fill:none;stroke:#b3b3b3;stroke-width:18.89838219;stroke-linejoin:round"/><path id="path322" d="m 901.99561,2515.4807 100.44499,0" style="fill:none;stroke:#b3b3b3;stroke-width:18.89838219;stroke-linejoin:round"/><path id="path324" d="m 901.99561,1871.2938 100.44499,0" style="fill:none;stroke:#b3b3b3;stroke-width:18.89838219;stroke-linejoin:round"/><path id="path326" d="m 901.99561,1871.2938 100.44499,0" style="fill:none;stroke:#b3b3b3;stroke-width:18.89838219;stroke-linejoin:round"/><path id="path328" d="m 901.99561,1226.4372 100.44499,0" style="fill:none;stroke:#b3b3b3;stroke-width:18.89838219;stroke-linejoin:round"/><path id="path330" d="m 901.99561,1226.4372 100.44499,0" style="fill:none;stroke:#b3b3b3;stroke-width:18.89838219;stroke-linejoin:round"/><path id="path332" d="m 1002.4406,5092.2284 0,-3865.7912" style="fill:none;stroke:#b3b3b3;stroke-width:18.89838219;stroke-linejoin:round"/><path id="path334" d="m 1002.4406,1871.2938 101.1145,0 101.1146,1073.4216 101.1146,536.376 101.1146,322.0935 101.7842,214.9522 101.1146,153.3459 101.1145,115.1769 101.1146,89.0612 101.1146,71.6507 101.7842,58.9277 101.1146,48.8832 101.1146,40.8476 101.1145,35.4906 101.1146,30.8031 101.7842,26.7853 101.1146,24.1068 101.1146,20.7586 101.1146,18.7497 101.1145,16.7409 101.7843,15.4015 101.1145,14.0623 101.1146,12.723 101.1146,12.0534 101.1146,10.7142 101.7842,9.3748 101.1146,9.3749 101.1145,8.7052 101.1146,8.0356 101.1146,7.366 101.7842,6.6963 101.1146,6.6963 101.1146,6.0267 101.1145,6.0267 101.1146,5.3571 101.7842,4.6874 101.1146,4.6875 101.1146,4.6874 101.1146,4.6874 101.1145,4.0178 101.7842,4.0178 101.1146,3.3482 101.1146,4.0178 101.1146,3.3481 100.4449,3.3482 101.7842,2.6785 101.1146,3.3482 101.1146,2.6785 101.1146,2.6786 101.1146,2.6785 101.7842,2.6785 101.1145,2.0089 101.1146,2.6786 101.1146,2.0089 101.1146,2.6785 101.7842,2.0089 101.1146,2.0089 101.1145,2.0089 101.1146,1.3393 101.1146,2.0089 101.7842,2.0088 101.1146,1.3393 101.1146,2.0089 101.1145,1.3393 101.1146,1.3392 101.7842,0 101.1146,0 101.1146,0 101.1146,0 101.7842,0" style="fill:none;stroke:#004586;stroke-width:53.57063675;stroke-linejoin:round"/><path id="path336" d="m 1002.4406,1871.2938 101.1145,0 101.1146,0 101.1146,0 101.1146,644.1869 101.7842,429.2347 101.1146,306.0223 101.1145,230.3537 101.1146,178.792 101.1146,143.3015 101.7842,117.1858 101.1146,97.7664 101.1146,82.3648 101.1145,70.9811 101.1146,61.6063 101.7842,53.5706 101.1146,47.5439 101.1146,41.5173 101.1146,38.1691 101.1145,33.4816 101.7843,30.8031 101.1145,28.1246 101.1146,25.4461 101.1146,23.4371 101.1146,21.4283 101.7842,19.4193 101.1146,18.7498 101.1145,16.7408 101.1146,16.0712 101.1146,14.7319 101.7842,14.0623 101.1146,12.723 101.1146,12.0534 101.1145,12.0534 101.1146,10.7141 101.7842,10.0445 101.1146,9.3749 101.1146,9.3748 101.1146,8.7053 101.1145,8.0356 101.7842,8.0356 101.1146,7.3659 101.1146,7.366 101.1146,6.6963 100.4449,6.6963 101.7842,6.0267 101.1146,6.0267 101.1146,6.0267 101.1146,5.3571 101.1146,5.3571 101.7842,4.6874 101.1145,4.6874 101.1146,4.6875 101.1146,4.6874 101.1146,4.6874 101.7842,4.0178 101.1146,4.0178 101.1145,4.0178 101.1146,3.3482 101.1146,4.0178 101.7842,3.3481 101.1146,3.3482 101.1146,3.3482 101.1145,3.3481 101.1146,2.6786 101.7842,0 101.1146,0 101.1146,0 101.1146,0 101.7842,0" style="fill:none;stroke:#ff420e;stroke-width:53.57063675;stroke-linejoin:round"/><path id="path338" d="m 1002.4406,1871.2938 101.1145,0 101.1146,0 101.1146,0 101.1146,0 101.7842,0 101.1146,460.0378 101.1145,344.861 101.1146,268.5228 101.1146,214.2826 101.7842,175.4438 101.1146,146.6496 101.1146,123.8821 101.1145,106.4717 101.1146,91.7397 101.7842,80.356 101.1146,71.6507 101.1146,62.9455 101.1146,56.2491 101.1145,50.8922 101.7843,46.2046 101.1145,41.5173 101.1146,38.8387 101.1146,34.8209 101.1146,32.1424 101.7842,29.4638 101.1146,27.455 101.1145,26.1157 101.1146,23.4371 101.1146,22.0979 101.7842,20.7586 101.1146,19.4194 101.1146,18.7497 101.1145,17.4105 101.1146,16.0712 101.7842,15.4015 101.1146,14.0623 101.1146,14.0623 101.1146,12.723 101.1145,12.7231 101.7842,11.3837 101.1146,11.3838 101.1146,10.7141 101.1146,10.0445 100.4449,10.0445 101.7842,9.3749 101.1146,8.7052 101.1146,8.7052 101.1146,8.0356 101.1146,8.0356 101.7842,8.0356 101.1145,6.6963 101.1146,7.366 101.1146,6.6963 101.1146,6.6964 101.7842,6.0266 101.1146,6.0267 101.1145,6.0267 101.1146,5.3571 101.1146,5.3571 101.7842,5.357 101.1146,5.3571 101.1146,4.6874 101.1145,4.6875 101.1146,4.6874 101.7842,0 101.1146,0 101.1146,0 101.1146,0 101.7842,0" style="fill:none;stroke:#ffd320;stroke-width:53.57063675;stroke-linejoin:round"/><path id="path340" d="m 1002.4406,1871.2938 101.1145,0 101.1146,0 101.1146,0 101.1146,0 101.7842,0 101.1146,0 101.1145,0 101.1146,357.584 101.1146,286.6029 101.7842,234.3715 101.1146,194.8632 101.1146,164.7297 101.1145,141.2926 101.1146,123.2125 101.7842,107.1412 101.1146,95.0879 101.1146,83.7041 101.1146,75.6686 101.1145,67.6329 101.7843,61.6062 101.1145,55.5796 101.1146,50.8921 101.1146,46.8743 101.1146,42.8565 101.7842,39.5083 101.1146,36.8298 101.1145,34.1513 101.1146,31.4728 101.1146,30.1335 101.7842,27.4549 101.1146,26.1157 101.1146,24.1068 101.1145,23.4371 101.1146,21.4283 101.7842,20.089 101.1146,19.4193 101.1146,18.7498 101.1146,17.4104 101.1145,16.0712 101.7842,16.0712 101.1146,14.7319 101.1146,14.0623 101.1146,14.0623 100.4449,12.723 101.7842,12.7231 101.1146,12.0534 101.1146,11.3837 101.1146,10.7141 101.1146,10.7142 101.7842,10.0445 101.1145,9.3748 101.1146,9.3749 101.1146,9.3749 101.1146,8.7052 101.7842,8.0356 101.1146,8.0356 101.1145,8.0356 101.1146,7.3659 101.1146,7.366 101.7842,7.366 101.1146,6.6963 101.1146,6.6963 101.1145,6.0267 101.1146,6.0267 101.7842,0 101.1146,0 101.1146,0 101.1146,0 101.7842,0" style="fill:none;stroke:#579d1c;stroke-width:53.57063675;stroke-linejoin:round"/><path id="path342" d="m 1002.4406,1871.2938 101.1145,0 101.1146,0 101.1146,0 101.1146,0 101.7842,0 101.1146,0 101.1145,0 101.1146,0 101.1146,0 101.7842,292.6296 101.1146,243.7464 101.1146,206.9166 101.1145,176.7831 101.1146,153.3459 101.7842,133.9266 101.1146,118.5251 101.1146,105.1323 101.1146,93.7486 101.1145,85.0434 101.7843,77.0078 101.1145,69.6419 101.1146,63.6151 101.1146,58.2581 101.1146,53.5706 101.7842,49.5528 101.1146,46.2047 101.1145,42.1869 101.1146,40.178 101.1146,36.8298 101.7842,34.8209 101.1146,32.1424 101.1146,30.8031 101.1145,28.7942 101.1146,26.7853 101.7842,25.4461 101.1146,24.1068 101.1146,22.7675 101.1146,22.0979 101.1145,20.7586 101.7842,19.4194 101.1146,18.7497 101.1146,18.0801 101.1146,16.7408 100.4449,16.0712 101.7842,16.0712 101.1146,14.7319 101.1146,14.0623 101.1146,14.0623 101.1146,12.723 101.7842,12.723 101.1145,12.0534 101.1146,12.0534 101.1146,11.3838 101.1146,10.7141 101.7842,10.0445 101.1146,10.0445 101.1145,10.0445 101.1146,9.3749 101.1146,9.3748 101.7842,8.7052 101.1146,8.7053 101.1146,8.0356 101.1145,8.0356 101.1146,7.3659 101.7842,0 101.1146,0 101.1146,0 101.1146,0 101.7842,0" style="fill:none;stroke:#7e0021;stroke-width:53.57063675;stroke-linejoin:round"/><path id="path344" d="m 1002.4406,1871.2938 101.1145,0 101.1146,0 101.1146,0 101.1146,0 101.7842,0 101.1146,0 101.1145,0 101.1146,0 101.1146,0 101.7842,0 101.1146,0 101.1146,247.7642 101.1145,212.2736 101.1146,184.1491 101.7842,160.7119 101.1146,142.6318 101.1146,125.891 101.1146,112.4984 101.1145,101.7842 101.7843,91.7397 101.1145,83.7041 101.1146,77.0078 101.1146,69.6418 101.1146,64.2848 101.7842,59.5973 101.1146,54.9099 101.1145,51.5618 101.1146,47.5439 101.1146,44.1958 101.7842,41.5172 101.1146,38.8388 101.1146,36.8298 101.1145,34.8209 101.1146,32.1424 101.7842,30.8031 101.1146,28.7942 101.1146,27.4549 101.1146,26.1157 101.1145,24.7765 101.7842,23.4371 101.1146,22.7675 101.1146,21.4283 101.1146,20.089 100.4449,20.089 101.7842,18.7497 101.1146,17.4104 101.1146,17.4105 101.1146,16.0712 101.1146,16.0712 101.7842,15.4015 101.1145,14.0623 101.1146,14.0623 101.1146,13.3927 101.1146,13.3926 101.7842,12.7231 101.1146,12.0534 101.1145,11.3837 101.1146,11.3838 101.1146,10.7141 101.7842,10.7141 101.1146,10.0445 101.1146,10.0445 101.1145,9.3749 101.1146,9.3748 101.7842,0 101.1146,0 101.1146,0 101.1146,0 101.7842,0" style="fill:none;stroke:#83caff;stroke-width:53.57063675;stroke-linejoin:round"/><path id="path346" d="m 1002.4406,1871.2938 101.1145,0 101.1146,0 101.1146,0 101.1146,0 101.7842,0 101.1146,0 101.1145,0 101.1146,0 101.1146,0 101.7842,0 101.1146,0 101.1146,0 101.1145,0 101.1146,214.2825 101.7842,188.1669 101.1146,166.069 101.1146,147.3192 101.1146,131.9177 101.1145,118.5251 101.7843,107.1412 101.1145,97.0968 101.1146,89.0612 101.1146,81.6952 101.1146,74.9989 101.7842,69.6418 101.1146,64.2848 101.1145,59.5973 101.1146,55.5796 101.1146,51.5617 101.7842,48.8832 101.1146,45.5351 101.1146,42.8565 101.1145,40.1779 101.1146,37.4995 101.7842,36.1602 101.1146,33.4816 101.1146,32.1424 101.1146,30.8031 101.1145,28.7942 101.7842,27.455 101.1146,26.1157 101.1146,24.7764 101.1146,24.1068 100.4449,22.7675 101.7842,21.4283 101.1146,20.7586 101.1146,20.089 101.1146,19.4193 101.1146,18.0801 101.7842,18.0801 101.1145,16.7408 101.1146,16.7409 101.1146,15.4015 101.1146,15.4016 101.7842,14.7319 101.1146,14.0623 101.1145,13.3926 101.1146,13.3927 101.1146,12.723 101.7842,12.0534 101.1146,12.0534 101.1146,11.3838 101.1145,11.3837 101.1146,10.7142 101.7842,0 101.1146,0 101.1146,0 101.1146,0 101.7842,0" style="fill:none;stroke:#314004;stroke-width:53.57063675;stroke-linejoin:round"/><path id="path348" d="m 1002.4406,1871.2938 101.1145,0 101.1146,0 101.1146,0 101.1146,0 101.7842,0 101.1146,0 101.1145,0 101.1146,0 101.1146,0 101.7842,0 101.1146,0 101.1146,0 101.1145,0 101.1146,0 101.7842,0 101.1146,189.5061 101.1146,168.0779 101.1146,150.6674 101.1145,135.9355 101.7843,122.5428 101.1145,111.8287 101.1146,101.7842 101.1146,93.079 101.1146,85.713 101.7842,79.0167 101.1146,73.6597 101.1145,67.6329 101.1146,63.6151 101.1146,59.5974 101.7842,54.9099 101.1146,52.2313 101.1146,48.8832 101.1145,46.2047 101.1146,42.8565 101.7842,40.8476 101.1146,38.8388 101.1146,36.8298 101.1146,34.8209 101.1145,32.812 101.7842,31.4727 101.1146,30.1335 101.1146,28.1246 101.1146,27.455 100.4449,26.1156 101.7842,24.7765 101.1146,24.1068 101.1146,22.7675 101.1146,22.0979 101.1146,20.7586 101.7842,20.089 101.1145,19.4193 101.1146,18.7498 101.1146,18.08 101.1146,17.4105 101.7842,16.7408 101.1146,16.0712 101.1145,15.4016 101.1146,15.4015 101.1146,14.732 101.7842,14.0623 101.1146,13.3926 101.1146,13.3927 101.1145,12.723 101.1146,12.0534 101.7842,0 101.1146,0 101.1146,0 101.1146,0 101.7842,0" style="fill:none;stroke:#aecf00;stroke-width:53.57063675;stroke-linejoin:round"/><path id="path350" d="m 1002.4406,1871.2938 101.1145,0 101.1146,0 101.1146,0 101.1146,0 101.7842,0 101.1146,0 101.1145,0 101.1146,0 101.1146,0 101.7842,0 101.1146,0 101.1146,0 101.1145,0 101.1146,0 101.7842,0 101.1146,0 101.1146,0 101.1146,169.4171 101.1145,152.6763 101.7843,137.9444 101.1145,125.2214 101.1146,115.1769 101.1146,104.4627 101.1146,97.0968 101.7842,89.0612 101.1146,82.3648 101.1145,76.3382 101.1146,70.9811 101.1146,66.9633 101.7842,62.2758 101.1146,58.2581 101.1146,54.9099 101.1145,52.2314 101.1146,48.2136 101.7842,46.2046 101.1146,43.5262 101.1146,41.5172 101.1146,38.8387 101.1145,37.4995 101.7842,34.8209 101.1146,34.1513 101.1146,32.1424 101.1146,30.1334 100.4449,29.4639 101.7842,28.1246 101.1146,26.7853 101.1146,25.4461 101.1146,24.7764 101.1146,24.1068 101.7842,22.7675 101.1145,21.4282 101.1146,21.4283 101.1146,20.089 101.1146,19.4193 101.7842,18.7498 101.1146,18.08 101.1145,17.4105 101.1146,17.4105 101.1146,16.0712 101.7842,16.0711 101.1146,15.4016 101.1146,14.7319 101.1145,14.0623 101.1146,14.0623 101.7842,0 101.1146,0 101.1146,0 101.1146,0 101.7842,0" style="fill:none;stroke:#4b1f6f;stroke-width:53.57063675;stroke-linejoin:round"/><path id="path352" d="m 1002.4406,1871.2938 101.1145,0 101.1146,0 101.1146,0 101.1146,0 101.7842,0 101.1146,0 101.1145,0 101.1146,0 101.1146,0 101.7842,0 101.1146,0 101.1146,0 101.1145,0 101.1146,0 101.7842,0 101.1146,0 101.1146,0 101.1146,0 101.1145,0 101.7843,153.3459 101.1145,139.2837 101.1146,127.2303 101.1146,116.5161 101.1146,107.8109 101.7842,99.1057 101.1146,91.7397 101.1145,85.0434 101.1146,79.6863 101.1146,73.6596 101.7842,68.9722 101.1146,64.9544 101.1146,60.9366 101.1145,57.5885 101.1146,53.5706 101.7842,51.5617 101.1146,48.2136 101.1146,45.535 101.1146,43.5262 101.1145,41.5172 101.7842,39.5084 101.1146,37.4994 101.1146,35.4906 101.1146,34.1513 100.4449,32.1423 101.7842,31.4728 101.1146,29.4638 101.1146,28.7943 101.1146,27.4549 101.1146,26.1157 101.7842,25.446 101.1145,24.1068 101.1146,23.4372 101.1146,22.7675 101.1146,21.4283 101.7842,20.7586 101.1146,20.089 101.1145,20.089 101.1146,18.7497 101.1146,18.0801 101.7842,17.4104 101.1146,17.4105 101.1146,16.0712 101.1145,16.0712 101.1146,15.4015 101.7842,0 101.1146,0 101.1146,0 101.1146,0 101.7842,0" style="fill:none;stroke:#ff950e;stroke-width:53.57063675;stroke-linejoin:round"/><path id="path354" d="m 1002.4406,1871.2938 101.1145,0 101.1146,0 101.1146,0 101.1146,0 101.7842,0 101.1146,0 101.1145,0 101.1146,0 101.1146,0 101.7842,0 101.1146,0 101.1146,0 101.1145,0 101.1146,0 101.7842,0 101.1146,0 101.1146,0 101.1146,0 101.1145,0 101.7843,0 101.1145,0 101.1146,139.9533 101.1146,128.5695 101.1146,117.8554 101.7842,109.1502 101.1146,101.1146 101.1145,93.7486 101.1146,87.0523 101.1146,81.6952 101.7842,75.6685 101.1146,71.6507 101.1146,66.9633 101.1145,63.6152 101.1146,58.9277 101.7842,56.2491 101.1146,52.901 101.1146,50.2225 101.1146,48.2136 101.1145,45.535 101.7842,42.8565 101.1146,41.5173 101.1146,38.8387 101.1146,37.4994 100.4449,36.1602 101.7842,34.1513 101.1146,32.812 101.1146,31.4728 101.1146,30.1334 101.1146,28.7943 101.7842,27.4549 101.1145,26.7853 101.1146,26.1157 101.1146,24.7764 101.1146,23.4372 101.7842,23.4371 101.1146,22.0979 101.1145,21.4283 101.1146,20.7586 101.1146,20.089 101.7842,18.7497 101.1146,18.7497 101.1146,18.7498 101.1145,17.4104 101.1146,16.7409 101.7842,0 101.1146,0 101.1146,0 101.1146,0 101.7842,0" style="fill:none;stroke:#c5000b;stroke-width:53.57063675;stroke-linejoin:round"/><path id="path356" d="m 1002.4406,1871.2938 101.1145,0 101.1146,0 101.1146,0 101.1146,0 101.7842,0 101.1146,0 101.1145,0 101.1146,0 101.1146,0 101.7842,0 101.1146,0 101.1146,0 101.1145,0 101.1146,0 101.7842,0 101.1146,0 101.1146,0 101.1146,0 101.1145,0 101.7843,0 101.1145,0 101.1146,0 101.1146,0 101.1146,128.5695 101.7842,119.1947 101.1146,109.8198 101.1145,102.4538 101.1146,95.0879 101.1146,89.0612 101.7842,83.0345 101.1146,77.6774 101.1146,73.6596 101.1145,68.9722 101.1146,64.9544 101.7842,60.9366 101.1146,58.2581 101.1146,54.2403 101.1146,52.2313 101.1145,49.5529 101.7842,46.8743 101.1146,44.8654 101.1146,42.8565 101.1146,40.8476 100.4449,39.5084 101.7842,37.4994 101.1146,35.4906 101.1146,34.1512 101.1146,32.8121 101.1146,31.4727 101.7842,30.8031 101.1145,28.7942 101.1146,28.1246 101.1146,26.7853 101.1146,26.1157 101.7842,25.4461 101.1146,24.1068 101.1145,23.4371 101.1146,22.7675 101.1146,21.4283 101.7842,21.4282 101.1146,20.089 101.1146,20.089 101.1145,18.7498 101.1146,18.7497 101.7842,0 101.1146,0 101.1146,0 101.1146,0 101.7842,0" style="fill:none;stroke:#0084d1;stroke-width:53.57063675;stroke-linejoin:round"/><path id="path358" d="m 1002.4406,1871.2938 101.1145,0 101.1146,0 101.1146,0 101.1146,0 101.7842,0 101.1146,0 101.1145,0 101.1146,0 101.1146,0 101.7842,0 101.1146,0 101.1146,0 101.1145,0 101.1146,0 101.7842,0 101.1146,0 101.1146,0 101.1146,0 101.1145,0 101.7843,0 101.1145,0 101.1146,0 101.1146,0 101.1146,0 101.7842,0 101.1146,119.1946 101.1145,110.4895 101.1146,103.1235 101.1146,96.4271 101.7842,90.4005 101.1146,84.3737 101.1146,79.0167 101.1145,74.9989 101.1146,70.3115 101.7842,66.2936 101.1146,62.9455 101.1146,59.5974 101.1146,56.2491 101.1145,53.5707 101.7842,50.8921 101.1146,48.2135 101.1146,46.8744 101.1146,44.1957 100.4449,42.1869 101.7842,40.178 101.1146,38.8387 101.1146,37.4994 101.1146,35.4906 101.1146,34.1513 101.7842,32.812 101.1145,31.4727 101.1146,30.1335 101.1146,29.4639 101.1146,28.1246 101.7842,27.4549 101.1146,26.1157 101.1145,25.446 101.1146,24.1068 101.1146,24.1068 101.7842,22.7675 101.1146,22.0979 101.1146,21.4283 101.1145,20.7586 101.1146,20.089 101.7842,0 101.1146,0 101.1146,0 101.1146,0 101.7842,0" style="fill:none;stroke:#004586;stroke-width:53.57063675;stroke-linejoin:round"/><path id="path360" d="m 1002.4406,1871.2938 101.1145,0 101.1146,0 101.1146,0 101.1146,0 101.7842,0 101.1146,0 101.1145,0 101.1146,0 101.1146,0 101.7842,0 101.1146,0 101.1146,0 101.1145,0 101.1146,0 101.7842,0 101.1146,0 101.1146,0 101.1146,0 101.1145,0 101.7843,0 101.1145,0 101.1146,0 101.1146,0 101.1146,0 101.7842,0 101.1146,0 101.1145,0 101.1146,111.1591 101.1146,103.1234 101.7842,97.0968 101.1146,91.0701 101.1146,85.713 101.1145,80.356 101.1146,75.6685 101.7842,71.6507 101.1146,67.633 101.1146,64.2847 101.1146,60.9366 101.1145,57.5885 101.7842,54.9099 101.1146,52.2313 101.1146,50.2225 101.1146,46.8743 100.4449,45.5351 101.7842,43.5261 101.1146,41.5172 101.1146,40.178 101.1146,38.1691 101.1146,36.8298 101.7842,35.4906 101.1145,34.1512 101.1146,32.8121 101.1146,31.4727 101.1146,30.1335 101.7842,29.4638 101.1146,28.1246 101.1145,27.455 101.1146,26.1157 101.1146,25.446 101.7842,24.7764 101.1146,24.1068 101.1146,22.7675 101.1145,22.7676 101.1146,21.4282 101.7842,0 101.1146,0 101.1146,0 101.1146,0 101.7842,0" style="fill:none;stroke:#ff420e;stroke-width:53.57063675;stroke-linejoin:round"/><path id="path362" d="m 1002.4406,1871.2938 101.1145,0 101.1146,0 101.1146,0 101.1146,0 101.7842,0 101.1146,0 101.1145,0 101.1146,0 101.1146,0 101.7842,0 101.1146,0 101.1146,0 101.1145,0 101.1146,0 101.7842,0 101.1146,0 101.1146,0 101.1146,0 101.1145,0 101.7843,0 101.1145,0 101.1146,0 101.1146,0 101.1146,0 101.7842,0 101.1146,0 101.1145,0 101.1146,0 101.1146,0 101.7842,103.7931 101.1146,97.0968 101.1146,91.7397 101.1145,86.3826 101.1146,81.0256 101.7842,76.3382 101.1146,72.99 101.1146,68.3025 101.1146,65.6241 101.1145,61.6062 101.7842,58.9277 101.1146,56.2492 101.1146,53.5706 101.1146,50.8921 100.4449,48.8832 101.7842,46.8743 101.1146,44.1958 101.1146,42.8565 101.1146,40.8476 101.1146,39.5084 101.7842,38.1691 101.1145,36.1601 101.1146,34.821 101.1146,34.1512 101.1146,32.1424 101.7842,31.4728 101.1146,30.1334 101.1145,29.4639 101.1146,28.1246 101.1146,27.4549 101.7842,26.7854 101.1146,25.446 101.1146,24.7764 101.1145,23.4372 101.1146,23.4371 101.7842,0 101.1146,0 101.1146,0 101.1146,0 101.7842,0" style="fill:none;stroke:#ffd320;stroke-width:53.57063675;stroke-linejoin:round"/><path id="path364" d="m 1002.4406,1871.2938 101.1145,0 101.1146,0 101.1146,0 101.1146,0 101.7842,0 101.1146,0 101.1145,0 101.1146,0 101.1146,0 101.7842,0 101.1146,0 101.1146,0 101.1145,0 101.1146,0 101.7842,0 101.1146,0 101.1146,0 101.1146,0 101.1145,0 101.7843,0 101.1145,0 101.1146,0 101.1146,0 101.1146,0 101.7842,0 101.1146,0 101.1145,0 101.1146,0 101.1146,0 101.7842,0 101.1146,0 101.1146,97.0968 101.1145,92.4093 101.1146,86.3827 101.7842,81.6952 101.1146,77.6774 101.1146,72.99 101.1146,69.6418 101.1145,66.2937 101.7842,62.9455 101.1146,59.5973 101.1146,56.9188 101.1146,54.9099 100.4449,51.5618 101.7842,50.2224 101.1146,47.544 101.1146,45.535 101.1146,44.1958 101.1146,41.5172 101.7842,40.178 101.1145,38.8387 101.1146,37.4995 101.1146,36.1602 101.1146,34.1512 101.7842,33.4817 101.1146,32.812 101.1145,30.8031 101.1146,30.1335 101.1146,29.4639 101.7842,28.1245 101.1146,26.7854 101.1146,26.7853 101.1145,25.446 101.1146,24.7765 101.7842,0 101.1146,0 101.1146,0 101.1146,0 101.7842,0" style="fill:none;stroke:#579d1c;stroke-width:53.57063675;stroke-linejoin:round"/><text id="text366" y="-.33" class="TextShape" style="font-size:8.03559589px"><tspan id="tspan368" class="TextParagraph" font-size="353" font-weight="400" style="font-weight:400;font-size:236.38043213px;font-family:'Liberation Sans'"><tspan id="tspan370" x="711.15" y="5173.254" class="TextPosition"><tspan id="tspan372" style="fill:#000;stroke:none">0</tspan></tspan></tspan></text><text id="text374" y="-.33" class="TextShape" style="font-size:8.03559589px"><tspan id="tspan376" class="TextParagraph" font-size="353" font-weight="400" style="font-weight:400;font-size:236.38043213px;font-family:'Liberation Sans'"><tspan id="tspan378" x="516.287" y="4528.398" class="TextPosition"><tspan id="tspan380" style="fill:#000;stroke:none">0,2</tspan></tspan></tspan></text><text id="text382" y="-.33" class="TextShape" style="font-size:8.03559589px"><tspan id="tspan384" class="TextParagraph" font-size="353" font-weight="400" style="font-weight:400;font-size:236.38043213px;font-family:'Liberation Sans'"><tspan id="tspan386" x="516.287" y="3884.21" class="TextPosition"><tspan id="tspan388" style="fill:#000;stroke:none">0,4</tspan></tspan></tspan></text><text id="text390" y="-.33" class="TextShape" style="font-size:8.03559589px"><tspan id="tspan392" class="TextParagraph" font-size="353" font-weight="400" style="font-weight:400;font-size:236.38043213px;font-family:'Liberation Sans'"><tspan id="tspan394" x="516.287" y="3240.024" class="TextPosition"><tspan id="tspan396" style="fill:#000;stroke:none">0,6</tspan></tspan></tspan></text><text id="text398" y="-.33" class="TextShape" style="font-size:8.03559589px"><tspan id="tspan400" class="TextParagraph" font-size="353" font-weight="400" style="font-weight:400;font-size:236.38043213px;font-family:'Liberation Sans'"><tspan id="tspan402" x="516.287" y="2595.837" class="TextPosition"><tspan id="tspan404" style="fill:#000;stroke:none">0,8</tspan></tspan></tspan></text><text id="text406" y="-.33" class="TextShape" style="font-size:8.03559589px"><tspan id="tspan408" class="TextParagraph" font-size="353" font-weight="400" style="font-weight:400;font-size:236.38043213px;font-family:'Liberation Sans'"><tspan id="tspan410" x="711.15" y="1951.65" class="TextPosition"><tspan id="tspan412" style="fill:#000;stroke:none">1</tspan></tspan></tspan></text><text id="text414" y="-.33" class="TextShape" style="font-size:8.03559589px"><tspan id="tspan416" class="TextParagraph" font-size="353" font-weight="400" style="font-weight:400;font-size:236.38043213px;font-family:'Liberation Sans'"><tspan id="tspan418" x="516.287" y="1306.793" class="TextPosition"><tspan id="tspan420" style="fill:#000;stroke:none">1,2</tspan></tspan></tspan></text><text id="text422" y="-.33" class="TextShape" style="font-size:8.03559589px"><tspan id="tspan424" class="TextParagraph" font-size="459" font-weight="400" style="font-weight:400;font-size:307.36154175px;font-family:'Liberation Sans'"><tspan id="tspan426" x="2566.703" y="568.858" class="TextPosition"><tspan id="tspan428" style="fill:#000;stroke:none">Exponential distance - varying min distance</tspan></tspan></tspan></text><path id="path430" d="m 8494.2942,1844.5085 535.7064,0" style="fill:none;stroke:#004586;stroke-width:53.57063675;stroke-linejoin:round"/><path id="path432" d="m 9572.4033,1844.5085 535.7067,0" style="fill:none;stroke:#ff420e;stroke-width:53.57063675;stroke-linejoin:round"/><path id="path434" d="m 8494.2942,2177.9857 535.7064,0" style="fill:none;stroke:#ffd320;stroke-width:53.57063675;stroke-linejoin:round"/><path id="path436" d="m 9572.4033,2177.9857 535.7067,0" style="fill:none;stroke:#579d1c;stroke-width:53.57063675;stroke-linejoin:round"/><path id="path438" d="m 8494.2942,2511.4629 535.7064,0" style="fill:none;stroke:#7e0021;stroke-width:53.57063675;stroke-linejoin:round"/><path id="path440" d="m 9572.4033,2511.4629 535.7067,0" style="fill:none;stroke:#83caff;stroke-width:53.57063675;stroke-linejoin:round"/><path id="path442" d="m 8494.2942,2844.9401 535.7064,0" style="fill:none;stroke:#314004;stroke-width:53.57063675;stroke-linejoin:round"/><path id="path444" d="m 9572.4033,2844.9401 535.7067,0" style="fill:none;stroke:#aecf00;stroke-width:53.57063675;stroke-linejoin:round"/><path id="path446" d="m 8494.2942,3177.7477 535.7064,0" style="fill:none;stroke:#4b1f6f;stroke-width:53.57063675;stroke-linejoin:round"/><path id="path448" d="m 9572.4033,3177.7477 535.7067,0" style="fill:none;stroke:#ff950e;stroke-width:53.57063675;stroke-linejoin:round"/><path id="path450" d="m 8494.2942,3511.2249 535.7064,0" style="fill:none;stroke:#c5000b;stroke-width:53.57063675;stroke-linejoin:round"/><path id="path452" d="m 9572.4033,3511.2249 535.7067,0" style="fill:none;stroke:#0084d1;stroke-width:53.57063675;stroke-linejoin:round"/><path id="path454" d="m 8494.2942,3844.7021 535.7064,0" style="fill:none;stroke:#004586;stroke-width:53.57063675;stroke-linejoin:round"/><path id="path456" d="m 9572.4033,3844.7021 535.7067,0" style="fill:none;stroke:#ff420e;stroke-width:53.57063675;stroke-linejoin:round"/><path id="path458" d="m 8494.2942,4178.1794 535.7064,0" style="fill:none;stroke:#ffd320;stroke-width:53.57063675;stroke-linejoin:round"/><path id="path460" d="m 9572.4033,4178.1794 535.7067,0" style="fill:none;stroke:#579d1c;stroke-width:53.57063675;stroke-linejoin:round"/><text id="text462" y="-.33" class="TextShape" style="font-size:8.03559589px"><tspan id="tspan464" class="TextParagraph" font-size="353" font-weight="400" style="font-weight:400;font-size:236.38043213px;font-family:'Liberation Sans'"><tspan id="tspan466" x="9096.964" y="1924.864" class="TextPosition"><tspan id="tspan468" style="fill:#000;stroke:none">0,2</tspan></tspan></tspan></text><text id="text470" y="-.33" class="TextShape" style="font-size:8.03559589px"><tspan id="tspan472" class="TextParagraph" font-size="353" font-weight="400" style="font-weight:400;font-size:236.38043213px;font-family:'Liberation Sans'"><tspan id="tspan474" x="10175.073" y="1924.864" class="TextPosition"><tspan id="tspan476" style="fill:#000;stroke:none">0,4</tspan></tspan></tspan></text><text id="text478" y="-.33" class="TextShape" style="font-size:8.03559589px"><tspan id="tspan480" class="TextParagraph" font-size="353" font-weight="400" style="font-weight:400;font-size:236.38043213px;font-family:'Liberation Sans'"><tspan id="tspan482" x="9096.964" y="2258.342" class="TextPosition"><tspan id="tspan484" style="fill:#000;stroke:none">0,6</tspan></tspan></tspan></text><text id="text486" y="-.33" class="TextShape" style="font-size:8.03559589px"><tspan id="tspan488" class="TextParagraph" font-size="353" font-weight="400" style="font-weight:400;font-size:236.38043213px;font-family:'Liberation Sans'"><tspan id="tspan490" x="10175.073" y="2258.342" class="TextPosition"><tspan id="tspan492" style="fill:#000;stroke:none">0,8</tspan></tspan></tspan></text><text id="text494" y="-.33" class="TextShape" style="font-size:8.03559589px"><tspan id="tspan496" class="TextParagraph" font-size="353" font-weight="400" style="font-weight:400;font-size:236.38043213px;font-family:'Liberation Sans'"><tspan id="tspan498" x="9096.964" y="2591.819" class="TextPosition"><tspan id="tspan500" style="fill:#000;stroke:none">1</tspan></tspan></tspan></text><text id="text502" y="-.33" class="TextShape" style="font-size:8.03559589px"><tspan id="tspan504" class="TextParagraph" font-size="353" font-weight="400" style="font-weight:400;font-size:236.38043213px;font-family:'Liberation Sans'"><tspan id="tspan506" x="10175.073" y="2591.819" class="TextPosition"><tspan id="tspan508" style="fill:#000;stroke:none">1,2</tspan></tspan></tspan></text><text id="text510" y="-.33" class="TextShape" style="font-size:8.03559589px"><tspan id="tspan512" class="TextParagraph" font-size="353" font-weight="400" style="font-weight:400;font-size:236.38043213px;font-family:'Liberation Sans'"><tspan id="tspan514" x="9096.964" y="2925.296" class="TextPosition"><tspan id="tspan516" style="fill:#000;stroke:none">1,4</tspan></tspan></tspan></text><text id="text518" y="-.33" class="TextShape" style="font-size:8.03559589px"><tspan id="tspan520" class="TextParagraph" font-size="353" font-weight="400" style="font-weight:400;font-size:236.38043213px;font-family:'Liberation Sans'"><tspan id="tspan522" x="10175.073" y="2925.296" class="TextPosition"><tspan id="tspan524" style="fill:#000;stroke:none">1,6</tspan></tspan></tspan></text><text id="text526" y="-.33" class="TextShape" style="font-size:8.03559589px"><tspan id="tspan528" class="TextParagraph" font-size="353" font-weight="400" style="font-weight:400;font-size:236.38043213px;font-family:'Liberation Sans'"><tspan id="tspan530" x="9096.964" y="3258.104" class="TextPosition"><tspan id="tspan532" style="fill:#000;stroke:none">1,8</tspan></tspan></tspan></text><text id="text534" y="-.33" class="TextShape" style="font-size:8.03559589px"><tspan id="tspan536" class="TextParagraph" font-size="353" font-weight="400" style="font-weight:400;font-size:236.38043213px;font-family:'Liberation Sans'"><tspan id="tspan538" x="10175.073" y="3258.104" class="TextPosition"><tspan id="tspan540" style="fill:#000;stroke:none">2</tspan></tspan></tspan></text><text id="text542" y="-.33" class="TextShape" style="font-size:8.03559589px"><tspan id="tspan544" class="TextParagraph" font-size="353" font-weight="400" style="font-weight:400;font-size:236.38043213px;font-family:'Liberation Sans'"><tspan id="tspan546" x="9096.964" y="3591.581" class="TextPosition"><tspan id="tspan548" style="fill:#000;stroke:none">2,2</tspan></tspan></tspan></text><text id="text550" y="-.33" class="TextShape" style="font-size:8.03559589px"><tspan id="tspan552" class="TextParagraph" font-size="353" font-weight="400" style="font-weight:400;font-size:236.38043213px;font-family:'Liberation Sans'"><tspan id="tspan554" x="10175.073" y="3591.581" class="TextPosition"><tspan id="tspan556" style="fill:#000;stroke:none">2,4</tspan></tspan></tspan></text><text id="text558" y="-.33" class="TextShape" style="font-size:8.03559589px"><tspan id="tspan560" class="TextParagraph" font-size="353" font-weight="400" style="font-weight:400;font-size:236.38043213px;font-family:'Liberation Sans'"><tspan id="tspan562" x="9096.964" y="3925.058" class="TextPosition"><tspan id="tspan564" style="fill:#000;stroke:none">2,6</tspan></tspan></tspan></text><text id="text566" y="-.33" class="TextShape" style="font-size:8.03559589px"><tspan id="tspan568" class="TextParagraph" font-size="353" font-weight="400" style="font-weight:400;font-size:236.38043213px;font-family:'Liberation Sans'"><tspan id="tspan570" x="10175.073" y="3925.058" class="TextPosition"><tspan id="tspan572" style="fill:#000;stroke:none">2,8</tspan></tspan></tspan></text><text id="text574" y="-.33" class="TextShape" style="font-size:8.03559589px"><tspan id="tspan576" class="TextParagraph" font-size="353" font-weight="400" style="font-weight:400;font-size:236.38043213px;font-family:'Liberation Sans'"><tspan id="tspan578" x="9096.964" y="4258.535" class="TextPosition"><tspan id="tspan580" style="fill:#000;stroke:none">3</tspan></tspan></tspan></text><text id="text582" y="-.33" class="TextShape" style="font-size:8.03559589px"><tspan id="tspan584" class="TextParagraph" font-size="353" font-weight="400" style="font-weight:400;font-size:236.38043213px;font-family:'Liberation Sans'"><tspan id="tspan586" x="10175.073" y="4258.535" class="TextPosition"><tspan id="tspan588" style="fill:#000;stroke:none">3,2</tspan></tspan></tspan></text></svg>