<svg xmlns="http://www.w3.org/2000/svg" xmlns:svg="http://www.w3.org/2000/svg" id="svg2" width="160mm" height="90mm" stroke-linejoin="round" stroke-width="28.222" version="1.1" viewBox="0 0 16000 9000" xml:space="preserve"><metadata id="metadata594"/><path id="path4" d="M 5351.3514,6021.946 0,6021.946 0,-1 l 10702.703,0 0,6022.946 -5351.3516,0 z" style="fill:#fff;stroke:none"/><path id="path6" d="m 4305.1622,5090.8108 -3303.7906,0 0,-3864.3446 6606.9122,0 0,3864.3446 -3303.1216,0 z" style="fill:none;stroke:#b3b3b3;stroke-width:18.87822914;stroke-linejoin:round"/><path id="path8" d="m 7608.2838,5090.1419 -6606.9122,0" style="fill:none;stroke:#b3b3b3;stroke-width:18.87822914;stroke-linejoin:round"/><path id="path10" d="m 7608.2838,4445.973 -6606.9122,0" style="fill:none;stroke:#b3b3b3;stroke-width:18.87822914;stroke-linejoin:round"/><path id="path12" d="m 7608.2838,3801.8041 -6606.9122,0" style="fill:none;stroke:#b3b3b3;stroke-width:18.87822914;stroke-linejoin:round"/><path id="path14" d="m 7608.2838,3157.6351 -6606.9122,0" style="fill:none;stroke:#b3b3b3;stroke-width:18.87822914;stroke-linejoin:round"/><path id="path16" d="m 7608.2838,2514.1351 -6606.9122,0" style="fill:none;stroke:#b3b3b3;stroke-width:18.87822914;stroke-linejoin:round"/><path id="path18" d="m 7608.2838,1869.9662 -6606.9122,0" style="fill:none;stroke:#b3b3b3;stroke-width:18.87822914;stroke-linejoin:round"/><path id="path20" d="m 7608.2838,1225.1284 -6606.9122,0" style="fill:none;stroke:#b3b3b3;stroke-width:18.87822914;stroke-linejoin:round"/><path id="path22" d="m 1001.3716,5190.4797 0,-100.3378" style="fill:none;stroke:#b3b3b3;stroke-width:18.87822914;stroke-linejoin:round"/><path id="path24" d="m 1001.3716,5190.4797 0,-100.3378" style="fill:none;stroke:#b3b3b3;stroke-width:18.87822914;stroke-linejoin:round"/><path id="path26" d="m 1097.027,5190.4797 0,-100.3378" style="fill:none;stroke:#b3b3b3;stroke-width:18.87822914;stroke-linejoin:round"/><path id="path28" d="m 1097.027,5190.4797 0,-100.3378" style="fill:none;stroke:#b3b3b3;stroke-width:18.87822914;stroke-linejoin:round"/><path id="path30" d="m 1192.6824,5190.4797 0,-100.3378" style="fill:none;stroke:#b3b3b3;stroke-width:18.87822914;stroke-linejoin:round"/><path id="path32" d="m 1192.6824,5190.4797 0,-100.3378" style="fill:none;stroke:#b3b3b3;stroke-width:18.87822914;stroke-linejoin:round"/><path id="path34" d="m 1288.3378,5190.4797 0,-100.3378" style="fill:none;stroke:#b3b3b3;stroke-width:18.87822914;stroke-linejoin:round"/><path id="path36" d="m 1288.3378,5190.4797 0,-100.3378" style="fill:none;stroke:#b3b3b3;stroke-width:18.87822914;stroke-linejoin:round"/><path id="path38" d="m 1383.9932,5190.4797 0,-100.3378" style="fill:none;stroke:#b3b3b3;stroke-width:18.87822914;stroke-linejoin:round"/><path id="path40" d="m 1383.9932,5190.4797 0,-100.3378" style="fill:none;stroke:#b3b3b3;stroke-width:18.87822914;stroke-linejoin:round"/><path id="path42" d="m 1479.6487,5190.4797 0,-100.3378" style="fill:none;stroke:#b3b3b3;stroke-width:18.87822914;stroke-linejoin:round"/><path id="path44" d="m 1479.6487,5190.4797 0,-100.3378" style="fill:none;stroke:#b3b3b3;stroke-width:18.87822914;stroke-linejoin:round"/><path id="path46" d="m 1575.3041,5190.4797 0,-100.3378" style="fill:none;stroke:#b3b3b3;stroke-width:18.87822914;stroke-linejoin:round"/><path id="path48" d="m 1575.3041,5190.4797 0,-100.3378" style="fill:none;stroke:#b3b3b3;stroke-width:18.87822914;stroke-linejoin:round"/><path id="path50" d="m 1671.6284,5190.4797 0,-100.3378" style="fill:none;stroke:#b3b3b3;stroke-width:18.87822914;stroke-linejoin:round"/><path id="path52" d="m 1671.6284,5190.4797 0,-100.3378" style="fill:none;stroke:#b3b3b3;stroke-width:18.87822914;stroke-linejoin:round"/><path id="path54" d="m 1767.2838,5190.4797 0,-100.3378" style="fill:none;stroke:#b3b3b3;stroke-width:18.87822914;stroke-linejoin:round"/><path id="path56" d="m 1767.2838,5190.4797 0,-100.3378" style="fill:none;stroke:#b3b3b3;stroke-width:18.87822914;stroke-linejoin:round"/><path id="path58" d="m 1862.9392,5190.4797 0,-100.3378" style="fill:none;stroke:#b3b3b3;stroke-width:18.87822914;stroke-linejoin:round"/><path id="path60" d="m 1862.9392,5190.4797 0,-100.3378" style="fill:none;stroke:#b3b3b3;stroke-width:18.87822914;stroke-linejoin:round"/><path id="path62" d="m 1958.5946,5190.4797 0,-100.3378" style="fill:none;stroke:#b3b3b3;stroke-width:18.87822914;stroke-linejoin:round"/><path id="path64" d="m 1958.5946,5190.4797 0,-100.3378" style="fill:none;stroke:#b3b3b3;stroke-width:18.87822914;stroke-linejoin:round"/><path id="path66" d="m 2054.25,5190.4797 0,-100.3378" style="fill:none;stroke:#b3b3b3;stroke-width:18.87822914;stroke-linejoin:round"/><path id="path68" d="m 2054.25,5190.4797 0,-100.3378" style="fill:none;stroke:#b3b3b3;stroke-width:18.87822914;stroke-linejoin:round"/><path id="path70" d="m 2149.9054,5190.4797 0,-100.3378" style="fill:none;stroke:#b3b3b3;stroke-width:18.87822914;stroke-linejoin:round"/><path id="path72" d="m 2149.9054,5190.4797 0,-100.3378" style="fill:none;stroke:#b3b3b3;stroke-width:18.87822914;stroke-linejoin:round"/><path id="path74" d="m 2246.2297,5190.4797 0,-100.3378" style="fill:none;stroke:#b3b3b3;stroke-width:18.87822914;stroke-linejoin:round"/><path id="path76" d="m 2246.2297,5190.4797 0,-100.3378" style="fill:none;stroke:#b3b3b3;stroke-width:18.87822914;stroke-linejoin:round"/><path id="path78" d="m 2341.8851,5190.4797 0,-100.3378" style="fill:none;stroke:#b3b3b3;stroke-width:18.87822914;stroke-linejoin:round"/><path id="path80" d="m 2341.8851,5190.4797 0,-100.3378" style="fill:none;stroke:#b3b3b3;stroke-width:18.87822914;stroke-linejoin:round"/><path id="path82" d="m 2437.5405,5190.4797 0,-100.3378" style="fill:none;stroke:#b3b3b3;stroke-width:18.87822914;stroke-linejoin:round"/><path id="path84" d="m 2437.5405,5190.4797 0,-100.3378" style="fill:none;stroke:#b3b3b3;stroke-width:18.87822914;stroke-linejoin:round"/><path id="path86" d="m 2533.196,5190.4797 0,-100.3378" style="fill:none;stroke:#b3b3b3;stroke-width:18.87822914;stroke-linejoin:round"/><path id="path88" d="m 2533.196,5190.4797 0,-100.3378" style="fill:none;stroke:#b3b3b3;stroke-width:18.87822914;stroke-linejoin:round"/><path id="path90" d="m 2628.8514,5190.4797 0,-100.3378" style="fill:none;stroke:#b3b3b3;stroke-width:18.87822914;stroke-linejoin:round"/><path id="path92" d="m 2628.8514,5190.4797 0,-100.3378" style="fill:none;stroke:#b3b3b3;stroke-width:18.87822914;stroke-linejoin:round"/><path id="path94" d="m 2724.5068,5190.4797 0,-100.3378" style="fill:none;stroke:#b3b3b3;stroke-width:18.87822914;stroke-linejoin:round"/><path id="path96" d="m 2724.5068,5190.4797 0,-100.3378" style="fill:none;stroke:#b3b3b3;stroke-width:18.87822914;stroke-linejoin:round"/><path id="path98" d="m 2820.8311,5190.4797 0,-100.3378" style="fill:none;stroke:#b3b3b3;stroke-width:18.87822914;stroke-linejoin:round"/><path id="path100" d="m 2820.8311,5190.4797 0,-100.3378" style="fill:none;stroke:#b3b3b3;stroke-width:18.87822914;stroke-linejoin:round"/><path id="path102" d="m 2916.4865,5190.4797 0,-100.3378" style="fill:none;stroke:#b3b3b3;stroke-width:18.87822914;stroke-linejoin:round"/><path id="path104" d="m 2916.4865,5190.4797 0,-100.3378" style="fill:none;stroke:#b3b3b3;stroke-width:18.87822914;stroke-linejoin:round"/><path id="path106" d="m 3012.1419,5190.4797 0,-100.3378" style="fill:none;stroke:#b3b3b3;stroke-width:18.87822914;stroke-linejoin:round"/><path id="path108" d="m 3012.1419,5190.4797 0,-100.3378" style="fill:none;stroke:#b3b3b3;stroke-width:18.87822914;stroke-linejoin:round"/><path id="path110" d="m 3107.7973,5190.4797 0,-100.3378" style="fill:none;stroke:#b3b3b3;stroke-width:18.87822914;stroke-linejoin:round"/><path id="path112" d="m 3107.7973,5190.4797 0,-100.3378" style="fill:none;stroke:#b3b3b3;stroke-width:18.87822914;stroke-linejoin:round"/><path id="path114" d="m 3203.4527,5190.4797 0,-100.3378" style="fill:none;stroke:#b3b3b3;stroke-width:18.87822914;stroke-linejoin:round"/><path id="path116" d="m 3203.4527,5190.4797 0,-100.3378" style="fill:none;stroke:#b3b3b3;stroke-width:18.87822914;stroke-linejoin:round"/><path id="path118" d="m 3299.1081,5190.4797 0,-100.3378" style="fill:none;stroke:#b3b3b3;stroke-width:18.87822914;stroke-linejoin:round"/><path id="path120" d="m 3299.1081,5190.4797 0,-100.3378" style="fill:none;stroke:#b3b3b3;stroke-width:18.87822914;stroke-linejoin:round"/><path id="path122" d="m 3394.7635,5190.4797 0,-100.3378" style="fill:none;stroke:#b3b3b3;stroke-width:18.87822914;stroke-linejoin:round"/><path id="path124" d="m 3394.7635,5190.4797 0,-100.3378" style="fill:none;stroke:#b3b3b3;stroke-width:18.87822914;stroke-linejoin:round"/><path id="path126" d="m 3491.0879,5190.4797 0,-100.3378" style="fill:none;stroke:#b3b3b3;stroke-width:18.87822914;stroke-linejoin:round"/><path id="path128" d="m 3491.0879,5190.4797 0,-100.3378" style="fill:none;stroke:#b3b3b3;stroke-width:18.87822914;stroke-linejoin:round"/><path id="path130" d="m 3586.7433,5190.4797 0,-100.3378" style="fill:none;stroke:#b3b3b3;stroke-width:18.87822914;stroke-linejoin:round"/><path id="path132" d="m 3586.7433,5190.4797 0,-100.3378" style="fill:none;stroke:#b3b3b3;stroke-width:18.87822914;stroke-linejoin:round"/><path id="path134" d="m 3682.3987,5190.4797 0,-100.3378" style="fill:none;stroke:#b3b3b3;stroke-width:18.87822914;stroke-linejoin:round"/><path id="path136" d="m 3682.3987,5190.4797 0,-100.3378" style="fill:none;stroke:#b3b3b3;stroke-width:18.87822914;stroke-linejoin:round"/><path id="path138" d="m 3778.0541,5190.4797 0,-100.3378" style="fill:none;stroke:#b3b3b3;stroke-width:18.87822914;stroke-linejoin:round"/><path id="path140" d="m 3778.0541,5190.4797 0,-100.3378" style="fill:none;stroke:#b3b3b3;stroke-width:18.87822914;stroke-linejoin:round"/><path id="path142" d="m 3873.7095,5190.4797 0,-100.3378" style="fill:none;stroke:#b3b3b3;stroke-width:18.87822914;stroke-linejoin:round"/><path id="path144" d="m 3873.7095,5190.4797 0,-100.3378" style="fill:none;stroke:#b3b3b3;stroke-width:18.87822914;stroke-linejoin:round"/><path id="path146" d="m 3969.3649,5190.4797 0,-100.3378" style="fill:none;stroke:#b3b3b3;stroke-width:18.87822914;stroke-linejoin:round"/><path id="path148" d="m 3969.3649,5190.4797 0,-100.3378" style="fill:none;stroke:#b3b3b3;stroke-width:18.87822914;stroke-linejoin:round"/><path id="path150" d="m 4065.6892,5190.4797 0,-100.3378" style="fill:none;stroke:#b3b3b3;stroke-width:18.87822914;stroke-linejoin:round"/><path id="path152" d="m 4065.6892,5190.4797 0,-100.3378" style="fill:none;stroke:#b3b3b3;stroke-width:18.87822914;stroke-linejoin:round"/><path id="path154" d="m 4161.3446,5190.4797 0,-100.3378" style="fill:none;stroke:#b3b3b3;stroke-width:18.87822914;stroke-linejoin:round"/><path id="path156" d="m 4161.3446,5190.4797 0,-100.3378" style="fill:none;stroke:#b3b3b3;stroke-width:18.87822914;stroke-linejoin:round"/><path id="path158" d="m 4257,5190.4797 0,-100.3378" style="fill:none;stroke:#b3b3b3;stroke-width:18.87822914;stroke-linejoin:round"/><path id="path160" d="m 4257,5190.4797 0,-100.3378" style="fill:none;stroke:#b3b3b3;stroke-width:18.87822914;stroke-linejoin:round"/><path id="path162" d="m 4352.6554,5190.4797 0,-100.3378" style="fill:none;stroke:#b3b3b3;stroke-width:18.87822914;stroke-linejoin:round"/><path id="path164" d="m 4352.6554,5190.4797 0,-100.3378" style="fill:none;stroke:#b3b3b3;stroke-width:18.87822914;stroke-linejoin:round"/><path id="path166" d="m 4448.3108,5190.4797 0,-100.3378" style="fill:none;stroke:#b3b3b3;stroke-width:18.87822914;stroke-linejoin:round"/><path id="path168" d="m 4448.3108,5190.4797 0,-100.3378" style="fill:none;stroke:#b3b3b3;stroke-width:18.87822914;stroke-linejoin:round"/><path id="path170" d="m 4543.9662,5190.4797 0,-100.3378" style="fill:none;stroke:#b3b3b3;stroke-width:18.87822914;stroke-linejoin:round"/><path id="path172" d="m 4543.9662,5190.4797 0,-100.3378" style="fill:none;stroke:#b3b3b3;stroke-width:18.87822914;stroke-linejoin:round"/><path id="path174" d="m 4640.2906,5190.4797 0,-100.3378" style="fill:none;stroke:#b3b3b3;stroke-width:18.87822914;stroke-linejoin:round"/><path id="path176" d="m 4640.2906,5190.4797 0,-100.3378" style="fill:none;stroke:#b3b3b3;stroke-width:18.87822914;stroke-linejoin:round"/><path id="path178" d="m 4735.946,5190.4797 0,-100.3378" style="fill:none;stroke:#b3b3b3;stroke-width:18.87822914;stroke-linejoin:round"/><path id="path180" d="m 4735.946,5190.4797 0,-100.3378" style="fill:none;stroke:#b3b3b3;stroke-width:18.87822914;stroke-linejoin:round"/><path id="path182" d="m 4831.6014,5190.4797 0,-100.3378" style="fill:none;stroke:#b3b3b3;stroke-width:18.87822914;stroke-linejoin:round"/><path id="path184" d="m 4831.6014,5190.4797 0,-100.3378" style="fill:none;stroke:#b3b3b3;stroke-width:18.87822914;stroke-linejoin:round"/><path id="path186" d="m 4927.2568,5190.4797 0,-100.3378" style="fill:none;stroke:#b3b3b3;stroke-width:18.87822914;stroke-linejoin:round"/><path id="path188" d="m 4927.2568,5190.4797 0,-100.3378" style="fill:none;stroke:#b3b3b3;stroke-width:18.87822914;stroke-linejoin:round"/><path id="path190" d="m 5022.9122,5190.4797 0,-100.3378" style="fill:none;stroke:#b3b3b3;stroke-width:18.87822914;stroke-linejoin:round"/><path id="path192" d="m 5022.9122,5190.4797 0,-100.3378" style="fill:none;stroke:#b3b3b3;stroke-width:18.87822914;stroke-linejoin:round"/><path id="path194" d="m 5118.5676,5190.4797 0,-100.3378" style="fill:none;stroke:#b3b3b3;stroke-width:18.87822914;stroke-linejoin:round"/><path id="path196" d="m 5118.5676,5190.4797 0,-100.3378" style="fill:none;stroke:#b3b3b3;stroke-width:18.87822914;stroke-linejoin:round"/><path id="path198" d="m 5214.8919,5190.4797 0,-100.3378" style="fill:none;stroke:#b3b3b3;stroke-width:18.87822914;stroke-linejoin:round"/><path id="path200" d="m 5214.8919,5190.4797 0,-100.3378" style="fill:none;stroke:#b3b3b3;stroke-width:18.87822914;stroke-linejoin:round"/><path id="path202" d="m 5310.5473,5190.4797 0,-100.3378" style="fill:none;stroke:#b3b3b3;stroke-width:18.87822914;stroke-linejoin:round"/><path id="path204" d="m 5310.5473,5190.4797 0,-100.3378" style="fill:none;stroke:#b3b3b3;stroke-width:18.87822914;stroke-linejoin:round"/><path id="path206" d="m 5405.5338,5190.4797 0,-100.3378" style="fill:none;stroke:#b3b3b3;stroke-width:18.87822914;stroke-linejoin:round"/><path id="path208" d="m 5405.5338,5190.4797 0,-100.3378" style="fill:none;stroke:#b3b3b3;stroke-width:18.87822914;stroke-linejoin:round"/><path id="path210" d="m 5501.1892,5190.4797 0,-100.3378" style="fill:none;stroke:#b3b3b3;stroke-width:18.87822914;stroke-linejoin:round"/><path id="path212" d="m 5501.1892,5190.4797 0,-100.3378" style="fill:none;stroke:#b3b3b3;stroke-width:18.87822914;stroke-linejoin:round"/><path id="path214" d="m 5596.8446,5190.4797 0,-100.3378" style="fill:none;stroke:#b3b3b3;stroke-width:18.87822914;stroke-linejoin:round"/><path id="path216" d="m 5596.8446,5190.4797 0,-100.3378" style="fill:none;stroke:#b3b3b3;stroke-width:18.87822914;stroke-linejoin:round"/><path id="path218" d="m 5692.5,5190.4797 0,-100.3378" style="fill:none;stroke:#b3b3b3;stroke-width:18.87822914;stroke-linejoin:round"/><path id="path220" d="m 5692.5,5190.4797 0,-100.3378" style="fill:none;stroke:#b3b3b3;stroke-width:18.87822914;stroke-linejoin:round"/><path id="path222" d="m 5788.1554,5190.4797 0,-100.3378" style="fill:none;stroke:#b3b3b3;stroke-width:18.87822914;stroke-linejoin:round"/><path id="path224" d="m 5788.1554,5190.4797 0,-100.3378" style="fill:none;stroke:#b3b3b3;stroke-width:18.87822914;stroke-linejoin:round"/><path id="path226" d="m 5884.4798,5190.4797 0,-100.3378" style="fill:none;stroke:#b3b3b3;stroke-width:18.87822914;stroke-linejoin:round"/><path id="path228" d="m 5884.4798,5190.4797 0,-100.3378" style="fill:none;stroke:#b3b3b3;stroke-width:18.87822914;stroke-linejoin:round"/><path id="path230" d="m 5980.1352,5190.4797 0,-100.3378" style="fill:none;stroke:#b3b3b3;stroke-width:18.87822914;stroke-linejoin:round"/><path id="path232" d="m 5980.1352,5190.4797 0,-100.3378" style="fill:none;stroke:#b3b3b3;stroke-width:18.87822914;stroke-linejoin:round"/><path id="path234" d="m 6075.7906,5190.4797 0,-100.3378" style="fill:none;stroke:#b3b3b3;stroke-width:18.87822914;stroke-linejoin:round"/><path id="path236" d="m 6075.7906,5190.4797 0,-100.3378" style="fill:none;stroke:#b3b3b3;stroke-width:18.87822914;stroke-linejoin:round"/><path id="path238" d="m 6171.446,5190.4797 0,-100.3378" style="fill:none;stroke:#b3b3b3;stroke-width:18.87822914;stroke-linejoin:round"/><path id="path240" d="m 6171.446,5190.4797 0,-100.3378" style="fill:none;stroke:#b3b3b3;stroke-width:18.87822914;stroke-linejoin:round"/><path id="path242" d="m 6267.1014,5190.4797 0,-100.3378" style="fill:none;stroke:#b3b3b3;stroke-width:18.87822914;stroke-linejoin:round"/><path id="path244" d="m 6267.1014,5190.4797 0,-100.3378" style="fill:none;stroke:#b3b3b3;stroke-width:18.87822914;stroke-linejoin:round"/><path id="path246" d="m 6362.7568,5190.4797 0,-100.3378" style="fill:none;stroke:#b3b3b3;stroke-width:18.87822914;stroke-linejoin:round"/><path id="path248" d="m 6362.7568,5190.4797 0,-100.3378" style="fill:none;stroke:#b3b3b3;stroke-width:18.87822914;stroke-linejoin:round"/><path id="path250" d="m 6459.0811,5190.4797 0,-100.3378" style="fill:none;stroke:#b3b3b3;stroke-width:18.87822914;stroke-linejoin:round"/><path id="path252" d="m 6459.0811,5190.4797 0,-100.3378" style="fill:none;stroke:#b3b3b3;stroke-width:18.87822914;stroke-linejoin:round"/><path id="path254" d="m 6554.7365,5190.4797 0,-100.3378" style="fill:none;stroke:#b3b3b3;stroke-width:18.87822914;stroke-linejoin:round"/><path id="path256" d="m 6554.7365,5190.4797 0,-100.3378" style="fill:none;stroke:#b3b3b3;stroke-width:18.87822914;stroke-linejoin:round"/><path id="path258" d="m 6650.3919,5190.4797 0,-100.3378" style="fill:none;stroke:#b3b3b3;stroke-width:18.87822914;stroke-linejoin:round"/><path id="path260" d="m 6650.3919,5190.4797 0,-100.3378" style="fill:none;stroke:#b3b3b3;stroke-width:18.87822914;stroke-linejoin:round"/><path id="path262" d="m 6746.0473,5190.4797 0,-100.3378" style="fill:none;stroke:#b3b3b3;stroke-width:18.87822914;stroke-linejoin:round"/><path id="path264" d="m 6746.0473,5190.4797 0,-100.3378" style="fill:none;stroke:#b3b3b3;stroke-width:18.87822914;stroke-linejoin:round"/><path id="path266" d="m 6841.7027,5190.4797 0,-100.3378" style="fill:none;stroke:#b3b3b3;stroke-width:18.87822914;stroke-linejoin:round"/><path id="path268" d="m 6841.7027,5190.4797 0,-100.3378" style="fill:none;stroke:#b3b3b3;stroke-width:18.87822914;stroke-linejoin:round"/><path id="path270" d="m 6937.3581,5190.4797 0,-100.3378" style="fill:none;stroke:#b3b3b3;stroke-width:18.87822914;stroke-linejoin:round"/><path id="path272" d="m 6937.3581,5190.4797 0,-100.3378" style="fill:none;stroke:#b3b3b3;stroke-width:18.87822914;stroke-linejoin:round"/><path id="path274" d="m 7033.6825,5190.4797 0,-100.3378" style="fill:none;stroke:#b3b3b3;stroke-width:18.87822914;stroke-linejoin:round"/><path id="path276" d="m 7033.6825,5190.4797 0,-100.3378" style="fill:none;stroke:#b3b3b3;stroke-width:18.87822914;stroke-linejoin:round"/><path id="path278" d="m 7129.3379,5190.4797 0,-100.3378" style="fill:none;stroke:#b3b3b3;stroke-width:18.87822914;stroke-linejoin:round"/><path id="path280" d="m 7129.3379,5190.4797 0,-100.3378" style="fill:none;stroke:#b3b3b3;stroke-width:18.87822914;stroke-linejoin:round"/><path id="path282" d="m 7224.9933,5190.4797 0,-100.3378" style="fill:none;stroke:#b3b3b3;stroke-width:18.87822914;stroke-linejoin:round"/><path id="path284" d="m 7224.9933,5190.4797 0,-100.3378" style="fill:none;stroke:#b3b3b3;stroke-width:18.87822914;stroke-linejoin:round"/><path id="path286" d="m 7320.6487,5190.4797 0,-100.3378" style="fill:none;stroke:#b3b3b3;stroke-width:18.87822914;stroke-linejoin:round"/><path id="path288" d="m 7320.6487,5190.4797 0,-100.3378" style="fill:none;stroke:#b3b3b3;stroke-width:18.87822914;stroke-linejoin:round"/><path id="path290" d="m 7416.3041,5190.4797 0,-100.3378" style="fill:none;stroke:#b3b3b3;stroke-width:18.87822914;stroke-linejoin:round"/><path id="path292" d="m 7416.3041,5190.4797 0,-100.3378" style="fill:none;stroke:#b3b3b3;stroke-width:18.87822914;stroke-linejoin:round"/><path id="path294" d="m 7511.9595,5190.4797 0,-100.3378" style="fill:none;stroke:#b3b3b3;stroke-width:18.87822914;stroke-linejoin:round"/><path id="path296" d="m 7511.9595,5190.4797 0,-100.3378" style="fill:none;stroke:#b3b3b3;stroke-width:18.87822914;stroke-linejoin:round"/><path id="path298" d="m 7608.2838,5190.4797 0,-100.3378" style="fill:none;stroke:#b3b3b3;stroke-width:18.87822914;stroke-linejoin:round"/><path id="path300" d="m 7608.2838,5190.4797 0,-100.3378" style="fill:none;stroke:#b3b3b3;stroke-width:18.87822914;stroke-linejoin:round"/><path id="path302" d="m 1001.3716,5090.1419 6606.9122,0" style="fill:none;stroke:#b3b3b3;stroke-width:18.87822914;stroke-linejoin:round"/><path id="path304" d="m 901.03379,5090.1419 100.33781,0" style="fill:none;stroke:#b3b3b3;stroke-width:18.87822914;stroke-linejoin:round"/><path id="path306" d="m 901.03379,5090.1419 100.33781,0" style="fill:none;stroke:#b3b3b3;stroke-width:18.87822914;stroke-linejoin:round"/><path id="path308" d="m 901.03379,4445.973 100.33781,0" style="fill:none;stroke:#b3b3b3;stroke-width:18.87822914;stroke-linejoin:round"/><path id="path310" d="m 901.03379,4445.973 100.33781,0" style="fill:none;stroke:#b3b3b3;stroke-width:18.87822914;stroke-linejoin:round"/><path id="path312" d="m 901.03379,3801.8041 100.33781,0" style="fill:none;stroke:#b3b3b3;stroke-width:18.87822914;stroke-linejoin:round"/><path id="path314" d="m 901.03379,3801.8041 100.33781,0" style="fill:none;stroke:#b3b3b3;stroke-width:18.87822914;stroke-linejoin:round"/><path id="path316" d="m 901.03379,3157.6351 100.33781,0" style="fill:none;stroke:#b3b3b3;stroke-width:18.87822914;stroke-linejoin:round"/><path id="path318" d="m 901.03379,3157.6351 100.33781,0" style="fill:none;stroke:#b3b3b3;stroke-width:18.87822914;stroke-linejoin:round"/><path id="path320" d="m 901.03379,2513.4662 100.33781,0" style="fill:none;stroke:#b3b3b3;stroke-width:18.87822914;stroke-linejoin:round"/><path id="path322" d="m 901.03379,2513.4662 100.33781,0" style="fill:none;stroke:#b3b3b3;stroke-width:18.87822914;stroke-linejoin:round"/><path id="path324" d="m 901.03379,1869.9662 100.33781,0" style="fill:none;stroke:#b3b3b3;stroke-width:18.87822914;stroke-linejoin:round"/><path id="path326" d="m 901.03379,1869.9662 100.33781,0" style="fill:none;stroke:#b3b3b3;stroke-width:18.87822914;stroke-linejoin:round"/><path id="path328" d="m 901.03379,1225.1284 100.33781,0" style="fill:none;stroke:#b3b3b3;stroke-width:18.87822914;stroke-linejoin:round"/><path id="path330" d="m 901.03379,1225.1284 100.33781,0" style="fill:none;stroke:#b3b3b3;stroke-width:18.87822914;stroke-linejoin:round"/><path id="path332" d="m 1001.3716,5090.1419 0,-3864.3446" style="fill:none;stroke:#b3b3b3;stroke-width:18.87822914;stroke-linejoin:round"/><path id="path334" d="m 1001.3716,1869.9662 95.6554,0 95.6554,0 95.6554,0 95.6554,0 95.6555,62.8784 95.6554,60.8716 96.3243,58.196 95.6554,56.1892 95.6554,54.1824 95.6554,52.1757 95.6554,50.8378 95.6554,48.8311 96.3243,46.8243 95.6554,45.4865 95.6554,44.1486 95.6555,42.1419 95.6554,41.473 95.6554,40.1351 96.3243,38.7973 95.6554,37.4595 95.6554,36.1216 95.6554,35.4527 95.6554,34.1149 95.6554,33.4459 95.6554,32.7771 96.3244,31.4392 95.6554,30.7702 95.6554,29.4325 95.6554,29.4324 95.6554,28.0946 95.6554,27.4257 96.3243,26.0878 95.6554,26.0878 95.6554,25.419 95.6554,24.75 95.6554,24.75 95.6554,23.4121 96.3244,22.7433 95.6554,22.7432 95.6554,22.0743 95.6554,21.4054 95.6554,21.4054 95.6554,20.0676 96.3243,20.7365 95.6554,19.3986 94.9865,19.3987 95.6554,18.7297 95.6554,18.0608 95.6554,18.0608 95.6554,18.0609 96.3244,17.3918 95.6554,16.723 95.6554,16.723 95.6554,16.054 95.6554,16.0541 95.6554,15.3851 96.3243,15.3852 95.6554,15.3851 95.6554,14.7162 95.6554,14.0473 95.6554,14.0473 95.6554,14.0473 96.3244,14.0473 95.6554,13.3784 95.6554,0 95.6554,0 95.6554,0 95.6554,0 96.3243,0" style="fill:none;stroke:#004586;stroke-width:53.51351547;stroke-linejoin:round"/><path id="path336" d="m 1001.3716,1869.9662 95.6554,0 95.6554,0 95.6554,0 95.6554,0 95.6555,123.75 95.6554,114.3852 96.3243,106.3581 95.6554,99.6689 95.6554,92.3108 95.6554,86.2905 95.6554,81.6081 95.6554,76.2568 96.3243,71.5743 95.6554,67.5608 95.6554,64.2163 95.6555,60.2027 95.6554,57.527 95.6554,53.5135 96.3243,51.5068 95.6554,49.5 95.6554,46.1554 95.6554,44.8175 95.6554,42.8108 95.6554,40.8041 95.6554,38.7973 96.3244,36.7905 95.6554,36.1217 95.6554,34.1148 95.6554,32.777 95.6554,31.4392 95.6554,30.7703 96.3243,28.7635 95.6554,28.0946 95.6554,27.4257 95.6554,26.0878 95.6554,25.4189 95.6554,24.0811 96.3244,23.4122 95.6554,22.7432 95.6554,22.0744 95.6554,21.4054 95.6554,20.7365 95.6554,20.0675 96.3243,19.3987 95.6554,18.7297 94.9865,18.0608 95.6554,17.3919 95.6554,17.3919 95.6554,16.723 95.6554,16.054 96.3244,16.0541 95.6554,15.3851 95.6554,14.7162 95.6554,14.0473 95.6554,14.7162 95.6554,13.3784 96.3243,13.3784 95.6554,13.3784 95.6554,12.7094 95.6554,12.0406 95.6554,12.7094 95.6554,11.3717 96.3244,11.3716 95.6554,11.3716 95.6554,0 95.6554,0 95.6554,0 95.6554,0 96.3243,0" style="fill:none;stroke:#ff420e;stroke-width:53.51351547;stroke-linejoin:round"/><path id="path338" d="m 1001.3716,1869.9662 95.6554,0 95.6554,0 95.6554,0 95.6554,0 95.6555,181.946 95.6554,162.5473 96.3243,146.4932 95.6554,131.777 95.6554,120.4054 95.6554,109.0338 95.6554,100.3379 95.6554,91.6419 96.3243,84.9527 95.6554,77.5946 95.6554,72.9121 95.6555,67.5608 95.6554,62.8784 95.6554,59.5338 96.3243,54.8513 95.6554,52.1757 95.6554,48.8311 95.6554,46.1554 95.6554,43.4797 95.6554,40.8041 95.6554,38.7973 96.3244,36.7905 95.6554,34.7838 95.6554,33.446 95.6554,32.1081 95.6554,30.1013 95.6554,28.7635 96.3243,27.4257 95.6554,26.0878 95.6554,25.419 95.6554,24.081 95.6554,23.4122 95.6554,22.0743 96.3244,21.4054 95.6554,20.0676 95.6554,20.0676 95.6554,18.7297 95.6554,18.7297 95.6554,17.3919 96.3243,16.723 95.6554,16.723 94.9865,16.054 95.6554,15.3852 95.6554,14.7162 95.6554,14.0473 95.6554,14.0473 96.3244,13.3784 95.6554,13.3783 95.6554,12.0406 95.6554,12.7094 95.6554,12.0406 95.6554,11.3716 96.3243,11.3716 95.6554,10.7027 95.6554,10.7027 95.6554,10.0338 95.6554,10.0338 95.6554,10.0338 96.3244,9.3648 95.6554,9.3649 95.6554,0 95.6554,0 95.6554,0 95.6554,0 96.3243,0" style="fill:none;stroke:#ffd320;stroke-width:53.51351547;stroke-linejoin:round"/><path id="path340" d="m 1001.3716,1869.9662 95.6554,0 95.6554,0 95.6554,0 95.6554,0 95.6555,292.3176 95.6554,244.1554 96.3243,206.6959 95.6554,176.5946 95.6554,153.8514 95.6554,133.1149 95.6554,118.3986 95.6554,105.6892 96.3243,93.6486 95.6554,84.9527 95.6554,76.9257 95.6555,69.5676 95.6554,63.5473 95.6554,58.1959 96.3243,54.1825 95.6554,49.5 95.6554,45.4865 95.6554,42.8108 95.6554,39.4662 95.6554,37.4594 95.6554,34.1149 96.3244,32.777 95.6554,30.1014 95.6554,28.7635 95.6554,27.4257 95.6554,25.4189 95.6554,24.0811 96.3243,22.7432 95.6554,22.0743 95.6554,20.7365 95.6554,19.3987 95.6554,18.7297 95.6554,18.0608 96.3244,16.723 95.6554,16.723 95.6554,15.3851 95.6554,14.7162 95.6554,14.0473 95.6554,14.0473 96.3243,13.3784 95.6554,12.0405 94.9865,12.7095 95.6554,11.3716 95.6554,11.3716 95.6554,10.7027 95.6554,10.7027 96.3244,10.0338 95.6554,9.3649 95.6554,9.3649 95.6554,9.3648 95.6554,8.696 95.6554,8.6959 96.3243,8.027 95.6554,8.0271 95.6554,8.027 95.6554,7.3581 95.6554,7.3581 95.6554,6.6892 96.3244,7.3581 95.6554,6.6892 95.6554,0 95.6554,0 95.6554,0 95.6554,0 96.3243,0" style="fill:none;stroke:#579d1c;stroke-width:53.51351547;stroke-linejoin:round"/><path id="path342" d="m 1001.3716,1869.9662 95.6554,0 95.6554,0 95.6554,0 95.6554,0 95.6555,444.1622 95.6554,336.4662 96.3243,263.5541 95.6554,212.0473 95.6554,174.5878 95.6554,145.8243 95.6554,123.75 95.6554,107.027 96.3243,92.3109 95.6554,81.6081 95.6554,71.5743 95.6555,64.2162 95.6554,56.8581 95.6554,51.5068 96.3243,46.8243 95.6554,42.8108 95.6554,38.7973 95.6554,36.1216 95.6554,32.7771 95.6554,30.1013 95.6554,28.0946 96.3244,26.0878 95.6554,24.75 95.6554,22.7433 95.6554,21.4054 95.6554,19.3986 95.6554,18.7298 96.3243,18.0608 95.6554,16.723 95.6554,15.3851 95.6554,15.3851 95.6554,14.0473 95.6554,13.3784 96.3244,12.7095 95.6554,12.0405 95.6554,11.3716 95.6554,11.3716 95.6554,10.0338 95.6554,10.0338 96.3243,10.0338 95.6554,9.3649 94.9865,8.6959 95.6554,8.027 95.6554,8.696 95.6554,7.3581 95.6554,8.027 96.3244,6.6892 95.6554,7.3581 95.6554,6.6892 95.6554,6.6892 95.6554,6.0203 95.6554,6.0202 96.3243,6.0203 95.6554,5.3513 95.6554,5.3514 95.6554,5.3514 95.6554,5.3513 95.6554,4.6824 96.3244,4.6825 95.6554,4.6824 95.6554,0 95.6554,0 95.6554,0 95.6554,0 96.3243,0" style="fill:none;stroke:#7e0021;stroke-width:53.51351547;stroke-linejoin:round"/><path id="path344" d="m 1001.3716,1869.9662 95.6554,0 95.6554,0 95.6554,0 95.6554,0 95.6555,664.2365 95.6554,437.473 96.3243,308.3716 95.6554,230.777 95.6554,178.6014 95.6554,142.4797 95.6554,115.723 95.6554,96.3243 96.3243,81.6081 95.6554,69.5676 95.6554,60.2027 95.6555,52.8446 95.6554,46.1554 95.6554,41.473 96.3243,36.7905 95.6554,32.777 95.6554,30.1014 95.6554,27.4257 95.6554,24.75 95.6554,22.7432 95.6554,20.7365 96.3244,19.3986 95.6554,18.0609 95.6554,16.054 95.6554,16.0541 95.6554,14.0473 95.6554,13.3783 96.3243,12.7095 95.6554,12.0405 95.6554,10.7027 95.6554,10.7027 95.6554,10.0338 95.6554,9.3649 96.3244,8.6959 95.6554,8.696 95.6554,8.027 95.6554,7.3581 95.6554,7.3581 95.6554,6.6892 96.3243,6.6892 95.6554,6.6892 94.9865,6.0203 95.6554,5.3513 95.6554,5.3514 95.6554,5.3513 95.6554,5.3514 96.3244,4.6824 95.6554,4.6824 95.6554,4.6825 95.6554,4.6824 95.6554,4.0135 95.6554,4.0135 96.3243,4.0135 95.6554,3.3446 95.6554,4.0135 95.6554,3.3446 95.6554,3.3446 95.6554,3.3446 96.3244,3.3446 95.6554,2.6757 95.6554,0 95.6554,0 95.6554,0 95.6554,0 96.3243,0" style="fill:none;stroke:#83caff;stroke-width:53.51351547;stroke-linejoin:round"/><path id="path346" d="m 1001.3716,1869.9662 95.6554,0 95.6554,0 95.6554,0 95.6554,0 95.6555,952.5406 95.6554,517.0743 96.3243,325.0946 95.6554,223.4189 95.6554,162.5473 95.6554,124.4189 95.6554,96.9933 95.6554,78.9324 96.3243,64.8851 95.6554,54.8514 95.6554,46.1554 95.6555,39.4662 95.6554,34.7838 95.6554,30.7703 96.3243,26.7567 95.6554,24.0811 95.6554,21.4054 95.6554,19.3987 95.6554,17.3918 95.6554,16.0541 95.6554,14.7162 96.3244,13.3784 95.6554,12.7095 95.6554,11.3716 95.6554,10.7027 95.6554,10.0338 95.6554,8.6959 96.3243,8.696 95.6554,8.027 95.6554,7.3581 95.6554,7.3581 95.6554,6.6892 95.6554,6.0203 96.3244,6.0202 95.6554,6.0203 95.6554,5.3514 95.6554,4.6824 95.6554,5.3513 95.6554,4.0135 96.3243,4.6825 95.6554,4.0135 94.9865,4.0135 95.6554,4.0135 95.6554,3.3446 95.6554,4.0135 95.6554,3.3446 96.3244,2.6757 95.6554,3.3446 95.6554,2.6757 95.6554,3.3446 95.6554,2.6756 95.6554,2.6757 96.3243,2.0068 95.6554,2.6756 95.6554,2.6757 95.6554,2.0068 95.6554,2.0067 95.6554,2.6757 96.3244,2.0068 95.6554,2.0067 95.6554,0 95.6554,0 95.6554,0 95.6554,0 96.3243,0" style="fill:none;stroke:#314004;stroke-width:53.51351547;stroke-linejoin:round"/><path id="path348" d="m 1001.3716,1869.9662 95.6554,0 95.6554,0 95.6554,0 95.6554,0 95.6555,1302.3852 95.6554,552.527 96.3243,305.6959 95.6554,193.3176 95.6554,133.7838 95.6554,98.3311 95.6554,74.9189 95.6554,58.8649 96.3243,47.4932 95.6554,39.4662 95.6554,33.446 95.6555,28.0946 95.6554,24.081 95.6554,21.4054 96.3243,18.7298 95.6554,16.054 95.6554,14.7162 95.6554,13.3784 95.6554,12.0406 95.6554,10.7027 95.6554,9.3648 96.3244,9.3649 95.6554,8.027 95.6554,7.3581 95.6554,7.3581 95.6554,6.6892 95.6554,6.0203 96.3243,5.3513 95.6554,5.3514 95.6554,5.3514 95.6554,4.0135 95.6554,4.6824 95.6554,4.0135 96.3244,4.0135 95.6554,3.3446 95.6554,4.0135 95.6554,2.6757 95.6554,3.3446 95.6554,3.3446 96.3243,2.6757 95.6554,2.6756 94.9865,2.6757 95.6554,2.0068 95.6554,2.6757 95.6554,2.0067 95.6554,2.0068 96.3244,2.0067 95.6554,2.0068 95.6554,2.0067 95.6554,2.0068 95.6554,2.0068 95.6554,1.3378 96.3243,2.0068 95.6554,1.3378 95.6554,1.3378 95.6554,1.3379 95.6554,1.3378 95.6554,1.3378 96.3244,1.3379 95.6554,1.3378 95.6554,0 95.6554,0 95.6554,0 95.6554,0 96.3243,0" style="fill:none;stroke:#aecf00;stroke-width:53.51351547;stroke-linejoin:round"/><path id="path350" d="m 1001.3716,1869.9662 95.6554,0 95.6554,0 95.6554,0 95.6554,0 95.6555,1686.3446 95.6554,527.1081 96.3243,257.5338 95.6554,152.5135 95.6554,101.0068 95.6554,71.5743 95.6554,53.5135 95.6554,41.473 96.3243,33.4459 95.6554,26.7568 95.6554,22.7432 95.6555,18.7298 95.6554,16.7229 95.6554,14.0473 96.3243,12.0406 95.6554,11.3716 95.6554,9.3649 95.6554,8.6959 95.6554,8.027 95.6554,6.6892 95.6554,6.6892 96.3244,5.3514 95.6554,5.3513 95.6554,5.3514 95.6554,4.6824 95.6554,4.0135 95.6554,4.0135 96.3243,3.3446 95.6554,3.3446 95.6554,3.3446 95.6554,2.6757 95.6554,2.6757 95.6554,2.6757 96.3244,2.6756 95.6554,2.6757 95.6554,2.0068 95.6554,2.0067 95.6554,2.0068 95.6554,2.0067 96.3243,2.0068 95.6554,1.3378 94.9865,1.3379 95.6554,2.0067 95.6554,1.3379 95.6554,1.3378 95.6554,1.3378 96.3244,1.3379 95.6554,1.3378 95.6554,1.3378 95.6554,1.3379 95.6554,0.6689 95.6554,1.3378 96.3243,0.669 95.6554,1.3378 95.6554,0.6689 95.6554,1.3379 95.6554,0.6689 95.6554,0.6689 96.3244,0.6689 95.6554,1.3378 95.6554,0 95.6554,0 95.6554,0 95.6554,0 96.3243,0" style="fill:none;stroke:#4b1f6f;stroke-width:53.51351547;stroke-linejoin:round"/><path id="path352" d="m 1001.3716,1869.9662 95.6554,0 95.6554,0 95.6554,0 95.6554,0 95.6555,2060.9392 95.6554,452.8581 96.3243,198 95.6554,111.7095 95.6554,70.9054 95.6554,49.5 95.6554,36.7905 95.6554,28.0946 96.3243,22.0744 95.6554,17.3918 95.6554,15.3852 95.6555,12.0405 95.6554,10.7027 95.6554,9.3649 96.3243,8.027 95.6554,6.6892 95.6554,6.0203 95.6554,6.0202 95.6554,4.6825 95.6554,4.6824 95.6554,4.0135 96.3244,4.0135 95.6554,3.3446 95.6554,2.6757 95.6554,3.3446 95.6554,2.6757 95.6554,2.0067 96.3243,2.6757 95.6554,2.0068 95.6554,2.0067 95.6554,2.0068 95.6554,1.3378 95.6554,2.0068 96.3244,1.3378 95.6554,1.3379 95.6554,2.0067 95.6554,0.6689 95.6554,1.3379 95.6554,1.3378 96.3243,1.3378 95.6554,0.669 94.9865,1.3378 95.6554,0.6689 95.6554,1.3379 95.6554,0.6689 95.6554,0.6689 96.3244,1.3378 95.6554,0.669 95.6554,0.6689 95.6554,0.6689 95.6554,0.6689 95.6554,0.6689 96.3243,0.6689 95.6554,0.669 95.6554,0.6689 95.6554,0.6689 95.6554,0.6689 95.6554,0 96.3244,0.6689 95.6554,0.669 95.6554,0 95.6554,0 95.6554,0 95.6554,0 96.3243,0" style="fill:none;stroke:#ff950e;stroke-width:53.51351547;stroke-linejoin:round"/><path id="path354" d="m 1001.3716,1869.9662 95.6554,0 95.6554,0 95.6554,0 95.6554,0 95.6555,2390.0473 95.6554,353.1892 96.3243,142.4797 95.6554,76.9257 95.6554,48.1622 95.6554,32.777 95.6554,24.0811 95.6554,18.0608 96.3243,14.7162 95.6554,11.3716 95.6554,9.3649 95.6555,8.027 95.6554,6.6892 95.6554,6.0203 96.3243,5.3513 95.6554,4.0136 95.6554,4.0135 95.6554,3.3446 95.6554,3.3446 95.6554,2.6756 95.6554,2.6757 96.3244,2.6757 95.6554,2.0067 95.6554,2.0068 95.6554,2.0068 95.6554,1.3378 95.6554,1.3378 96.3243,2.0068 95.6554,1.3378 95.6554,0.669 95.6554,1.3378 95.6554,1.3378 95.6554,0.6689 96.3244,1.3379 95.6554,0.6689 95.6554,1.3378 95.6554,0.669 95.6554,0.6689 95.6554,0.6689 96.3243,0.6689 95.6554,0.6689 94.9865,0.669 95.6554,0.6689 95.6554,0.6689 95.6554,0.6689 95.6554,0 96.3244,0.6689 95.6554,0.6689 95.6554,0.669 95.6554,0 95.6554,0.6689 95.6554,0.6689 96.3243,0 95.6554,0.6689 95.6554,0 95.6554,0.6689 95.6554,0 95.6554,0.669 96.3244,0 95.6554,0.6689 95.6554,0 95.6554,0 95.6554,0 95.6554,0 96.3243,0" style="fill:none;stroke:#c5000b;stroke-width:53.51351547;stroke-linejoin:round"/><path id="path356" d="m 1001.3716,1869.9662 95.6554,0 95.6554,0 95.6554,0 95.6554,0 95.6555,2650.9257 95.6554,256.8649 96.3243,96.9932 95.6554,50.8379 95.6554,31.4391 95.6554,21.4054 95.6554,15.3852 95.6554,12.0405 96.3243,8.696 95.6554,7.3581 95.6554,6.0203 95.6555,5.3513 95.6554,4.0135 95.6554,4.0135 96.3243,3.3446 95.6554,2.6757 95.6554,2.0068 95.6554,2.6756 95.6554,2.0068 95.6554,1.3378 95.6554,2.0068 96.3244,1.3378 95.6554,1.3379 95.6554,1.3378 95.6554,1.3378 95.6554,0.669 95.6554,1.3378 96.3243,0.6689 95.6554,0.6689 95.6554,0.6689 95.6554,0.669 95.6554,0.6689 95.6554,0.6689 96.3244,0.6689 95.6554,0.6689 95.6554,0.669 95.6554,0.6689 95.6554,0 95.6554,0.6689 96.3243,0.6689 95.6554,0 94.9865,0.6689 95.6554,0.669 95.6554,0 95.6554,0.6689 95.6554,0 96.3244,0.6689 95.6554,0 95.6554,0.6689 95.6554,0 95.6554,0 95.6554,0.6689 96.3243,0 95.6554,0 95.6554,0.669 95.6554,0 95.6554,0 95.6554,0.6689 96.3244,0 95.6554,0 95.6554,0 95.6554,0 95.6554,0 95.6554,0 96.3243,0" style="fill:none;stroke:#0084d1;stroke-width:53.51351547;stroke-linejoin:round"/><path id="path358" d="m 1001.3716,1869.9662 95.6554,0 95.6554,0 95.6554,0 95.6554,0 95.6555,2842.9054 95.6554,176.5946 96.3243,64.2162 95.6554,32.7771 95.6554,20.0675 95.6554,13.3784 95.6554,10.0338 95.6554,7.3581 96.3243,6.0203 95.6554,4.0135 95.6554,4.0135 95.6555,3.3446 95.6554,2.6757 95.6554,2.0067 96.3243,2.0068 95.6554,2.0068 95.6554,1.3378 95.6554,1.3378 95.6554,1.3379 95.6554,1.3378 95.6554,0.6689 96.3244,1.3379 95.6554,0.6689 95.6554,0.6689 95.6554,0.6689 95.6554,0.6689 95.6554,0.669 96.3243,0.6689 95.6554,0.6689 95.6554,0 95.6554,0.6689 95.6554,0.6689 95.6554,0 96.3244,0.669 95.6554,0 95.6554,0.6689 95.6554,0 95.6554,0.6689 95.6554,0 96.3243,0.6689 95.6554,0 94.9865,0 95.6554,0.6689 95.6554,0 95.6554,0 95.6554,0.6689 96.3244,0 95.6554,0 95.6554,0.669 95.6554,0 95.6554,0 95.6554,0 96.3243,0 95.6554,0.6689 95.6554,0 95.6554,0 95.6554,0 95.6554,0.6689 96.3244,0 95.6554,0 95.6554,0 95.6554,0 95.6554,0 95.6554,0 96.3243,0" style="fill:none;stroke:#004586;stroke-width:53.51351547;stroke-linejoin:round"/><path id="path360" d="m 1001.3716,1869.9662 95.6554,0 95.6554,0 95.6554,0 95.6554,0 95.6555,2976.0203 95.6554,117.0608 96.3243,40.8041 95.6554,21.4054 95.6554,12.7094 95.6554,8.696 95.6554,6.0203 95.6554,4.6824 96.3243,3.3446 95.6554,2.6757 95.6554,2.6756 95.6555,2.0068 95.6554,1.3378 95.6554,1.3379 96.3243,1.3378 95.6554,1.3378 95.6554,0.669 95.6554,1.3378 95.6554,0.6689 95.6554,0.6689 95.6554,0.669 96.3244,0.6689 95.6554,0 95.6554,0.6689 95.6554,0.6689 95.6554,0 95.6554,0.6689 96.3243,0 95.6554,0.6689 95.6554,0 95.6554,0.669 95.6554,0 95.6554,0.6689 96.3244,0 95.6554,0 95.6554,0.6689 95.6554,0 95.6554,0 95.6554,0 96.3243,0.6689 95.6554,0 94.9865,0 95.6554,0 95.6554,0.6689 95.6554,0 95.6554,0 96.3244,0 95.6554,0 95.6554,0 95.6554,0.669 95.6554,0 95.6554,0 96.3243,0 95.6554,0 95.6554,0 95.6554,0 95.6554,0.6689 95.6554,0 96.3244,0 95.6554,0 95.6554,0 95.6554,0 95.6554,0 95.6554,0 96.3243,0" style="fill:none;stroke:#ff420e;stroke-width:53.51351547;stroke-linejoin:round"/><path id="path362" d="m 1001.3716,1869.9662 95.6554,0 95.6554,0 95.6554,0 95.6554,0 95.6555,3064.3176 95.6554,76.2568 96.3243,26.0878 95.6554,12.7095 95.6554,8.027 95.6554,5.3513 95.6554,4.0135 95.6554,2.6757 96.3243,2.6757 95.6554,1.3378 95.6554,1.3379 95.6555,1.3378 95.6554,1.3379 95.6554,0.6689 96.3243,0.6689 95.6554,0.6689 95.6554,0.6689 95.6554,0.6689 95.6554,0.669 95.6554,0 95.6554,0.6689 96.3244,0 95.6554,0.6689 95.6554,0 95.6554,0.6689 95.6554,0 95.6554,0 96.3243,0.6689 95.6554,0 95.6554,0 95.6554,0.669 95.6554,0 95.6554,0 96.3244,0 95.6554,0.6689 95.6554,0 95.6554,0 95.6554,0 95.6554,0 96.3243,0 95.6554,0.6689 94.9865,0 95.6554,0 95.6554,0 95.6554,0 95.6554,0 96.3244,0 95.6554,0 95.6554,0.6689 95.6554,0 95.6554,0 95.6554,0 96.3243,0 95.6554,0 95.6554,0 95.6554,0 95.6554,0 95.6554,0 96.3244,0 95.6554,0 95.6554,0 95.6554,0 95.6554,0 95.6554,0 96.3243,0" style="fill:none;stroke:#ffd320;stroke-width:53.51351547;stroke-linejoin:round"/><path id="path364" d="m 1001.3716,1869.9662 95.6554,0 95.6554,0 95.6554,0 95.6554,0 95.6555,3121.8446 95.6554,48.1622 96.3243,16.723 95.6554,8.027 95.6554,5.3513 95.6554,3.3446 95.6554,2.0068 95.6554,2.0068 96.3243,1.3378 95.6554,0.6689 95.6554,1.3378 95.6555,0.669 95.6554,0.6689 95.6554,0.6689 96.3243,0 95.6554,0.6689 95.6554,0.6689 95.6554,0 95.6554,0.669 95.6554,0 95.6554,0 96.3244,0.6689 95.6554,0 95.6554,0 95.6554,0 95.6554,0.6689 95.6554,0 96.3243,0 95.6554,0 95.6554,0 95.6554,0.6689 95.6554,0 95.6554,0 96.3244,0 95.6554,0 95.6554,0 95.6554,0 95.6554,0.6689 95.6554,0 96.3243,0 95.6554,0 94.9865,0 95.6554,0 95.6554,0 95.6554,0 95.6554,0 96.3244,0 95.6554,0 95.6554,0 95.6554,0 95.6554,0.669 95.6554,0 96.3243,0 95.6554,0 95.6554,0 95.6554,0 95.6554,0 95.6554,0 96.3244,0 95.6554,0 95.6554,0 95.6554,0 95.6554,0 95.6554,0 96.3243,0" style="fill:none;stroke:#579d1c;stroke-width:53.51351547;stroke-linejoin:round"/><text id="text366" y="-.331" class="TextShape" style="font-size:8.02702713px"><tspan id="tspan368" class="TextParagraph" font-size="353" font-weight="400" style="font-weight:400;font-size:236.12837219px;font-family:'Liberation Sans',sans-serif"><tspan id="tspan370" x="710.392" y="5171.081" class="TextPosition"><tspan id="tspan372" style="fill:#000;stroke:none">0</tspan></tspan></tspan></text><text id="text374" y="-.331" class="TextShape" style="font-size:8.02702713px"><tspan id="tspan376" class="TextParagraph" font-size="353" font-weight="400" style="font-weight:400;font-size:236.12837219px;font-family:'Liberation Sans',sans-serif"><tspan id="tspan378" x="515.737" y="4526.912" class="TextPosition"><tspan id="tspan380" style="fill:#000;stroke:none">0,2</tspan></tspan></tspan></text><text id="text382" y="-.331" class="TextShape" style="font-size:8.02702713px"><tspan id="tspan384" class="TextParagraph" font-size="353" font-weight="400" style="font-weight:400;font-size:236.12837219px;font-family:'Liberation Sans',sans-serif"><tspan id="tspan386" x="515.737" y="3882.743" class="TextPosition"><tspan id="tspan388" style="fill:#000;stroke:none">0,4</tspan></tspan></tspan></text><text id="text390" y="-.331" class="TextShape" style="font-size:8.02702713px"><tspan id="tspan392" class="TextParagraph" font-size="353" font-weight="400" style="font-weight:400;font-size:236.12837219px;font-family:'Liberation Sans',sans-serif"><tspan id="tspan394" x="515.737" y="3238.574" class="TextPosition"><tspan id="tspan396" style="fill:#000;stroke:none">0,6</tspan></tspan></tspan></text><text id="text398" y="-.331" class="TextShape" style="font-size:8.02702713px"><tspan id="tspan400" class="TextParagraph" font-size="353" font-weight="400" style="font-weight:400;font-size:236.12837219px;font-family:'Liberation Sans',sans-serif"><tspan id="tspan402" x="515.737" y="2593.737" class="TextPosition"><tspan id="tspan404" style="fill:#000;stroke:none">0,8</tspan></tspan></tspan></text><text id="text406" y="-.331" class="TextShape" style="font-size:8.02702713px"><tspan id="tspan408" class="TextParagraph" font-size="353" font-weight="400" style="font-weight:400;font-size:236.12837219px;font-family:'Liberation Sans',sans-serif"><tspan id="tspan410" x="710.392" y="1950.236" class="TextPosition"><tspan id="tspan412" style="fill:#000;stroke:none">1</tspan></tspan></tspan></text><text id="text414" y="-.331" class="TextShape" style="font-size:8.02702713px"><tspan id="tspan416" class="TextParagraph" font-size="353" font-weight="400" style="font-weight:400;font-size:236.12837219px;font-family:'Liberation Sans',sans-serif"><tspan id="tspan418" x="515.737" y="1305.399" class="TextPosition"><tspan id="tspan420" style="fill:#000;stroke:none">1,2</tspan></tspan></tspan></text><text id="text422" y="-.331" class="TextShape" style="font-size:8.02702713px"><tspan id="tspan424" class="TextParagraph" font-size="459" font-weight="400" style="font-weight:400;font-size:307.03378296px;font-family:'Liberation Sans',sans-serif"><tspan id="tspan426" x="2767.318" y="568.25" class="TextPosition"><tspan id="tspan428" style="fill:#000;stroke:none">Inverse distance - Varying rolloff factors</tspan></tspan></tspan></text><path id="path430" d="m 8113.9865,1843.8784 535.1352,0" style="fill:none;stroke:#004586;stroke-width:53.51351547;stroke-linejoin:round"/><path id="path432" d="m 9314.696,1843.8784 535.1351,0" style="fill:none;stroke:#ff420e;stroke-width:53.51351547;stroke-linejoin:round"/><path id="path434" d="m 8113.9865,2177 535.1352,0" style="fill:none;stroke:#ffd320;stroke-width:53.51351547;stroke-linejoin:round"/><path id="path436" d="m 9314.696,2177 535.1351,0" style="fill:none;stroke:#579d1c;stroke-width:53.51351547;stroke-linejoin:round"/><path id="path438" d="m 8113.9865,2510.1216 535.1352,0" style="fill:none;stroke:#7e0021;stroke-width:53.51351547;stroke-linejoin:round"/><path id="path440" d="m 9314.696,2510.1216 535.1351,0" style="fill:none;stroke:#83caff;stroke-width:53.51351547;stroke-linejoin:round"/><path id="path442" d="m 8113.9865,2843.2433 535.1352,0" style="fill:none;stroke:#314004;stroke-width:53.51351547;stroke-linejoin:round"/><path id="path444" d="m 9314.696,2843.2433 535.1351,0" style="fill:none;stroke:#aecf00;stroke-width:53.51351547;stroke-linejoin:round"/><path id="path446" d="m 8113.9865,3175.696 535.1352,0" style="fill:none;stroke:#4b1f6f;stroke-width:53.51351547;stroke-linejoin:round"/><path id="path448" d="m 9314.696,3175.696 535.1351,0" style="fill:none;stroke:#ff950e;stroke-width:53.51351547;stroke-linejoin:round"/><path id="path450" d="m 8113.9865,3508.8176 535.1352,0" style="fill:none;stroke:#c5000b;stroke-width:53.51351547;stroke-linejoin:round"/><path id="path452" d="m 9314.696,3508.8176 535.1351,0" style="fill:none;stroke:#0084d1;stroke-width:53.51351547;stroke-linejoin:round"/><path id="path454" d="m 8113.9865,3841.9392 535.1352,0" style="fill:none;stroke:#004586;stroke-width:53.51351547;stroke-linejoin:round"/><path id="path456" d="m 9314.696,3841.9392 535.1351,0" style="fill:none;stroke:#ff420e;stroke-width:53.51351547;stroke-linejoin:round"/><path id="path458" d="m 8113.9865,4175.0608 535.1352,0" style="fill:none;stroke:#ffd320;stroke-width:53.51351547;stroke-linejoin:round"/><path id="path460" d="m 9314.696,4175.0608 535.1351,0" style="fill:none;stroke:#579d1c;stroke-width:53.51351547;stroke-linejoin:round"/><text id="text462" y="-.331" class="TextShape" style="font-size:8.02702713px"><tspan id="tspan464" class="TextParagraph" font-size="353" font-weight="400" style="font-weight:400;font-size:236.12837219px;font-family:'Liberation Sans',sans-serif"><tspan id="tspan466" x="8716.014" y="1924.149" class="TextPosition"><tspan id="tspan468" style="fill:#000;stroke:none">0,1</tspan></tspan></tspan></text><text id="text470" y="-.331" class="TextShape" style="font-size:8.02702713px"><tspan id="tspan472" class="TextParagraph" font-size="353" font-weight="400" style="font-weight:400;font-size:236.12837219px;font-family:'Liberation Sans',sans-serif"><tspan id="tspan474" x="9916.723" y="1924.149" class="TextPosition"><tspan id="tspan476" style="fill:#000;stroke:none">0,2</tspan></tspan></tspan></text><text id="text478" y="-.331" class="TextShape" style="font-size:8.02702713px"><tspan id="tspan480" class="TextParagraph" font-size="353" font-weight="400" style="font-weight:400;font-size:236.12837219px;font-family:'Liberation Sans',sans-serif"><tspan id="tspan482" x="8716.014" y="2257.27" class="TextPosition"><tspan id="tspan484" style="fill:#000;stroke:none">0,3</tspan></tspan></tspan></text><text id="text486" y="-.331" class="TextShape" style="font-size:8.02702713px"><tspan id="tspan488" class="TextParagraph" font-size="353" font-weight="400" style="font-weight:400;font-size:236.12837219px;font-family:'Liberation Sans',sans-serif"><tspan id="tspan490" x="9916.723" y="2257.27" class="TextPosition"><tspan id="tspan492" style="fill:#000;stroke:none">0,5</tspan></tspan></tspan></text><text id="text494" y="-.331" class="TextShape" style="font-size:8.02702713px"><tspan id="tspan496" class="TextParagraph" font-size="353" font-weight="400" style="font-weight:400;font-size:236.12837219px;font-family:'Liberation Sans',sans-serif"><tspan id="tspan498" x="8716.014" y="2590.392" class="TextPosition"><tspan id="tspan500" style="fill:#000;stroke:none">0,8</tspan></tspan></tspan></text><text id="text502" y="-.331" class="TextShape" style="font-size:8.02702713px"><tspan id="tspan504" class="TextParagraph" font-size="353" font-weight="400" style="font-weight:400;font-size:236.12837219px;font-family:'Liberation Sans',sans-serif"><tspan id="tspan506" x="9916.723" y="2590.392" class="TextPosition"><tspan id="tspan508" style="fill:#000;stroke:none">1,3</tspan></tspan></tspan></text><text id="text510" y="-.331" class="TextShape" style="font-size:8.02702713px"><tspan id="tspan512" class="TextParagraph" font-size="353" font-weight="400" style="font-weight:400;font-size:236.12837219px;font-family:'Liberation Sans',sans-serif"><tspan id="tspan514" x="8716.014" y="2923.513" class="TextPosition"><tspan id="tspan516" style="fill:#000;stroke:none">2,1</tspan></tspan></tspan></text><text id="text518" y="-.331" class="TextShape" style="font-size:8.02702713px"><tspan id="tspan520" class="TextParagraph" font-size="353" font-weight="400" style="font-weight:400;font-size:236.12837219px;font-family:'Liberation Sans',sans-serif"><tspan id="tspan522" x="9916.723" y="2923.513" class="TextPosition"><tspan id="tspan524" style="fill:#000;stroke:none">3,4</tspan></tspan></tspan></text><text id="text526" y="-.331" class="TextShape" style="font-size:8.02702713px"><tspan id="tspan528" class="TextParagraph" font-size="353" font-weight="400" style="font-weight:400;font-size:236.12837219px;font-family:'Liberation Sans',sans-serif"><tspan id="tspan530" x="8716.014" y="3255.966" class="TextPosition"><tspan id="tspan532" style="fill:#000;stroke:none">5,5</tspan></tspan></tspan></text><text id="text534" y="-.331" class="TextShape" style="font-size:8.02702713px"><tspan id="tspan536" class="TextParagraph" font-size="353" font-weight="400" style="font-weight:400;font-size:236.12837219px;font-family:'Liberation Sans',sans-serif"><tspan id="tspan538" x="9916.723" y="3255.966" class="TextPosition"><tspan id="tspan540" style="fill:#000;stroke:none">8,9</tspan></tspan></tspan></text><text id="text542" y="-.331" class="TextShape" style="font-size:8.02702713px"><tspan id="tspan544" class="TextParagraph" font-size="353" font-weight="400" style="font-weight:400;font-size:236.12837219px;font-family:'Liberation Sans',sans-serif"><tspan id="tspan546" x="8716.014" y="3589.088" class="TextPosition"><tspan id="tspan548" style="fill:#000;stroke:none">14,4</tspan></tspan></tspan></text><text id="text550" y="-.331" class="TextShape" style="font-size:8.02702713px"><tspan id="tspan552" class="TextParagraph" font-size="353" font-weight="400" style="font-weight:400;font-size:236.12837219px;font-family:'Liberation Sans',sans-serif"><tspan id="tspan554" x="9916.723" y="3589.088" class="TextPosition"><tspan id="tspan556" style="fill:#000;stroke:none">23,3</tspan></tspan></tspan></text><text id="text558" y="-.331" class="TextShape" style="font-size:8.02702713px"><tspan id="tspan560" class="TextParagraph" font-size="353" font-weight="400" style="font-weight:400;font-size:236.12837219px;font-family:'Liberation Sans',sans-serif"><tspan id="tspan562" x="8716.014" y="3922.209" class="TextPosition"><tspan id="tspan564" style="fill:#000;stroke:none">37,7</tspan></tspan></tspan></text><text id="text566" y="-.331" class="TextShape" style="font-size:8.02702713px"><tspan id="tspan568" class="TextParagraph" font-size="353" font-weight="400" style="font-weight:400;font-size:236.12837219px;font-family:'Liberation Sans',sans-serif"><tspan id="tspan570" x="9916.723" y="3922.209" class="TextPosition"><tspan id="tspan572" style="fill:#000;stroke:none">61</tspan></tspan></tspan></text><text id="text574" y="-.331" class="TextShape" style="font-size:8.02702713px"><tspan id="tspan576" class="TextParagraph" font-size="353" font-weight="400" style="font-weight:400;font-size:236.12837219px;font-family:'Liberation Sans',sans-serif"><tspan id="tspan578" x="8716.014" y="4255.331" class="TextPosition"><tspan id="tspan580" style="fill:#000;stroke:none">98,7</tspan></tspan></tspan></text><text id="text582" y="-.331" class="TextShape" style="font-size:8.02702713px"><tspan id="tspan584" class="TextParagraph" font-size="353" font-weight="400" style="font-weight:400;font-size:236.12837219px;font-family:'Liberation Sans',sans-serif"><tspan id="tspan586" x="9916.723" y="4255.331" class="TextPosition"><tspan id="tspan588" style="fill:#000;stroke:none">159,7</tspan></tspan></tspan></text></svg>