<svg xmlns="http://www.w3.org/2000/svg" xmlns:svg="http://www.w3.org/2000/svg" id="svg2" width="160mm" height="90mm" stroke-linejoin="round" stroke-width="28.222" version="1.1" viewBox="0 0 16000 9000" xml:space="preserve"><metadata id="metadata594"/><path id="path4" d="M 5351.3514,6022.946 0,6022.946 0,0 l 10702.703,0 0,6022.946 -5351.3516,0 z" style="fill:#fff;stroke:none"/><path id="path6" d="m 4305.1622,5091.8108 -3303.7906,0 0,-3864.3446 6606.9122,0 0,3864.3446 -3303.1216,0 z" style="fill:none;stroke:#b3b3b3;stroke-width:18.87822914;stroke-linejoin:round"/><path id="path8" d="m 7608.2838,5091.1419 -6606.9122,0" style="fill:none;stroke:#b3b3b3;stroke-width:18.87822914;stroke-linejoin:round"/><path id="path10" d="m 7608.2838,4446.973 -6606.9122,0" style="fill:none;stroke:#b3b3b3;stroke-width:18.87822914;stroke-linejoin:round"/><path id="path12" d="m 7608.2838,3802.8041 -6606.9122,0" style="fill:none;stroke:#b3b3b3;stroke-width:18.87822914;stroke-linejoin:round"/><path id="path14" d="m 7608.2838,3158.6351 -6606.9122,0" style="fill:none;stroke:#b3b3b3;stroke-width:18.87822914;stroke-linejoin:round"/><path id="path16" d="m 7608.2838,2515.1351 -6606.9122,0" style="fill:none;stroke:#b3b3b3;stroke-width:18.87822914;stroke-linejoin:round"/><path id="path18" d="m 7608.2838,1870.9662 -6606.9122,0" style="fill:none;stroke:#b3b3b3;stroke-width:18.87822914;stroke-linejoin:round"/><path id="path20" d="m 7608.2838,1226.1284 -6606.9122,0" style="fill:none;stroke:#b3b3b3;stroke-width:18.87822914;stroke-linejoin:round"/><path id="path22" d="m 1001.3716,5191.4797 0,-100.3378" style="fill:none;stroke:#b3b3b3;stroke-width:18.87822914;stroke-linejoin:round"/><path id="path24" d="m 1001.3716,5191.4797 0,-100.3378" style="fill:none;stroke:#b3b3b3;stroke-width:18.87822914;stroke-linejoin:round"/><path id="path26" d="m 1097.027,5191.4797 0,-100.3378" style="fill:none;stroke:#b3b3b3;stroke-width:18.87822914;stroke-linejoin:round"/><path id="path28" d="m 1097.027,5191.4797 0,-100.3378" style="fill:none;stroke:#b3b3b3;stroke-width:18.87822914;stroke-linejoin:round"/><path id="path30" d="m 1192.6824,5191.4797 0,-100.3378" style="fill:none;stroke:#b3b3b3;stroke-width:18.87822914;stroke-linejoin:round"/><path id="path32" d="m 1192.6824,5191.4797 0,-100.3378" style="fill:none;stroke:#b3b3b3;stroke-width:18.87822914;stroke-linejoin:round"/><path id="path34" d="m 1288.3378,5191.4797 0,-100.3378" style="fill:none;stroke:#b3b3b3;stroke-width:18.87822914;stroke-linejoin:round"/><path id="path36" d="m 1288.3378,5191.4797 0,-100.3378" style="fill:none;stroke:#b3b3b3;stroke-width:18.87822914;stroke-linejoin:round"/><path id="path38" d="m 1383.9932,5191.4797 0,-100.3378" style="fill:none;stroke:#b3b3b3;stroke-width:18.87822914;stroke-linejoin:round"/><path id="path40" d="m 1383.9932,5191.4797 0,-100.3378" style="fill:none;stroke:#b3b3b3;stroke-width:18.87822914;stroke-linejoin:round"/><path id="path42" d="m 1479.6487,5191.4797 0,-100.3378" style="fill:none;stroke:#b3b3b3;stroke-width:18.87822914;stroke-linejoin:round"/><path id="path44" d="m 1479.6487,5191.4797 0,-100.3378" style="fill:none;stroke:#b3b3b3;stroke-width:18.87822914;stroke-linejoin:round"/><path id="path46" d="m 1575.3041,5191.4797 0,-100.3378" style="fill:none;stroke:#b3b3b3;stroke-width:18.87822914;stroke-linejoin:round"/><path id="path48" d="m 1575.3041,5191.4797 0,-100.3378" style="fill:none;stroke:#b3b3b3;stroke-width:18.87822914;stroke-linejoin:round"/><path id="path50" d="m 1671.6284,5191.4797 0,-100.3378" style="fill:none;stroke:#b3b3b3;stroke-width:18.87822914;stroke-linejoin:round"/><path id="path52" d="m 1671.6284,5191.4797 0,-100.3378" style="fill:none;stroke:#b3b3b3;stroke-width:18.87822914;stroke-linejoin:round"/><path id="path54" d="m 1767.2838,5191.4797 0,-100.3378" style="fill:none;stroke:#b3b3b3;stroke-width:18.87822914;stroke-linejoin:round"/><path id="path56" d="m 1767.2838,5191.4797 0,-100.3378" style="fill:none;stroke:#b3b3b3;stroke-width:18.87822914;stroke-linejoin:round"/><path id="path58" d="m 1862.9392,5191.4797 0,-100.3378" style="fill:none;stroke:#b3b3b3;stroke-width:18.87822914;stroke-linejoin:round"/><path id="path60" d="m 1862.9392,5191.4797 0,-100.3378" style="fill:none;stroke:#b3b3b3;stroke-width:18.87822914;stroke-linejoin:round"/><path id="path62" d="m 1958.5946,5191.4797 0,-100.3378" style="fill:none;stroke:#b3b3b3;stroke-width:18.87822914;stroke-linejoin:round"/><path id="path64" d="m 1958.5946,5191.4797 0,-100.3378" style="fill:none;stroke:#b3b3b3;stroke-width:18.87822914;stroke-linejoin:round"/><path id="path66" d="m 2054.25,5191.4797 0,-100.3378" style="fill:none;stroke:#b3b3b3;stroke-width:18.87822914;stroke-linejoin:round"/><path id="path68" d="m 2054.25,5191.4797 0,-100.3378" style="fill:none;stroke:#b3b3b3;stroke-width:18.87822914;stroke-linejoin:round"/><path id="path70" d="m 2149.9054,5191.4797 0,-100.3378" style="fill:none;stroke:#b3b3b3;stroke-width:18.87822914;stroke-linejoin:round"/><path id="path72" d="m 2149.9054,5191.4797 0,-100.3378" style="fill:none;stroke:#b3b3b3;stroke-width:18.87822914;stroke-linejoin:round"/><path id="path74" d="m 2246.2297,5191.4797 0,-100.3378" style="fill:none;stroke:#b3b3b3;stroke-width:18.87822914;stroke-linejoin:round"/><path id="path76" d="m 2246.2297,5191.4797 0,-100.3378" style="fill:none;stroke:#b3b3b3;stroke-width:18.87822914;stroke-linejoin:round"/><path id="path78" d="m 2341.8851,5191.4797 0,-100.3378" style="fill:none;stroke:#b3b3b3;stroke-width:18.87822914;stroke-linejoin:round"/><path id="path80" d="m 2341.8851,5191.4797 0,-100.3378" style="fill:none;stroke:#b3b3b3;stroke-width:18.87822914;stroke-linejoin:round"/><path id="path82" d="m 2437.5405,5191.4797 0,-100.3378" style="fill:none;stroke:#b3b3b3;stroke-width:18.87822914;stroke-linejoin:round"/><path id="path84" d="m 2437.5405,5191.4797 0,-100.3378" style="fill:none;stroke:#b3b3b3;stroke-width:18.87822914;stroke-linejoin:round"/><path id="path86" d="m 2533.196,5191.4797 0,-100.3378" style="fill:none;stroke:#b3b3b3;stroke-width:18.87822914;stroke-linejoin:round"/><path id="path88" d="m 2533.196,5191.4797 0,-100.3378" style="fill:none;stroke:#b3b3b3;stroke-width:18.87822914;stroke-linejoin:round"/><path id="path90" d="m 2628.8514,5191.4797 0,-100.3378" style="fill:none;stroke:#b3b3b3;stroke-width:18.87822914;stroke-linejoin:round"/><path id="path92" d="m 2628.8514,5191.4797 0,-100.3378" style="fill:none;stroke:#b3b3b3;stroke-width:18.87822914;stroke-linejoin:round"/><path id="path94" d="m 2724.5068,5191.4797 0,-100.3378" style="fill:none;stroke:#b3b3b3;stroke-width:18.87822914;stroke-linejoin:round"/><path id="path96" d="m 2724.5068,5191.4797 0,-100.3378" style="fill:none;stroke:#b3b3b3;stroke-width:18.87822914;stroke-linejoin:round"/><path id="path98" d="m 2820.8311,5191.4797 0,-100.3378" style="fill:none;stroke:#b3b3b3;stroke-width:18.87822914;stroke-linejoin:round"/><path id="path100" d="m 2820.8311,5191.4797 0,-100.3378" style="fill:none;stroke:#b3b3b3;stroke-width:18.87822914;stroke-linejoin:round"/><path id="path102" d="m 2916.4865,5191.4797 0,-100.3378" style="fill:none;stroke:#b3b3b3;stroke-width:18.87822914;stroke-linejoin:round"/><path id="path104" d="m 2916.4865,5191.4797 0,-100.3378" style="fill:none;stroke:#b3b3b3;stroke-width:18.87822914;stroke-linejoin:round"/><path id="path106" d="m 3012.1419,5191.4797 0,-100.3378" style="fill:none;stroke:#b3b3b3;stroke-width:18.87822914;stroke-linejoin:round"/><path id="path108" d="m 3012.1419,5191.4797 0,-100.3378" style="fill:none;stroke:#b3b3b3;stroke-width:18.87822914;stroke-linejoin:round"/><path id="path110" d="m 3107.7973,5191.4797 0,-100.3378" style="fill:none;stroke:#b3b3b3;stroke-width:18.87822914;stroke-linejoin:round"/><path id="path112" d="m 3107.7973,5191.4797 0,-100.3378" style="fill:none;stroke:#b3b3b3;stroke-width:18.87822914;stroke-linejoin:round"/><path id="path114" d="m 3203.4527,5191.4797 0,-100.3378" style="fill:none;stroke:#b3b3b3;stroke-width:18.87822914;stroke-linejoin:round"/><path id="path116" d="m 3203.4527,5191.4797 0,-100.3378" style="fill:none;stroke:#b3b3b3;stroke-width:18.87822914;stroke-linejoin:round"/><path id="path118" d="m 3299.1081,5191.4797 0,-100.3378" style="fill:none;stroke:#b3b3b3;stroke-width:18.87822914;stroke-linejoin:round"/><path id="path120" d="m 3299.1081,5191.4797 0,-100.3378" style="fill:none;stroke:#b3b3b3;stroke-width:18.87822914;stroke-linejoin:round"/><path id="path122" d="m 3394.7635,5191.4797 0,-100.3378" style="fill:none;stroke:#b3b3b3;stroke-width:18.87822914;stroke-linejoin:round"/><path id="path124" d="m 3394.7635,5191.4797 0,-100.3378" style="fill:none;stroke:#b3b3b3;stroke-width:18.87822914;stroke-linejoin:round"/><path id="path126" d="m 3491.0879,5191.4797 0,-100.3378" style="fill:none;stroke:#b3b3b3;stroke-width:18.87822914;stroke-linejoin:round"/><path id="path128" d="m 3491.0879,5191.4797 0,-100.3378" style="fill:none;stroke:#b3b3b3;stroke-width:18.87822914;stroke-linejoin:round"/><path id="path130" d="m 3586.7433,5191.4797 0,-100.3378" style="fill:none;stroke:#b3b3b3;stroke-width:18.87822914;stroke-linejoin:round"/><path id="path132" d="m 3586.7433,5191.4797 0,-100.3378" style="fill:none;stroke:#b3b3b3;stroke-width:18.87822914;stroke-linejoin:round"/><path id="path134" d="m 3682.3987,5191.4797 0,-100.3378" style="fill:none;stroke:#b3b3b3;stroke-width:18.87822914;stroke-linejoin:round"/><path id="path136" d="m 3682.3987,5191.4797 0,-100.3378" style="fill:none;stroke:#b3b3b3;stroke-width:18.87822914;stroke-linejoin:round"/><path id="path138" d="m 3778.0541,5191.4797 0,-100.3378" style="fill:none;stroke:#b3b3b3;stroke-width:18.87822914;stroke-linejoin:round"/><path id="path140" d="m 3778.0541,5191.4797 0,-100.3378" style="fill:none;stroke:#b3b3b3;stroke-width:18.87822914;stroke-linejoin:round"/><path id="path142" d="m 3873.7095,5191.4797 0,-100.3378" style="fill:none;stroke:#b3b3b3;stroke-width:18.87822914;stroke-linejoin:round"/><path id="path144" d="m 3873.7095,5191.4797 0,-100.3378" style="fill:none;stroke:#b3b3b3;stroke-width:18.87822914;stroke-linejoin:round"/><path id="path146" d="m 3969.3649,5191.4797 0,-100.3378" style="fill:none;stroke:#b3b3b3;stroke-width:18.87822914;stroke-linejoin:round"/><path id="path148" d="m 3969.3649,5191.4797 0,-100.3378" style="fill:none;stroke:#b3b3b3;stroke-width:18.87822914;stroke-linejoin:round"/><path id="path150" d="m 4065.6892,5191.4797 0,-100.3378" style="fill:none;stroke:#b3b3b3;stroke-width:18.87822914;stroke-linejoin:round"/><path id="path152" d="m 4065.6892,5191.4797 0,-100.3378" style="fill:none;stroke:#b3b3b3;stroke-width:18.87822914;stroke-linejoin:round"/><path id="path154" d="m 4161.3446,5191.4797 0,-100.3378" style="fill:none;stroke:#b3b3b3;stroke-width:18.87822914;stroke-linejoin:round"/><path id="path156" d="m 4161.3446,5191.4797 0,-100.3378" style="fill:none;stroke:#b3b3b3;stroke-width:18.87822914;stroke-linejoin:round"/><path id="path158" d="m 4257,5191.4797 0,-100.3378" style="fill:none;stroke:#b3b3b3;stroke-width:18.87822914;stroke-linejoin:round"/><path id="path160" d="m 4257,5191.4797 0,-100.3378" style="fill:none;stroke:#b3b3b3;stroke-width:18.87822914;stroke-linejoin:round"/><path id="path162" d="m 4352.6554,5191.4797 0,-100.3378" style="fill:none;stroke:#b3b3b3;stroke-width:18.87822914;stroke-linejoin:round"/><path id="path164" d="m 4352.6554,5191.4797 0,-100.3378" style="fill:none;stroke:#b3b3b3;stroke-width:18.87822914;stroke-linejoin:round"/><path id="path166" d="m 4448.3108,5191.4797 0,-100.3378" style="fill:none;stroke:#b3b3b3;stroke-width:18.87822914;stroke-linejoin:round"/><path id="path168" d="m 4448.3108,5191.4797 0,-100.3378" style="fill:none;stroke:#b3b3b3;stroke-width:18.87822914;stroke-linejoin:round"/><path id="path170" d="m 4543.9662,5191.4797 0,-100.3378" style="fill:none;stroke:#b3b3b3;stroke-width:18.87822914;stroke-linejoin:round"/><path id="path172" d="m 4543.9662,5191.4797 0,-100.3378" style="fill:none;stroke:#b3b3b3;stroke-width:18.87822914;stroke-linejoin:round"/><path id="path174" d="m 4640.2906,5191.4797 0,-100.3378" style="fill:none;stroke:#b3b3b3;stroke-width:18.87822914;stroke-linejoin:round"/><path id="path176" d="m 4640.2906,5191.4797 0,-100.3378" style="fill:none;stroke:#b3b3b3;stroke-width:18.87822914;stroke-linejoin:round"/><path id="path178" d="m 4735.946,5191.4797 0,-100.3378" style="fill:none;stroke:#b3b3b3;stroke-width:18.87822914;stroke-linejoin:round"/><path id="path180" d="m 4735.946,5191.4797 0,-100.3378" style="fill:none;stroke:#b3b3b3;stroke-width:18.87822914;stroke-linejoin:round"/><path id="path182" d="m 4831.6014,5191.4797 0,-100.3378" style="fill:none;stroke:#b3b3b3;stroke-width:18.87822914;stroke-linejoin:round"/><path id="path184" d="m 4831.6014,5191.4797 0,-100.3378" style="fill:none;stroke:#b3b3b3;stroke-width:18.87822914;stroke-linejoin:round"/><path id="path186" d="m 4927.2568,5191.4797 0,-100.3378" style="fill:none;stroke:#b3b3b3;stroke-width:18.87822914;stroke-linejoin:round"/><path id="path188" d="m 4927.2568,5191.4797 0,-100.3378" style="fill:none;stroke:#b3b3b3;stroke-width:18.87822914;stroke-linejoin:round"/><path id="path190" d="m 5022.9122,5191.4797 0,-100.3378" style="fill:none;stroke:#b3b3b3;stroke-width:18.87822914;stroke-linejoin:round"/><path id="path192" d="m 5022.9122,5191.4797 0,-100.3378" style="fill:none;stroke:#b3b3b3;stroke-width:18.87822914;stroke-linejoin:round"/><path id="path194" d="m 5118.5676,5191.4797 0,-100.3378" style="fill:none;stroke:#b3b3b3;stroke-width:18.87822914;stroke-linejoin:round"/><path id="path196" d="m 5118.5676,5191.4797 0,-100.3378" style="fill:none;stroke:#b3b3b3;stroke-width:18.87822914;stroke-linejoin:round"/><path id="path198" d="m 5214.8919,5191.4797 0,-100.3378" style="fill:none;stroke:#b3b3b3;stroke-width:18.87822914;stroke-linejoin:round"/><path id="path200" d="m 5214.8919,5191.4797 0,-100.3378" style="fill:none;stroke:#b3b3b3;stroke-width:18.87822914;stroke-linejoin:round"/><path id="path202" d="m 5310.5473,5191.4797 0,-100.3378" style="fill:none;stroke:#b3b3b3;stroke-width:18.87822914;stroke-linejoin:round"/><path id="path204" d="m 5310.5473,5191.4797 0,-100.3378" style="fill:none;stroke:#b3b3b3;stroke-width:18.87822914;stroke-linejoin:round"/><path id="path206" d="m 5405.5338,5191.4797 0,-100.3378" style="fill:none;stroke:#b3b3b3;stroke-width:18.87822914;stroke-linejoin:round"/><path id="path208" d="m 5405.5338,5191.4797 0,-100.3378" style="fill:none;stroke:#b3b3b3;stroke-width:18.87822914;stroke-linejoin:round"/><path id="path210" d="m 5501.1892,5191.4797 0,-100.3378" style="fill:none;stroke:#b3b3b3;stroke-width:18.87822914;stroke-linejoin:round"/><path id="path212" d="m 5501.1892,5191.4797 0,-100.3378" style="fill:none;stroke:#b3b3b3;stroke-width:18.87822914;stroke-linejoin:round"/><path id="path214" d="m 5596.8446,5191.4797 0,-100.3378" style="fill:none;stroke:#b3b3b3;stroke-width:18.87822914;stroke-linejoin:round"/><path id="path216" d="m 5596.8446,5191.4797 0,-100.3378" style="fill:none;stroke:#b3b3b3;stroke-width:18.87822914;stroke-linejoin:round"/><path id="path218" d="m 5692.5,5191.4797 0,-100.3378" style="fill:none;stroke:#b3b3b3;stroke-width:18.87822914;stroke-linejoin:round"/><path id="path220" d="m 5692.5,5191.4797 0,-100.3378" style="fill:none;stroke:#b3b3b3;stroke-width:18.87822914;stroke-linejoin:round"/><path id="path222" d="m 5788.1554,5191.4797 0,-100.3378" style="fill:none;stroke:#b3b3b3;stroke-width:18.87822914;stroke-linejoin:round"/><path id="path224" d="m 5788.1554,5191.4797 0,-100.3378" style="fill:none;stroke:#b3b3b3;stroke-width:18.87822914;stroke-linejoin:round"/><path id="path226" d="m 5884.4798,5191.4797 0,-100.3378" style="fill:none;stroke:#b3b3b3;stroke-width:18.87822914;stroke-linejoin:round"/><path id="path228" d="m 5884.4798,5191.4797 0,-100.3378" style="fill:none;stroke:#b3b3b3;stroke-width:18.87822914;stroke-linejoin:round"/><path id="path230" d="m 5980.1352,5191.4797 0,-100.3378" style="fill:none;stroke:#b3b3b3;stroke-width:18.87822914;stroke-linejoin:round"/><path id="path232" d="m 5980.1352,5191.4797 0,-100.3378" style="fill:none;stroke:#b3b3b3;stroke-width:18.87822914;stroke-linejoin:round"/><path id="path234" d="m 6075.7906,5191.4797 0,-100.3378" style="fill:none;stroke:#b3b3b3;stroke-width:18.87822914;stroke-linejoin:round"/><path id="path236" d="m 6075.7906,5191.4797 0,-100.3378" style="fill:none;stroke:#b3b3b3;stroke-width:18.87822914;stroke-linejoin:round"/><path id="path238" d="m 6171.446,5191.4797 0,-100.3378" style="fill:none;stroke:#b3b3b3;stroke-width:18.87822914;stroke-linejoin:round"/><path id="path240" d="m 6171.446,5191.4797 0,-100.3378" style="fill:none;stroke:#b3b3b3;stroke-width:18.87822914;stroke-linejoin:round"/><path id="path242" d="m 6267.1014,5191.4797 0,-100.3378" style="fill:none;stroke:#b3b3b3;stroke-width:18.87822914;stroke-linejoin:round"/><path id="path244" d="m 6267.1014,5191.4797 0,-100.3378" style="fill:none;stroke:#b3b3b3;stroke-width:18.87822914;stroke-linejoin:round"/><path id="path246" d="m 6362.7568,5191.4797 0,-100.3378" style="fill:none;stroke:#b3b3b3;stroke-width:18.87822914;stroke-linejoin:round"/><path id="path248" d="m 6362.7568,5191.4797 0,-100.3378" style="fill:none;stroke:#b3b3b3;stroke-width:18.87822914;stroke-linejoin:round"/><path id="path250" d="m 6459.0811,5191.4797 0,-100.3378" style="fill:none;stroke:#b3b3b3;stroke-width:18.87822914;stroke-linejoin:round"/><path id="path252" d="m 6459.0811,5191.4797 0,-100.3378" style="fill:none;stroke:#b3b3b3;stroke-width:18.87822914;stroke-linejoin:round"/><path id="path254" d="m 6554.7365,5191.4797 0,-100.3378" style="fill:none;stroke:#b3b3b3;stroke-width:18.87822914;stroke-linejoin:round"/><path id="path256" d="m 6554.7365,5191.4797 0,-100.3378" style="fill:none;stroke:#b3b3b3;stroke-width:18.87822914;stroke-linejoin:round"/><path id="path258" d="m 6650.3919,5191.4797 0,-100.3378" style="fill:none;stroke:#b3b3b3;stroke-width:18.87822914;stroke-linejoin:round"/><path id="path260" d="m 6650.3919,5191.4797 0,-100.3378" style="fill:none;stroke:#b3b3b3;stroke-width:18.87822914;stroke-linejoin:round"/><path id="path262" d="m 6746.0473,5191.4797 0,-100.3378" style="fill:none;stroke:#b3b3b3;stroke-width:18.87822914;stroke-linejoin:round"/><path id="path264" d="m 6746.0473,5191.4797 0,-100.3378" style="fill:none;stroke:#b3b3b3;stroke-width:18.87822914;stroke-linejoin:round"/><path id="path266" d="m 6841.7027,5191.4797 0,-100.3378" style="fill:none;stroke:#b3b3b3;stroke-width:18.87822914;stroke-linejoin:round"/><path id="path268" d="m 6841.7027,5191.4797 0,-100.3378" style="fill:none;stroke:#b3b3b3;stroke-width:18.87822914;stroke-linejoin:round"/><path id="path270" d="m 6937.3581,5191.4797 0,-100.3378" style="fill:none;stroke:#b3b3b3;stroke-width:18.87822914;stroke-linejoin:round"/><path id="path272" d="m 6937.3581,5191.4797 0,-100.3378" style="fill:none;stroke:#b3b3b3;stroke-width:18.87822914;stroke-linejoin:round"/><path id="path274" d="m 7033.6825,5191.4797 0,-100.3378" style="fill:none;stroke:#b3b3b3;stroke-width:18.87822914;stroke-linejoin:round"/><path id="path276" d="m 7033.6825,5191.4797 0,-100.3378" style="fill:none;stroke:#b3b3b3;stroke-width:18.87822914;stroke-linejoin:round"/><path id="path278" d="m 7129.3379,5191.4797 0,-100.3378" style="fill:none;stroke:#b3b3b3;stroke-width:18.87822914;stroke-linejoin:round"/><path id="path280" d="m 7129.3379,5191.4797 0,-100.3378" style="fill:none;stroke:#b3b3b3;stroke-width:18.87822914;stroke-linejoin:round"/><path id="path282" d="m 7224.9933,5191.4797 0,-100.3378" style="fill:none;stroke:#b3b3b3;stroke-width:18.87822914;stroke-linejoin:round"/><path id="path284" d="m 7224.9933,5191.4797 0,-100.3378" style="fill:none;stroke:#b3b3b3;stroke-width:18.87822914;stroke-linejoin:round"/><path id="path286" d="m 7320.6487,5191.4797 0,-100.3378" style="fill:none;stroke:#b3b3b3;stroke-width:18.87822914;stroke-linejoin:round"/><path id="path288" d="m 7320.6487,5191.4797 0,-100.3378" style="fill:none;stroke:#b3b3b3;stroke-width:18.87822914;stroke-linejoin:round"/><path id="path290" d="m 7416.3041,5191.4797 0,-100.3378" style="fill:none;stroke:#b3b3b3;stroke-width:18.87822914;stroke-linejoin:round"/><path id="path292" d="m 7416.3041,5191.4797 0,-100.3378" style="fill:none;stroke:#b3b3b3;stroke-width:18.87822914;stroke-linejoin:round"/><path id="path294" d="m 7511.9595,5191.4797 0,-100.3378" style="fill:none;stroke:#b3b3b3;stroke-width:18.87822914;stroke-linejoin:round"/><path id="path296" d="m 7511.9595,5191.4797 0,-100.3378" style="fill:none;stroke:#b3b3b3;stroke-width:18.87822914;stroke-linejoin:round"/><path id="path298" d="m 7608.2838,5191.4797 0,-100.3378" style="fill:none;stroke:#b3b3b3;stroke-width:18.87822914;stroke-linejoin:round"/><path id="path300" d="m 7608.2838,5191.4797 0,-100.3378" style="fill:none;stroke:#b3b3b3;stroke-width:18.87822914;stroke-linejoin:round"/><path id="path302" d="m 1001.3716,5091.1419 6606.9122,0" style="fill:none;stroke:#b3b3b3;stroke-width:18.87822914;stroke-linejoin:round"/><path id="path304" d="m 901.03379,5091.1419 100.33781,0" style="fill:none;stroke:#b3b3b3;stroke-width:18.87822914;stroke-linejoin:round"/><path id="path306" d="m 901.03379,5091.1419 100.33781,0" style="fill:none;stroke:#b3b3b3;stroke-width:18.87822914;stroke-linejoin:round"/><path id="path308" d="m 901.03379,4446.973 100.33781,0" style="fill:none;stroke:#b3b3b3;stroke-width:18.87822914;stroke-linejoin:round"/><path id="path310" d="m 901.03379,4446.973 100.33781,0" style="fill:none;stroke:#b3b3b3;stroke-width:18.87822914;stroke-linejoin:round"/><path id="path312" d="m 901.03379,3802.8041 100.33781,0" style="fill:none;stroke:#b3b3b3;stroke-width:18.87822914;stroke-linejoin:round"/><path id="path314" d="m 901.03379,3802.8041 100.33781,0" style="fill:none;stroke:#b3b3b3;stroke-width:18.87822914;stroke-linejoin:round"/><path id="path316" d="m 901.03379,3158.6351 100.33781,0" style="fill:none;stroke:#b3b3b3;stroke-width:18.87822914;stroke-linejoin:round"/><path id="path318" d="m 901.03379,3158.6351 100.33781,0" style="fill:none;stroke:#b3b3b3;stroke-width:18.87822914;stroke-linejoin:round"/><path id="path320" d="m 901.03379,2514.4662 100.33781,0" style="fill:none;stroke:#b3b3b3;stroke-width:18.87822914;stroke-linejoin:round"/><path id="path322" d="m 901.03379,2514.4662 100.33781,0" style="fill:none;stroke:#b3b3b3;stroke-width:18.87822914;stroke-linejoin:round"/><path id="path324" d="m 901.03379,1870.9662 100.33781,0" style="fill:none;stroke:#b3b3b3;stroke-width:18.87822914;stroke-linejoin:round"/><path id="path326" d="m 901.03379,1870.9662 100.33781,0" style="fill:none;stroke:#b3b3b3;stroke-width:18.87822914;stroke-linejoin:round"/><path id="path328" d="m 901.03379,1226.1284 100.33781,0" style="fill:none;stroke:#b3b3b3;stroke-width:18.87822914;stroke-linejoin:round"/><path id="path330" d="m 901.03379,1226.1284 100.33781,0" style="fill:none;stroke:#b3b3b3;stroke-width:18.87822914;stroke-linejoin:round"/><path id="path332" d="m 1001.3716,5091.1419 0,-3864.3446" style="fill:none;stroke:#b3b3b3;stroke-width:18.87822914;stroke-linejoin:round"/><path id="path334" d="m 1001.3716,1870.9662 95.6554,0 95.6554,0 95.6554,0 95.6554,0 95.6555,1.3379 95.6554,1.3378 96.3243,1.3378 95.6554,1.3379 95.6554,1.3378 95.6554,1.3378 95.6554,1.3379 95.6554,1.3378 96.3243,1.3379 95.6554,1.3378 95.6554,1.3378 95.6555,1.3379 95.6554,1.3378 95.6554,1.3379 96.3243,1.3378 95.6554,1.3378 95.6554,1.3379 95.6554,1.3378 95.6554,1.3378 95.6554,1.3379 95.6554,1.3378 96.3244,1.3379 95.6554,1.3378 95.6554,1.3378 95.6554,1.3379 95.6554,1.3378 95.6554,1.3378 96.3243,1.3379 95.6554,1.3378 95.6554,1.3379 95.6554,1.3378 95.6554,1.3378 95.6554,1.3379 96.3244,1.3378 95.6554,1.3378 95.6554,1.3379 95.6554,1.3378 95.6554,1.3379 95.6554,1.3378 96.3243,1.3378 95.6554,1.3379 94.9865,1.3378 95.6554,1.3379 95.6554,1.3378 95.6554,1.3378 95.6554,1.3379 96.3244,1.3378 95.6554,1.3378 95.6554,1.3379 95.6554,1.3378 95.6554,1.3379 95.6554,1.3378 96.3243,1.3378 95.6554,1.3379 95.6554,1.3378 95.6554,1.3378 95.6554,1.3379 95.6554,1.3378 96.3244,1.3379 95.6554,1.3378 95.6554,0 95.6554,0 95.6554,0 95.6554,0 96.3243,0" style="fill:none;stroke:#004586;stroke-width:53.51351547;stroke-linejoin:round"/><path id="path336" d="m 1001.3716,1870.9662 95.6554,0 95.6554,0 95.6554,0 95.6554,0 95.6555,4.6825 95.6554,4.6824 96.3243,4.6824 95.6554,4.6825 95.6554,5.3513 95.6554,4.6824 95.6554,4.6825 95.6554,4.6824 96.3243,5.3514 95.6554,4.6824 95.6554,4.6824 95.6555,4.6825 95.6554,4.6824 95.6554,5.3513 96.3243,4.6825 95.6554,4.6824 95.6554,4.6824 95.6554,5.3514 95.6554,4.6824 95.6554,4.6824 95.6554,4.6825 96.3244,4.6824 95.6554,5.3514 95.6554,4.6824 95.6554,4.6824 95.6554,4.6825 95.6554,5.3513 96.3243,4.6824 95.6554,4.6825 95.6554,4.6824 95.6554,4.6824 95.6554,5.3514 95.6554,4.6824 96.3244,4.6825 95.6554,4.6824 95.6554,5.3513 95.6554,4.6825 95.6554,4.6824 95.6554,4.6824 96.3243,4.6825 95.6554,5.3513 94.9865,4.6825 95.6554,4.6824 95.6554,4.6824 95.6554,5.3514 95.6554,4.6824 96.3244,4.6824 95.6554,4.6825 95.6554,4.6824 95.6554,5.3514 95.6554,4.6824 95.6554,4.6824 96.3243,4.6825 95.6554,5.3513 95.6554,4.6824 95.6554,4.6825 95.6554,4.6824 95.6554,4.6824 96.3244,5.3514 95.6554,4.6824 95.6554,0 95.6554,0 95.6554,0 95.6554,0 96.3243,0" style="fill:none;stroke:#ff420e;stroke-width:53.51351547;stroke-linejoin:round"/><path id="path338" d="m 1001.3716,1870.9662 95.6554,0 95.6554,0 95.6554,0 95.6554,0 95.6555,8.027 95.6554,8.0271 96.3243,8.6959 95.6554,8.027 95.6554,8.696 95.6554,8.027 95.6554,8.696 95.6554,8.027 96.3243,8.027 95.6554,8.696 95.6554,8.027 95.6555,8.6959 95.6554,8.0271 95.6554,8.6959 96.3243,8.027 95.6554,8.696 95.6554,8.027 95.6554,8.027 95.6554,8.696 95.6554,8.027 95.6554,8.696 96.3244,8.027 95.6554,8.6959 95.6554,8.0271 95.6554,8.027 95.6554,8.6959 95.6554,8.0271 96.3243,8.6959 95.6554,8.027 95.6554,8.696 95.6554,8.027 95.6554,8.696 95.6554,8.027 96.3244,8.027 95.6554,8.696 95.6554,8.027 95.6554,8.6959 95.6554,8.0271 95.6554,8.6959 96.3243,8.027 95.6554,8.0271 94.9865,8.6959 95.6554,8.027 95.6554,8.696 95.6554,8.027 95.6554,8.6959 96.3244,8.0271 95.6554,8.6959 95.6554,8.027 95.6554,8.0271 95.6554,8.6959 95.6554,8.027 96.3243,8.696 95.6554,8.027 95.6554,8.696 95.6554,8.027 95.6554,8.6959 95.6554,8.0271 96.3244,8.027 95.6554,8.6959 95.6554,0 95.6554,0 95.6554,0 95.6554,0 96.3243,0" style="fill:none;stroke:#ffd320;stroke-width:53.51351547;stroke-linejoin:round"/><path id="path340" d="m 1001.3716,1870.9662 95.6554,0 95.6554,0 95.6554,0 95.6554,0 95.6555,11.3716 95.6554,12.0406 96.3243,11.3716 95.6554,12.0405 95.6554,12.0406 95.6554,11.3716 95.6554,12.0406 95.6554,12.0405 96.3243,11.3716 95.6554,12.0406 95.6554,12.0405 95.6555,11.3716 95.6554,12.0406 95.6554,12.0405 96.3243,11.3716 95.6554,12.0406 95.6554,12.0405 95.6554,11.3716 95.6554,12.0406 95.6554,12.0405 95.6554,11.3716 96.3244,12.0406 95.6554,12.0405 95.6554,11.3716 95.6554,12.0406 95.6554,12.0405 95.6554,11.3716 96.3243,12.0406 95.6554,11.3716 95.6554,12.0405 95.6554,12.0406 95.6554,11.3716 95.6554,12.0405 96.3244,12.0406 95.6554,11.3716 95.6554,12.0405 95.6554,12.0406 95.6554,11.3716 95.6554,12.0405 96.3243,12.0406 95.6554,11.3716 94.9865,12.0405 95.6554,12.0406 95.6554,11.3716 95.6554,12.0405 95.6554,12.0406 96.3244,11.3716 95.6554,12.0405 95.6554,12.0406 95.6554,11.3716 95.6554,12.0406 95.6554,12.0405 96.3243,11.3716 95.6554,12.0406 95.6554,12.0405 95.6554,11.3716 95.6554,12.0406 95.6554,11.3716 96.3244,12.0405 95.6554,12.0406 95.6554,0 95.6554,0 95.6554,0 95.6554,0 96.3243,0" style="fill:none;stroke:#579d1c;stroke-width:53.51351547;stroke-linejoin:round"/><path id="path342" d="m 1001.3716,1870.9662 95.6554,0 95.6554,0 95.6554,0 95.6554,0 95.6555,14.7162 95.6554,15.3852 96.3243,15.3851 95.6554,15.3851 95.6554,15.3852 95.6554,15.3851 95.6554,15.3852 95.6554,14.7162 96.3243,15.3851 95.6554,15.3851 95.6554,15.3852 95.6555,15.3851 95.6554,15.3851 95.6554,15.3852 96.3243,15.3851 95.6554,14.7162 95.6554,15.3852 95.6554,15.3851 95.6554,15.3851 95.6554,15.3852 95.6554,15.3851 96.3244,15.3851 95.6554,15.3852 95.6554,14.7162 95.6554,15.3851 95.6554,15.3852 95.6554,15.3851 96.3243,15.3851 95.6554,15.3852 95.6554,15.3851 95.6554,15.3851 95.6554,14.7163 95.6554,15.3851 96.3244,15.3851 95.6554,15.3852 95.6554,15.3851 95.6554,15.3851 95.6554,15.3852 95.6554,14.7162 96.3243,15.3851 95.6554,15.3852 94.9865,15.3851 95.6554,15.3851 95.6554,15.3852 95.6554,15.3851 95.6554,15.3851 96.3244,14.7162 95.6554,15.3852 95.6554,15.3851 95.6554,15.3851 95.6554,15.3852 95.6554,15.3851 96.3243,15.3852 95.6554,15.3851 95.6554,14.7162 95.6554,15.3851 95.6554,15.3852 95.6554,15.3851 96.3244,15.3851 95.6554,15.3852 95.6554,0 95.6554,0 95.6554,0 95.6554,0 96.3243,0" style="fill:none;stroke:#7e0021;stroke-width:53.51351547;stroke-linejoin:round"/><path id="path344" d="m 1001.3716,1870.9662 95.6554,0 95.6554,0 95.6554,0 95.6554,0 95.6555,18.7298 95.6554,18.7297 96.3243,18.7297 95.6554,18.7297 95.6554,18.7298 95.6554,18.7297 95.6554,18.7297 95.6554,18.7298 96.3243,18.7297 95.6554,18.7297 95.6554,18.7298 95.6555,19.3986 95.6554,18.7297 95.6554,18.7298 96.3243,18.7297 95.6554,18.7297 95.6554,18.7297 95.6554,18.7298 95.6554,18.7297 95.6554,18.7297 95.6554,18.7298 96.3244,18.7297 95.6554,19.3986 95.6554,18.7298 95.6554,18.7297 95.6554,18.7297 95.6554,18.7298 96.3243,18.7297 95.6554,18.7297 95.6554,18.7298 95.6554,18.7297 95.6554,18.7297 95.6554,18.7297 96.3244,18.7298 95.6554,19.3986 95.6554,18.7298 95.6554,18.7297 95.6554,18.7297 95.6554,18.7297 96.3243,18.7298 95.6554,18.7297 94.9865,18.7297 95.6554,18.7298 95.6554,18.7297 95.6554,18.7297 95.6554,19.3987 96.3244,18.7297 95.6554,18.7297 95.6554,18.7298 95.6554,18.7297 95.6554,18.7297 95.6554,18.7297 96.3243,18.7298 95.6554,18.7297 95.6554,18.7297 95.6554,18.7298 95.6554,18.7297 95.6554,19.3986 96.3244,18.7298 95.6554,18.7297 95.6554,0 95.6554,0 95.6554,0 95.6554,0 96.3243,0" style="fill:none;stroke:#83caff;stroke-width:53.51351547;stroke-linejoin:round"/><path id="path346" d="m 1001.3716,1870.9662 95.6554,0 95.6554,0 95.6554,0 95.6554,0 95.6555,22.0743 95.6554,22.0744 96.3243,22.0743 95.6554,22.7432 95.6554,22.0744 95.6554,22.0743 95.6554,22.7432 95.6554,22.0744 96.3243,22.0743 95.6554,22.7432 95.6554,22.0743 95.6555,22.0744 95.6554,22.0743 95.6554,22.7432 96.3243,22.0744 95.6554,22.0743 95.6554,22.7432 95.6554,22.0744 95.6554,22.0743 95.6554,22.7432 95.6554,22.0743 96.3244,22.0744 95.6554,22.0743 95.6554,22.7432 95.6554,22.0744 95.6554,22.0743 95.6554,22.7432 96.3243,22.0744 95.6554,22.0743 95.6554,22.7432 95.6554,22.0743 95.6554,22.0744 95.6554,22.7432 96.3244,22.0743 95.6554,22.0744 95.6554,22.0743 95.6554,22.7432 95.6554,22.0744 95.6554,22.0743 96.3243,22.7432 95.6554,22.0744 94.9865,22.0743 95.6554,22.7432 95.6554,22.0743 95.6554,22.0744 95.6554,22.0743 96.3244,22.7432 95.6554,22.0744 95.6554,22.0743 95.6554,22.7432 95.6554,22.0744 95.6554,21.4054 96.3243,22.7432 95.6554,22.0743 95.6554,22.0743 95.6554,22.7433 95.6554,22.0743 95.6554,22.0743 96.3244,22.0744 95.6554,22.7432 95.6554,0 95.6554,0 95.6554,0 95.6554,0 96.3243,0" style="fill:none;stroke:#314004;stroke-width:53.51351547;stroke-linejoin:round"/><path id="path348" d="m 1001.3716,1870.9662 95.6554,0 95.6554,0 95.6554,0 95.6554,0 95.6555,25.4189 95.6554,26.0879 96.3243,25.4189 95.6554,26.0878 95.6554,25.419 95.6554,26.0878 95.6554,25.4189 95.6554,26.0879 96.3243,25.4189 95.6554,26.0878 95.6554,25.4189 95.6555,26.0879 95.6554,25.4189 95.6554,26.0878 96.3243,25.4189 95.6554,26.0879 95.6554,25.4189 95.6554,26.0878 95.6554,25.419 95.6554,26.0878 95.6554,25.4189 96.3244,26.0878 95.6554,25.419 95.6554,26.0878 95.6554,26.0878 95.6554,25.419 95.6554,26.0878 96.3243,25.4189 95.6554,26.0879 95.6554,25.4189 95.6554,26.0878 95.6554,25.4189 95.6554,26.0879 96.3244,25.4189 95.6554,26.0878 95.6554,25.4189 95.6554,26.0879 95.6554,25.4189 95.6554,26.0878 96.3243,25.419 95.6554,26.0878 94.9865,25.4189 95.6554,26.0879 95.6554,25.4189 95.6554,25.4189 95.6554,25.4189 96.3244,26.0879 95.6554,25.4189 95.6554,26.0878 95.6554,25.4189 95.6554,26.0879 95.6554,26.0878 96.3243,25.4189 95.6554,26.0879 95.6554,25.4189 95.6554,26.0878 95.6554,25.4189 95.6554,26.0879 96.3244,25.4189 95.6554,26.0878 95.6554,0 95.6554,0 95.6554,0 95.6554,0 96.3243,0" style="fill:none;stroke:#aecf00;stroke-width:53.51351547;stroke-linejoin:round"/><path id="path350" d="m 1001.3716,1870.9662 95.6554,0 95.6554,0 95.6554,0 95.6554,0 95.6555,28.7635 95.6554,29.4325 96.3243,29.4324 95.6554,28.7635 95.6554,29.4324 95.6554,29.4325 95.6554,29.4324 95.6554,28.7635 96.3243,29.4325 95.6554,29.4324 95.6554,29.4324 95.6555,28.7635 95.6554,29.4325 95.6554,29.4324 96.3243,29.4324 95.6554,28.7635 95.6554,29.4325 95.6554,29.4324 95.6554,28.7635 95.6554,29.4325 95.6554,29.4324 96.3244,29.4324 95.6554,28.7635 95.6554,29.4325 95.6554,29.4324 95.6554,29.4324 95.6554,28.7635 96.3243,29.4325 95.6554,29.4324 95.6554,29.4324 95.6554,28.7636 95.6554,29.4324 95.6554,29.4324 96.3244,29.4325 95.6554,28.7635 95.6554,29.4324 95.6554,29.4324 95.6554,28.7636 95.6554,29.4324 96.3243,28.7635 95.6554,29.4324 94.9865,28.7635 95.6554,29.4325 95.6554,29.4324 95.6554,29.4324 95.6554,28.7636 96.3244,29.4324 95.6554,29.4324 95.6554,29.4325 95.6554,28.7635 95.6554,29.4324 95.6554,29.4324 96.3243,29.4325 95.6554,28.7635 95.6554,29.4324 95.6554,29.4324 95.6554,28.7636 95.6554,29.4324 96.3244,29.4324 95.6554,29.4325 95.6554,0 95.6554,0 95.6554,0 95.6554,0 96.3243,0" style="fill:none;stroke:#4b1f6f;stroke-width:53.51351547;stroke-linejoin:round"/><path id="path352" d="m 1001.3716,1870.9662 95.6554,0 95.6554,0 95.6554,0 95.6554,0 95.6555,32.1081 95.6554,32.7771 96.3243,32.777 95.6554,32.777 95.6554,32.777 95.6554,32.7771 95.6554,32.777 95.6554,32.777 96.3243,32.777 95.6554,32.7771 95.6554,32.777 95.6555,32.777 95.6554,32.7771 95.6554,32.777 96.3243,32.777 95.6554,32.777 95.6554,32.7771 95.6554,32.777 95.6554,32.777 95.6554,32.777 95.6554,32.7771 96.3244,32.1081 95.6554,32.777 95.6554,32.777 95.6554,32.7771 95.6554,32.777 95.6554,32.777 96.3243,32.777 95.6554,32.7771 95.6554,32.777 95.6554,32.777 95.6554,32.7771 95.6554,32.777 96.3244,32.777 95.6554,32.1081 95.6554,32.777 95.6554,32.7771 95.6554,32.777 95.6554,32.777 96.3243,32.7771 95.6554,32.777 94.9865,32.777 95.6554,32.1081 95.6554,32.777 95.6554,32.7771 95.6554,32.777 96.3244,32.777 95.6554,32.777 95.6554,32.7771 95.6554,32.777 95.6554,32.777 95.6554,32.7771 96.3243,32.777 95.6554,32.777 95.6554,32.777 95.6554,32.7771 95.6554,32.777 95.6554,32.777 96.3244,32.777 95.6554,32.7771 95.6554,0 95.6554,0 95.6554,0 95.6554,0 96.3243,0" style="fill:none;stroke:#ff950e;stroke-width:53.51351547;stroke-linejoin:round"/><path id="path354" d="m 1001.3716,1870.9662 95.6554,0 95.6554,0 95.6554,0 95.6554,0 95.6555,36.1216 95.6554,36.1217 96.3243,36.1216 95.6554,36.1216 95.6554,36.1216 95.6554,36.7906 95.6554,36.1216 95.6554,36.1216 96.3243,36.1216 95.6554,36.1217 95.6554,36.1216 95.6555,36.7905 95.6554,36.1216 95.6554,36.1217 96.3243,36.1216 95.6554,36.1216 95.6554,36.1216 95.6554,36.7906 95.6554,36.1216 95.6554,36.1216 95.6554,36.1216 96.3244,36.1217 95.6554,36.1216 95.6554,36.7905 95.6554,36.1216 95.6554,36.1217 95.6554,36.1216 96.3243,36.1216 95.6554,36.1216 95.6554,36.7906 95.6554,36.1216 95.6554,35.4527 95.6554,36.1216 96.3244,36.1216 95.6554,36.1217 95.6554,36.7905 95.6554,36.1216 95.6554,36.1216 95.6554,36.1217 96.3243,36.1216 95.6554,36.1216 94.9865,36.7905 95.6554,36.1217 95.6554,36.1216 95.6554,36.1216 95.6554,36.1216 96.3244,36.1217 95.6554,36.7905 95.6554,36.1216 95.6554,36.1216 95.6554,36.1217 95.6554,36.1216 96.3243,36.1216 95.6554,36.7905 95.6554,36.1217 95.6554,36.1216 95.6554,36.1216 95.6554,36.1216 96.3244,36.1217 95.6554,36.7905 95.6554,0 95.6554,0 95.6554,0 95.6554,0 96.3243,0" style="fill:none;stroke:#c5000b;stroke-width:53.51351547;stroke-linejoin:round"/><path id="path356" d="m 1001.3716,1870.9662 95.6554,0 95.6554,0 95.6554,0 95.6554,0 95.6555,39.4662 95.6554,39.4663 96.3243,40.1351 95.6554,39.4662 95.6554,39.4662 95.6554,40.1352 95.6554,39.4662 95.6554,40.1351 96.3243,39.4662 95.6554,39.4662 95.6554,40.1352 95.6555,39.4662 95.6554,40.1351 95.6554,39.4662 96.3243,39.4663 95.6554,40.1351 95.6554,39.4662 95.6554,39.4662 95.6554,40.1352 95.6554,39.4662 95.6554,40.1351 96.3244,39.4662 95.6554,39.4663 95.6554,40.1351 95.6554,39.4662 95.6554,40.1351 95.6554,39.4663 96.3243,39.4662 95.6554,39.4662 95.6554,39.4662 95.6554,39.4662 95.6554,40.1352 95.6554,39.4662 96.3244,40.1351 95.6554,39.4662 95.6554,39.4662 95.6554,40.1352 95.6554,39.4662 95.6554,40.1351 96.3243,39.4662 95.6554,39.4663 94.9865,40.1351 95.6554,39.4662 95.6554,39.4662 95.6554,40.1352 95.6554,39.4662 96.3244,40.1351 95.6554,39.4662 95.6554,39.4662 95.6554,40.1352 95.6554,39.4662 95.6554,40.1351 96.3243,39.4662 95.6554,39.4663 95.6554,40.1351 95.6554,39.4662 95.6554,39.4662 95.6554,40.1352 96.3244,39.4662 95.6554,40.1351 95.6554,0 95.6554,0 95.6554,0 95.6554,0 96.3243,0" style="fill:none;stroke:#0084d1;stroke-width:53.51351547;stroke-linejoin:round"/><path id="path358" d="m 1001.3716,1870.9662 95.6554,0 95.6554,0 95.6554,0 95.6554,0 95.6555,42.8108 95.6554,43.4798 96.3243,42.8108 95.6554,43.4797 95.6554,43.4797 95.6554,42.8108 95.6554,43.4798 95.6554,42.8108 96.3243,43.4797 95.6554,43.4797 95.6554,42.8109 95.6555,43.4797 95.6554,42.8108 95.6554,43.4797 96.3243,43.4798 95.6554,42.8108 95.6554,43.4797 95.6554,42.8108 95.6554,43.4797 95.6554,43.4798 95.6554,42.8108 96.3244,43.4797 95.6554,42.8108 95.6554,43.4798 95.6554,43.4797 95.6554,42.8108 95.6554,42.8108 96.3243,42.8108 95.6554,43.4797 95.6554,43.4798 95.6554,42.8108 95.6554,43.4797 95.6554,42.8108 96.3244,43.4798 95.6554,43.4797 95.6554,42.8108 95.6554,43.4797 95.6554,42.8108 95.6554,43.4798 96.3243,43.4797 95.6554,42.8108 94.9865,43.4797 95.6554,42.8108 95.6554,43.4798 95.6554,43.4797 95.6554,42.8108 96.3244,43.4797 95.6554,42.8109 95.6554,43.4797 95.6554,43.4797 95.6554,42.8108 95.6554,43.4798 96.3243,42.8108 95.6554,43.4797 95.6554,43.4797 95.6554,42.8108 95.6554,43.4798 95.6554,42.8108 96.3244,43.4797 95.6554,43.4797 95.6554,0 95.6554,0 95.6554,0 95.6554,0 96.3243,0" style="fill:none;stroke:#004586;stroke-width:53.51351547;stroke-linejoin:round"/><path id="path360" d="m 1001.3716,1870.9662 95.6554,0 95.6554,0 95.6554,0 95.6554,0 95.6555,46.1554 95.6554,46.8244 96.3243,46.8243 95.6554,46.8243 95.6554,46.8243 95.6554,46.1554 95.6554,46.8244 95.6554,46.8243 96.3243,46.8243 95.6554,46.8243 95.6554,46.1554 95.6555,46.8244 95.6554,46.8243 95.6554,46.8243 96.3243,46.8243 95.6554,46.8244 95.6554,46.1554 95.6554,46.8243 95.6554,46.8243 95.6554,46.8243 95.6554,46.8244 96.3244,46.1554 95.6554,46.8243 95.6554,46.8243 95.6554,46.1554 95.6554,46.8243 95.6554,46.8244 96.3243,46.1554 95.6554,46.8243 95.6554,46.8243 95.6554,46.8243 95.6554,46.8244 95.6554,46.1554 96.3244,46.8243 95.6554,46.8243 95.6554,46.8244 95.6554,46.8243 95.6554,46.8243 95.6554,46.1554 96.3243,46.8243 95.6554,46.8244 94.9865,46.8243 95.6554,46.8243 95.6554,46.1554 95.6554,46.8243 95.6554,46.8244 96.3244,46.8243 95.6554,46.8243 95.6554,46.8243 95.6554,46.1554 95.6554,46.8244 95.6554,46.8243 96.3243,46.8243 95.6554,46.8243 95.6554,46.1554 95.6554,46.8244 95.6554,46.8243 95.6554,46.8243 96.3244,46.8243 95.6554,46.8244 95.6554,0 95.6554,0 95.6554,0 95.6554,0 96.3243,0" style="fill:none;stroke:#ff420e;stroke-width:53.51351547;stroke-linejoin:round"/><path id="path362" d="m 1001.3716,1870.9662 95.6554,0 95.6554,0 95.6554,0 95.6554,0 95.6555,50.1689 95.6554,50.169 96.3243,50.1689 95.6554,50.1689 95.6554,50.1689 95.6554,50.1689 95.6554,50.169 95.6554,50.1689 96.3243,50.1689 95.6554,50.1689 95.6554,50.1689 95.6555,50.169 95.6554,50.1689 95.6554,50.1689 96.3243,50.1689 95.6554,50.1689 95.6554,50.1689 95.6554,50.169 95.6554,50.1689 95.6554,50.1689 95.6554,50.1689 96.3244,50.1689 95.6554,49.5 95.6554,50.169 95.6554,50.1689 95.6554,50.1689 95.6554,50.1689 96.3243,50.1689 95.6554,50.169 95.6554,50.8378 95.6554,50.1689 95.6554,50.1689 95.6554,50.169 96.3244,50.1689 95.6554,50.1689 95.6554,50.1689 95.6554,50.1689 95.6554,50.1689 95.6554,50.169 96.3243,50.1689 95.6554,50.1689 94.9865,50.1689 95.6554,50.1689 95.6554,50.169 95.6554,50.1689 95.6554,50.1689 96.3244,50.1689 95.6554,50.1689 95.6554,50.169 95.6554,50.1689 95.6554,50.1689 95.6554,50.1689 96.3243,50.1689 95.6554,50.169 95.6554,50.1689 95.6554,50.1689 95.6554,50.1689 95.6554,50.1689 96.3244,50.1689 95.6554,50.8379 95.6554,0 95.6554,0 95.6554,0 95.6554,0 96.3243,0" style="fill:none;stroke:#ffd320;stroke-width:53.51351547;stroke-linejoin:round"/><path id="path364" d="m 1001.3716,1870.9662 95.6554,0 95.6554,0 95.6554,0 95.6554,0 95.6555,53.5135 95.6554,53.5136 96.3243,53.5135 95.6554,54.1824 95.6554,53.5135 95.6554,53.5135 95.6554,53.5135 95.6554,54.1825 96.3243,53.5135 95.6554,53.5135 95.6554,53.5135 95.6555,54.1824 95.6554,53.5136 95.6554,53.5135 96.3243,53.5135 95.6554,54.1824 95.6554,53.5135 95.6554,53.5135 95.6554,53.5136 95.6554,54.1824 95.6554,53.5135 96.3244,52.8446 95.6554,53.5135 95.6554,54.1824 95.6554,53.5136 95.6554,53.5135 95.6554,53.5135 96.3243,54.1824 95.6554,53.5135 95.6554,53.5135 95.6554,53.5136 95.6554,54.1824 95.6554,53.5135 96.3244,53.5135 95.6554,53.5135 95.6554,54.1825 95.6554,53.5135 95.6554,53.5135 95.6554,53.5135 96.3243,53.5135 95.6554,54.1825 94.9865,53.5135 95.6554,53.5135 95.6554,53.5135 95.6554,54.1824 95.6554,53.5135 96.3244,53.5136 95.6554,53.5135 95.6554,54.1824 95.6554,53.5135 95.6554,53.5135 95.6554,53.5135 96.3243,54.1825 95.6554,53.5135 95.6554,53.5135 95.6554,53.5135 95.6554,54.1824 95.6554,53.5136 96.3244,53.5135 95.6554,54.1824 95.6554,0 95.6554,0 95.6554,0 95.6554,0 96.3243,0" style="fill:none;stroke:#579d1c;stroke-width:53.51351547;stroke-linejoin:round"/><text id="text366" class="TextShape" style="font-size:8.02702713px"><tspan id="tspan368" class="TextParagraph" font-size="353" font-weight="400" style="font-weight:400;font-size:236.12837219px;font-family:'Liberation Sans'"><tspan id="tspan370" x="710.392" y="5172.081" class="TextPosition"><tspan id="tspan372" style="fill:#000;stroke:none">0</tspan></tspan></tspan></text><text id="text374" class="TextShape" style="font-size:8.02702713px"><tspan id="tspan376" class="TextParagraph" font-size="353" font-weight="400" style="font-weight:400;font-size:236.12837219px;font-family:'Liberation Sans'"><tspan id="tspan378" x="515.737" y="4527.912" class="TextPosition"><tspan id="tspan380" style="fill:#000;stroke:none">0,2</tspan></tspan></tspan></text><text id="text382" class="TextShape" style="font-size:8.02702713px"><tspan id="tspan384" class="TextParagraph" font-size="353" font-weight="400" style="font-weight:400;font-size:236.12837219px;font-family:'Liberation Sans'"><tspan id="tspan386" x="515.737" y="3883.743" class="TextPosition"><tspan id="tspan388" style="fill:#000;stroke:none">0,4</tspan></tspan></tspan></text><text id="text390" class="TextShape" style="font-size:8.02702713px"><tspan id="tspan392" class="TextParagraph" font-size="353" font-weight="400" style="font-weight:400;font-size:236.12837219px;font-family:'Liberation Sans'"><tspan id="tspan394" x="515.737" y="3239.574" class="TextPosition"><tspan id="tspan396" style="fill:#000;stroke:none">0,6</tspan></tspan></tspan></text><text id="text398" class="TextShape" style="font-size:8.02702713px"><tspan id="tspan400" class="TextParagraph" font-size="353" font-weight="400" style="font-weight:400;font-size:236.12837219px;font-family:'Liberation Sans'"><tspan id="tspan402" x="515.737" y="2594.737" class="TextPosition"><tspan id="tspan404" style="fill:#000;stroke:none">0,8</tspan></tspan></tspan></text><text id="text406" class="TextShape" style="font-size:8.02702713px"><tspan id="tspan408" class="TextParagraph" font-size="353" font-weight="400" style="font-weight:400;font-size:236.12837219px;font-family:'Liberation Sans'"><tspan id="tspan410" x="710.392" y="1951.236" class="TextPosition"><tspan id="tspan412" style="fill:#000;stroke:none">1</tspan></tspan></tspan></text><text id="text414" class="TextShape" style="font-size:8.02702713px"><tspan id="tspan416" class="TextParagraph" font-size="353" font-weight="400" style="font-weight:400;font-size:236.12837219px;font-family:'Liberation Sans'"><tspan id="tspan418" x="515.737" y="1306.399" class="TextPosition"><tspan id="tspan420" style="fill:#000;stroke:none">1,2</tspan></tspan></tspan></text><text id="text422" class="TextShape" style="font-size:8.02702713px"><tspan id="tspan424" class="TextParagraph" font-size="459" font-weight="400" style="font-weight:400;font-size:307.03378296px;font-family:'Liberation Sans'"><tspan id="tspan426" x="2828.858" y="569.25" class="TextPosition"><tspan id="tspan428" style="fill:#000;stroke:none">Linear distance - Varying rolloff factors</tspan></tspan></tspan></text><path id="path430" d="m 8113.9865,1844.8784 535.1352,0" style="fill:none;stroke:#004586;stroke-width:53.51351547;stroke-linejoin:round"/><path id="path432" d="m 9439.1149,1844.8784 535.1351,0" style="fill:none;stroke:#ff420e;stroke-width:53.51351547;stroke-linejoin:round"/><path id="path434" d="m 8113.9865,2178 535.1352,0" style="fill:none;stroke:#ffd320;stroke-width:53.51351547;stroke-linejoin:round"/><path id="path436" d="m 9439.1149,2178 535.1351,0" style="fill:none;stroke:#579d1c;stroke-width:53.51351547;stroke-linejoin:round"/><path id="path438" d="m 8113.9865,2511.1216 535.1352,0" style="fill:none;stroke:#7e0021;stroke-width:53.51351547;stroke-linejoin:round"/><path id="path440" d="m 9439.1149,2511.1216 535.1351,0" style="fill:none;stroke:#83caff;stroke-width:53.51351547;stroke-linejoin:round"/><path id="path442" d="m 8113.9865,2844.2433 535.1352,0" style="fill:none;stroke:#314004;stroke-width:53.51351547;stroke-linejoin:round"/><path id="path444" d="m 9439.1149,2844.2433 535.1351,0" style="fill:none;stroke:#aecf00;stroke-width:53.51351547;stroke-linejoin:round"/><path id="path446" d="m 8113.9865,3176.696 535.1352,0" style="fill:none;stroke:#4b1f6f;stroke-width:53.51351547;stroke-linejoin:round"/><path id="path448" d="m 9439.1149,3176.696 535.1351,0" style="fill:none;stroke:#ff950e;stroke-width:53.51351547;stroke-linejoin:round"/><path id="path450" d="m 8113.9865,3509.8176 535.1352,0" style="fill:none;stroke:#c5000b;stroke-width:53.51351547;stroke-linejoin:round"/><path id="path452" d="m 9439.1149,3509.8176 535.1351,0" style="fill:none;stroke:#0084d1;stroke-width:53.51351547;stroke-linejoin:round"/><path id="path454" d="m 8113.9865,3842.9392 535.1352,0" style="fill:none;stroke:#004586;stroke-width:53.51351547;stroke-linejoin:round"/><path id="path456" d="m 9439.1149,3842.9392 535.1351,0" style="fill:none;stroke:#ff420e;stroke-width:53.51351547;stroke-linejoin:round"/><path id="path458" d="m 8113.9865,4176.0608 535.1352,0" style="fill:none;stroke:#ffd320;stroke-width:53.51351547;stroke-linejoin:round"/><path id="path460" d="m 9439.1149,4176.0608 535.1351,0" style="fill:none;stroke:#579d1c;stroke-width:53.51351547;stroke-linejoin:round"/><text id="text462" class="TextShape" style="font-size:8.02702713px"><tspan id="tspan464" class="TextParagraph" font-size="353" font-weight="400" style="font-weight:400;font-size:236.12837219px;font-family:'Liberation Sans'"><tspan id="tspan466" x="8716.014" y="1925.149" class="TextPosition"><tspan id="tspan468" style="fill:#000;stroke:none">0,025</tspan></tspan></tspan></text><text id="text470" class="TextShape" style="font-size:8.02702713px"><tspan id="tspan472" class="TextParagraph" font-size="353" font-weight="400" style="font-weight:400;font-size:236.12837219px;font-family:'Liberation Sans'"><tspan id="tspan474" x="10041.142" y="1925.149" class="TextPosition"><tspan id="tspan476" style="fill:#000;stroke:none">0,09</tspan></tspan></tspan></text><text id="text478" class="TextShape" style="font-size:8.02702713px"><tspan id="tspan480" class="TextParagraph" font-size="353" font-weight="400" style="font-weight:400;font-size:236.12837219px;font-family:'Liberation Sans'"><tspan id="tspan482" x="8716.014" y="2258.27" class="TextPosition"><tspan id="tspan484" style="fill:#000;stroke:none">0,155</tspan></tspan></tspan></text><text id="text486" class="TextShape" style="font-size:8.02702713px"><tspan id="tspan488" class="TextParagraph" font-size="353" font-weight="400" style="font-weight:400;font-size:236.12837219px;font-family:'Liberation Sans'"><tspan id="tspan490" x="10041.142" y="2258.27" class="TextPosition"><tspan id="tspan492" style="fill:#000;stroke:none">0,22</tspan></tspan></tspan></text><text id="text494" class="TextShape" style="font-size:8.02702713px"><tspan id="tspan496" class="TextParagraph" font-size="353" font-weight="400" style="font-weight:400;font-size:236.12837219px;font-family:'Liberation Sans'"><tspan id="tspan498" x="8716.014" y="2591.392" class="TextPosition"><tspan id="tspan500" style="fill:#000;stroke:none">0,285</tspan></tspan></tspan></text><text id="text502" class="TextShape" style="font-size:8.02702713px"><tspan id="tspan504" class="TextParagraph" font-size="353" font-weight="400" style="font-weight:400;font-size:236.12837219px;font-family:'Liberation Sans'"><tspan id="tspan506" x="10041.142" y="2591.392" class="TextPosition"><tspan id="tspan508" style="fill:#000;stroke:none">0,35</tspan></tspan></tspan></text><text id="text510" class="TextShape" style="font-size:8.02702713px"><tspan id="tspan512" class="TextParagraph" font-size="353" font-weight="400" style="font-weight:400;font-size:236.12837219px;font-family:'Liberation Sans'"><tspan id="tspan514" x="8716.014" y="2924.513" class="TextPosition"><tspan id="tspan516" style="fill:#000;stroke:none">0,415</tspan></tspan></tspan></text><text id="text518" class="TextShape" style="font-size:8.02702713px"><tspan id="tspan520" class="TextParagraph" font-size="353" font-weight="400" style="font-weight:400;font-size:236.12837219px;font-family:'Liberation Sans'"><tspan id="tspan522" x="10041.142" y="2924.513" class="TextPosition"><tspan id="tspan524" style="fill:#000;stroke:none">0,48</tspan></tspan></tspan></text><text id="text526" class="TextShape" style="font-size:8.02702713px"><tspan id="tspan528" class="TextParagraph" font-size="353" font-weight="400" style="font-weight:400;font-size:236.12837219px;font-family:'Liberation Sans'"><tspan id="tspan530" x="8716.014" y="3256.966" class="TextPosition"><tspan id="tspan532" style="fill:#000;stroke:none">0,545</tspan></tspan></tspan></text><text id="text534" class="TextShape" style="font-size:8.02702713px"><tspan id="tspan536" class="TextParagraph" font-size="353" font-weight="400" style="font-weight:400;font-size:236.12837219px;font-family:'Liberation Sans'"><tspan id="tspan538" x="10041.142" y="3256.966" class="TextPosition"><tspan id="tspan540" style="fill:#000;stroke:none">0,61</tspan></tspan></tspan></text><text id="text542" class="TextShape" style="font-size:8.02702713px"><tspan id="tspan544" class="TextParagraph" font-size="353" font-weight="400" style="font-weight:400;font-size:236.12837219px;font-family:'Liberation Sans'"><tspan id="tspan546" x="8716.014" y="3590.088" class="TextPosition"><tspan id="tspan548" style="fill:#000;stroke:none">0,675</tspan></tspan></tspan></text><text id="text550" class="TextShape" style="font-size:8.02702713px"><tspan id="tspan552" class="TextParagraph" font-size="353" font-weight="400" style="font-weight:400;font-size:236.12837219px;font-family:'Liberation Sans'"><tspan id="tspan554" x="10041.142" y="3590.088" class="TextPosition"><tspan id="tspan556" style="fill:#000;stroke:none">0,74</tspan></tspan></tspan></text><text id="text558" class="TextShape" style="font-size:8.02702713px"><tspan id="tspan560" class="TextParagraph" font-size="353" font-weight="400" style="font-weight:400;font-size:236.12837219px;font-family:'Liberation Sans'"><tspan id="tspan562" x="8716.014" y="3923.209" class="TextPosition"><tspan id="tspan564" style="fill:#000;stroke:none">0,805</tspan></tspan></tspan></text><text id="text566" class="TextShape" style="font-size:8.02702713px"><tspan id="tspan568" class="TextParagraph" font-size="353" font-weight="400" style="font-weight:400;font-size:236.12837219px;font-family:'Liberation Sans'"><tspan id="tspan570" x="10041.142" y="3923.209" class="TextPosition"><tspan id="tspan572" style="fill:#000;stroke:none">0,87</tspan></tspan></tspan></text><text id="text574" class="TextShape" style="font-size:8.02702713px"><tspan id="tspan576" class="TextParagraph" font-size="353" font-weight="400" style="font-weight:400;font-size:236.12837219px;font-family:'Liberation Sans'"><tspan id="tspan578" x="8716.014" y="4256.331" class="TextPosition"><tspan id="tspan580" style="fill:#000;stroke:none">0,935</tspan></tspan></tspan></text><text id="text582" class="TextShape" style="font-size:8.02702713px"><tspan id="tspan584" class="TextParagraph" font-size="353" font-weight="400" style="font-weight:400;font-size:236.12837219px;font-family:'Liberation Sans'"><tspan id="tspan586" x="10041.142" y="4256.331" class="TextPosition"><tspan id="tspan588" style="fill:#000;stroke:none">1</tspan></tspan></tspan></text></svg>