<svg xmlns="http://www.w3.org/2000/svg" xmlns:svg="http://www.w3.org/2000/svg" id="svg4057" width="160mm" height="90mm" stroke-linejoin="round" stroke-width="28.222" version="1.1" viewBox="0 0 16000 9000" xml:space="preserve"><metadata id="metadata4673"/><path id="path4059" d="M 5356.478,6024.3682 0,6024.3682 0,-1 l 10712.287,0 0,6025.3682 -5355.809,0 z" style="fill:#fff;stroke:none"/><path id="path4061" d="m 4494.7546,5092.3411 -3492.4236,0 0,-3864.6989 6984.8473,0 0,3864.6989 -3492.4237,0 z" style="fill:none;stroke:#b3b3b3;stroke-width:18.89631462;stroke-linejoin:round"/><path id="path4063" d="m 7987.1783,5091.6715 -6984.8473,0" style="fill:none;stroke:#b3b3b3;stroke-width:18.89631462;stroke-linejoin:round"/><path id="path4065" d="m 7987.1783,4446.8855 -6984.8473,0" style="fill:none;stroke:#b3b3b3;stroke-width:18.89631462;stroke-linejoin:round"/><path id="path4067" d="m 7987.1783,3802.769 -6984.8473,0" style="fill:none;stroke:#b3b3b3;stroke-width:18.89631462;stroke-linejoin:round"/><path id="path4069" d="m 7987.1783,3158.6525 -6984.8473,0" style="fill:none;stroke:#b3b3b3;stroke-width:18.89631462;stroke-linejoin:round"/><path id="path4071" d="m 7987.1783,2515.2056 -6984.8473,0" style="fill:none;stroke:#b3b3b3;stroke-width:18.89631462;stroke-linejoin:round"/><path id="path4073" d="m 7987.1783,1871.0891 -6984.8473,0" style="fill:none;stroke:#b3b3b3;stroke-width:18.89631462;stroke-linejoin:round"/><path id="path4075" d="m 7987.1783,1226.303 -6984.8473,0" style="fill:none;stroke:#b3b3b3;stroke-width:18.89631462;stroke-linejoin:round"/><path id="path4077" d="m 1002.331,5192.1055 0,-100.434" style="fill:none;stroke:#b3b3b3;stroke-width:18.89631462;stroke-linejoin:round"/><path id="path4079" d="m 1002.331,5192.1055 0,-100.434" style="fill:none;stroke:#b3b3b3;stroke-width:18.89631462;stroke-linejoin:round"/><path id="path4081" d="m 1103.4345,5192.1055 0,-100.434" style="fill:none;stroke:#b3b3b3;stroke-width:18.89631462;stroke-linejoin:round"/><path id="path4083" d="m 1103.4345,5192.1055 0,-100.434" style="fill:none;stroke:#b3b3b3;stroke-width:18.89631462;stroke-linejoin:round"/><path id="path4085" d="m 1204.538,5192.1055 0,-100.434" style="fill:none;stroke:#b3b3b3;stroke-width:18.89631462;stroke-linejoin:round"/><path id="path4087" d="m 1204.538,5192.1055 0,-100.434" style="fill:none;stroke:#b3b3b3;stroke-width:18.89631462;stroke-linejoin:round"/><path id="path4089" d="m 1305.6415,5192.1055 0,-100.434" style="fill:none;stroke:#b3b3b3;stroke-width:18.89631462;stroke-linejoin:round"/><path id="path4091" d="m 1305.6415,5192.1055 0,-100.434" style="fill:none;stroke:#b3b3b3;stroke-width:18.89631462;stroke-linejoin:round"/><path id="path4093" d="m 1406.745,5192.1055 0,-100.434" style="fill:none;stroke:#b3b3b3;stroke-width:18.89631462;stroke-linejoin:round"/><path id="path4095" d="m 1406.745,5192.1055 0,-100.434" style="fill:none;stroke:#b3b3b3;stroke-width:18.89631462;stroke-linejoin:round"/><path id="path4097" d="m 1508.5181,5192.1055 0,-100.434" style="fill:none;stroke:#b3b3b3;stroke-width:18.89631462;stroke-linejoin:round"/><path id="path4099" d="m 1508.5181,5192.1055 0,-100.434" style="fill:none;stroke:#b3b3b3;stroke-width:18.89631462;stroke-linejoin:round"/><path id="path4101" d="m 1609.6217,5192.1055 0,-100.434" style="fill:none;stroke:#b3b3b3;stroke-width:18.89631462;stroke-linejoin:round"/><path id="path4103" d="m 1609.6217,5192.1055 0,-100.434" style="fill:none;stroke:#b3b3b3;stroke-width:18.89631462;stroke-linejoin:round"/><path id="path4105" d="m 1710.7252,5192.1055 0,-100.434" style="fill:none;stroke:#b3b3b3;stroke-width:18.89631462;stroke-linejoin:round"/><path id="path4107" d="m 1710.7252,5192.1055 0,-100.434" style="fill:none;stroke:#b3b3b3;stroke-width:18.89631462;stroke-linejoin:round"/><path id="path4109" d="m 1811.8287,5192.1055 0,-100.434" style="fill:none;stroke:#b3b3b3;stroke-width:18.89631462;stroke-linejoin:round"/><path id="path4111" d="m 1811.8287,5192.1055 0,-100.434" style="fill:none;stroke:#b3b3b3;stroke-width:18.89631462;stroke-linejoin:round"/><path id="path4113" d="m 1912.9322,5192.1055 0,-100.434" style="fill:none;stroke:#b3b3b3;stroke-width:18.89631462;stroke-linejoin:round"/><path id="path4115" d="m 1912.9322,5192.1055 0,-100.434" style="fill:none;stroke:#b3b3b3;stroke-width:18.89631462;stroke-linejoin:round"/><path id="path4117" d="m 2014.7053,5192.1055 0,-100.434" style="fill:none;stroke:#b3b3b3;stroke-width:18.89631462;stroke-linejoin:round"/><path id="path4119" d="m 2014.7053,5192.1055 0,-100.434" style="fill:none;stroke:#b3b3b3;stroke-width:18.89631462;stroke-linejoin:round"/><path id="path4121" d="m 2115.8088,5192.1055 0,-100.434" style="fill:none;stroke:#b3b3b3;stroke-width:18.89631462;stroke-linejoin:round"/><path id="path4123" d="m 2115.8088,5192.1055 0,-100.434" style="fill:none;stroke:#b3b3b3;stroke-width:18.89631462;stroke-linejoin:round"/><path id="path4125" d="m 2216.9123,5192.1055 0,-100.434" style="fill:none;stroke:#b3b3b3;stroke-width:18.89631462;stroke-linejoin:round"/><path id="path4127" d="m 2216.9123,5192.1055 0,-100.434" style="fill:none;stroke:#b3b3b3;stroke-width:18.89631462;stroke-linejoin:round"/><path id="path4129" d="m 2318.0159,5192.1055 0,-100.434" style="fill:none;stroke:#b3b3b3;stroke-width:18.89631462;stroke-linejoin:round"/><path id="path4131" d="m 2318.0159,5192.1055 0,-100.434" style="fill:none;stroke:#b3b3b3;stroke-width:18.89631462;stroke-linejoin:round"/><path id="path4133" d="m 2419.1194,5192.1055 0,-100.434" style="fill:none;stroke:#b3b3b3;stroke-width:18.89631462;stroke-linejoin:round"/><path id="path4135" d="m 2419.1194,5192.1055 0,-100.434" style="fill:none;stroke:#b3b3b3;stroke-width:18.89631462;stroke-linejoin:round"/><path id="path4137" d="m 2520.8925,5192.1055 0,-100.434" style="fill:none;stroke:#b3b3b3;stroke-width:18.89631462;stroke-linejoin:round"/><path id="path4139" d="m 2520.8925,5192.1055 0,-100.434" style="fill:none;stroke:#b3b3b3;stroke-width:18.89631462;stroke-linejoin:round"/><path id="path4141" d="m 2621.996,5192.1055 0,-100.434" style="fill:none;stroke:#b3b3b3;stroke-width:18.89631462;stroke-linejoin:round"/><path id="path4143" d="m 2621.996,5192.1055 0,-100.434" style="fill:none;stroke:#b3b3b3;stroke-width:18.89631462;stroke-linejoin:round"/><path id="path4145" d="m 2723.0995,5192.1055 0,-100.434" style="fill:none;stroke:#b3b3b3;stroke-width:18.89631462;stroke-linejoin:round"/><path id="path4147" d="m 2723.0995,5192.1055 0,-100.434" style="fill:none;stroke:#b3b3b3;stroke-width:18.89631462;stroke-linejoin:round"/><path id="path4149" d="m 2824.203,5192.1055 0,-100.434" style="fill:none;stroke:#b3b3b3;stroke-width:18.89631462;stroke-linejoin:round"/><path id="path4151" d="m 2824.203,5192.1055 0,-100.434" style="fill:none;stroke:#b3b3b3;stroke-width:18.89631462;stroke-linejoin:round"/><path id="path4153" d="m 2925.3066,5192.1055 0,-100.434" style="fill:none;stroke:#b3b3b3;stroke-width:18.89631462;stroke-linejoin:round"/><path id="path4155" d="m 2925.3066,5192.1055 0,-100.434" style="fill:none;stroke:#b3b3b3;stroke-width:18.89631462;stroke-linejoin:round"/><path id="path4157" d="m 3027.0797,5192.1055 0,-100.434" style="fill:none;stroke:#b3b3b3;stroke-width:18.89631462;stroke-linejoin:round"/><path id="path4159" d="m 3027.0797,5192.1055 0,-100.434" style="fill:none;stroke:#b3b3b3;stroke-width:18.89631462;stroke-linejoin:round"/><path id="path4161" d="m 3128.1832,5192.1055 0,-100.434" style="fill:none;stroke:#b3b3b3;stroke-width:18.89631462;stroke-linejoin:round"/><path id="path4163" d="m 3128.1832,5192.1055 0,-100.434" style="fill:none;stroke:#b3b3b3;stroke-width:18.89631462;stroke-linejoin:round"/><path id="path4165" d="m 3229.2867,5192.1055 0,-100.434" style="fill:none;stroke:#b3b3b3;stroke-width:18.89631462;stroke-linejoin:round"/><path id="path4167" d="m 3229.2867,5192.1055 0,-100.434" style="fill:none;stroke:#b3b3b3;stroke-width:18.89631462;stroke-linejoin:round"/><path id="path4169" d="m 3330.3902,5192.1055 0,-100.434" style="fill:none;stroke:#b3b3b3;stroke-width:18.89631462;stroke-linejoin:round"/><path id="path4171" d="m 3330.3902,5192.1055 0,-100.434" style="fill:none;stroke:#b3b3b3;stroke-width:18.89631462;stroke-linejoin:round"/><path id="path4173" d="m 3431.4937,5192.1055 0,-100.434" style="fill:none;stroke:#b3b3b3;stroke-width:18.89631462;stroke-linejoin:round"/><path id="path4175" d="m 3431.4937,5192.1055 0,-100.434" style="fill:none;stroke:#b3b3b3;stroke-width:18.89631462;stroke-linejoin:round"/><path id="path4177" d="m 3533.2668,5192.1055 0,-100.434" style="fill:none;stroke:#b3b3b3;stroke-width:18.89631462;stroke-linejoin:round"/><path id="path4179" d="m 3533.2668,5192.1055 0,-100.434" style="fill:none;stroke:#b3b3b3;stroke-width:18.89631462;stroke-linejoin:round"/><path id="path4181" d="m 3634.3704,5192.1055 0,-100.434" style="fill:none;stroke:#b3b3b3;stroke-width:18.89631462;stroke-linejoin:round"/><path id="path4183" d="m 3634.3704,5192.1055 0,-100.434" style="fill:none;stroke:#b3b3b3;stroke-width:18.89631462;stroke-linejoin:round"/><path id="path4185" d="m 3735.4739,5192.1055 0,-100.434" style="fill:none;stroke:#b3b3b3;stroke-width:18.89631462;stroke-linejoin:round"/><path id="path4187" d="m 3735.4739,5192.1055 0,-100.434" style="fill:none;stroke:#b3b3b3;stroke-width:18.89631462;stroke-linejoin:round"/><path id="path4189" d="m 3836.5774,5192.1055 0,-100.434" style="fill:none;stroke:#b3b3b3;stroke-width:18.89631462;stroke-linejoin:round"/><path id="path4191" d="m 3836.5774,5192.1055 0,-100.434" style="fill:none;stroke:#b3b3b3;stroke-width:18.89631462;stroke-linejoin:round"/><path id="path4193" d="m 3937.6809,5192.1055 0,-100.434" style="fill:none;stroke:#b3b3b3;stroke-width:18.89631462;stroke-linejoin:round"/><path id="path4195" d="m 3937.6809,5192.1055 0,-100.434" style="fill:none;stroke:#b3b3b3;stroke-width:18.89631462;stroke-linejoin:round"/><path id="path4197" d="m 4039.454,5192.1055 0,-100.434" style="fill:none;stroke:#b3b3b3;stroke-width:18.89631462;stroke-linejoin:round"/><path id="path4199" d="m 4039.454,5192.1055 0,-100.434" style="fill:none;stroke:#b3b3b3;stroke-width:18.89631462;stroke-linejoin:round"/><path id="path4201" d="m 4140.5575,5192.1055 0,-100.434" style="fill:none;stroke:#b3b3b3;stroke-width:18.89631462;stroke-linejoin:round"/><path id="path4203" d="m 4140.5575,5192.1055 0,-100.434" style="fill:none;stroke:#b3b3b3;stroke-width:18.89631462;stroke-linejoin:round"/><path id="path4205" d="m 4241.661,5192.1055 0,-100.434" style="fill:none;stroke:#b3b3b3;stroke-width:18.89631462;stroke-linejoin:round"/><path id="path4207" d="m 4241.661,5192.1055 0,-100.434" style="fill:none;stroke:#b3b3b3;stroke-width:18.89631462;stroke-linejoin:round"/><path id="path4209" d="m 4342.7646,5192.1055 0,-100.434" style="fill:none;stroke:#b3b3b3;stroke-width:18.89631462;stroke-linejoin:round"/><path id="path4211" d="m 4342.7646,5192.1055 0,-100.434" style="fill:none;stroke:#b3b3b3;stroke-width:18.89631462;stroke-linejoin:round"/><path id="path4213" d="m 4443.8681,5192.1055 0,-100.434" style="fill:none;stroke:#b3b3b3;stroke-width:18.89631462;stroke-linejoin:round"/><path id="path4215" d="m 4443.8681,5192.1055 0,-100.434" style="fill:none;stroke:#b3b3b3;stroke-width:18.89631462;stroke-linejoin:round"/><path id="path4217" d="m 4545.6412,5192.1055 0,-100.434" style="fill:none;stroke:#b3b3b3;stroke-width:18.89631462;stroke-linejoin:round"/><path id="path4219" d="m 4545.6412,5192.1055 0,-100.434" style="fill:none;stroke:#b3b3b3;stroke-width:18.89631462;stroke-linejoin:round"/><path id="path4221" d="m 4646.7447,5192.1055 0,-100.434" style="fill:none;stroke:#b3b3b3;stroke-width:18.89631462;stroke-linejoin:round"/><path id="path4223" d="m 4646.7447,5192.1055 0,-100.434" style="fill:none;stroke:#b3b3b3;stroke-width:18.89631462;stroke-linejoin:round"/><path id="path4225" d="m 4747.8482,5192.1055 0,-100.434" style="fill:none;stroke:#b3b3b3;stroke-width:18.89631462;stroke-linejoin:round"/><path id="path4227" d="m 4747.8482,5192.1055 0,-100.434" style="fill:none;stroke:#b3b3b3;stroke-width:18.89631462;stroke-linejoin:round"/><path id="path4229" d="m 4848.9517,5192.1055 0,-100.434" style="fill:none;stroke:#b3b3b3;stroke-width:18.89631462;stroke-linejoin:round"/><path id="path4231" d="m 4848.9517,5192.1055 0,-100.434" style="fill:none;stroke:#b3b3b3;stroke-width:18.89631462;stroke-linejoin:round"/><path id="path4233" d="m 4950.0553,5192.1055 0,-100.434" style="fill:none;stroke:#b3b3b3;stroke-width:18.89631462;stroke-linejoin:round"/><path id="path4235" d="m 4950.0553,5192.1055 0,-100.434" style="fill:none;stroke:#b3b3b3;stroke-width:18.89631462;stroke-linejoin:round"/><path id="path4237" d="m 5051.8284,5192.1055 0,-100.434" style="fill:none;stroke:#b3b3b3;stroke-width:18.89631462;stroke-linejoin:round"/><path id="path4239" d="m 5051.8284,5192.1055 0,-100.434" style="fill:none;stroke:#b3b3b3;stroke-width:18.89631462;stroke-linejoin:round"/><path id="path4241" d="m 5152.9319,5192.1055 0,-100.434" style="fill:none;stroke:#b3b3b3;stroke-width:18.89631462;stroke-linejoin:round"/><path id="path4243" d="m 5152.9319,5192.1055 0,-100.434" style="fill:none;stroke:#b3b3b3;stroke-width:18.89631462;stroke-linejoin:round"/><path id="path4245" d="m 5254.0354,5192.1055 0,-100.434" style="fill:none;stroke:#b3b3b3;stroke-width:18.89631462;stroke-linejoin:round"/><path id="path4247" d="m 5254.0354,5192.1055 0,-100.434" style="fill:none;stroke:#b3b3b3;stroke-width:18.89631462;stroke-linejoin:round"/><path id="path4249" d="m 5355.1389,5192.1055 0,-100.434" style="fill:none;stroke:#b3b3b3;stroke-width:18.89631462;stroke-linejoin:round"/><path id="path4251" d="m 5355.1389,5192.1055 0,-100.434" style="fill:none;stroke:#b3b3b3;stroke-width:18.89631462;stroke-linejoin:round"/><path id="path4253" d="m 5455.5729,5192.1055 0,-100.434" style="fill:none;stroke:#b3b3b3;stroke-width:18.89631462;stroke-linejoin:round"/><path id="path4255" d="m 5455.5729,5192.1055 0,-100.434" style="fill:none;stroke:#b3b3b3;stroke-width:18.89631462;stroke-linejoin:round"/><path id="path4257" d="m 5557.346,5192.1055 0,-100.434" style="fill:none;stroke:#b3b3b3;stroke-width:18.89631462;stroke-linejoin:round"/><path id="path4259" d="m 5557.346,5192.1055 0,-100.434" style="fill:none;stroke:#b3b3b3;stroke-width:18.89631462;stroke-linejoin:round"/><path id="path4261" d="m 5658.4495,5192.1055 0,-100.434" style="fill:none;stroke:#b3b3b3;stroke-width:18.89631462;stroke-linejoin:round"/><path id="path4263" d="m 5658.4495,5192.1055 0,-100.434" style="fill:none;stroke:#b3b3b3;stroke-width:18.89631462;stroke-linejoin:round"/><path id="path4265" d="m 5759.553,5192.1055 0,-100.434" style="fill:none;stroke:#b3b3b3;stroke-width:18.89631462;stroke-linejoin:round"/><path id="path4267" d="m 5759.553,5192.1055 0,-100.434" style="fill:none;stroke:#b3b3b3;stroke-width:18.89631462;stroke-linejoin:round"/><path id="path4269" d="m 5860.6565,5192.1055 0,-100.434" style="fill:none;stroke:#b3b3b3;stroke-width:18.89631462;stroke-linejoin:round"/><path id="path4271" d="m 5860.6565,5192.1055 0,-100.434" style="fill:none;stroke:#b3b3b3;stroke-width:18.89631462;stroke-linejoin:round"/><path id="path4273" d="m 5961.7601,5192.1055 0,-100.434" style="fill:none;stroke:#b3b3b3;stroke-width:18.89631462;stroke-linejoin:round"/><path id="path4275" d="m 5961.7601,5192.1055 0,-100.434" style="fill:none;stroke:#b3b3b3;stroke-width:18.89631462;stroke-linejoin:round"/><path id="path4277" d="m 6063.5331,5192.1055 0,-100.434" style="fill:none;stroke:#b3b3b3;stroke-width:18.89631462;stroke-linejoin:round"/><path id="path4279" d="m 6063.5331,5192.1055 0,-100.434" style="fill:none;stroke:#b3b3b3;stroke-width:18.89631462;stroke-linejoin:round"/><path id="path4281" d="m 6164.6367,5192.1055 0,-100.434" style="fill:none;stroke:#b3b3b3;stroke-width:18.89631462;stroke-linejoin:round"/><path id="path4283" d="m 6164.6367,5192.1055 0,-100.434" style="fill:none;stroke:#b3b3b3;stroke-width:18.89631462;stroke-linejoin:round"/><path id="path4285" d="m 6265.7402,5192.1055 0,-100.434" style="fill:none;stroke:#b3b3b3;stroke-width:18.89631462;stroke-linejoin:round"/><path id="path4287" d="m 6265.7402,5192.1055 0,-100.434" style="fill:none;stroke:#b3b3b3;stroke-width:18.89631462;stroke-linejoin:round"/><path id="path4289" d="m 6366.8437,5192.1055 0,-100.434" style="fill:none;stroke:#b3b3b3;stroke-width:18.89631462;stroke-linejoin:round"/><path id="path4291" d="m 6366.8437,5192.1055 0,-100.434" style="fill:none;stroke:#b3b3b3;stroke-width:18.89631462;stroke-linejoin:round"/><path id="path4293" d="m 6467.9472,5192.1055 0,-100.434" style="fill:none;stroke:#b3b3b3;stroke-width:18.89631462;stroke-linejoin:round"/><path id="path4295" d="m 6467.9472,5192.1055 0,-100.434" style="fill:none;stroke:#b3b3b3;stroke-width:18.89631462;stroke-linejoin:round"/><path id="path4297" d="m 6569.7203,5192.1055 0,-100.434" style="fill:none;stroke:#b3b3b3;stroke-width:18.89631462;stroke-linejoin:round"/><path id="path4299" d="m 6569.7203,5192.1055 0,-100.434" style="fill:none;stroke:#b3b3b3;stroke-width:18.89631462;stroke-linejoin:round"/><path id="path4301" d="m 6670.8238,5192.1055 0,-100.434" style="fill:none;stroke:#b3b3b3;stroke-width:18.89631462;stroke-linejoin:round"/><path id="path4303" d="m 6670.8238,5192.1055 0,-100.434" style="fill:none;stroke:#b3b3b3;stroke-width:18.89631462;stroke-linejoin:round"/><path id="path4305" d="m 6771.9274,5192.1055 0,-100.434" style="fill:none;stroke:#b3b3b3;stroke-width:18.89631462;stroke-linejoin:round"/><path id="path4307" d="m 6771.9274,5192.1055 0,-100.434" style="fill:none;stroke:#b3b3b3;stroke-width:18.89631462;stroke-linejoin:round"/><path id="path4309" d="m 6873.0309,5192.1055 0,-100.434" style="fill:none;stroke:#b3b3b3;stroke-width:18.89631462;stroke-linejoin:round"/><path id="path4311" d="m 6873.0309,5192.1055 0,-100.434" style="fill:none;stroke:#b3b3b3;stroke-width:18.89631462;stroke-linejoin:round"/><path id="path4313" d="m 6974.1344,5192.1055 0,-100.434" style="fill:none;stroke:#b3b3b3;stroke-width:18.89631462;stroke-linejoin:round"/><path id="path4315" d="m 6974.1344,5192.1055 0,-100.434" style="fill:none;stroke:#b3b3b3;stroke-width:18.89631462;stroke-linejoin:round"/><path id="path4317" d="m 7075.9075,5192.1055 0,-100.434" style="fill:none;stroke:#b3b3b3;stroke-width:18.89631462;stroke-linejoin:round"/><path id="path4319" d="m 7075.9075,5192.1055 0,-100.434" style="fill:none;stroke:#b3b3b3;stroke-width:18.89631462;stroke-linejoin:round"/><path id="path4321" d="m 7177.011,5192.1055 0,-100.434" style="fill:none;stroke:#b3b3b3;stroke-width:18.89631462;stroke-linejoin:round"/><path id="path4323" d="m 7177.011,5192.1055 0,-100.434" style="fill:none;stroke:#b3b3b3;stroke-width:18.89631462;stroke-linejoin:round"/><path id="path4325" d="m 7278.1145,5192.1055 0,-100.434" style="fill:none;stroke:#b3b3b3;stroke-width:18.89631462;stroke-linejoin:round"/><path id="path4327" d="m 7278.1145,5192.1055 0,-100.434" style="fill:none;stroke:#b3b3b3;stroke-width:18.89631462;stroke-linejoin:round"/><path id="path4329" d="m 7379.2181,5192.1055 0,-100.434" style="fill:none;stroke:#b3b3b3;stroke-width:18.89631462;stroke-linejoin:round"/><path id="path4331" d="m 7379.2181,5192.1055 0,-100.434" style="fill:none;stroke:#b3b3b3;stroke-width:18.89631462;stroke-linejoin:round"/><path id="path4333" d="m 7480.3216,5192.1055 0,-100.434" style="fill:none;stroke:#b3b3b3;stroke-width:18.89631462;stroke-linejoin:round"/><path id="path4335" d="m 7480.3216,5192.1055 0,-100.434" style="fill:none;stroke:#b3b3b3;stroke-width:18.89631462;stroke-linejoin:round"/><path id="path4337" d="m 7582.0947,5192.1055 0,-100.434" style="fill:none;stroke:#b3b3b3;stroke-width:18.89631462;stroke-linejoin:round"/><path id="path4339" d="m 7582.0947,5192.1055 0,-100.434" style="fill:none;stroke:#b3b3b3;stroke-width:18.89631462;stroke-linejoin:round"/><path id="path4341" d="m 7683.1982,5192.1055 0,-100.434" style="fill:none;stroke:#b3b3b3;stroke-width:18.89631462;stroke-linejoin:round"/><path id="path4343" d="m 7683.1982,5192.1055 0,-100.434" style="fill:none;stroke:#b3b3b3;stroke-width:18.89631462;stroke-linejoin:round"/><path id="path4345" d="m 7784.3017,5192.1055 0,-100.434" style="fill:none;stroke:#b3b3b3;stroke-width:18.89631462;stroke-linejoin:round"/><path id="path4347" d="m 7784.3017,5192.1055 0,-100.434" style="fill:none;stroke:#b3b3b3;stroke-width:18.89631462;stroke-linejoin:round"/><path id="path4349" d="m 7885.4052,5192.1055 0,-100.434" style="fill:none;stroke:#b3b3b3;stroke-width:18.89631462;stroke-linejoin:round"/><path id="path4351" d="m 7885.4052,5192.1055 0,-100.434" style="fill:none;stroke:#b3b3b3;stroke-width:18.89631462;stroke-linejoin:round"/><path id="path4353" d="m 7987.1783,5192.1055 0,-100.434" style="fill:none;stroke:#b3b3b3;stroke-width:18.89631462;stroke-linejoin:round"/><path id="path4355" d="m 7987.1783,5192.1055 0,-100.434" style="fill:none;stroke:#b3b3b3;stroke-width:18.89631462;stroke-linejoin:round"/><path id="path4357" d="m 1002.331,5091.6715 6984.8473,0" style="fill:none;stroke:#b3b3b3;stroke-width:18.89631462;stroke-linejoin:round"/><path id="path4359" d="m 901.89699,5091.6715 100.43401,0" style="fill:none;stroke:#b3b3b3;stroke-width:18.89631462;stroke-linejoin:round"/><path id="path4361" d="m 901.89699,5091.6715 100.43401,0" style="fill:none;stroke:#b3b3b3;stroke-width:18.89631462;stroke-linejoin:round"/><path id="path4363" d="m 901.89699,4446.8855 100.43401,0" style="fill:none;stroke:#b3b3b3;stroke-width:18.89631462;stroke-linejoin:round"/><path id="path4365" d="m 901.89699,4446.8855 100.43401,0" style="fill:none;stroke:#b3b3b3;stroke-width:18.89631462;stroke-linejoin:round"/><path id="path4367" d="m 901.89699,3802.769 100.43401,0" style="fill:none;stroke:#b3b3b3;stroke-width:18.89631462;stroke-linejoin:round"/><path id="path4369" d="m 901.89699,3802.769 100.43401,0" style="fill:none;stroke:#b3b3b3;stroke-width:18.89631462;stroke-linejoin:round"/><path id="path4371" d="m 901.89699,3158.6525 100.43401,0" style="fill:none;stroke:#b3b3b3;stroke-width:18.89631462;stroke-linejoin:round"/><path id="path4373" d="m 901.89699,3158.6525 100.43401,0" style="fill:none;stroke:#b3b3b3;stroke-width:18.89631462;stroke-linejoin:round"/><path id="path4375" d="m 901.89699,2515.2056 100.43401,0" style="fill:none;stroke:#b3b3b3;stroke-width:18.89631462;stroke-linejoin:round"/><path id="path4377" d="m 901.89699,2515.2056 100.43401,0" style="fill:none;stroke:#b3b3b3;stroke-width:18.89631462;stroke-linejoin:round"/><path id="path4379" d="m 901.89699,1871.0891 100.43401,0" style="fill:none;stroke:#b3b3b3;stroke-width:18.89631462;stroke-linejoin:round"/><path id="path4381" d="m 901.89699,1871.0891 100.43401,0" style="fill:none;stroke:#b3b3b3;stroke-width:18.89631462;stroke-linejoin:round"/><path id="path4383" d="m 901.89699,1226.303 100.43401,0" style="fill:none;stroke:#b3b3b3;stroke-width:18.89631462;stroke-linejoin:round"/><path id="path4385" d="m 901.89699,1226.303 100.43401,0" style="fill:none;stroke:#b3b3b3;stroke-width:18.89631462;stroke-linejoin:round"/><path id="path4387" d="m 1002.331,5091.6715 0,-3865.3685" style="fill:none;stroke:#b3b3b3;stroke-width:18.89631462;stroke-linejoin:round"/><path id="path4389" d="m 1002.331,1871.0891 101.1035,0 101.1035,0 101.1035,0 101.1035,0 101.7731,536.3173 101.1036,383.6578 101.1035,287.2411 101.1035,223.633 101.1035,178.7724 101.7731,0 101.1035,0 101.1035,0 101.1036,0 101.1035,0 101.7731,0 101.1035,0 101.1035,0 101.1035,0 101.1036,0 101.7731,0 101.1035,0 101.1035,0 101.1035,0 101.1035,0 101.7731,0 101.1036,0 101.1035,0 101.1035,0 101.1035,0 101.7731,0 101.1035,0 101.1035,0 101.1036,0 101.1035,0 101.7731,0 101.1035,0 101.1035,0 101.1035,0 101.1036,0 101.7731,0 101.1035,0 101.1035,0 101.1035,0 100.434,0 101.7731,0 101.1035,0 101.1035,0 101.1035,0 101.1036,0 101.773,0 101.1036,0 101.1035,0 101.1035,0 101.1035,0 101.7731,0 101.1035,0 101.1036,0 101.1035,0 101.1035,0 101.7731,0 101.1035,0 101.1035,0 101.1036,0 101.1035,0 101.7731,0 101.1035,0 101.1035,0 101.1035,0 101.7731,0" style="fill:none;stroke:#004586;stroke-width:53.56478119;stroke-linejoin:round"/><path id="path4391" d="m 1002.331,1871.0891 101.1035,0 101.1035,0 101.1035,0 101.1035,0 101.7731,536.3173 101.1036,383.6578 101.1035,287.2411 101.1035,223.633 101.1035,178.7724 101.7731,146.6336 101.1035,121.8599 101.1035,103.1122 101.1036,88.3819 101.1035,0 101.7731,0 101.1035,0 101.1035,0 101.1035,0 101.1036,0 101.7731,0 101.1035,0 101.1035,0 101.1035,0 101.1035,0 101.7731,0 101.1036,0 101.1035,0 101.1035,0 101.1035,0 101.7731,0 101.1035,0 101.1035,0 101.1036,0 101.1035,0 101.7731,0 101.1035,0 101.1035,0 101.1035,0 101.1036,0 101.7731,0 101.1035,0 101.1035,0 101.1035,0 100.434,0 101.7731,0 101.1035,0 101.1035,0 101.1035,0 101.1036,0 101.773,0 101.1036,0 101.1035,0 101.1035,0 101.1035,0 101.7731,0 101.1035,0 101.1036,0 101.1035,0 101.1035,0 101.7731,0 101.1035,0 101.1035,0 101.1036,0 101.1035,0 101.7731,0 101.1035,0 101.1035,0 101.1035,0 101.7731,0" style="fill:none;stroke:#ff420e;stroke-width:53.56478119;stroke-linejoin:round"/><path id="path4393" d="m 1002.331,1871.0891 101.1035,0 101.1035,0 101.1035,0 101.1035,0 101.7731,536.3173 101.1036,383.6578 101.1035,287.2411 101.1035,223.633 101.1035,178.7724 101.7731,146.6336 101.1035,121.8599 101.1035,103.1122 101.1036,88.3819 101.1035,76.9993 101.7731,66.956 101.1035,59.5908 101.1035,52.2257 101.1035,0 101.1036,0 101.7731,0 101.1035,0 101.1035,0 101.1035,0 101.1035,0 101.7731,0 101.1036,0 101.1035,0 101.1035,0 101.1035,0 101.7731,0 101.1035,0 101.1035,0 101.1036,0 101.1035,0 101.7731,0 101.1035,0 101.1035,0 101.1035,0 101.1036,0 101.7731,0 101.1035,0 101.1035,0 101.1035,0 100.434,0 101.7731,0 101.1035,0 101.1035,0 101.1035,0 101.1036,0 101.773,0 101.1036,0 101.1035,0 101.1035,0 101.1035,0 101.7731,0 101.1035,0 101.1036,0 101.1035,0 101.1035,0 101.7731,0 101.1035,0 101.1035,0 101.1036,0 101.1035,0 101.7731,0 101.1035,0 101.1035,0 101.1035,0 101.7731,0" style="fill:none;stroke:#ffd320;stroke-width:53.56478119;stroke-linejoin:round"/><path id="path4395" d="m 1002.331,1871.0891 101.1035,0 101.1035,0 101.1035,0 101.1035,0 101.7731,536.3173 101.1036,383.6578 101.1035,287.2411 101.1035,223.633 101.1035,178.7724 101.7731,146.6336 101.1035,121.8599 101.1035,103.1122 101.1036,88.3819 101.1035,76.9993 101.7731,66.956 101.1035,59.5908 101.1035,52.2257 101.1035,46.8692 101.1036,42.8518 101.7731,38.1649 101.1035,34.8171 101.1035,0 101.1035,0 101.1035,0 101.7731,0 101.1036,0 101.1035,0 101.1035,0 101.1035,0 101.7731,0 101.1035,0 101.1035,0 101.1036,0 101.1035,0 101.7731,0 101.1035,0 101.1035,0 101.1035,0 101.1036,0 101.7731,0 101.1035,0 101.1035,0 101.1035,0 100.434,0 101.7731,0 101.1035,0 101.1035,0 101.1035,0 101.1036,0 101.773,0 101.1036,0 101.1035,0 101.1035,0 101.1035,0 101.7731,0 101.1035,0 101.1036,0 101.1035,0 101.1035,0 101.7731,0 101.1035,0 101.1035,0 101.1036,0 101.1035,0 101.7731,0 101.1035,0 101.1035,0 101.1035,0 101.7731,0" style="fill:none;stroke:#579d1c;stroke-width:53.56478119;stroke-linejoin:round"/><path id="path4397" d="m 1002.331,1871.0891 101.1035,0 101.1035,0 101.1035,0 101.1035,0 101.7731,536.3173 101.1036,383.6578 101.1035,287.2411 101.1035,223.633 101.1035,178.7724 101.7731,146.6336 101.1035,121.8599 101.1035,103.1122 101.1036,88.3819 101.1035,76.9993 101.7731,66.956 101.1035,59.5908 101.1035,52.2257 101.1035,46.8692 101.1036,42.8518 101.7731,38.1649 101.1035,34.8171 101.1035,32.1389 101.1035,28.7911 101.1035,26.7824 101.7731,24.7737 101.1036,0 101.1035,0 101.1035,0 101.1035,0 101.7731,0 101.1035,0 101.1035,0 101.1036,0 101.1035,0 101.7731,0 101.1035,0 101.1035,0 101.1035,0 101.1036,0 101.7731,0 101.1035,0 101.1035,0 101.1035,0 100.434,0 101.7731,0 101.1035,0 101.1035,0 101.1035,0 101.1036,0 101.773,0 101.1036,0 101.1035,0 101.1035,0 101.1035,0 101.7731,0 101.1035,0 101.1036,0 101.1035,0 101.1035,0 101.7731,0 101.1035,0 101.1035,0 101.1036,0 101.1035,0 101.7731,0 101.1035,0 101.1035,0 101.1035,0 101.7731,0" style="fill:none;stroke:#7e0021;stroke-width:53.56478119;stroke-linejoin:round"/><path id="path4399" d="m 1002.331,1871.0891 101.1035,0 101.1035,0 101.1035,0 101.1035,0 101.7731,536.3173 101.1036,383.6578 101.1035,287.2411 101.1035,223.633 101.1035,178.7724 101.7731,146.6336 101.1035,121.8599 101.1035,103.1122 101.1036,88.3819 101.1035,76.9993 101.7731,66.956 101.1035,59.5908 101.1035,52.2257 101.1035,46.8692 101.1036,42.8518 101.7731,38.1649 101.1035,34.8171 101.1035,32.1389 101.1035,28.7911 101.1035,26.7824 101.7731,24.7737 101.1036,23.4346 101.1035,20.7563 101.1035,20.0868 101.1035,18.7477 101.7731,0 101.1035,0 101.1035,0 101.1036,0 101.1035,0 101.7731,0 101.1035,0 101.1035,0 101.1035,0 101.1036,0 101.7731,0 101.1035,0 101.1035,0 101.1035,0 100.434,0 101.7731,0 101.1035,0 101.1035,0 101.1035,0 101.1036,0 101.773,0 101.1036,0 101.1035,0 101.1035,0 101.1035,0 101.7731,0 101.1035,0 101.1036,0 101.1035,0 101.1035,0 101.7731,0 101.1035,0 101.1035,0 101.1036,0 101.1035,0 101.7731,0 101.1035,0 101.1035,0 101.1035,0 101.7731,0" style="fill:none;stroke:#83caff;stroke-width:53.56478119;stroke-linejoin:round"/><path id="path4401" d="m 1002.331,1871.0891 101.1035,0 101.1035,0 101.1035,0 101.1035,0 101.7731,536.3173 101.1036,383.6578 101.1035,287.2411 101.1035,223.633 101.1035,178.7724 101.7731,146.6336 101.1035,121.8599 101.1035,103.1122 101.1036,88.3819 101.1035,76.9993 101.7731,66.956 101.1035,59.5908 101.1035,52.2257 101.1035,46.8692 101.1036,42.8518 101.7731,38.1649 101.1035,34.8171 101.1035,32.1389 101.1035,28.7911 101.1035,26.7824 101.7731,24.7737 101.1036,23.4346 101.1035,20.7563 101.1035,20.0868 101.1035,18.7477 101.7731,17.4085 101.1035,16.0695 101.1035,15.3998 101.1036,14.0608 101.1035,0 101.7731,0 101.1035,0 101.1035,0 101.1035,0 101.1036,0 101.7731,0 101.1035,0 101.1035,0 101.1035,0 100.434,0 101.7731,0 101.1035,0 101.1035,0 101.1035,0 101.1036,0 101.773,0 101.1036,0 101.1035,0 101.1035,0 101.1035,0 101.7731,0 101.1035,0 101.1036,0 101.1035,0 101.1035,0 101.7731,0 101.1035,0 101.1035,0 101.1036,0 101.1035,0 101.7731,0 101.1035,0 101.1035,0 101.1035,0 101.7731,0" style="fill:none;stroke:#314004;stroke-width:53.56478119;stroke-linejoin:round"/><path id="path4403" d="m 1002.331,1871.0891 101.1035,0 101.1035,0 101.1035,0 101.1035,0 101.7731,536.3173 101.1036,383.6578 101.1035,287.2411 101.1035,223.633 101.1035,178.7724 101.7731,146.6336 101.1035,121.8599 101.1035,103.1122 101.1036,88.3819 101.1035,76.9993 101.7731,66.956 101.1035,59.5908 101.1035,52.2257 101.1035,46.8692 101.1036,42.8518 101.7731,38.1649 101.1035,34.8171 101.1035,32.1389 101.1035,28.7911 101.1035,26.7824 101.7731,24.7737 101.1036,23.4346 101.1035,20.7563 101.1035,20.0868 101.1035,18.7477 101.7731,17.4085 101.1035,16.0695 101.1035,15.3998 101.1036,14.0608 101.1035,13.3912 101.7731,12.7216 101.1035,12.0521 101.1035,11.3825 101.1035,0 101.1036,0 101.7731,0 101.1035,0 101.1035,0 101.1035,0 100.434,0 101.7731,0 101.1035,0 101.1035,0 101.1035,0 101.1036,0 101.773,0 101.1036,0 101.1035,0 101.1035,0 101.1035,0 101.7731,0 101.1035,0 101.1036,0 101.1035,0 101.1035,0 101.7731,0 101.1035,0 101.1035,0 101.1036,0 101.1035,0 101.7731,0 101.1035,0 101.1035,0 101.1035,0 101.7731,0" style="fill:none;stroke:#aecf00;stroke-width:53.56478119;stroke-linejoin:round"/><path id="path4405" d="m 1002.331,1871.0891 101.1035,0 101.1035,0 101.1035,0 101.1035,0 101.7731,536.3173 101.1036,383.6578 101.1035,287.2411 101.1035,223.633 101.1035,178.7724 101.7731,146.6336 101.1035,121.8599 101.1035,103.1122 101.1036,88.3819 101.1035,76.9993 101.7731,66.956 101.1035,59.5908 101.1035,52.2257 101.1035,46.8692 101.1036,42.8518 101.7731,38.1649 101.1035,34.8171 101.1035,32.1389 101.1035,28.7911 101.1035,26.7824 101.7731,24.7737 101.1036,23.4346 101.1035,20.7563 101.1035,20.0868 101.1035,18.7477 101.7731,17.4085 101.1035,16.0695 101.1035,15.3998 101.1036,14.0608 101.1035,13.3912 101.7731,12.7216 101.1035,12.0521 101.1035,11.3825 101.1035,11.3825 101.1036,10.0434 101.7731,10.0434 101.1035,9.3739 101.1035,0 101.1035,0 100.434,0 101.7731,0 101.1035,0 101.1035,0 101.1035,0 101.1036,0 101.773,0 101.1036,0 101.1035,0 101.1035,0 101.1035,0 101.7731,0 101.1035,0 101.1036,0 101.1035,0 101.1035,0 101.7731,0 101.1035,0 101.1035,0 101.1036,0 101.1035,0 101.7731,0 101.1035,0 101.1035,0 101.1035,0 101.7731,0" style="fill:none;stroke:#4b1f6f;stroke-width:53.56478119;stroke-linejoin:round"/><path id="path4407" d="m 1002.331,1871.0891 101.1035,0 101.1035,0 101.1035,0 101.1035,0 101.7731,536.3173 101.1036,383.6578 101.1035,287.2411 101.1035,223.633 101.1035,178.7724 101.7731,146.6336 101.1035,121.8599 101.1035,103.1122 101.1036,88.3819 101.1035,76.9993 101.7731,66.956 101.1035,59.5908 101.1035,52.2257 101.1035,46.8692 101.1036,42.8518 101.7731,38.1649 101.1035,34.8171 101.1035,32.1389 101.1035,28.7911 101.1035,26.7824 101.7731,24.7737 101.1036,23.4346 101.1035,20.7563 101.1035,20.0868 101.1035,18.7477 101.7731,17.4085 101.1035,16.0695 101.1035,15.3998 101.1036,14.0608 101.1035,13.3912 101.7731,12.7216 101.1035,12.0521 101.1035,11.3825 101.1035,11.3825 101.1036,10.0434 101.7731,10.0434 101.1035,9.3739 101.1035,8.7042 101.1035,8.7043 100.434,8.0347 101.7731,8.0347 101.1035,0 101.1035,0 101.1035,0 101.1036,0 101.773,0 101.1036,0 101.1035,0 101.1035,0 101.1035,0 101.7731,0 101.1035,0 101.1036,0 101.1035,0 101.1035,0 101.7731,0 101.1035,0 101.1035,0 101.1036,0 101.1035,0 101.7731,0 101.1035,0 101.1035,0 101.1035,0 101.7731,0" style="fill:none;stroke:#ff950e;stroke-width:53.56478119;stroke-linejoin:round"/><path id="path4409" d="m 1002.331,1871.0891 101.1035,0 101.1035,0 101.1035,0 101.1035,0 101.7731,536.3173 101.1036,383.6578 101.1035,287.2411 101.1035,223.633 101.1035,178.7724 101.7731,146.6336 101.1035,121.8599 101.1035,103.1122 101.1036,88.3819 101.1035,76.9993 101.7731,66.956 101.1035,59.5908 101.1035,52.2257 101.1035,46.8692 101.1036,42.8518 101.7731,38.1649 101.1035,34.8171 101.1035,32.1389 101.1035,28.7911 101.1035,26.7824 101.7731,24.7737 101.1036,23.4346 101.1035,20.7563 101.1035,20.0868 101.1035,18.7477 101.7731,17.4085 101.1035,16.0695 101.1035,15.3998 101.1036,14.0608 101.1035,13.3912 101.7731,12.7216 101.1035,12.0521 101.1035,11.3825 101.1035,11.3825 101.1036,10.0434 101.7731,10.0434 101.1035,9.3739 101.1035,8.7042 101.1035,8.7043 100.434,8.0347 101.7731,8.0347 101.1035,7.3652 101.1035,6.6956 101.1035,7.3652 101.1036,6.026 101.773,0 101.1036,0 101.1035,0 101.1035,0 101.1035,0 101.7731,0 101.1035,0 101.1036,0 101.1035,0 101.1035,0 101.7731,0 101.1035,0 101.1035,0 101.1036,0 101.1035,0 101.7731,0 101.1035,0 101.1035,0 101.1035,0 101.7731,0" style="fill:none;stroke:#c5000b;stroke-width:53.56478119;stroke-linejoin:round"/><path id="path4411" d="m 1002.331,1871.0891 101.1035,0 101.1035,0 101.1035,0 101.1035,0 101.7731,536.3173 101.1036,383.6578 101.1035,287.2411 101.1035,223.633 101.1035,178.7724 101.7731,146.6336 101.1035,121.8599 101.1035,103.1122 101.1036,88.3819 101.1035,76.9993 101.7731,66.956 101.1035,59.5908 101.1035,52.2257 101.1035,46.8692 101.1036,42.8518 101.7731,38.1649 101.1035,34.8171 101.1035,32.1389 101.1035,28.7911 101.1035,26.7824 101.7731,24.7737 101.1036,23.4346 101.1035,20.7563 101.1035,20.0868 101.1035,18.7477 101.7731,17.4085 101.1035,16.0695 101.1035,15.3998 101.1036,14.0608 101.1035,13.3912 101.7731,12.7216 101.1035,12.0521 101.1035,11.3825 101.1035,11.3825 101.1036,10.0434 101.7731,10.0434 101.1035,9.3739 101.1035,8.7042 101.1035,8.7043 100.434,8.0347 101.7731,8.0347 101.1035,7.3652 101.1035,6.6956 101.1035,7.3652 101.1036,6.026 101.773,6.6956 101.1036,6.026 101.1035,6.0261 101.1035,5.3564 101.1035,0 101.7731,0 101.1035,0 101.1036,0 101.1035,0 101.1035,0 101.7731,0 101.1035,0 101.1035,0 101.1036,0 101.1035,0 101.7731,0 101.1035,0 101.1035,0 101.1035,0 101.7731,0" style="fill:none;stroke:#0084d1;stroke-width:53.56478119;stroke-linejoin:round"/><path id="path4413" d="m 1002.331,1871.0891 101.1035,0 101.1035,0 101.1035,0 101.1035,0 101.7731,536.3173 101.1036,383.6578 101.1035,287.2411 101.1035,223.633 101.1035,178.7724 101.7731,146.6336 101.1035,121.8599 101.1035,103.1122 101.1036,88.3819 101.1035,76.9993 101.7731,66.956 101.1035,59.5908 101.1035,52.2257 101.1035,46.8692 101.1036,42.8518 101.7731,38.1649 101.1035,34.8171 101.1035,32.1389 101.1035,28.7911 101.1035,26.7824 101.7731,24.7737 101.1036,23.4346 101.1035,20.7563 101.1035,20.0868 101.1035,18.7477 101.7731,17.4085 101.1035,16.0695 101.1035,15.3998 101.1036,14.0608 101.1035,13.3912 101.7731,12.7216 101.1035,12.0521 101.1035,11.3825 101.1035,11.3825 101.1036,10.0434 101.7731,10.0434 101.1035,9.3739 101.1035,8.7042 101.1035,8.7043 100.434,8.0347 101.7731,8.0347 101.1035,7.3652 101.1035,6.6956 101.1035,7.3652 101.1036,6.026 101.773,6.6956 101.1036,6.026 101.1035,6.0261 101.1035,5.3564 101.1035,5.3565 101.7731,5.3565 101.1035,4.6869 101.1036,5.3565 101.1035,0 101.1035,0 101.7731,0 101.1035,0 101.1035,0 101.1036,0 101.1035,0 101.7731,0 101.1035,0 101.1035,0 101.1035,0 101.7731,0" style="fill:none;stroke:#004586;stroke-width:53.56478119;stroke-linejoin:round"/><path id="path4415" d="m 1002.331,1871.0891 101.1035,0 101.1035,0 101.1035,0 101.1035,0 101.7731,536.3173 101.1036,383.6578 101.1035,287.2411 101.1035,223.633 101.1035,178.7724 101.7731,146.6336 101.1035,121.8599 101.1035,103.1122 101.1036,88.3819 101.1035,76.9993 101.7731,66.956 101.1035,59.5908 101.1035,52.2257 101.1035,46.8692 101.1036,42.8518 101.7731,38.1649 101.1035,34.8171 101.1035,32.1389 101.1035,28.7911 101.1035,26.7824 101.7731,24.7737 101.1036,23.4346 101.1035,20.7563 101.1035,20.0868 101.1035,18.7477 101.7731,17.4085 101.1035,16.0695 101.1035,15.3998 101.1036,14.0608 101.1035,13.3912 101.7731,12.7216 101.1035,12.0521 101.1035,11.3825 101.1035,11.3825 101.1036,10.0434 101.7731,10.0434 101.1035,9.3739 101.1035,8.7042 101.1035,8.7043 100.434,8.0347 101.7731,8.0347 101.1035,7.3652 101.1035,6.6956 101.1035,7.3652 101.1036,6.026 101.773,6.6956 101.1036,6.026 101.1035,6.0261 101.1035,5.3564 101.1035,5.3565 101.7731,5.3565 101.1035,4.6869 101.1036,5.3565 101.1035,4.6869 101.1035,4.6869 101.7731,4.0174 101.1035,4.6869 101.1035,0 101.1036,0 101.1035,0 101.7731,0 101.1035,0 101.1035,0 101.1035,0 101.7731,0" style="fill:none;stroke:#ff420e;stroke-width:53.56478119;stroke-linejoin:round"/><path id="path4417" d="m 1002.331,1871.0891 101.1035,0 101.1035,0 101.1035,0 101.1035,0 101.7731,536.3173 101.1036,383.6578 101.1035,287.2411 101.1035,223.633 101.1035,178.7724 101.7731,146.6336 101.1035,121.8599 101.1035,103.1122 101.1036,88.3819 101.1035,76.9993 101.7731,66.956 101.1035,59.5908 101.1035,52.2257 101.1035,46.8692 101.1036,42.8518 101.7731,38.1649 101.1035,34.8171 101.1035,32.1389 101.1035,28.7911 101.1035,26.7824 101.7731,24.7737 101.1036,23.4346 101.1035,20.7563 101.1035,20.0868 101.1035,18.7477 101.7731,17.4085 101.1035,16.0695 101.1035,15.3998 101.1036,14.0608 101.1035,13.3912 101.7731,12.7216 101.1035,12.0521 101.1035,11.3825 101.1035,11.3825 101.1036,10.0434 101.7731,10.0434 101.1035,9.3739 101.1035,8.7042 101.1035,8.7043 100.434,8.0347 101.7731,8.0347 101.1035,7.3652 101.1035,6.6956 101.1035,7.3652 101.1036,6.026 101.773,6.6956 101.1036,6.026 101.1035,6.0261 101.1035,5.3564 101.1035,5.3565 101.7731,5.3565 101.1035,4.6869 101.1036,5.3565 101.1035,4.6869 101.1035,4.6869 101.7731,4.0174 101.1035,4.6869 101.1035,4.0174 101.1036,4.0173 101.1035,3.3478 101.7731,4.0174 101.1035,0 101.1035,0 101.1035,0 101.7731,0" style="fill:none;stroke:#ffd320;stroke-width:53.56478119;stroke-linejoin:round"/><path id="path4419" d="m 1002.331,1871.0891 101.1035,0 101.1035,0 101.1035,0 101.1035,0 101.7731,536.3173 101.1036,383.6578 101.1035,287.2411 101.1035,223.633 101.1035,178.7724 101.7731,146.6336 101.1035,121.8599 101.1035,103.1122 101.1036,88.3819 101.1035,76.9993 101.7731,66.956 101.1035,59.5908 101.1035,52.2257 101.1035,46.8692 101.1036,42.8518 101.7731,38.1649 101.1035,34.8171 101.1035,32.1389 101.1035,28.7911 101.1035,26.7824 101.7731,24.7737 101.1036,23.4346 101.1035,20.7563 101.1035,20.0868 101.1035,18.7477 101.7731,17.4085 101.1035,16.0695 101.1035,15.3998 101.1036,14.0608 101.1035,13.3912 101.7731,12.7216 101.1035,12.0521 101.1035,11.3825 101.1035,11.3825 101.1036,10.0434 101.7731,10.0434 101.1035,9.3739 101.1035,8.7042 101.1035,8.7043 100.434,8.0347 101.7731,8.0347 101.1035,7.3652 101.1035,6.6956 101.1035,7.3652 101.1036,6.026 101.773,6.6956 101.1036,6.026 101.1035,6.0261 101.1035,5.3564 101.1035,5.3565 101.7731,5.3565 101.1035,4.6869 101.1036,5.3565 101.1035,4.6869 101.1035,4.6869 101.7731,4.0174 101.1035,4.6869 101.1035,4.0174 101.1036,4.0173 101.1035,3.3478 101.7731,4.0174 101.1035,3.3478 101.1035,4.0173 101.1035,3.3478 101.7731,3.3478" style="fill:none;stroke:#579d1c;stroke-width:53.56478119;stroke-linejoin:round"/><path id="path4421" d="m 1002.331,1871.0891 101.1035,0 101.1035,0 101.1035,0 101.1035,0 101.7731,536.3173 101.1036,383.6578 101.1035,287.2411 101.1035,223.633 101.1035,178.7724 101.7731,146.6336 101.1035,121.8599 101.1035,103.1122 101.1036,88.3819 101.1035,76.9993 101.7731,66.956 101.1035,59.5908 101.1035,52.2257 101.1035,46.8692 101.1036,42.8518 101.7731,38.1649 101.1035,34.8171 101.1035,32.1389 101.1035,28.7911 101.1035,26.7824 101.7731,24.7737 101.1036,23.4346 101.1035,20.7563 101.1035,20.0868 101.1035,18.7477 101.7731,17.4085 101.1035,16.0695 101.1035,15.3998 101.1036,14.0608 101.1035,13.3912 101.7731,12.7216 101.1035,12.0521 101.1035,11.3825 101.1035,11.3825 101.1036,10.0434 101.7731,10.0434 101.1035,9.3739 101.1035,8.7042 101.1035,8.7043 100.434,8.0347 101.7731,8.0347 101.1035,7.3652 101.1035,6.6956 101.1035,7.3652 101.1036,6.026 101.773,6.6956 101.1036,6.026 101.1035,6.0261 101.1035,5.3564 101.1035,5.3565 101.7731,5.3565 101.1035,4.6869 101.1036,5.3565 101.1035,4.6869 101.1035,4.6869 101.7731,4.0174 101.1035,4.6869 101.1035,4.0174 101.1036,4.0173 101.1035,3.3478 101.7731,4.0174 101.1035,3.3478 101.1035,4.0173 101.1035,3.3478 101.7731,3.3478" style="fill:none;stroke:#7e0021;stroke-width:53.56478119;stroke-linejoin:round"/><path id="path4423" d="m 1002.331,1871.0891 101.1035,0 101.1035,0 101.1035,0 101.1035,0 101.7731,536.3173 101.1036,383.6578 101.1035,287.2411 101.1035,223.633 101.1035,178.7724 101.7731,146.6336 101.1035,121.8599 101.1035,103.1122 101.1036,88.3819 101.1035,76.9993 101.7731,66.956 101.1035,59.5908 101.1035,52.2257 101.1035,46.8692 101.1036,42.8518 101.7731,38.1649 101.1035,34.8171 101.1035,32.1389 101.1035,28.7911 101.1035,26.7824 101.7731,24.7737 101.1036,23.4346 101.1035,20.7563 101.1035,20.0868 101.1035,18.7477 101.7731,17.4085 101.1035,16.0695 101.1035,15.3998 101.1036,14.0608 101.1035,13.3912 101.7731,12.7216 101.1035,12.0521 101.1035,11.3825 101.1035,11.3825 101.1036,10.0434 101.7731,10.0434 101.1035,9.3739 101.1035,8.7042 101.1035,8.7043 100.434,8.0347 101.7731,8.0347 101.1035,7.3652 101.1035,6.6956 101.1035,7.3652 101.1036,6.026 101.773,6.6956 101.1036,6.026 101.1035,6.0261 101.1035,5.3564 101.1035,5.3565 101.7731,5.3565 101.1035,4.6869 101.1036,5.3565 101.1035,4.6869 101.1035,4.6869 101.7731,4.0174 101.1035,4.6869 101.1035,4.0174 101.1036,4.0173 101.1035,3.3478 101.7731,4.0174 101.1035,3.3478 101.1035,4.0173 101.1035,3.3478 101.7731,3.3478" style="fill:none;stroke:#83caff;stroke-width:53.56478119;stroke-linejoin:round"/><text id="text4425" y="-.33" class="TextShape" style="font-size:8.03471661px"><tspan id="tspan4427" class="TextParagraph" font-size="353" font-weight="400" style="font-weight:400;font-size:236.354599px;font-family:'Liberation Sans'"><tspan id="tspan4429" x="711.072" y="5172.688" class="TextPosition"><tspan id="tspan4431" style="fill:#000;stroke:none">0</tspan></tspan></tspan></text><text id="text4433" y="-.33" class="TextShape" style="font-size:8.03471661px"><tspan id="tspan4435" class="TextParagraph" font-size="353" font-weight="400" style="font-weight:400;font-size:236.354599px;font-family:'Liberation Sans'"><tspan id="tspan4437" x="516.231" y="4527.902" class="TextPosition"><tspan id="tspan4439" style="fill:#000;stroke:none">0,2</tspan></tspan></tspan></text><text id="text4441" y="-.33" class="TextShape" style="font-size:8.03471661px"><tspan id="tspan4443" class="TextParagraph" font-size="353" font-weight="400" style="font-weight:400;font-size:236.354599px;font-family:'Liberation Sans'"><tspan id="tspan4445" x="516.231" y="3883.786" class="TextPosition"><tspan id="tspan4447" style="fill:#000;stroke:none">0,4</tspan></tspan></tspan></text><text id="text4449" y="-.33" class="TextShape" style="font-size:8.03471661px"><tspan id="tspan4451" class="TextParagraph" font-size="353" font-weight="400" style="font-weight:400;font-size:236.354599px;font-family:'Liberation Sans'"><tspan id="tspan4453" x="516.231" y="3239.669" class="TextPosition"><tspan id="tspan4455" style="fill:#000;stroke:none">0,6</tspan></tspan></tspan></text><text id="text4457" y="-.33" class="TextShape" style="font-size:8.03471661px"><tspan id="tspan4459" class="TextParagraph" font-size="353" font-weight="400" style="font-weight:400;font-size:236.354599px;font-family:'Liberation Sans'"><tspan id="tspan4461" x="516.231" y="2595.553" class="TextPosition"><tspan id="tspan4463" style="fill:#000;stroke:none">0,8</tspan></tspan></tspan></text><text id="text4465" y="-.33" class="TextShape" style="font-size:8.03471661px"><tspan id="tspan4467" class="TextParagraph" font-size="353" font-weight="400" style="font-weight:400;font-size:236.354599px;font-family:'Liberation Sans'"><tspan id="tspan4469" x="711.072" y="1951.436" class="TextPosition"><tspan id="tspan4471" style="fill:#000;stroke:none">1</tspan></tspan></tspan></text><text id="text4473" y="-.33" class="TextShape" style="font-size:8.03471661px"><tspan id="tspan4475" class="TextParagraph" font-size="353" font-weight="400" style="font-weight:400;font-size:236.354599px;font-family:'Liberation Sans'"><tspan id="tspan4477" x="516.231" y="1306.65" class="TextPosition"><tspan id="tspan4479" style="fill:#000;stroke:none">1,2</tspan></tspan></tspan></text><text id="text4481" y="-.33" class="TextShape" style="font-size:8.03471661px"><tspan id="tspan4483" class="TextParagraph" font-size="459" font-weight="400" style="font-weight:400;font-size:307.32794189px;font-family:'Liberation Sans'"><tspan id="tspan4485" x="2504.154" y="568.795" class="TextPosition"><tspan id="tspan4487" style="fill:#000;stroke:none">Exponential distance - Varying max distance</tspan></tspan></tspan></text><path id="path4489" d="m 8493.3655,1677.5863 535.6478,0" style="fill:none;stroke:#004586;stroke-width:53.56478119;stroke-linejoin:round"/><path id="path4491" d="m 9571.3567,1677.5863 535.6483,0" style="fill:none;stroke:#ff420e;stroke-width:53.56478119;stroke-linejoin:round"/><path id="path4493" d="m 8493.3655,2011.0271 535.6478,0" style="fill:none;stroke:#ffd320;stroke-width:53.56478119;stroke-linejoin:round"/><path id="path4495" d="m 9571.3567,2011.0271 535.6483,0" style="fill:none;stroke:#579d1c;stroke-width:53.56478119;stroke-linejoin:round"/><path id="path4497" d="m 8493.3655,2344.4678 535.6478,0" style="fill:none;stroke:#7e0021;stroke-width:53.56478119;stroke-linejoin:round"/><path id="path4499" d="m 9571.3567,2344.4678 535.6483,0" style="fill:none;stroke:#83caff;stroke-width:53.56478119;stroke-linejoin:round"/><path id="path4501" d="m 8493.3655,2677.9086 535.6478,0" style="fill:none;stroke:#314004;stroke-width:53.56478119;stroke-linejoin:round"/><path id="path4503" d="m 9571.3567,2677.9086 535.6483,0" style="fill:none;stroke:#aecf00;stroke-width:53.56478119;stroke-linejoin:round"/><path id="path4505" d="m 8493.3655,3011.3493 535.6478,0" style="fill:none;stroke:#4b1f6f;stroke-width:53.56478119;stroke-linejoin:round"/><path id="path4507" d="m 9571.3567,3011.3493 535.6483,0" style="fill:none;stroke:#ff950e;stroke-width:53.56478119;stroke-linejoin:round"/><path id="path4509" d="m 8493.3655,3344.1205 535.6478,0" style="fill:none;stroke:#c5000b;stroke-width:53.56478119;stroke-linejoin:round"/><path id="path4511" d="m 9571.3567,3344.1205 535.6483,0" style="fill:none;stroke:#0084d1;stroke-width:53.56478119;stroke-linejoin:round"/><path id="path4513" d="m 8493.3655,3677.5613 535.6478,0" style="fill:none;stroke:#004586;stroke-width:53.56478119;stroke-linejoin:round"/><path id="path4515" d="m 9571.3567,3677.5613 535.6483,0" style="fill:none;stroke:#ff420e;stroke-width:53.56478119;stroke-linejoin:round"/><path id="path4517" d="m 8493.3655,4011.0021 535.6478,0" style="fill:none;stroke:#ffd320;stroke-width:53.56478119;stroke-linejoin:round"/><path id="path4519" d="m 9571.3567,4011.0021 535.6483,0" style="fill:none;stroke:#579d1c;stroke-width:53.56478119;stroke-linejoin:round"/><path id="path4521" d="m 8493.3655,4344.4428 535.6478,0" style="fill:none;stroke:#7e0021;stroke-width:53.56478119;stroke-linejoin:round"/><path id="path4523" d="m 9571.3567,4344.4428 535.6483,0" style="fill:none;stroke:#83caff;stroke-width:53.56478119;stroke-linejoin:round"/><text id="text4525" y="-.33" class="TextShape" style="font-size:8.03471661px"><tspan id="tspan4527" class="TextParagraph" font-size="353" font-weight="400" style="font-weight:400;font-size:236.354599px;font-family:'Liberation Sans'"><tspan id="tspan4529" x="9095.97" y="1757.934" class="TextPosition"><tspan id="tspan4531" style="fill:#000;stroke:none">1</tspan></tspan></tspan></text><text id="text4533" y="-.33" class="TextShape" style="font-size:8.03471661px"><tspan id="tspan4535" class="TextParagraph" font-size="353" font-weight="400" style="font-weight:400;font-size:236.354599px;font-family:'Liberation Sans'"><tspan id="tspan4537" x="10173.961" y="1757.934" class="TextPosition"><tspan id="tspan4539" style="fill:#000;stroke:none">1,4</tspan></tspan></tspan></text><text id="text4541" y="-.33" class="TextShape" style="font-size:8.03471661px"><tspan id="tspan4543" class="TextParagraph" font-size="353" font-weight="400" style="font-weight:400;font-size:236.354599px;font-family:'Liberation Sans'"><tspan id="tspan4545" x="9095.97" y="2091.374" class="TextPosition"><tspan id="tspan4547" style="fill:#000;stroke:none">1,8</tspan></tspan></tspan></text><text id="text4549" y="-.33" class="TextShape" style="font-size:8.03471661px"><tspan id="tspan4551" class="TextParagraph" font-size="353" font-weight="400" style="font-weight:400;font-size:236.354599px;font-family:'Liberation Sans'"><tspan id="tspan4553" x="10173.961" y="2091.374" class="TextPosition"><tspan id="tspan4555" style="fill:#000;stroke:none">2,2</tspan></tspan></tspan></text><text id="text4557" y="-.33" class="TextShape" style="font-size:8.03471661px"><tspan id="tspan4559" class="TextParagraph" font-size="353" font-weight="400" style="font-weight:400;font-size:236.354599px;font-family:'Liberation Sans'"><tspan id="tspan4561" x="9095.97" y="2424.815" class="TextPosition"><tspan id="tspan4563" style="fill:#000;stroke:none">2,6</tspan></tspan></tspan></text><text id="text4565" y="-.33" class="TextShape" style="font-size:8.03471661px"><tspan id="tspan4567" class="TextParagraph" font-size="353" font-weight="400" style="font-weight:400;font-size:236.354599px;font-family:'Liberation Sans'"><tspan id="tspan4569" x="10173.961" y="2424.815" class="TextPosition"><tspan id="tspan4571" style="fill:#000;stroke:none">3</tspan></tspan></tspan></text><text id="text4573" y="-.33" class="TextShape" style="font-size:8.03471661px"><tspan id="tspan4575" class="TextParagraph" font-size="353" font-weight="400" style="font-weight:400;font-size:236.354599px;font-family:'Liberation Sans'"><tspan id="tspan4577" x="9095.97" y="2758.256" class="TextPosition"><tspan id="tspan4579" style="fill:#000;stroke:none">3,4</tspan></tspan></tspan></text><text id="text4581" y="-.33" class="TextShape" style="font-size:8.03471661px"><tspan id="tspan4583" class="TextParagraph" font-size="353" font-weight="400" style="font-weight:400;font-size:236.354599px;font-family:'Liberation Sans'"><tspan id="tspan4585" x="10173.961" y="2758.256" class="TextPosition"><tspan id="tspan4587" style="fill:#000;stroke:none">3,8</tspan></tspan></tspan></text><text id="text4589" y="-.33" class="TextShape" style="font-size:8.03471661px"><tspan id="tspan4591" class="TextParagraph" font-size="353" font-weight="400" style="font-weight:400;font-size:236.354599px;font-family:'Liberation Sans'"><tspan id="tspan4593" x="9095.97" y="3091.027" class="TextPosition"><tspan id="tspan4595" style="fill:#000;stroke:none">4,2</tspan></tspan></tspan></text><text id="text4597" y="-.33" class="TextShape" style="font-size:8.03471661px"><tspan id="tspan4599" class="TextParagraph" font-size="353" font-weight="400" style="font-weight:400;font-size:236.354599px;font-family:'Liberation Sans'"><tspan id="tspan4601" x="10173.961" y="3091.027" class="TextPosition"><tspan id="tspan4603" style="fill:#000;stroke:none">4,6</tspan></tspan></tspan></text><text id="text4605" y="-.33" class="TextShape" style="font-size:8.03471661px"><tspan id="tspan4607" class="TextParagraph" font-size="353" font-weight="400" style="font-weight:400;font-size:236.354599px;font-family:'Liberation Sans'"><tspan id="tspan4609" x="9095.97" y="3424.468" class="TextPosition"><tspan id="tspan4611" style="fill:#000;stroke:none">5</tspan></tspan></tspan></text><text id="text4613" y="-.33" class="TextShape" style="font-size:8.03471661px"><tspan id="tspan4615" class="TextParagraph" font-size="353" font-weight="400" style="font-weight:400;font-size:236.354599px;font-family:'Liberation Sans'"><tspan id="tspan4617" x="10173.961" y="3424.468" class="TextPosition"><tspan id="tspan4619" style="fill:#000;stroke:none">5,4</tspan></tspan></tspan></text><text id="text4621" y="-.33" class="TextShape" style="font-size:8.03471661px"><tspan id="tspan4623" class="TextParagraph" font-size="353" font-weight="400" style="font-weight:400;font-size:236.354599px;font-family:'Liberation Sans'"><tspan id="tspan4625" x="9095.97" y="3757.908" class="TextPosition"><tspan id="tspan4627" style="fill:#000;stroke:none">5,8</tspan></tspan></tspan></text><text id="text4629" y="-.33" class="TextShape" style="font-size:8.03471661px"><tspan id="tspan4631" class="TextParagraph" font-size="353" font-weight="400" style="font-weight:400;font-size:236.354599px;font-family:'Liberation Sans'"><tspan id="tspan4633" x="10173.961" y="3757.908" class="TextPosition"><tspan id="tspan4635" style="fill:#000;stroke:none">6,2</tspan></tspan></tspan></text><text id="text4637" y="-.33" class="TextShape" style="font-size:8.03471661px"><tspan id="tspan4639" class="TextParagraph" font-size="353" font-weight="400" style="font-weight:400;font-size:236.354599px;font-family:'Liberation Sans'"><tspan id="tspan4641" x="9095.97" y="4091.349" class="TextPosition"><tspan id="tspan4643" style="fill:#000;stroke:none">6,6</tspan></tspan></tspan></text><text id="text4645" y="-.33" class="TextShape" style="font-size:8.03471661px"><tspan id="tspan4647" class="TextParagraph" font-size="353" font-weight="400" style="font-weight:400;font-size:236.354599px;font-family:'Liberation Sans'"><tspan id="tspan4649" x="10173.961" y="4091.349" class="TextPosition"><tspan id="tspan4651" style="fill:#000;stroke:none">7</tspan></tspan></tspan></text><text id="text4653" y="-.33" class="TextShape" style="font-size:8.03471661px"><tspan id="tspan4655" class="TextParagraph" font-size="353" font-weight="400" style="font-weight:400;font-size:236.354599px;font-family:'Liberation Sans'"><tspan id="tspan4657" x="9095.97" y="4424.79" class="TextPosition"><tspan id="tspan4659" style="fill:#000;stroke:none">7,4</tspan></tspan></tspan></text><text id="text4661" y="-.33" class="TextShape" style="font-size:8.03471661px"><tspan id="tspan4663" class="TextParagraph" font-size="353" font-weight="400" style="font-weight:400;font-size:236.354599px;font-family:'Liberation Sans'"><tspan id="tspan4665" x="10173.961" y="4424.79" class="TextPosition"><tspan id="tspan4667" style="fill:#000;stroke:none">7,8</tspan></tspan></tspan></text></svg>