<svg xmlns="http://www.w3.org/2000/svg" xmlns:svg="http://www.w3.org/2000/svg" id="svg2" width="160mm" height="90mm" stroke-linejoin="round" stroke-width="28.222" version="1.1" viewBox="0 0 16000 9000" xml:space="preserve"><metadata id="metadata594"/><path id="path4" d="M 5351.1858,6018.4151 0,6018.4151 0,-1 l 10701.703,0 0,6019.4151 -5350.5172,0 z" style="fill:#fff;stroke:none"/><path id="path6" d="m 4366.5676,5087.3088 -3365.227,0 0,-3860.8806 6730.454,0 0,3860.8806 -3365.227,0 z" style="fill:none;stroke:#b3b3b3;stroke-width:18.87764549;stroke-linejoin:round"/><path id="path8" d="m 7731.7946,5086.6399 -6730.454,0" style="fill:none;stroke:#b3b3b3;stroke-width:18.87764549;stroke-linejoin:round"/><path id="path10" d="m 7731.7946,4442.4909 -6730.454,0" style="fill:none;stroke:#b3b3b3;stroke-width:18.87764549;stroke-linejoin:round"/><path id="path12" d="m 7731.7946,3799.0108 -6730.454,0" style="fill:none;stroke:#b3b3b3;stroke-width:18.87764549;stroke-linejoin:round"/><path id="path14" d="m 7731.7946,3155.5307 -6730.454,0" style="fill:none;stroke:#b3b3b3;stroke-width:18.87764549;stroke-linejoin:round"/><path id="path16" d="m 7731.7946,2512.7195 -6730.454,0" style="fill:none;stroke:#b3b3b3;stroke-width:18.87764549;stroke-linejoin:round"/><path id="path18" d="m 7731.7946,1869.2394 -6730.454,0" style="fill:none;stroke:#b3b3b3;stroke-width:18.87764549;stroke-linejoin:round"/><path id="path20" d="m 7731.7946,1225.0905 -6730.454,0" style="fill:none;stroke:#b3b3b3;stroke-width:18.87764549;stroke-linejoin:round"/><path id="path22" d="m 1001.3406,5186.9747 0,-100.3348" style="fill:none;stroke:#b3b3b3;stroke-width:18.87764549;stroke-linejoin:round"/><path id="path24" d="m 1001.3406,5186.9747 0,-100.3348" style="fill:none;stroke:#b3b3b3;stroke-width:18.87764549;stroke-linejoin:round"/><path id="path26" d="m 1098.3309,5186.9747 0,-100.3348" style="fill:none;stroke:#b3b3b3;stroke-width:18.87764549;stroke-linejoin:round"/><path id="path28" d="m 1098.3309,5186.9747 0,-100.3348" style="fill:none;stroke:#b3b3b3;stroke-width:18.87764549;stroke-linejoin:round"/><path id="path30" d="m 1195.99,5186.9747 0,-100.3348" style="fill:none;stroke:#b3b3b3;stroke-width:18.87764549;stroke-linejoin:round"/><path id="path32" d="m 1195.99,5186.9747 0,-100.3348" style="fill:none;stroke:#b3b3b3;stroke-width:18.87764549;stroke-linejoin:round"/><path id="path34" d="m 1293.6492,5186.9747 0,-100.3348" style="fill:none;stroke:#b3b3b3;stroke-width:18.87764549;stroke-linejoin:round"/><path id="path36" d="m 1293.6492,5186.9747 0,-100.3348" style="fill:none;stroke:#b3b3b3;stroke-width:18.87764549;stroke-linejoin:round"/><path id="path38" d="m 1391.3083,5186.9747 0,-100.3348" style="fill:none;stroke:#b3b3b3;stroke-width:18.87764549;stroke-linejoin:round"/><path id="path40" d="m 1391.3083,5186.9747 0,-100.3348" style="fill:none;stroke:#b3b3b3;stroke-width:18.87764549;stroke-linejoin:round"/><path id="path42" d="m 1488.9675,5186.9747 0,-100.3348" style="fill:none;stroke:#b3b3b3;stroke-width:18.87764549;stroke-linejoin:round"/><path id="path44" d="m 1488.9675,5186.9747 0,-100.3348" style="fill:none;stroke:#b3b3b3;stroke-width:18.87764549;stroke-linejoin:round"/><path id="path46" d="m 1586.6266,5186.9747 0,-100.3348" style="fill:none;stroke:#b3b3b3;stroke-width:18.87764549;stroke-linejoin:round"/><path id="path48" d="m 1586.6266,5186.9747 0,-100.3348" style="fill:none;stroke:#b3b3b3;stroke-width:18.87764549;stroke-linejoin:round"/><path id="path50" d="m 1683.6168,5186.9747 0,-100.3348" style="fill:none;stroke:#b3b3b3;stroke-width:18.87764549;stroke-linejoin:round"/><path id="path52" d="m 1683.6168,5186.9747 0,-100.3348" style="fill:none;stroke:#b3b3b3;stroke-width:18.87764549;stroke-linejoin:round"/><path id="path54" d="m 1781.276,5186.9747 0,-100.3348" style="fill:none;stroke:#b3b3b3;stroke-width:18.87764549;stroke-linejoin:round"/><path id="path56" d="m 1781.276,5186.9747 0,-100.3348" style="fill:none;stroke:#b3b3b3;stroke-width:18.87764549;stroke-linejoin:round"/><path id="path58" d="m 1878.9351,5186.9747 0,-100.3348" style="fill:none;stroke:#b3b3b3;stroke-width:18.87764549;stroke-linejoin:round"/><path id="path60" d="m 1878.9351,5186.9747 0,-100.3348" style="fill:none;stroke:#b3b3b3;stroke-width:18.87764549;stroke-linejoin:round"/><path id="path62" d="m 1976.5943,5186.9747 0,-100.3348" style="fill:none;stroke:#b3b3b3;stroke-width:18.87764549;stroke-linejoin:round"/><path id="path64" d="m 1976.5943,5186.9747 0,-100.3348" style="fill:none;stroke:#b3b3b3;stroke-width:18.87764549;stroke-linejoin:round"/><path id="path66" d="m 2074.2534,5186.9747 0,-100.3348" style="fill:none;stroke:#b3b3b3;stroke-width:18.87764549;stroke-linejoin:round"/><path id="path68" d="m 2074.2534,5186.9747 0,-100.3348" style="fill:none;stroke:#b3b3b3;stroke-width:18.87764549;stroke-linejoin:round"/><path id="path70" d="m 2171.9125,5186.9747 0,-100.3348" style="fill:none;stroke:#b3b3b3;stroke-width:18.87764549;stroke-linejoin:round"/><path id="path72" d="m 2171.9125,5186.9747 0,-100.3348" style="fill:none;stroke:#b3b3b3;stroke-width:18.87764549;stroke-linejoin:round"/><path id="path74" d="m 2268.9028,5186.9747 0,-100.3348" style="fill:none;stroke:#b3b3b3;stroke-width:18.87764549;stroke-linejoin:round"/><path id="path76" d="m 2268.9028,5186.9747 0,-100.3348" style="fill:none;stroke:#b3b3b3;stroke-width:18.87764549;stroke-linejoin:round"/><path id="path78" d="m 2366.5619,5186.9747 0,-100.3348" style="fill:none;stroke:#b3b3b3;stroke-width:18.87764549;stroke-linejoin:round"/><path id="path80" d="m 2366.5619,5186.9747 0,-100.3348" style="fill:none;stroke:#b3b3b3;stroke-width:18.87764549;stroke-linejoin:round"/><path id="path82" d="m 2464.2211,5186.9747 0,-100.3348" style="fill:none;stroke:#b3b3b3;stroke-width:18.87764549;stroke-linejoin:round"/><path id="path84" d="m 2464.2211,5186.9747 0,-100.3348" style="fill:none;stroke:#b3b3b3;stroke-width:18.87764549;stroke-linejoin:round"/><path id="path86" d="m 2561.8802,5186.9747 0,-100.3348" style="fill:none;stroke:#b3b3b3;stroke-width:18.87764549;stroke-linejoin:round"/><path id="path88" d="m 2561.8802,5186.9747 0,-100.3348" style="fill:none;stroke:#b3b3b3;stroke-width:18.87764549;stroke-linejoin:round"/><path id="path90" d="m 2659.5394,5186.9747 0,-100.3348" style="fill:none;stroke:#b3b3b3;stroke-width:18.87764549;stroke-linejoin:round"/><path id="path92" d="m 2659.5394,5186.9747 0,-100.3348" style="fill:none;stroke:#b3b3b3;stroke-width:18.87764549;stroke-linejoin:round"/><path id="path94" d="m 2757.1985,5186.9747 0,-100.3348" style="fill:none;stroke:#b3b3b3;stroke-width:18.87764549;stroke-linejoin:round"/><path id="path96" d="m 2757.1985,5186.9747 0,-100.3348" style="fill:none;stroke:#b3b3b3;stroke-width:18.87764549;stroke-linejoin:round"/><path id="path98" d="m 2854.1887,5186.9747 0,-100.3348" style="fill:none;stroke:#b3b3b3;stroke-width:18.87764549;stroke-linejoin:round"/><path id="path100" d="m 2854.1887,5186.9747 0,-100.3348" style="fill:none;stroke:#b3b3b3;stroke-width:18.87764549;stroke-linejoin:round"/><path id="path102" d="m 2951.8479,5186.9747 0,-100.3348" style="fill:none;stroke:#b3b3b3;stroke-width:18.87764549;stroke-linejoin:round"/><path id="path104" d="m 2951.8479,5186.9747 0,-100.3348" style="fill:none;stroke:#b3b3b3;stroke-width:18.87764549;stroke-linejoin:round"/><path id="path106" d="m 3049.507,5186.9747 0,-100.3348" style="fill:none;stroke:#b3b3b3;stroke-width:18.87764549;stroke-linejoin:round"/><path id="path108" d="m 3049.507,5186.9747 0,-100.3348" style="fill:none;stroke:#b3b3b3;stroke-width:18.87764549;stroke-linejoin:round"/><path id="path110" d="m 3147.1662,5186.9747 0,-100.3348" style="fill:none;stroke:#b3b3b3;stroke-width:18.87764549;stroke-linejoin:round"/><path id="path112" d="m 3147.1662,5186.9747 0,-100.3348" style="fill:none;stroke:#b3b3b3;stroke-width:18.87764549;stroke-linejoin:round"/><path id="path114" d="m 3244.8253,5186.9747 0,-100.3348" style="fill:none;stroke:#b3b3b3;stroke-width:18.87764549;stroke-linejoin:round"/><path id="path116" d="m 3244.8253,5186.9747 0,-100.3348" style="fill:none;stroke:#b3b3b3;stroke-width:18.87764549;stroke-linejoin:round"/><path id="path118" d="m 3342.4844,5186.9747 0,-100.3348" style="fill:none;stroke:#b3b3b3;stroke-width:18.87764549;stroke-linejoin:round"/><path id="path120" d="m 3342.4844,5186.9747 0,-100.3348" style="fill:none;stroke:#b3b3b3;stroke-width:18.87764549;stroke-linejoin:round"/><path id="path122" d="m 3440.1436,5186.9747 0,-100.3348" style="fill:none;stroke:#b3b3b3;stroke-width:18.87764549;stroke-linejoin:round"/><path id="path124" d="m 3440.1436,5186.9747 0,-100.3348" style="fill:none;stroke:#b3b3b3;stroke-width:18.87764549;stroke-linejoin:round"/><path id="path126" d="m 3537.1338,5186.9747 0,-100.3348" style="fill:none;stroke:#b3b3b3;stroke-width:18.87764549;stroke-linejoin:round"/><path id="path128" d="m 3537.1338,5186.9747 0,-100.3348" style="fill:none;stroke:#b3b3b3;stroke-width:18.87764549;stroke-linejoin:round"/><path id="path130" d="m 3634.793,5186.9747 0,-100.3348" style="fill:none;stroke:#b3b3b3;stroke-width:18.87764549;stroke-linejoin:round"/><path id="path132" d="m 3634.793,5186.9747 0,-100.3348" style="fill:none;stroke:#b3b3b3;stroke-width:18.87764549;stroke-linejoin:round"/><path id="path134" d="m 3732.4521,5186.9747 0,-100.3348" style="fill:none;stroke:#b3b3b3;stroke-width:18.87764549;stroke-linejoin:round"/><path id="path136" d="m 3732.4521,5186.9747 0,-100.3348" style="fill:none;stroke:#b3b3b3;stroke-width:18.87764549;stroke-linejoin:round"/><path id="path138" d="m 3830.1113,5186.9747 0,-100.3348" style="fill:none;stroke:#b3b3b3;stroke-width:18.87764549;stroke-linejoin:round"/><path id="path140" d="m 3830.1113,5186.9747 0,-100.3348" style="fill:none;stroke:#b3b3b3;stroke-width:18.87764549;stroke-linejoin:round"/><path id="path142" d="m 3927.7704,5186.9747 0,-100.3348" style="fill:none;stroke:#b3b3b3;stroke-width:18.87764549;stroke-linejoin:round"/><path id="path144" d="m 3927.7704,5186.9747 0,-100.3348" style="fill:none;stroke:#b3b3b3;stroke-width:18.87764549;stroke-linejoin:round"/><path id="path146" d="m 4025.4295,5186.9747 0,-100.3348" style="fill:none;stroke:#b3b3b3;stroke-width:18.87764549;stroke-linejoin:round"/><path id="path148" d="m 4025.4295,5186.9747 0,-100.3348" style="fill:none;stroke:#b3b3b3;stroke-width:18.87764549;stroke-linejoin:round"/><path id="path150" d="m 4122.4198,5186.9747 0,-100.3348" style="fill:none;stroke:#b3b3b3;stroke-width:18.87764549;stroke-linejoin:round"/><path id="path152" d="m 4122.4198,5186.9747 0,-100.3348" style="fill:none;stroke:#b3b3b3;stroke-width:18.87764549;stroke-linejoin:round"/><path id="path154" d="m 4220.0789,5186.9747 0,-100.3348" style="fill:none;stroke:#b3b3b3;stroke-width:18.87764549;stroke-linejoin:round"/><path id="path156" d="m 4220.0789,5186.9747 0,-100.3348" style="fill:none;stroke:#b3b3b3;stroke-width:18.87764549;stroke-linejoin:round"/><path id="path158" d="m 4317.7381,5186.9747 0,-100.3348" style="fill:none;stroke:#b3b3b3;stroke-width:18.87764549;stroke-linejoin:round"/><path id="path160" d="m 4317.7381,5186.9747 0,-100.3348" style="fill:none;stroke:#b3b3b3;stroke-width:18.87764549;stroke-linejoin:round"/><path id="path162" d="m 4415.3972,5186.9747 0,-100.3348" style="fill:none;stroke:#b3b3b3;stroke-width:18.87764549;stroke-linejoin:round"/><path id="path164" d="m 4415.3972,5186.9747 0,-100.3348" style="fill:none;stroke:#b3b3b3;stroke-width:18.87764549;stroke-linejoin:round"/><path id="path166" d="m 4513.0563,5186.9747 0,-100.3348" style="fill:none;stroke:#b3b3b3;stroke-width:18.87764549;stroke-linejoin:round"/><path id="path168" d="m 4513.0563,5186.9747 0,-100.3348" style="fill:none;stroke:#b3b3b3;stroke-width:18.87764549;stroke-linejoin:round"/><path id="path170" d="m 4610.7155,5186.9747 0,-100.3348" style="fill:none;stroke:#b3b3b3;stroke-width:18.87764549;stroke-linejoin:round"/><path id="path172" d="m 4610.7155,5186.9747 0,-100.3348" style="fill:none;stroke:#b3b3b3;stroke-width:18.87764549;stroke-linejoin:round"/><path id="path174" d="m 4707.7057,5186.9747 0,-100.3348" style="fill:none;stroke:#b3b3b3;stroke-width:18.87764549;stroke-linejoin:round"/><path id="path176" d="m 4707.7057,5186.9747 0,-100.3348" style="fill:none;stroke:#b3b3b3;stroke-width:18.87764549;stroke-linejoin:round"/><path id="path178" d="m 4805.3649,5186.9747 0,-100.3348" style="fill:none;stroke:#b3b3b3;stroke-width:18.87764549;stroke-linejoin:round"/><path id="path180" d="m 4805.3649,5186.9747 0,-100.3348" style="fill:none;stroke:#b3b3b3;stroke-width:18.87764549;stroke-linejoin:round"/><path id="path182" d="m 4903.024,5186.9747 0,-100.3348" style="fill:none;stroke:#b3b3b3;stroke-width:18.87764549;stroke-linejoin:round"/><path id="path184" d="m 4903.024,5186.9747 0,-100.3348" style="fill:none;stroke:#b3b3b3;stroke-width:18.87764549;stroke-linejoin:round"/><path id="path186" d="m 5000.6831,5186.9747 0,-100.3348" style="fill:none;stroke:#b3b3b3;stroke-width:18.87764549;stroke-linejoin:round"/><path id="path188" d="m 5000.6831,5186.9747 0,-100.3348" style="fill:none;stroke:#b3b3b3;stroke-width:18.87764549;stroke-linejoin:round"/><path id="path190" d="m 5098.3423,5186.9747 0,-100.3348" style="fill:none;stroke:#b3b3b3;stroke-width:18.87764549;stroke-linejoin:round"/><path id="path192" d="m 5098.3423,5186.9747 0,-100.3348" style="fill:none;stroke:#b3b3b3;stroke-width:18.87764549;stroke-linejoin:round"/><path id="path194" d="m 5196.0014,5186.9747 0,-100.3348" style="fill:none;stroke:#b3b3b3;stroke-width:18.87764549;stroke-linejoin:round"/><path id="path196" d="m 5196.0014,5186.9747 0,-100.3348" style="fill:none;stroke:#b3b3b3;stroke-width:18.87764549;stroke-linejoin:round"/><path id="path198" d="m 5292.9917,5186.9747 0,-100.3348" style="fill:none;stroke:#b3b3b3;stroke-width:18.87764549;stroke-linejoin:round"/><path id="path200" d="m 5292.9917,5186.9747 0,-100.3348" style="fill:none;stroke:#b3b3b3;stroke-width:18.87764549;stroke-linejoin:round"/><path id="path202" d="m 5389.9819,5186.9747 0,-100.3348" style="fill:none;stroke:#b3b3b3;stroke-width:18.87764549;stroke-linejoin:round"/><path id="path204" d="m 5389.9819,5186.9747 0,-100.3348" style="fill:none;stroke:#b3b3b3;stroke-width:18.87764549;stroke-linejoin:round"/><path id="path206" d="m 5487.6411,5186.9747 0,-100.3348" style="fill:none;stroke:#b3b3b3;stroke-width:18.87764549;stroke-linejoin:round"/><path id="path208" d="m 5487.6411,5186.9747 0,-100.3348" style="fill:none;stroke:#b3b3b3;stroke-width:18.87764549;stroke-linejoin:round"/><path id="path210" d="m 5585.3002,5186.9747 0,-100.3348" style="fill:none;stroke:#b3b3b3;stroke-width:18.87764549;stroke-linejoin:round"/><path id="path212" d="m 5585.3002,5186.9747 0,-100.3348" style="fill:none;stroke:#b3b3b3;stroke-width:18.87764549;stroke-linejoin:round"/><path id="path214" d="m 5682.9593,5186.9747 0,-100.3348" style="fill:none;stroke:#b3b3b3;stroke-width:18.87764549;stroke-linejoin:round"/><path id="path216" d="m 5682.9593,5186.9747 0,-100.3348" style="fill:none;stroke:#b3b3b3;stroke-width:18.87764549;stroke-linejoin:round"/><path id="path218" d="m 5780.6185,5186.9747 0,-100.3348" style="fill:none;stroke:#b3b3b3;stroke-width:18.87764549;stroke-linejoin:round"/><path id="path220" d="m 5780.6185,5186.9747 0,-100.3348" style="fill:none;stroke:#b3b3b3;stroke-width:18.87764549;stroke-linejoin:round"/><path id="path222" d="m 5878.2776,5186.9747 0,-100.3348" style="fill:none;stroke:#b3b3b3;stroke-width:18.87764549;stroke-linejoin:round"/><path id="path224" d="m 5878.2776,5186.9747 0,-100.3348" style="fill:none;stroke:#b3b3b3;stroke-width:18.87764549;stroke-linejoin:round"/><path id="path226" d="m 5975.2679,5186.9747 0,-100.3348" style="fill:none;stroke:#b3b3b3;stroke-width:18.87764549;stroke-linejoin:round"/><path id="path228" d="m 5975.2679,5186.9747 0,-100.3348" style="fill:none;stroke:#b3b3b3;stroke-width:18.87764549;stroke-linejoin:round"/><path id="path230" d="m 6072.927,5186.9747 0,-100.3348" style="fill:none;stroke:#b3b3b3;stroke-width:18.87764549;stroke-linejoin:round"/><path id="path232" d="m 6072.927,5186.9747 0,-100.3348" style="fill:none;stroke:#b3b3b3;stroke-width:18.87764549;stroke-linejoin:round"/><path id="path234" d="m 6170.5861,5186.9747 0,-100.3348" style="fill:none;stroke:#b3b3b3;stroke-width:18.87764549;stroke-linejoin:round"/><path id="path236" d="m 6170.5861,5186.9747 0,-100.3348" style="fill:none;stroke:#b3b3b3;stroke-width:18.87764549;stroke-linejoin:round"/><path id="path238" d="m 6268.2453,5186.9747 0,-100.3348" style="fill:none;stroke:#b3b3b3;stroke-width:18.87764549;stroke-linejoin:round"/><path id="path240" d="m 6268.2453,5186.9747 0,-100.3348" style="fill:none;stroke:#b3b3b3;stroke-width:18.87764549;stroke-linejoin:round"/><path id="path242" d="m 6365.9044,5186.9747 0,-100.3348" style="fill:none;stroke:#b3b3b3;stroke-width:18.87764549;stroke-linejoin:round"/><path id="path244" d="m 6365.9044,5186.9747 0,-100.3348" style="fill:none;stroke:#b3b3b3;stroke-width:18.87764549;stroke-linejoin:round"/><path id="path246" d="m 6463.5636,5186.9747 0,-100.3348" style="fill:none;stroke:#b3b3b3;stroke-width:18.87764549;stroke-linejoin:round"/><path id="path248" d="m 6463.5636,5186.9747 0,-100.3348" style="fill:none;stroke:#b3b3b3;stroke-width:18.87764549;stroke-linejoin:round"/><path id="path250" d="m 6560.5538,5186.9747 0,-100.3348" style="fill:none;stroke:#b3b3b3;stroke-width:18.87764549;stroke-linejoin:round"/><path id="path252" d="m 6560.5538,5186.9747 0,-100.3348" style="fill:none;stroke:#b3b3b3;stroke-width:18.87764549;stroke-linejoin:round"/><path id="path254" d="m 6658.213,5186.9747 0,-100.3348" style="fill:none;stroke:#b3b3b3;stroke-width:18.87764549;stroke-linejoin:round"/><path id="path256" d="m 6658.213,5186.9747 0,-100.3348" style="fill:none;stroke:#b3b3b3;stroke-width:18.87764549;stroke-linejoin:round"/><path id="path258" d="m 6755.8721,5186.9747 0,-100.3348" style="fill:none;stroke:#b3b3b3;stroke-width:18.87764549;stroke-linejoin:round"/><path id="path260" d="m 6755.8721,5186.9747 0,-100.3348" style="fill:none;stroke:#b3b3b3;stroke-width:18.87764549;stroke-linejoin:round"/><path id="path262" d="m 6853.5312,5186.9747 0,-100.3348" style="fill:none;stroke:#b3b3b3;stroke-width:18.87764549;stroke-linejoin:round"/><path id="path264" d="m 6853.5312,5186.9747 0,-100.3348" style="fill:none;stroke:#b3b3b3;stroke-width:18.87764549;stroke-linejoin:round"/><path id="path266" d="m 6951.1904,5186.9747 0,-100.3348" style="fill:none;stroke:#b3b3b3;stroke-width:18.87764549;stroke-linejoin:round"/><path id="path268" d="m 6951.1904,5186.9747 0,-100.3348" style="fill:none;stroke:#b3b3b3;stroke-width:18.87764549;stroke-linejoin:round"/><path id="path270" d="m 7048.8495,5186.9747 0,-100.3348" style="fill:none;stroke:#b3b3b3;stroke-width:18.87764549;stroke-linejoin:round"/><path id="path272" d="m 7048.8495,5186.9747 0,-100.3348" style="fill:none;stroke:#b3b3b3;stroke-width:18.87764549;stroke-linejoin:round"/><path id="path274" d="m 7145.8398,5186.9747 0,-100.3348" style="fill:none;stroke:#b3b3b3;stroke-width:18.87764549;stroke-linejoin:round"/><path id="path276" d="m 7145.8398,5186.9747 0,-100.3348" style="fill:none;stroke:#b3b3b3;stroke-width:18.87764549;stroke-linejoin:round"/><path id="path278" d="m 7243.4989,5186.9747 0,-100.3348" style="fill:none;stroke:#b3b3b3;stroke-width:18.87764549;stroke-linejoin:round"/><path id="path280" d="m 7243.4989,5186.9747 0,-100.3348" style="fill:none;stroke:#b3b3b3;stroke-width:18.87764549;stroke-linejoin:round"/><path id="path282" d="m 7341.158,5186.9747 0,-100.3348" style="fill:none;stroke:#b3b3b3;stroke-width:18.87764549;stroke-linejoin:round"/><path id="path284" d="m 7341.158,5186.9747 0,-100.3348" style="fill:none;stroke:#b3b3b3;stroke-width:18.87764549;stroke-linejoin:round"/><path id="path286" d="m 7438.8172,5186.9747 0,-100.3348" style="fill:none;stroke:#b3b3b3;stroke-width:18.87764549;stroke-linejoin:round"/><path id="path288" d="m 7438.8172,5186.9747 0,-100.3348" style="fill:none;stroke:#b3b3b3;stroke-width:18.87764549;stroke-linejoin:round"/><path id="path290" d="m 7536.4763,5186.9747 0,-100.3348" style="fill:none;stroke:#b3b3b3;stroke-width:18.87764549;stroke-linejoin:round"/><path id="path292" d="m 7536.4763,5186.9747 0,-100.3348" style="fill:none;stroke:#b3b3b3;stroke-width:18.87764549;stroke-linejoin:round"/><path id="path294" d="m 7634.1355,5186.9747 0,-100.3348" style="fill:none;stroke:#b3b3b3;stroke-width:18.87764549;stroke-linejoin:round"/><path id="path296" d="m 7634.1355,5186.9747 0,-100.3348" style="fill:none;stroke:#b3b3b3;stroke-width:18.87764549;stroke-linejoin:round"/><path id="path298" d="m 7731.7946,5186.9747 0,-100.3348" style="fill:none;stroke:#b3b3b3;stroke-width:18.87764549;stroke-linejoin:round"/><path id="path300" d="m 7731.7946,5186.9747 0,-100.3348" style="fill:none;stroke:#b3b3b3;stroke-width:18.87764549;stroke-linejoin:round"/><path id="path302" d="m 1001.3406,5086.6399 6730.454,0" style="fill:none;stroke:#b3b3b3;stroke-width:18.87764549;stroke-linejoin:round"/><path id="path304" d="m 901.00591,5086.6399 100.33469,0" style="fill:none;stroke:#b3b3b3;stroke-width:18.87764549;stroke-linejoin:round"/><path id="path306" d="m 901.00591,5086.6399 100.33469,0" style="fill:none;stroke:#b3b3b3;stroke-width:18.87764549;stroke-linejoin:round"/><path id="path308" d="m 901.00591,4442.4909 100.33469,0" style="fill:none;stroke:#b3b3b3;stroke-width:18.87764549;stroke-linejoin:round"/><path id="path310" d="m 901.00591,4442.4909 100.33469,0" style="fill:none;stroke:#b3b3b3;stroke-width:18.87764549;stroke-linejoin:round"/><path id="path312" d="m 901.00591,3799.0108 100.33469,0" style="fill:none;stroke:#b3b3b3;stroke-width:18.87764549;stroke-linejoin:round"/><path id="path314" d="m 901.00591,3799.0108 100.33469,0" style="fill:none;stroke:#b3b3b3;stroke-width:18.87764549;stroke-linejoin:round"/><path id="path316" d="m 901.00591,3155.5307 100.33469,0" style="fill:none;stroke:#b3b3b3;stroke-width:18.87764549;stroke-linejoin:round"/><path id="path318" d="m 901.00591,3155.5307 100.33469,0" style="fill:none;stroke:#b3b3b3;stroke-width:18.87764549;stroke-linejoin:round"/><path id="path320" d="m 901.00591,2512.7195 100.33469,0" style="fill:none;stroke:#b3b3b3;stroke-width:18.87764549;stroke-linejoin:round"/><path id="path322" d="m 901.00591,2512.7195 100.33469,0" style="fill:none;stroke:#b3b3b3;stroke-width:18.87764549;stroke-linejoin:round"/><path id="path324" d="m 901.00591,1869.2394 100.33469,0" style="fill:none;stroke:#b3b3b3;stroke-width:18.87764549;stroke-linejoin:round"/><path id="path326" d="m 901.00591,1869.2394 100.33469,0" style="fill:none;stroke:#b3b3b3;stroke-width:18.87764549;stroke-linejoin:round"/><path id="path328" d="m 901.00591,1225.0905 100.33469,0" style="fill:none;stroke:#b3b3b3;stroke-width:18.87764549;stroke-linejoin:round"/><path id="path330" d="m 901.00591,1225.0905 100.33469,0" style="fill:none;stroke:#b3b3b3;stroke-width:18.87764549;stroke-linejoin:round"/><path id="path332" d="m 1001.3406,5086.6399 0,-3861.5494" style="fill:none;stroke:#b3b3b3;stroke-width:18.87764549;stroke-linejoin:round"/><path id="path334" d="m 1001.3406,1869.2394 96.9903,0 97.6591,0 97.6592,0 97.6591,0 97.6592,0 97.6591,0 96.9902,0 97.6592,0 97.6591,0 97.6592,0 97.6591,0 97.6591,0 96.9903,0 97.6591,0 97.6592,0 97.6591,0 97.6592,0 97.6591,0 96.9902,0 97.6592,0 97.6591,0 97.6592,0 97.6591,0 97.6591,0 97.6592,0 96.9902,0 97.6592,0 97.6591,0 97.6592,0 97.6591,0 97.6591,0 96.9903,0 97.6591,0 97.6592,0 97.6591,0 97.6591,0 97.6592,0 96.9902,0 97.6592,0 97.6591,0 97.6591,0 97.6592,0 97.6591,0 96.9903,0 96.9902,0 97.6592,0 97.6591,0 97.6591,0 97.6592,0 97.6591,0 96.9903,0 97.6591,0 97.6591,0 97.6592,0 97.6591,0 97.6592,0 96.9902,0 97.6592,0 97.6591,0 97.6591,0 97.6592,0 97.6591,0 96.9903,0 97.6591,0 97.6591,0 97.6592,0 97.6591,0 97.6592,0 97.6591,0" style="fill:none;stroke:#004586;stroke-width:53.51185989;stroke-linejoin:round"/><path id="path336" d="m 1001.3406,1869.2394 96.9903,0 97.6591,0 97.6592,0 97.6591,0 97.6592,58.1942 97.6591,48.1607 96.9902,41.4717 97.6592,35.4516 97.6591,32.1071 97.6592,28.0937 97.6591,26.087 97.6591,23.4115 96.9903,21.4047 97.6591,20.067 97.6592,18.7291 97.6591,17.3914 97.6592,16.0535 97.6591,15.3847 96.9902,14.0468 97.6592,14.0469 97.6591,12.7091 97.6592,12.709 97.6591,11.3713 97.6591,11.3713 97.6592,10.7023 96.9902,10.0335 97.6592,10.0335 97.6591,9.3646 97.6592,9.3645 97.6591,8.6957 97.6591,8.6957 96.9903,8.0268 97.6591,8.0268 97.6592,7.3578 97.6591,8.0268 97.6591,6.689 97.6592,7.3579 96.9902,6.689 97.6592,6.6889 97.6591,6.689 97.6591,6.0201 97.6592,6.0201 97.6591,6.0201 96.9903,6.0201 96.9902,5.3511 97.6592,5.3512 97.6591,5.3512 97.6591,5.3512 97.6592,5.3512 97.6591,5.3512 96.9903,4.6823 97.6591,4.6823 97.6591,4.6822 97.6592,4.6823 97.6591,4.6823 97.6592,4.6823 96.9902,4.0134 97.6592,4.6823 97.6591,4.0134 97.6591,4.0134 97.6592,4.0133 97.6591,4.0134 96.9903,4.0134 97.6591,4.0134 97.6591,0 97.6592,0 97.6591,0 97.6592,0 97.6591,0" style="fill:none;stroke:#ff420e;stroke-width:53.51185989;stroke-linejoin:round"/><path id="path338" d="m 1001.3406,1869.2394 96.9903,0 97.6591,0 97.6592,0 97.6591,0 97.6592,115.0505 97.6591,94.3147 96.9902,78.93 97.6592,68.2276 97.6591,59.5319 97.6592,53.5119 97.6591,46.8229 97.6591,43.4784 96.9903,38.7961 97.6591,36.1205 97.6592,32.776 97.6591,30.7693 97.6592,28.7626 97.6591,26.7559 96.9902,25.4182 97.6592,23.4114 97.6591,22.0737 97.6592,21.4047 97.6591,20.0669 97.6591,19.3981 97.6592,18.0602 96.9902,17.3914 97.6592,16.7225 97.6591,16.0535 97.6592,15.3847 97.6591,14.7157 97.6591,14.0469 96.9903,13.378 97.6591,13.3779 97.6592,12.7091 97.6591,12.0402 97.6591,12.0401 97.6592,11.3713 96.9902,10.7024 97.6592,11.3712 97.6591,10.0335 97.6591,10.0335 97.6592,10.0335 97.6591,9.3645 96.9903,8.6957 96.9902,9.3646 97.6592,8.6957 97.6591,8.6956 97.6591,8.6957 97.6592,8.0268 97.6591,8.0268 96.9903,8.0268 97.6591,7.3578 97.6591,7.3579 97.6592,7.3579 97.6591,7.3579 97.6592,7.3579 96.9902,6.6889 97.6592,6.689 97.6591,6.689 97.6591,6.0201 97.6592,6.689 97.6591,6.0201 96.9903,6.02 97.6591,6.0201 97.6591,0 97.6592,0 97.6591,0 97.6592,0 97.6591,0" style="fill:none;stroke:#ffd320;stroke-width:53.51185989;stroke-linejoin:round"/><path id="path340" d="m 1001.3406,1869.2394 96.9903,0 97.6591,0 97.6592,0 97.6591,0 97.6592,171.238 97.6591,137.793 96.9902,113.7127 97.6592,96.9903 97.6591,84.2811 97.6592,73.5788 97.6591,65.5521 97.6591,58.863 96.9903,52.843 97.6591,48.1607 97.6592,44.8161 97.6591,40.8028 97.6592,38.1272 97.6591,34.7827 96.9902,33.4449 97.6592,30.7694 97.6591,28.0937 97.6592,27.4248 97.6591,25.4181 97.6591,24.7493 97.6592,23.4114 96.9902,22.0737 97.6592,20.7358 97.6591,20.067 97.6592,19.398 97.6591,18.7292 97.6591,17.3913 96.9903,16.7225 97.6591,16.7224 97.6592,15.3847 97.6591,15.3846 97.6591,14.0469 97.6592,14.0469 96.9902,14.0468 97.6592,12.7091 97.6591,12.7091 97.6591,12.709 97.6592,12.0402 97.6591,11.3713 96.9903,11.3712 96.9902,10.7024 97.6592,10.7024 97.6591,10.7023 97.6591,10.0335 97.6592,9.3646 97.6591,10.0335 96.9903,9.3645 97.6591,8.6957 97.6591,8.6957 97.6592,8.6957 97.6591,8.6956 97.6592,8.0268 96.9902,8.0268 97.6592,8.0268 97.6591,8.0268 97.6591,7.3578 97.6592,7.3579 97.6591,7.3579 96.9903,6.689 97.6591,7.3579 97.6591,0 97.6592,0 97.6591,0 97.6592,0 97.6591,0" style="fill:none;stroke:#579d1c;stroke-width:53.51185989;stroke-linejoin:round"/><path id="path342" d="m 1001.3406,1869.2394 96.9903,0 97.6591,0 97.6592,0 97.6591,0 97.6592,280.2684 97.6591,218.0608 96.9902,175.2514 97.6592,145.8198 97.6591,123.0772 97.6592,105.686 97.6591,91.639 97.6591,81.6056 96.9903,72.241 97.6591,65.552 97.6592,58.8631 97.6591,53.5118 97.6592,49.4985 97.6591,45.4851 96.9902,41.4717 97.6592,38.7961 97.6591,36.1205 97.6592,33.4449 97.6591,32.1071 97.6591,29.4315 97.6592,28.0938 96.9902,26.087 97.6592,25.4181 97.6591,23.4115 97.6592,22.0736 97.6591,21.4047 97.6591,20.7359 96.9903,19.398 97.6591,18.7292 97.6592,17.3913 97.6591,17.3914 97.6591,16.0536 97.6592,15.3846 96.9902,15.3847 97.6592,14.7157 97.6591,13.378 97.6591,14.0469 97.6592,12.709 97.6591,12.7091 96.9903,12.0402 96.9902,11.3712 97.6592,11.3713 97.6591,11.3713 97.6591,10.7023 97.6592,10.0335 97.6591,10.0335 96.9903,10.0335 97.6591,9.3645 97.6591,9.3646 97.6592,8.6957 97.6591,8.6957 97.6592,8.6956 96.9902,8.0268 97.6592,8.0268 97.6591,8.0268 97.6591,7.3579 97.6592,7.3578 97.6591,7.3579 96.9903,7.3579 97.6591,6.689 97.6591,0 97.6592,0 97.6591,0 97.6592,0 97.6591,0" style="fill:none;stroke:#7e0021;stroke-width:53.51185989;stroke-linejoin:round"/><path id="path344" d="m 1001.3406,1869.2394 96.9903,0 97.6591,0 97.6592,0 97.6591,0 97.6592,436.7906 97.6591,322.4089 96.9902,248.8302 97.6592,197.9938 97.6591,162.5423 97.6592,135.7864 97.6591,115.0505 97.6591,99.6658 96.9903,85.619 97.6591,76.2544 97.6592,66.8898 97.6591,60.2008 97.6592,54.1808 97.6591,48.8295 96.9902,44.8162 97.6592,40.1339 97.6591,37.4583 97.6592,34.1138 97.6591,32.1071 97.6591,29.4316 97.6592,27.4248 96.9902,25.4181 97.6592,24.0804 97.6591,22.7425 97.6592,20.7359 97.6591,20.0669 97.6591,18.7291 96.9903,17.3914 97.6591,16.7225 97.6592,16.0535 97.6591,15.3847 97.6591,14.0468 97.6592,14.0469 96.9902,12.7091 97.6592,12.709 97.6591,12.0402 97.6591,11.3713 97.6592,10.7023 97.6591,10.7024 96.9903,10.0335 96.9902,9.3646 97.6592,9.3645 97.6591,9.3646 97.6591,8.6957 97.6592,8.0268 97.6591,8.0267 96.9903,8.0268 97.6591,7.3579 97.6591,7.3579 97.6592,6.689 97.6591,6.689 97.6592,6.6889 96.9902,6.0201 97.6592,6.689 97.6591,6.0201 97.6591,5.3512 97.6592,6.0201 97.6591,5.3511 96.9903,5.3512 97.6591,4.6823 97.6591,0 97.6592,0 97.6591,0 97.6592,0 97.6591,0" style="fill:none;stroke:#83caff;stroke-width:53.51185989;stroke-linejoin:round"/><path id="path346" d="m 1001.3406,1869.2394 96.9903,0 97.6591,0 97.6592,0 97.6591,0 97.6592,678.9317 97.6591,460.8709 96.9902,330.4357 97.6592,248.1613 97.6591,191.9738 97.6592,151.8399 97.6591,123.7462 97.6591,101.6725 96.9903,85.619 97.6591,72.241 97.6592,62.2075 97.6591,53.5119 97.6592,47.4917 97.6591,40.8028 96.9902,36.7894 97.6592,32.776 97.6591,28.7627 97.6592,26.7559 97.6591,23.4114 97.6591,22.0737 97.6592,19.398 96.9902,18.0603 97.6592,16.7224 97.6591,15.3847 97.6592,14.0468 97.6591,13.378 97.6591,12.0402 96.9903,11.3713 97.6591,10.0334 97.6592,10.0335 97.6591,9.3646 97.6591,8.6957 97.6592,8.0267 96.9902,7.3579 97.6592,7.3579 97.6591,6.689 97.6591,6.689 97.6592,6.02 97.6591,6.0201 96.9903,5.3512 96.9902,5.3512 97.6592,4.6823 97.6591,4.6823 97.6591,4.6823 97.6592,4.0133 97.6591,4.6823 96.9903,3.3445 97.6591,4.0134 97.6591,3.3445 97.6592,3.3445 97.6591,3.3445 97.6592,3.3445 96.9902,3.3445 97.6592,2.6756 97.6591,2.6756 97.6591,2.6755 97.6592,2.6756 97.6591,2.6756 96.9903,2.6756 97.6591,2.0067 97.6591,0 97.6592,0 97.6591,0 97.6592,0 97.6591,0" style="fill:none;stroke:#314004;stroke-width:53.51185989;stroke-linejoin:round"/><path id="path348" d="m 1001.3406,1869.2394 96.9903,0 97.6591,0 97.6592,0 97.6591,0 97.6592,1023.4143 97.6591,606.0218 96.9902,388.6299 97.6592,262.2081 97.6591,185.9537 97.6592,136.4552 97.6591,102.3415 97.6591,79.5989 96.9903,62.2075 97.6591,50.1674 97.6592,40.1339 97.6591,33.4449 97.6592,28.0937 97.6591,23.4114 96.9902,20.067 97.6592,16.7224 97.6591,14.7158 97.6592,12.7091 97.6591,11.3712 97.6591,10.0335 97.6592,8.6957 96.9902,7.3579 97.6592,6.6889 97.6591,6.689 97.6592,5.3512 97.6591,4.6823 97.6591,4.6823 96.9903,4.0134 97.6591,4.0134 97.6592,3.3445 97.6591,2.6756 97.6591,3.3444 97.6592,2.0067 96.9902,2.6756 97.6592,2.0067 97.6591,2.6756 97.6591,1.3378 97.6592,2.0067 97.6591,2.0067 96.9903,1.3378 96.9902,1.3378 97.6592,1.3378 97.6591,1.3378 97.6591,1.3378 97.6592,0.6689 97.6591,1.3378 96.9903,0.6689 97.6591,1.3378 97.6591,0.6689 97.6592,0.6689 97.6591,0.6689 97.6592,0.6689 96.9902,1.3378 97.6592,0.6689 97.6591,0 97.6591,0.6689 97.6592,0.6689 97.6591,0.6689 96.9903,0.6689 97.6591,0 97.6591,0 97.6592,0 97.6591,0 97.6592,0 97.6591,0" style="fill:none;stroke:#aecf00;stroke-width:53.51185989;stroke-linejoin:round"/><path id="path350" d="m 1001.3406,1869.2394 96.9903,0 97.6591,0 97.6592,0 97.6591,0 97.6592,1485.623 97.6591,706.3565 96.9902,373.9141 97.6592,214.7164 97.6591,131.7729 97.6592,84.2812 97.6591,56.1875 97.6591,39.4649 96.9903,27.4249 97.6591,20.7358 97.6592,14.7158 97.6591,11.3713 97.6592,9.3645 97.6591,6.689 96.9902,5.3512 97.6592,4.6823 97.6591,3.3445 97.6592,3.3445 97.6591,2.0067 97.6591,2.0067 97.6592,2.0066 96.9902,1.3378 97.6592,1.3378 97.6591,0.6689 97.6592,1.3378 97.6591,0.6689 97.6591,0.6689 96.9903,0.6689 97.6591,0 97.6592,0.6689 97.6591,0.6689 97.6591,0 97.6592,0.6689 96.9902,0 97.6592,0 97.6591,0.6689 97.6591,0 97.6592,0 97.6591,0.6689 96.9903,0 96.9902,0 97.6592,0 97.6591,0 97.6591,0 97.6592,0.6689 97.6591,0 96.9903,0 97.6591,0 97.6591,0 97.6592,0 97.6591,0 97.6592,0 96.9902,0 97.6592,0 97.6591,0 97.6591,0.6689 97.6592,0 97.6591,0 96.9903,0 97.6591,0 97.6591,0 97.6592,0 97.6591,0 97.6592,0 97.6591,0" style="fill:none;stroke:#4b1f6f;stroke-width:53.51185989;stroke-linejoin:round"/><path id="path352" d="m 1001.3406,1869.2394 96.9903,0 97.6591,0 97.6592,0 97.6591,0 97.6592,2036.7951 97.6591,674.9184 96.9902,262.877 97.6592,115.7194 97.6591,55.5185 97.6592,29.4315 97.6591,16.0536 97.6591,8.6957 96.9903,6.02 97.6591,3.3445 97.6592,2.0067 97.6591,2.0067 97.6592,0.6689 97.6591,0.6689 96.9902,0.6689 97.6592,0.6689 97.6591,0 97.6592,0 97.6591,0.6689 97.6591,0 97.6592,0 96.9902,0 97.6592,0 97.6591,0 97.6592,0 97.6591,0 97.6591,0 96.9903,0 97.6591,0 97.6592,0 97.6591,0 97.6591,0 97.6592,0 96.9902,0 97.6592,0 97.6591,0 97.6591,0 97.6592,0 97.6591,0 96.9903,0 96.9902,0 97.6592,0 97.6591,0 97.6591,0 97.6592,0 97.6591,0 96.9903,0 97.6591,0 97.6591,0 97.6592,0 97.6591,0 97.6592,0 96.9902,0 97.6592,0 97.6591,0 97.6591,0 97.6592,0 97.6591,0 96.9903,0 97.6591,0 97.6591,0 97.6592,0 97.6591,0 97.6592,0 97.6591,0" style="fill:none;stroke:#ff950e;stroke-width:53.51185989;stroke-linejoin:round"/><path id="path354" d="m 1001.3406,1869.2394 96.9903,0 97.6591,0 97.6592,0 97.6591,0 97.6592,2581.9472 97.6591,474.2488 96.9902,111.706 97.6592,32.1072 97.6591,10.0334 97.6592,4.0134 97.6591,2.0067 97.6591,0.6689 96.9903,0 97.6591,0 97.6592,0 97.6591,0 97.6592,0 97.6591,0 96.9902,0 97.6592,0 97.6591,0 97.6592,0 97.6591,0 97.6591,0 97.6592,0 96.9902,0 97.6592,0 97.6591,0 97.6592,0 97.6591,0 97.6591,0 96.9903,0 97.6591,0 97.6592,0 97.6591,0 97.6591,0 97.6592,0 96.9902,0 97.6592,0 97.6591,0 97.6591,0 97.6592,0 97.6591,0 96.9903,0 96.9902,0 97.6592,0 97.6591,0 97.6591,0 97.6592,0 97.6591,0 96.9903,0 97.6591,0 97.6591,0 97.6592,0 97.6591,0 97.6592,0 96.9902,0 97.6592,0 97.6591,0 97.6591,0 97.6592,0 97.6591,0 96.9903,0 97.6591,0 97.6591,0 97.6592,0 97.6591,0 97.6592,0 97.6591,0" style="fill:none;stroke:#c5000b;stroke-width:53.51185989;stroke-linejoin:round"/><path id="path356" d="m 1001.3406,1869.2394 96.9903,0 97.6591,0 97.6592,0 97.6591,0 97.6592,2983.955 97.6591,208.0274 96.9902,21.4047 97.6592,2.6756 97.6591,0.6689 97.6592,0 97.6591,0 97.6591,0 96.9903,0 97.6591,0 97.6592,0 97.6591,0 97.6592,0 97.6591,0 96.9902,0 97.6592,0 97.6591,0 97.6592,0 97.6591,0 97.6591,0 97.6592,0 96.9902,0 97.6592,0 97.6591,0 97.6592,0 97.6591,0 97.6591,0 96.9903,0 97.6591,0 97.6592,0 97.6591,0 97.6591,0 97.6592,0 96.9902,0 97.6592,0 97.6591,0 97.6591,0 97.6592,0 97.6591,0 96.9903,0 96.9902,0 97.6592,0 97.6591,0 97.6591,0 97.6592,0 97.6591,0 96.9903,0 97.6591,0 97.6591,0 97.6592,0 97.6591,0 97.6592,0 96.9902,0 97.6592,0 97.6591,0 97.6591,0 97.6592,0 97.6591,0 96.9903,0 97.6591,0.6689 97.6591,0 97.6592,0 97.6591,0 97.6592,0 97.6591,0" style="fill:none;stroke:#0084d1;stroke-width:53.51185989;stroke-linejoin:round"/><path id="path358" d="m 1001.3406,1869.2394 96.9903,0 97.6591,0 97.6592,0 97.6591,0 97.6592,3171.2465 97.6591,44.8162 96.9902,0.6689 97.6592,0 97.6591,0 97.6592,0 97.6591,0 97.6591,0 96.9903,0 97.6591,0 97.6592,0 97.6591,0 97.6592,0 97.6591,0 96.9902,0 97.6592,0 97.6591,0 97.6592,0 97.6591,0 97.6591,0.6689 97.6592,0 96.9902,0 97.6592,0 97.6591,0 97.6592,0 97.6591,0 97.6591,0 96.9903,0 97.6591,0 97.6592,0 97.6591,0 97.6591,0 97.6592,0 96.9902,0 97.6592,0 97.6591,0 97.6591,0 97.6592,0 97.6591,0 96.9903,0 96.9902,0 97.6592,0 97.6591,0 97.6591,0 97.6592,0 97.6591,0 96.9903,0 97.6591,0 97.6591,0 97.6592,0 97.6591,0 97.6592,0 96.9902,0 97.6592,0 97.6591,0 97.6591,0 97.6592,0 97.6591,0 96.9903,0 97.6591,0 97.6591,0 97.6592,0 97.6591,0 97.6592,0 97.6591,0" style="fill:none;stroke:#004586;stroke-width:53.51185989;stroke-linejoin:round"/><path id="path360" d="m 1001.3406,1869.2394 96.9903,0 97.6591,0 97.6592,0 97.6591,0 97.6592,3214.056 97.6591,2.6756 96.9902,0 97.6592,0 97.6591,0 97.6592,0 97.6591,0 97.6591,0 96.9903,0.6689 97.6591,0 97.6592,0 97.6591,0 97.6592,0 97.6591,0 96.9902,0 97.6592,0 97.6591,0 97.6592,0 97.6591,0 97.6591,0 97.6592,0 96.9902,0 97.6592,0 97.6591,0 97.6592,0 97.6591,0 97.6591,0 96.9903,0 97.6591,0 97.6592,0 97.6591,0 97.6591,0 97.6592,0 96.9902,0 97.6592,0 97.6591,0 97.6591,0 97.6592,0 97.6591,0 96.9903,0 96.9902,0 97.6592,0 97.6591,0 97.6591,0 97.6592,0 97.6591,0 96.9903,0 97.6591,0 97.6591,0 97.6592,0 97.6591,0 97.6592,0 96.9902,0 97.6592,0 97.6591,0 97.6591,0 97.6592,0 97.6591,0 96.9903,0 97.6591,0 97.6591,0 97.6592,0 97.6591,0 97.6592,0 97.6591,0" style="fill:none;stroke:#ff420e;stroke-width:53.51185989;stroke-linejoin:round"/><path id="path362" d="m 1001.3406,1869.2394 96.9903,0 97.6591,0 97.6592,0 97.6591,0 97.6592,3216.7316 97.6591,0 96.9902,0 97.6592,0 97.6591,0.6689 97.6592,0 97.6591,0 97.6591,0 96.9903,0 97.6591,0 97.6592,0 97.6591,0 97.6592,0 97.6591,0 96.9902,0 97.6592,0 97.6591,0 97.6592,0 97.6591,0 97.6591,0 97.6592,0 96.9902,0 97.6592,0 97.6591,0 97.6592,0 97.6591,0 97.6591,0 96.9903,0 97.6591,0 97.6592,0 97.6591,0 97.6591,0 97.6592,0 96.9902,0 97.6592,0 97.6591,0 97.6591,0 97.6592,0 97.6591,0 96.9903,0 96.9902,0 97.6592,0 97.6591,0 97.6591,0 97.6592,0 97.6591,0 96.9903,0 97.6591,0 97.6591,0 97.6592,0 97.6591,0 97.6592,0 96.9902,0 97.6592,0 97.6591,0 97.6591,0 97.6592,0 97.6591,0 96.9903,0 97.6591,0 97.6591,0 97.6592,0 97.6591,0 97.6592,0 97.6591,0" style="fill:none;stroke:#ffd320;stroke-width:53.51185989;stroke-linejoin:round"/><path id="path364" d="m 1001.3406,1869.2394 96.9903,0 97.6591,0 97.6592,0 97.6591,0 97.6592,3216.7316 97.6591,0 96.9902,0.6689 97.6592,0 97.6591,0 97.6592,0 97.6591,0 97.6591,0 96.9903,0 97.6591,0 97.6592,0 97.6591,0 97.6592,0 97.6591,0 96.9902,0 97.6592,0 97.6591,0 97.6592,0 97.6591,0 97.6591,0 97.6592,0 96.9902,0 97.6592,0 97.6591,0 97.6592,0 97.6591,0 97.6591,0 96.9903,0 97.6591,0 97.6592,0 97.6591,0 97.6591,0 97.6592,0 96.9902,0 97.6592,0 97.6591,0 97.6591,0 97.6592,0 97.6591,0 96.9903,0 96.9902,0 97.6592,0 97.6591,0 97.6591,0 97.6592,0 97.6591,0 96.9903,0 97.6591,0 97.6591,0 97.6592,0 97.6591,0 97.6592,0 96.9902,0 97.6592,0 97.6591,0 97.6591,0 97.6592,0 97.6591,0 96.9903,0 97.6591,0 97.6591,0 97.6592,0 97.6591,0 97.6592,0 97.6591,0" style="fill:none;stroke:#579d1c;stroke-width:53.51185989;stroke-linejoin:round"/><text id="text366" y="-.331" class="TextShape" style="font-size:8.02677917px"><tspan id="tspan368" class="TextParagraph" font-size="353" font-weight="400" style="font-weight:400;font-size:236.12107849px;font-family:'Liberation Sans'"><tspan id="tspan370" x="710.37" y="5167.577" class="TextPosition"><tspan id="tspan372" style="fill:#000;stroke:none">0</tspan></tspan></tspan></text><text id="text374" y="-.331" class="TextShape" style="font-size:8.02677917px"><tspan id="tspan376" class="TextParagraph" font-size="353" font-weight="400" style="font-weight:400;font-size:236.12107849px;font-family:'Liberation Sans'"><tspan id="tspan378" x="515.721" y="4523.428" class="TextPosition"><tspan id="tspan380" style="fill:#000;stroke:none">0,2</tspan></tspan></tspan></text><text id="text382" y="-.331" class="TextShape" style="font-size:8.02677917px"><tspan id="tspan384" class="TextParagraph" font-size="353" font-weight="400" style="font-weight:400;font-size:236.12107849px;font-family:'Liberation Sans'"><tspan id="tspan386" x="515.721" y="3879.948" class="TextPosition"><tspan id="tspan388" style="fill:#000;stroke:none">0,4</tspan></tspan></tspan></text><text id="text390" y="-.331" class="TextShape" style="font-size:8.02677917px"><tspan id="tspan392" class="TextParagraph" font-size="353" font-weight="400" style="font-weight:400;font-size:236.12107849px;font-family:'Liberation Sans'"><tspan id="tspan394" x="515.721" y="3236.468" class="TextPosition"><tspan id="tspan396" style="fill:#000;stroke:none">0,6</tspan></tspan></tspan></text><text id="text398" y="-.331" class="TextShape" style="font-size:8.02677917px"><tspan id="tspan400" class="TextParagraph" font-size="353" font-weight="400" style="font-weight:400;font-size:236.12107849px;font-family:'Liberation Sans'"><tspan id="tspan402" x="515.721" y="2592.987" class="TextPosition"><tspan id="tspan404" style="fill:#000;stroke:none">0,8</tspan></tspan></tspan></text><text id="text406" y="-.331" class="TextShape" style="font-size:8.02677917px"><tspan id="tspan408" class="TextParagraph" font-size="353" font-weight="400" style="font-weight:400;font-size:236.12107849px;font-family:'Liberation Sans'"><tspan id="tspan410" x="710.37" y="1949.507" class="TextPosition"><tspan id="tspan412" style="fill:#000;stroke:none">1</tspan></tspan></tspan></text><text id="text414" y="-.331" class="TextShape" style="font-size:8.02677917px"><tspan id="tspan416" class="TextParagraph" font-size="353" font-weight="400" style="font-weight:400;font-size:236.12107849px;font-family:'Liberation Sans'"><tspan id="tspan418" x="515.721" y="1305.358" class="TextPosition"><tspan id="tspan420" style="fill:#000;stroke:none">1,2</tspan></tspan></tspan></text><text id="text422" y="-.331" class="TextShape" style="font-size:8.02677917px"><tspan id="tspan424" class="TextParagraph" font-size="459" font-weight="400" style="font-weight:400;font-size:307.02429199px;font-family:'Liberation Sans'"><tspan id="tspan426" x="2608.034" y="568.232" class="TextPosition"><tspan id="tspan428" style="fill:#000;stroke:none">Exponential distance - varying rolloff factor</tspan></tspan></tspan></text><path id="path430" d="m 8237.4817,1842.4835 535.1186,0" style="fill:none;stroke:#004586;stroke-width:53.51185989;stroke-linejoin:round"/><path id="path432" d="m 9438.154,1842.4835 535.1186,0" style="fill:none;stroke:#ff420e;stroke-width:53.51185989;stroke-linejoin:round"/><path id="path434" d="m 8237.4817,2175.5948 535.1186,0" style="fill:none;stroke:#ffd320;stroke-width:53.51185989;stroke-linejoin:round"/><path id="path436" d="m 9438.154,2175.5948 535.1186,0" style="fill:none;stroke:#579d1c;stroke-width:53.51185989;stroke-linejoin:round"/><path id="path438" d="m 8237.4817,2508.7061 535.1186,0" style="fill:none;stroke:#7e0021;stroke-width:53.51185989;stroke-linejoin:round"/><path id="path440" d="m 9438.154,2508.7061 535.1186,0" style="fill:none;stroke:#83caff;stroke-width:53.51185989;stroke-linejoin:round"/><path id="path442" d="m 8237.4817,2841.8175 535.1186,0" style="fill:none;stroke:#314004;stroke-width:53.51185989;stroke-linejoin:round"/><path id="path444" d="m 9438.154,2841.8175 535.1186,0" style="fill:none;stroke:#aecf00;stroke-width:53.51185989;stroke-linejoin:round"/><path id="path446" d="m 8237.4817,3174.2599 535.1186,0" style="fill:none;stroke:#4b1f6f;stroke-width:53.51185989;stroke-linejoin:round"/><path id="path448" d="m 9438.154,3174.2599 535.1186,0" style="fill:none;stroke:#ff950e;stroke-width:53.51185989;stroke-linejoin:round"/><path id="path450" d="m 8237.4817,3507.3712 535.1186,0" style="fill:none;stroke:#c5000b;stroke-width:53.51185989;stroke-linejoin:round"/><path id="path452" d="m 9438.154,3507.3712 535.1186,0" style="fill:none;stroke:#0084d1;stroke-width:53.51185989;stroke-linejoin:round"/><path id="path454" d="m 8237.4817,3840.4825 535.1186,0" style="fill:none;stroke:#004586;stroke-width:53.51185989;stroke-linejoin:round"/><path id="path456" d="m 9438.154,3840.4825 535.1186,0" style="fill:none;stroke:#ff420e;stroke-width:53.51185989;stroke-linejoin:round"/><path id="path458" d="m 8237.4817,4173.5938 535.1186,0" style="fill:none;stroke:#ffd320;stroke-width:53.51185989;stroke-linejoin:round"/><path id="path460" d="m 9438.154,4173.5938 535.1186,0" style="fill:none;stroke:#579d1c;stroke-width:53.51185989;stroke-linejoin:round"/><text id="text462" y="-.331" class="TextShape" style="font-size:8.02677917px"><tspan id="tspan464" class="TextParagraph" font-size="353" font-weight="400" style="font-weight:400;font-size:236.12107849px;font-family:'Liberation Sans'"><tspan id="tspan466" x="8839.49" y="1922.751" class="TextPosition"><tspan id="tspan468" style="fill:#000;stroke:none">0</tspan></tspan></tspan></text><text id="text470" y="-.331" class="TextShape" style="font-size:8.02677917px"><tspan id="tspan472" class="TextParagraph" font-size="353" font-weight="400" style="font-weight:400;font-size:236.12107849px;font-family:'Liberation Sans'"><tspan id="tspan474" x="10040.162" y="1922.751" class="TextPosition"><tspan id="tspan476" style="fill:#000;stroke:none">0,1</tspan></tspan></tspan></text><text id="text478" y="-.331" class="TextShape" style="font-size:8.02677917px"><tspan id="tspan480" class="TextParagraph" font-size="353" font-weight="400" style="font-weight:400;font-size:236.12107849px;font-family:'Liberation Sans'"><tspan id="tspan482" x="8839.49" y="2255.863" class="TextPosition"><tspan id="tspan484" style="fill:#000;stroke:none">0,2</tspan></tspan></tspan></text><text id="text486" y="-.331" class="TextShape" style="font-size:8.02677917px"><tspan id="tspan488" class="TextParagraph" font-size="353" font-weight="400" style="font-weight:400;font-size:236.12107849px;font-family:'Liberation Sans'"><tspan id="tspan490" x="10040.162" y="2255.863" class="TextPosition"><tspan id="tspan492" style="fill:#000;stroke:none">0,3</tspan></tspan></tspan></text><text id="text494" y="-.331" class="TextShape" style="font-size:8.02677917px"><tspan id="tspan496" class="TextParagraph" font-size="353" font-weight="400" style="font-weight:400;font-size:236.12107849px;font-family:'Liberation Sans'"><tspan id="tspan498" x="8839.49" y="2588.974" class="TextPosition"><tspan id="tspan500" style="fill:#000;stroke:none">0,5</tspan></tspan></tspan></text><text id="text502" y="-.331" class="TextShape" style="font-size:8.02677917px"><tspan id="tspan504" class="TextParagraph" font-size="353" font-weight="400" style="font-weight:400;font-size:236.12107849px;font-family:'Liberation Sans'"><tspan id="tspan506" x="10040.162" y="2588.974" class="TextPosition"><tspan id="tspan508" style="fill:#000;stroke:none">0,8</tspan></tspan></tspan></text><text id="text510" y="-.331" class="TextShape" style="font-size:8.02677917px"><tspan id="tspan512" class="TextParagraph" font-size="353" font-weight="400" style="font-weight:400;font-size:236.12107849px;font-family:'Liberation Sans'"><tspan id="tspan514" x="8839.49" y="2922.085" class="TextPosition"><tspan id="tspan516" style="fill:#000;stroke:none">1,3</tspan></tspan></tspan></text><text id="text518" y="-.331" class="TextShape" style="font-size:8.02677917px"><tspan id="tspan520" class="TextParagraph" font-size="353" font-weight="400" style="font-weight:400;font-size:236.12107849px;font-family:'Liberation Sans'"><tspan id="tspan522" x="10040.162" y="2922.085" class="TextPosition"><tspan id="tspan524" style="fill:#000;stroke:none">2,1</tspan></tspan></tspan></text><text id="text526" y="-.331" class="TextShape" style="font-size:8.02677917px"><tspan id="tspan528" class="TextParagraph" font-size="353" font-weight="400" style="font-weight:400;font-size:236.12107849px;font-family:'Liberation Sans'"><tspan id="tspan530" x="8839.49" y="3254.528" class="TextPosition"><tspan id="tspan532" style="fill:#000;stroke:none">3,4</tspan></tspan></tspan></text><text id="text534" y="-.331" class="TextShape" style="font-size:8.02677917px"><tspan id="tspan536" class="TextParagraph" font-size="353" font-weight="400" style="font-weight:400;font-size:236.12107849px;font-family:'Liberation Sans'"><tspan id="tspan538" x="10040.162" y="3254.528" class="TextPosition"><tspan id="tspan540" style="fill:#000;stroke:none">5,5</tspan></tspan></tspan></text><text id="text542" y="-.331" class="TextShape" style="font-size:8.02677917px"><tspan id="tspan544" class="TextParagraph" font-size="353" font-weight="400" style="font-weight:400;font-size:236.12107849px;font-family:'Liberation Sans'"><tspan id="tspan546" x="8839.49" y="3587.639" class="TextPosition"><tspan id="tspan548" style="fill:#000;stroke:none">8,9</tspan></tspan></tspan></text><text id="text550" y="-.331" class="TextShape" style="font-size:8.02677917px"><tspan id="tspan552" class="TextParagraph" font-size="353" font-weight="400" style="font-weight:400;font-size:236.12107849px;font-family:'Liberation Sans'"><tspan id="tspan554" x="10040.162" y="3587.639" class="TextPosition"><tspan id="tspan556" style="fill:#000;stroke:none">14,4</tspan></tspan></tspan></text><text id="text558" y="-.331" class="TextShape" style="font-size:8.02677917px"><tspan id="tspan560" class="TextParagraph" font-size="353" font-weight="400" style="font-weight:400;font-size:236.12107849px;font-family:'Liberation Sans'"><tspan id="tspan562" x="8839.49" y="3920.75" class="TextPosition"><tspan id="tspan564" style="fill:#000;stroke:none">23,3</tspan></tspan></tspan></text><text id="text566" y="-.331" class="TextShape" style="font-size:8.02677917px"><tspan id="tspan568" class="TextParagraph" font-size="353" font-weight="400" style="font-weight:400;font-size:236.12107849px;font-family:'Liberation Sans'"><tspan id="tspan570" x="10040.162" y="3920.75" class="TextPosition"><tspan id="tspan572" style="fill:#000;stroke:none">37,7</tspan></tspan></tspan></text><text id="text574" y="-.331" class="TextShape" style="font-size:8.02677917px"><tspan id="tspan576" class="TextParagraph" font-size="353" font-weight="400" style="font-weight:400;font-size:236.12107849px;font-family:'Liberation Sans'"><tspan id="tspan578" x="8839.49" y="4253.862" class="TextPosition"><tspan id="tspan580" style="fill:#000;stroke:none">61</tspan></tspan></tspan></text><text id="text582" y="-.331" class="TextShape" style="font-size:8.02677917px"><tspan id="tspan584" class="TextParagraph" font-size="353" font-weight="400" style="font-weight:400;font-size:236.12107849px;font-family:'Liberation Sans'"><tspan id="tspan586" x="10040.162" y="4253.862" class="TextPosition"><tspan id="tspan588" style="fill:#000;stroke:none">98,7</tspan></tspan></tspan></text></svg>